<?xml version="1.0" encoding="UTF-8"?>
<svg width="1px" height="268px" viewBox="0 0 1 268" version="1.1" xmlns="http://www.w3.org/2000/svg" xmlns:xlink="http://www.w3.org/1999/xlink">
    <title>Line 6</title>
    <g id="Page-1" stroke="none" stroke-width="1" fill="none" fill-rule="evenodd">
        <g id="About-us" transform="translate(-920.000000, -1736.000000)" fill="#EBEEF0" fill-rule="nonzero">
            <g id="Body" transform="translate(0.000000, 924.000000)">
                <g id="Awards" transform="translate(230.000000, 482.000000)">
                    <path d="M691,330.5 L690,330.5 L690,333.5 L691,333.5 L691,330.5 Z M691,338.5 L690,338.5 L690,341.5 L691,341.5 L691,338.5 Z M691,346.5 L690,346.5 L690,349.5 L691,349.5 L691,346.5 Z M691,354.5 L690,354.5 L690,357.5 L691,357.5 L691,354.5 Z M691,362.5 L690,362.5 L690,365.5 L691,365.5 L691,362.5 Z M691,370.5 L690,370.5 L690,373.5 L691,373.5 L691,370.5 Z M691,378.5 L690,378.5 L690,381.5 L691,381.5 L691,378.5 Z M691,386.5 L690,386.5 L690,389.5 L691,389.5 L691,386.5 Z M691,394.5 L690,394.5 L690,397.5 L691,397.5 L691,394.5 Z M691,402.5 L690,402.5 L690,405.5 L691,405.5 L691,402.5 Z M691,410.5 L690,410.5 L690,413.5 L691,413.5 L691,410.5 Z M691,418.5 L690,418.5 L690,421.5 L691,421.5 L691,418.5 Z M691,426.5 L690,426.5 L690,429.5 L691,429.5 L691,426.5 Z M691,434.5 L690,434.5 L690,437.5 L691,437.5 L691,434.5 Z M691,442.5 L690,442.5 L690,445.5 L691,445.5 L691,442.5 Z M691,450.5 L690,450.5 L690,453.5 L691,453.5 L691,450.5 Z M691,458.5 L690,458.5 L690,461.5 L691,461.5 L691,458.5 Z M691,466.5 L690,466.5 L690,469.5 L691,469.5 L691,466.5 Z M691,474.5 L690,474.5 L690,477.5 L691,477.5 L691,474.5 Z M691,482.5 L690,482.5 L690,485.5 L691,485.5 L691,482.5 Z M691,490.5 L690,490.5 L690,493.5 L691,493.5 L691,490.5 Z M691,498.5 L690,498.5 L690,501.5 L691,501.5 L691,498.5 Z M691,506.5 L690,506.5 L690,509.5 L691,509.5 L691,506.5 Z M691,514.5 L690,514.5 L690,517.5 L691,517.5 L691,514.5 Z M691,522.5 L690,522.5 L690,525.5 L691,525.5 L691,522.5 Z M691,530.5 L690,530.5 L690,533.5 L691,533.5 L691,530.5 Z M691,538.5 L690,538.5 L690,541.5 L691,541.5 L691,538.5 Z M691,546.5 L690,546.5 L690,549.5 L691,549.5 L691,546.5 Z M691,554.5 L690,554.5 L690,557.5 L691,557.5 L691,554.5 Z M691,562.5 L690,562.5 L690,565.5 L691,565.5 L691,562.5 Z M691,570.5 L690,570.5 L690,573.5 L691,573.5 L691,570.5 Z M691,578.5 L690,578.5 L690,581.5 L691,581.5 L691,578.5 Z M691,586.5 L690,586.5 L690,589.5 L691,589.5 L691,586.5 Z M691,594.5 L690,594.5 L690,597.5 L691,597.5 L691,594.5 Z" id="Line-6"></path>
                </g>
            </g>
        </g>
    </g>
</svg>