<?xml version="1.0" standalone="no"?>
<!DOCTYPE svg PUBLIC "-//W3C//DTD SVG 1.1//EN" "http://www.w3.org/Graphics/SVG/1.1/DTD/svg11.dtd" >
<svg xmlns="http://www.w3.org/2000/svg" xmlns:xlink="http://www.w3.org/1999/xlink" version="1.1">
<metadata>
Created by FontForge 20170924 at Thu Sep 12 10:28:20 2019
 By www-data
 Desktop use is strictly prohibited.
</metadata>
<defs>
<font id="AlbraTextMedium" horiz-adv-x="1101" >
  <font-face 
    font-family="Albra Text Medium"
    font-weight="500"
    font-stretch="normal"
    units-per-em="2048"
    panose-1="0 0 6 0 0 0 0 0 0 0"
    ascent="1610"
    descent="-438"
    x-height="985"
    cap-height="1462"
    bbox="-287 -500 2699 2216"
    underline-thickness="0"
    underline-position="0"
    unicode-range="U+0020-2212"
  />
<missing-glyph horiz-adv-x="1781" 
 />
    <glyph glyph-name="f_f.liga" unicode="ff" horiz-adv-x="1357" 
d="M1065 1450l1 -3c-45 0 -68 -38 -68 -114s20 -193 60 -350h274l-24 -90h-250v-641c0 -77 10 -128 29 -153s62 -50 129 -74v-27h-540v27c57 25 94 50 110 75s24 76 24 153v641h-399v-641c0 -77 8 -128 24 -153s53 -50 110 -74v-27h-518v27c57 25 94 50 110 75s24 76 24 153
v641h-127v90h127v29c0 169 36 296 108 381s171 127 296 127c77 0 160 -10 250 -31l-104 -180h-23c-65 86 -128 129 -189 129c-69 0 -104 -74 -105 -223c0 -56 6 -133 17 -232h399v88c0 311 98 467 293 467c85 0 190 -28 315 -84l-160 -182l-22 8c-55 112 -112 168 -171 168z
" />
    <glyph glyph-name="f_i.liga" unicode="fi" horiz-adv-x="1202" 
d="M1044 254l-3 -2c0 -77 8 -128 25 -153s54 -50 111 -74v-27h-518v27c57 25 94 50 110 75s24 76 24 153v643h-385v-643c0 -77 10 -128 29 -153s62 -50 129 -74v-27h-542v27c59 25 97 50 113 75s24 76 24 153v643h-129v88h129v35c0 85 10 159 30 223s44 115 73 152
s63 67 103 90s76 38 109 45s67 11 102 11c111 0 241 -33 390 -100l-156 -230h-6c-77 168 -155 252 -234 252c-42 0 -79 -23 -111 -69s-48 -117 -48 -214v-195h385c91 0 173 10 246 29v-760z" />
    <glyph glyph-name="f_l.liga" unicode="fl" horiz-adv-x="1218" 
d="M1061 254l3 -1c0 -77 8 -128 24 -153s53 -50 110 -74v-27h-518v27c57 25 94 50 110 75s24 76 24 153v1098c-71 74 -145 111 -222 110c-121 0 -182 -87 -182 -260v-217h290l-4 -88h-286v-643c0 -77 10 -128 30 -153s65 -50 134 -74v-27h-546v27c57 25 94 50 110 75
s24 76 24 153v643h-131v88h131v72c0 89 13 166 39 231s61 115 105 150s90 61 138 77s99 24 152 24c83 0 184 -18 303 -53l162 43v-1276z" />
    <glyph glyph-name=".notdef" horiz-adv-x="1781" 
 />
    <glyph glyph-name="space" unicode=" " horiz-adv-x="462" 
 />
    <glyph glyph-name="exclam" unicode="!" horiz-adv-x="491" 
d="M207 418v1c-34 445 -65 788 -94 1028v18h270v-18c-35 -325 -67 -668 -96 -1029h-80zM247 -13h1c-40 0 -74 14 -103 42s-43 61 -43 99s14 71 43 100s63 43 103 43c38 0 72 -14 101 -43s44 -62 44 -100s-14 -71 -43 -99s-63 -42 -103 -42z" />
    <glyph glyph-name="quotedbl" unicode="&#x22;" horiz-adv-x="638" 
d="M190 952l-48 -1c-29 197 -58 368 -87 513h226c-27 -121 -57 -292 -91 -512zM501 949l-48 -1c-25 175 -55 346 -90 513h226c-30 -139 -59 -310 -88 -512z" />
    <glyph glyph-name="numbersign" unicode="#" horiz-adv-x="1282" 
d="M1235 838h-299l-119 -334h281l-8 -86h-304l-147 -418h-88l147 418h-309l-151 -418h-88l151 418h-258l8 86h281l121 334h-265l9 86h288l144 397h88l-144 -397h306l141 397h88l-141 -397h276zM729 504l119 334h-307l-121 -334h309z" />
    <glyph glyph-name="dollar" unicode="$" horiz-adv-x="1161" 
d="M1065 389v3c0 -133 -42 -234 -127 -303s-187 -107 -307 -113v-161h-84v163c-129 13 -266 55 -412 126l-24 377h26c48 -98 108 -185 180 -262s149 -123 230 -138v526l-25 15c-55 31 -96 55 -123 72s-61 41 -102 72s-71 60 -91 87s-37 61 -52 101s-22 82 -22 127
c0 113 39 204 118 272s178 105 298 110v146h84v-148c107 -9 214 -34 321 -75l39 -366h-26c-41 79 -91 151 -150 215s-120 106 -184 125v-475l22 -13c59 -33 105 -59 137 -78s69 -44 110 -75s72 -61 92 -90s37 -64 51 -105s21 -86 21 -135zM356 1183h-1c0 -48 14 -90 43 -126
s78 -75 148 -118v434c-57 -4 -103 -23 -138 -56s-52 -78 -52 -134zM630 79v1c61 5 109 26 144 62s52 83 52 140c0 98 -65 190 -196 276v-479z" />
    <glyph glyph-name="percent" unicode="%" horiz-adv-x="1933" 
d="M498 -39l-68 37l997 1501l66 -39zM453 539l1 -1c-115 0 -209 42 -282 127s-109 193 -109 325c0 130 36 241 107 333s166 138 285 138c120 0 216 -44 287 -131s107 -195 107 -323s-36 -238 -108 -330s-168 -138 -288 -138zM482 605v-1c52 0 96 27 131 81s53 132 53 235
c0 73 -8 144 -24 213s-42 130 -79 183s-81 79 -132 79c-52 0 -96 -27 -131 -81s-53 -133 -53 -237c0 -115 21 -222 62 -322s99 -150 173 -150zM1484 911l-3 1c119 0 214 -44 285 -131s107 -194 107 -321c0 -129 -35 -240 -106 -333s-166 -139 -286 -139
c-115 0 -209 43 -282 128s-109 194 -109 326c0 130 36 241 107 332s167 137 287 137zM1454 845v1c-53 0 -97 -27 -132 -81s-52 -132 -52 -235c0 -116 21 -224 62 -324s98 -150 171 -150c52 0 96 27 132 80s54 132 54 236c0 73 -8 144 -24 213s-42 130 -79 182
s-81 78 -132 78z" />
    <glyph glyph-name="ampersand" unicode="&#x26;" horiz-adv-x="1587" 
d="M528 -25h3c-141 0 -254 33 -339 99s-128 153 -128 261c0 103 38 188 115 255s180 124 309 172c-137 168 -205 304 -204 409c0 87 36 162 107 225s163 95 276 95c108 0 195 -29 261 -86s99 -125 99 -203c0 -117 -92 -236 -276 -357l356 -418c51 75 85 160 102 254
c1 5 2 10 2 15c0 75 -41 126 -123 152v41h412v-41c-51 -21 -90 -46 -117 -75s-57 -74 -90 -134c-49 -129 -93 -223 -131 -282l135 -151c35 -39 70 -59 105 -60c52 0 97 40 135 121l29 -8c-18 -73 -52 -139 -102 -198s-113 -89 -190 -89c-52 0 -98 16 -139 47
s-91 80 -150 147c-119 -127 -271 -191 -457 -191zM708 895h1c87 86 131 187 131 303c0 69 -17 121 -51 156s-72 53 -115 53c-41 0 -77 -15 -109 -46s-48 -72 -48 -123c0 -48 16 -97 47 -148s79 -116 144 -195zM639 127l-1 1c115 0 211 37 289 111l-392 467
c-146 -74 -219 -172 -219 -293c0 -81 30 -149 89 -204s137 -82 234 -82z" />
    <glyph glyph-name="quotesingle" unicode="'" horiz-adv-x="329" 
d="M190 952l-48 -1c-29 197 -58 368 -87 513h226c-27 -121 -57 -292 -91 -512z" />
    <glyph glyph-name="parenleft" unicode="(" horiz-adv-x="737" 
d="M305 606l-2 -1c0 -125 10 -238 31 -340s51 -191 90 -268s80 -142 122 -196s93 -109 153 -164l-20 -33c-381 220 -571 554 -571 1001s190 780 571 1000l20 -31c-125 -117 -222 -248 -291 -394s-103 -337 -103 -574z" />
    <glyph glyph-name="parenright" unicode=")" horiz-adv-x="737" 
d="M63 1606l-1 -2c381 -221 572 -554 573 -999c0 -447 -191 -781 -572 -1002l-20 33c59 56 109 111 151 165s83 119 123 196s70 166 90 268s30 216 30 341c0 124 -10 237 -30 340s-50 193 -90 269s-81 141 -123 195s-92 109 -151 165z" />
    <glyph glyph-name="asterisk" unicode="*" horiz-adv-x="970" 
d="M913 1087l-18 -6l-350 -18l270 -219l10 -15l-190 -135l-10 13l-136 325l-137 -325l-10 -13l-192 133l12 15l268 217l-350 22l-17 4l74 222l17 -7l299 -176l-84 322v18h237v-18l-86 -326l303 180l19 7z" />
    <glyph glyph-name="plus" unicode="+" horiz-adv-x="929" 
d="M893 729v-88h-383v-373h-84v373h-383v88h383v369h84v-369h383z" />
    <glyph glyph-name="comma" unicode="," horiz-adv-x="503" 
d="M252 274l-1 -2c39 0 73 -15 101 -45s42 -74 42 -131c0 -68 -21 -139 -64 -214s-107 -134 -193 -178l-14 31c79 73 130 160 153 262h-20c-39 0 -73 13 -101 40s-42 60 -42 98s14 71 41 98s60 41 98 41z" />
    <glyph glyph-name="hyphen" unicode="-" horiz-adv-x="759" 
d="M680 598v-113h-596v113h596z" />
    <glyph glyph-name="period" unicode="." horiz-adv-x="509" 
d="M256 -14c-39 0 -73 14 -101 42s-42 62 -42 101s14 73 42 102s62 43 101 43s73 -14 102 -43s43 -63 43 -102s-14 -73 -43 -101s-63 -42 -102 -42z" />
    <glyph glyph-name="slash" unicode="/" horiz-adv-x="729" 
d="M12 -240l592 1821h86l-594 -1821h-84z" />
    <glyph glyph-name="zero" unicode="0" horiz-adv-x="1175" 
d="M592 -27l-2 1c-143 0 -266 67 -369 202s-154 316 -154 543c0 225 52 406 155 542s225 204 366 204c142 0 264 -69 366 -207s153 -320 153 -547c0 -224 -50 -403 -151 -537s-222 -201 -364 -201zM588 64l-1 1c82 0 147 59 195 176s72 277 72 480c0 216 -26 379 -78 489
s-117 165 -194 165c-75 0 -138 -55 -189 -166s-76 -274 -76 -489c0 -217 26 -381 77 -491s116 -165 194 -165z" />
    <glyph glyph-name="one" unicode="1" horiz-adv-x="741" 
d="M111 0l1 26c77 30 125 57 143 81s27 74 27 151v852c0 51 -13 88 -40 112s-81 48 -162 73v23l444 158v-1217c0 -77 9 -127 28 -151s66 -51 142 -81v-27h-583z" />
    <glyph glyph-name="two" unicode="2" horiz-adv-x="1024" 
d="M659 217l-1 1c77 0 134 11 170 33s78 66 125 133l27 -4l-117 -379h-844v45c219 220 380 408 482 564s153 293 153 412c0 87 -22 156 -66 206s-99 75 -164 75c-56 0 -115 -19 -176 -58s-116 -88 -165 -147l-33 22c55 98 125 180 210 246s176 99 273 99s180 -33 249 -100
s104 -158 104 -273c0 -116 -45 -241 -135 -374s-243 -300 -460 -501h368z" />
    <glyph glyph-name="three" unicode="3" horiz-adv-x="1064" 
d="M88 1167h-4c65 91 140 163 224 216s173 79 268 79s173 -25 234 -76s91 -118 91 -201c0 -149 -105 -269 -315 -360v-2c19 4 39 6 59 6c89 0 170 -33 242 -100s108 -163 108 -288c0 -145 -50 -259 -151 -342s-221 -125 -360 -125c-68 0 -142 10 -222 29s-144 39 -193 59
l108 246l23 -8c29 -63 69 -118 121 -165s111 -70 177 -70c77 0 141 32 193 95s78 143 78 240c0 93 -24 169 -73 227s-116 87 -201 87c-57 0 -118 -14 -183 -41l-24 57c139 68 240 133 303 194s94 128 94 200c0 61 -19 107 -57 138s-90 47 -157 47c-130 0 -247 -57 -352 -170
z" />
    <glyph glyph-name="four" unicode="4" horiz-adv-x="1177" 
d="M1108 416h-203v-158c0 -77 9 -127 28 -151s66 -51 142 -81v-27h-567v27c77 30 125 57 143 81s27 74 27 151v158h-625v65l764 977h88v-919h223zM209 539h469v614z" />
    <glyph glyph-name="five" unicode="5" horiz-adv-x="1091" 
d="M522 903l3 -3c135 0 246 -43 333 -129s131 -195 131 -328c0 -145 -52 -260 -156 -345s-223 -128 -358 -128c-123 0 -258 32 -405 97l98 280l27 -6c75 -191 170 -287 285 -287c68 0 131 31 189 93s87 150 87 265s-30 200 -90 255s-136 83 -229 83
c-108 0 -211 -28 -309 -84l184 770h439c17 0 32 1 45 2s25 2 35 3s20 3 30 7s18 7 24 8s14 6 23 14s15 13 18 14s10 7 20 17s16 17 18 20s8 11 18 25s16 22 19 25l25 -4l-125 -344h-545l-86 -373c77 35 161 53 252 53z" />
    <glyph glyph-name="six" unicode="6" horiz-adv-x="1140" 
d="M649 834l-2 -1c123 0 224 -38 304 -114s120 -173 120 -292c0 -130 -47 -238 -141 -325s-214 -130 -359 -130c-65 0 -126 10 -183 30s-110 51 -160 92s-89 98 -118 170s-43 157 -43 254c0 120 23 234 69 341s108 200 187 278s169 145 270 200s209 95 324 121l8 -41
c-163 -71 -298 -169 -405 -294s-176 -267 -207 -427c91 92 203 138 336 138zM578 56l-1 -1c71 0 132 30 183 90s77 138 77 233c0 90 -24 167 -72 231s-118 96 -209 96c-103 0 -190 -41 -262 -123c-1 -17 -2 -42 -2 -75c0 -129 26 -236 79 -322s122 -129 207 -129z" />
    <glyph glyph-name="seven" unicode="7" horiz-adv-x="1046" 
d="M238 0l1 -1c81 418 262 818 543 1200h-428c-81 0 -139 -11 -174 -33s-74 -66 -118 -133l-26 4l110 400h875v-37c-176 -211 -302 -422 -379 -634s-134 -467 -171 -766h-233z" />
    <glyph glyph-name="eight" unicode="8" horiz-adv-x="1093" 
d="M551 -27l-2 -3c-134 0 -248 36 -342 107s-141 166 -141 285c0 91 28 169 85 234s128 116 213 153c-163 81 -244 198 -244 351c0 112 42 200 127 265s187 97 306 97c115 0 213 -30 294 -89s122 -132 122 -219c0 -124 -88 -239 -264 -344c38 -19 70 -37 96 -54
s59 -43 99 -78s71 -77 93 -127s33 -105 33 -165c0 -121 -45 -220 -134 -297s-203 -116 -341 -116zM641 841h-2c48 38 86 83 113 136s41 106 41 159c0 71 -23 129 -69 175s-104 69 -173 69c-65 0 -119 -20 -161 -60s-63 -89 -63 -148c0 -64 25 -120 75 -169
s130 -103 239 -162zM549 54l-2 -2c78 0 141 23 188 70s71 106 71 177c0 78 -32 149 -97 214s-163 131 -294 198c-45 -29 -84 -72 -117 -130s-50 -125 -50 -202c0 -97 28 -175 85 -235s129 -90 216 -90z" />
    <glyph glyph-name="nine" unicode="9" horiz-adv-x="1140" 
d="M567 1464l-2 1c141 0 261 -44 359 -132s147 -224 147 -408c0 -121 -23 -236 -69 -344s-109 -201 -189 -280s-170 -146 -270 -201s-207 -95 -320 -120l-10 40c163 71 298 169 405 294s176 267 207 426c-93 -90 -204 -135 -333 -135c-123 0 -224 38 -304 114
s-120 173 -120 292c0 130 47 238 142 324s214 129 357 129zM580 736v2c97 0 184 40 261 119c0 1 0 8 1 20s1 20 1 24c0 147 -26 264 -77 351s-119 131 -204 131c-73 0 -135 -30 -187 -89s-78 -136 -78 -231c0 -90 24 -167 73 -231s119 -96 210 -96z" />
    <glyph glyph-name="colon" unicode=":" horiz-adv-x="471" 
d="M237 680h1c-40 0 -74 14 -103 43s-43 63 -43 103s14 74 43 103s63 43 103 43c38 0 72 -14 101 -43s44 -63 44 -103s-14 -74 -43 -103s-63 -43 -103 -43zM238 -18h1c-40 0 -74 14 -103 43s-43 63 -43 102s14 73 43 102s63 43 103 43c38 0 72 -15 101 -44s44 -63 44 -101
c0 -39 -14 -73 -43 -102s-63 -43 -103 -43z" />
    <glyph glyph-name="semicolon" unicode=";" horiz-adv-x="489" 
d="M237 680h1c-40 0 -74 14 -103 43s-43 63 -43 103s14 74 43 103s63 43 103 43c38 0 72 -14 101 -43s44 -63 44 -103s-14 -74 -43 -103s-63 -43 -103 -43zM258 274l-1 -2c38 0 71 -15 100 -46s43 -74 43 -130c0 -68 -21 -139 -64 -214s-107 -134 -193 -178l-16 31
c81 71 133 158 156 262h-21c-41 0 -75 13 -103 40s-42 60 -42 98s14 71 42 98s61 41 99 41z" />
    <glyph glyph-name="less" unicode="&#x3c;" horiz-adv-x="907" 
d="M870 250l-827 434v47l827 438v-94l-696 -370l696 -361v-94z" />
    <glyph glyph-name="equal" unicode="=" horiz-adv-x="843" 
d="M59 764v86h727v-86h-727zM59 510v88h727v-88h-727z" />
    <glyph glyph-name="greater" unicode="&#x3e;" horiz-adv-x="907" 
d="M43 250v94l696 361l-696 370v94l827 -438v-47z" />
    <glyph glyph-name="question" unicode="?" horiz-adv-x="921" 
d="M324 420l-4 -1c4 83 23 163 58 239s72 137 111 183s74 99 105 158s47 116 47 172c0 64 -17 120 -51 167s-76 71 -127 71c-42 0 -82 -19 -121 -57s-68 -76 -88 -115s-37 -78 -50 -118l-19 -6l-125 236c121 95 259 143 414 143c116 0 211 -30 284 -89s110 -141 110 -245
c0 -60 -14 -116 -41 -169s-61 -100 -102 -141s-83 -81 -125 -121s-81 -86 -117 -139s-58 -109 -67 -168h-92zM387 -15c-40 0 -74 14 -103 42s-44 61 -44 99s15 71 44 100s63 43 102 43c38 0 72 -14 102 -43s45 -62 45 -100s-14 -71 -43 -99s-63 -42 -103 -42z" />
    <glyph glyph-name="at" unicode="@" horiz-adv-x="1529" 
d="M1343 -70l112 -140c-56 -33 -134 -64 -234 -93s-202 -44 -305 -44c-150 0 -289 33 -418 99s-233 161 -313 286s-120 267 -120 426c0 224 74 414 222 570s327 234 537 234c169 0 306 -51 411 -154s156 -228 153 -375l-15 -710h-28c-59 65 -109 98 -150 98
c-22 0 -47 -10 -76 -31s-64 -42 -105 -64s-86 -33 -136 -33c-112 0 -201 47 -267 140s-99 204 -99 333c0 135 36 251 108 348s168 146 287 146c108 0 203 -37 285 -111v10c0 71 -36 142 -109 213s-173 106 -300 106c-47 0 -92 -5 -135 -15s-89 -30 -138 -59
s-91 -66 -126 -112s-65 -109 -89 -189s-36 -171 -36 -273c0 -113 14 -216 42 -308s65 -167 110 -226s97 -108 156 -148s119 -68 179 -84s119 -24 178 -24c91 0 173 18 245 55s130 80 174 129zM1169 241l16 385c-22 61 -57 118 -105 171s-102 79 -162 79
c-59 0 -105 -29 -139 -86s-51 -144 -51 -261c0 -142 24 -247 72 -315s103 -102 164 -102c73 0 141 43 205 129z" />
    <glyph glyph-name="A" unicode="A" horiz-adv-x="1470" 
d="M1270 197l-1 1c9 -27 17 -47 23 -60s16 -27 29 -42s29 -28 48 -38s44 -20 75 -29v-27h-617v27c59 21 99 39 121 54s33 36 33 62c0 23 -10 61 -29 114l-77 219h-465l-15 -39c-49 -137 -73 -224 -72 -262c0 -35 10 -64 30 -86s55 -43 104 -63v-27h-428v27
c71 44 123 92 157 144s72 137 114 254l295 827l-66 131c103 41 186 84 249 129zM456 605h374l-188 531z" />
    <glyph glyph-name="B" unicode="B" horiz-adv-x="1368" 
d="M852 821l-2 -2c111 -18 208 -60 292 -127s126 -158 126 -274c0 -123 -50 -224 -150 -303s-235 -118 -404 -118h-672v27c55 21 92 39 112 54s34 36 43 63s14 70 14 130v920c0 60 -4 103 -13 130s-23 48 -43 63s-57 33 -112 54v26h678c154 0 271 -33 351 -99
s120 -144 120 -235c0 -85 -34 -152 -102 -201s-147 -82 -238 -100v-8zM645 1368h-156v-532h149c79 0 144 24 195 72s77 116 77 203c0 83 -23 147 -70 191s-112 66 -195 66zM675 100l1 -2c31 0 56 1 74 2s43 7 74 18s56 27 75 47s36 51 50 92s21 91 21 150
c0 119 -27 207 -80 265s-127 84 -221 77l-180 -13v-551c0 -23 16 -43 48 -60s76 -25 132 -25h6z" />
    <glyph glyph-name="C" unicode="C" horiz-adv-x="1402" 
d="M776 1397h-1c-109 0 -204 -57 -285 -171s-121 -274 -121 -481c0 -213 43 -379 128 -498s181 -178 288 -178c81 0 162 34 244 102s154 149 217 244h27l-41 -369c-151 -49 -304 -74 -459 -74c-206 0 -375 65 -507 194s-198 312 -198 549c0 239 67 428 201 567
s303 209 508 209c130 0 282 -25 457 -74l41 -364h-27c-63 93 -136 174 -219 242s-167 102 -253 102z" />
    <glyph glyph-name="D" unicode="D" horiz-adv-x="1495" 
d="M598 1464l-3 -3c273 0 480 -63 620 -189s210 -297 210 -512c0 -219 -66 -401 -199 -546s-311 -217 -535 -217h-649v27c55 21 92 39 112 54s34 36 43 63s14 70 14 130v920c0 60 -4 103 -13 130s-23 48 -43 63s-57 33 -112 54v26h555zM675 95l-1 -1c138 0 247 59 327 177
s120 276 120 474c0 206 -46 361 -137 465s-225 156 -402 156h-94v-1182c0 -23 16 -43 49 -59s79 -26 138 -30z" />
    <glyph glyph-name="E" unicode="E" horiz-adv-x="1304" 
d="M1178 385l24 -3l-49 -385h-1112v27c55 21 92 39 112 54s34 36 43 63s14 70 14 130v920c0 60 -4 103 -13 130s-23 48 -43 63s-57 33 -112 54v26h1038l37 -374h-26c-29 75 -76 140 -142 195s-150 83 -251 83h-206v-541h219c57 0 106 13 146 40s70 57 89 91h23v-368h-23
c-22 44 -53 81 -93 111s-87 44 -142 43l-219 -6v-549c0 -26 22 -48 66 -66s104 -27 180 -27h70c79 0 151 29 215 86s116 125 155 203z" />
    <glyph glyph-name="F" unicode="F" horiz-adv-x="1200" 
d="M1096 1464l34 -376h-27c-29 75 -76 140 -142 195s-149 83 -250 83h-221v-543h210c56 0 104 13 144 40s70 58 91 93h25v-368h-25c-22 42 -53 78 -93 109s-87 46 -142 45l-210 -6v-465c0 -45 2 -79 6 -103s15 -45 33 -63s38 -32 60 -42s59 -23 110 -39v-27h-657v27
c55 21 92 39 112 54s34 36 43 63s14 70 14 130v920c0 60 -4 103 -13 130s-23 48 -43 63s-57 33 -112 54v26h1053z" />
    <glyph glyph-name="G" unicode="G" horiz-adv-x="1550" 
d="M739 -27l-3 -2c-190 0 -349 65 -478 196s-193 314 -193 549c0 239 68 428 204 567s313 208 530 208c159 0 315 -28 468 -84l43 -365h-27c-150 236 -312 354 -485 355c-121 0 -223 -58 -306 -173s-125 -277 -125 -486c0 -216 43 -381 128 -495s187 -171 306 -171
c41 0 80 5 117 14s72 30 104 62s48 72 48 119v228c0 78 -17 135 -50 171s-101 56 -204 60v37h629v-27c-45 -29 -73 -56 -85 -81s-18 -79 -18 -162v-455h-24c-37 37 -80 55 -129 55c-27 0 -62 -10 -104 -30s-93 -40 -153 -60s-124 -30 -193 -30z" />
    <glyph glyph-name="H" unicode="H" horiz-adv-x="1605" 
d="M1567 1438l-3 -10c-77 -30 -124 -58 -142 -83s-27 -79 -27 -162v-920c0 -83 9 -137 27 -162s66 -52 143 -82v-27h-619v27c55 21 92 39 112 54s34 36 43 63s13 70 13 130v465h-624v-465c0 -83 9 -137 27 -162s66 -52 143 -82v-27h-619v27c55 21 92 39 112 54s34 36 43 63
s14 70 14 130v920c0 60 -4 103 -13 130s-23 48 -43 63s-57 33 -112 54v26h619v-26c-77 -30 -124 -58 -142 -83s-27 -79 -27 -162v-330h624v330c0 60 -4 103 -13 130s-23 48 -43 63s-57 33 -112 54v26h619v-26z" />
    <glyph glyph-name="I" unicode="I" horiz-adv-x="700" 
d="M43 0l-2 22c55 21 92 39 112 54s34 36 43 63s14 70 14 130v920c0 60 -4 103 -13 130s-23 48 -43 63s-57 33 -112 54v26h619v-26c-77 -30 -124 -58 -142 -83s-27 -79 -27 -162v-920c0 -83 9 -137 27 -162s66 -52 143 -82v-27h-619z" />
    <glyph glyph-name="J" unicode="J" horiz-adv-x="688" 
d="M51 -268l-12 29c112 65 168 163 168 293v1139c0 83 -9 137 -27 162s-65 53 -142 83v26h620v-26c-77 -30 -124 -58 -142 -83s-27 -79 -27 -162v-973c0 -78 -13 -147 -39 -206s-62 -107 -109 -143s-92 -64 -136 -84s-95 -38 -154 -55z" />
    <glyph glyph-name="K" unicode="K" horiz-adv-x="1480" 
d="M492 272l-2 -5c0 -83 9 -137 27 -162s66 -52 143 -82v-27h-619v27c55 21 92 39 112 54s34 36 43 63s14 70 14 130v920c0 60 -4 103 -13 130s-23 48 -43 63s-57 33 -112 54v26h619v-26c-77 -30 -124 -58 -142 -83s-27 -79 -27 -162v-920zM516 710l414 428
c65 67 98 127 98 180s-33 91 -98 114v26h495v-26c-113 -68 -235 -166 -366 -295l-303 -301l473 -647c68 -95 144 -150 227 -165v-29h-426z" />
    <glyph glyph-name="L" unicode="L" horiz-adv-x="1271" 
d="M1145 385l24 -3l-49 -385h-1079v27c55 21 92 39 112 54s34 36 43 63s14 70 14 130v920c0 60 -4 103 -13 130s-23 48 -43 63s-57 33 -112 54v26h619v-26c-77 -30 -124 -58 -142 -83s-27 -79 -27 -162v-1004c0 -26 22 -48 66 -66s104 -27 180 -27h37c79 0 151 29 215 86
s116 125 155 203z" />
    <glyph glyph-name="M" unicode="M" horiz-adv-x="1853" 
d="M1817 1438l-6 -3c-77 -30 -124 -58 -142 -83s-27 -79 -27 -162v-920c0 -83 9 -137 27 -162s66 -52 143 -82v-27h-621v27c77 30 125 58 143 83s27 79 27 162v918h-4c-206 -388 -369 -705 -488 -950h-43c-153 303 -316 605 -489 905v-723c0 -104 6 -179 18 -226
s30 -81 55 -102s69 -43 132 -66v-27h-502v27c63 23 107 45 132 66s43 55 55 102s18 123 18 227v856c-18 33 -46 65 -84 97s-76 57 -114 75v14h438c190 -332 344 -620 461 -864l461 864h410v-26z" />
    <glyph glyph-name="N" unicode="N" horiz-adv-x="1519" 
d="M1489 1464l5 -31c-63 -23 -107 -45 -132 -66s-43 -55 -55 -102s-18 -122 -18 -226v-1042h-209c-254 411 -497 792 -729 1143v-721c0 -79 2 -139 6 -181s15 -77 32 -106s37 -50 59 -62s57 -27 105 -44v-27h-508v27c48 18 83 33 105 45s42 33 59 62s28 65 32 107
s6 103 6 182v833c-13 38 -38 75 -74 110s-77 64 -124 86v14h408c272 -411 516 -791 731 -1140v718c0 104 -6 180 -18 227s-30 81 -55 102s-69 43 -132 66v26h506z" />
    <glyph glyph-name="O" unicode="O" horiz-adv-x="1574" 
d="M786 -27h-1c-214 0 -387 69 -519 208s-198 323 -198 552s66 413 198 551s305 207 519 207s388 -69 521 -208s200 -322 200 -550s-66 -412 -199 -551s-307 -209 -521 -209zM829 72l-1 -3c111 0 202 49 274 147s108 231 108 398c0 82 -9 166 -27 253s-45 170 -80 250
s-84 146 -147 197s-134 77 -213 77c-115 0 -207 -50 -277 -150s-105 -231 -105 -394c0 -83 10 -168 29 -255s46 -170 81 -250s84 -145 147 -195s133 -75 211 -75z" />
    <glyph glyph-name="P" unicode="P" horiz-adv-x="1290" 
d="M539 659l-48 -5v-387c0 -83 10 -137 30 -162s73 -52 158 -82v-27h-637v27c55 21 92 39 112 54s34 36 43 63s14 70 14 130v920c0 60 -4 103 -13 130s-23 48 -43 63s-57 33 -112 54v26h610c176 0 315 -32 416 -95s152 -160 152 -291c0 -141 -59 -246 -177 -315
s-286 -103 -505 -103zM597 1367h-106v-633h40c283 0 424 111 424 334c0 199 -119 299 -358 299z" />
    <glyph glyph-name="Q" unicode="Q" horiz-adv-x="1574" 
d="M856 -25v-1c35 -63 110 -108 225 -136s241 -43 378 -44v-8l-194 -207c-121 27 -230 74 -327 141s-160 151 -189 252c-203 9 -367 83 -492 221s-187 318 -187 539c0 229 66 413 198 551s305 207 519 207s388 -69 521 -208s200 -322 200 -550c0 -216 -59 -392 -178 -528
s-277 -212 -474 -229zM362 847v-3c0 -83 10 -168 29 -255s46 -170 81 -250s84 -145 147 -195s133 -75 210 -75c111 0 202 49 274 147s108 231 108 398c0 82 -9 166 -27 253s-45 170 -80 250s-84 146 -147 197s-134 77 -213 77c-115 0 -207 -50 -277 -150
s-105 -231 -105 -394z" />
    <glyph glyph-name="R" unicode="R" horiz-adv-x="1445" 
d="M1247 190l-2 -5c41 -60 98 -115 172 -165v-25h-370c-164 249 -311 485 -441 709l-116 -7v-430c0 -83 9 -137 27 -162s66 -52 143 -82v-27h-619v27c55 21 92 39 112 54s34 36 43 63s14 70 14 130v920c0 60 -4 103 -13 130s-23 48 -43 63s-57 33 -112 54v26h637
c173 0 308 -33 405 -99s146 -153 146 -261c0 -87 -33 -163 -99 -229s-150 -110 -253 -133c117 -187 240 -371 369 -551zM490 1365v-598h153c93 0 167 26 223 77s84 129 84 234c0 191 -106 287 -319 287h-141z" />
    <glyph glyph-name="S" unicode="S" horiz-adv-x="1132" 
d="M590 -27l-2 -4c-137 0 -290 44 -459 131l-25 381h27c53 -109 120 -205 200 -287s166 -123 259 -123c61 0 112 19 152 58s60 90 60 153c0 39 -8 76 -24 111s-41 68 -75 98s-64 54 -90 72s-62 41 -108 68c-129 78 -213 136 -252 174c-85 79 -127 175 -127 287
c0 123 41 220 123 290s184 105 305 105c113 0 238 -27 375 -82l39 -369h-27c-47 93 -105 175 -174 247s-143 108 -222 108c-55 0 -101 -18 -139 -54s-57 -84 -57 -145c0 -59 20 -108 60 -148s116 -93 228 -160c61 -37 105 -64 132 -81s62 -42 105 -75s74 -64 92 -92
s35 -63 50 -105s23 -88 23 -137c0 -94 -23 -174 -69 -240s-102 -113 -167 -140s-136 -41 -213 -41z" />
    <glyph glyph-name="T" unicode="T" horiz-adv-x="1357" 
d="M1268 1464l36 -375h-27c-29 75 -76 140 -142 195s-149 83 -250 83h-60v-1096c0 -85 9 -139 28 -163s66 -51 142 -81v-27h-620v27c77 30 125 58 143 83s27 79 27 162v1096h-68c-100 0 -183 -27 -248 -82s-113 -120 -143 -196h-27l37 374h1172z" />
    <glyph glyph-name="U" unicode="U" horiz-adv-x="1521" 
d="M1499 1464l-2 -31c-48 -18 -83 -33 -105 -45s-42 -33 -59 -62s-28 -64 -32 -106s-6 -102 -6 -181v-575c0 -154 -47 -275 -142 -363s-224 -132 -387 -132c-69 0 -134 9 -196 26s-121 45 -177 83s-101 93 -134 165s-50 158 -50 257v688c0 60 -4 103 -13 130s-23 48 -43 63
s-57 33 -112 54v26h619v-26c-77 -30 -124 -58 -142 -83s-27 -79 -27 -162v-686c0 -131 32 -233 95 -305s149 -108 258 -108c107 0 192 34 255 101s94 158 94 273v577c0 79 -2 140 -6 182s-15 78 -32 107s-37 50 -59 62s-57 27 -105 45v26h508z" />
    <glyph glyph-name="V" unicode="V" horiz-adv-x="1468" 
d="M1018 1464l437 -2v-26c-64 -35 -110 -70 -137 -105s-56 -91 -86 -169l-449 -1165h-86l-508 1296c-15 39 -33 69 -54 89s-59 39 -115 57v24h621v-26c-59 -21 -99 -39 -121 -54s-33 -35 -33 -61c0 -23 12 -65 35 -126l311 -829l302 798c19 53 28 93 27 120
c0 31 -11 58 -33 81s-59 47 -111 72v26z" />
    <glyph glyph-name="W" unicode="W" horiz-adv-x="2205" 
d="M1747 1464l443 1v-26c-73 -35 -123 -71 -150 -107s-54 -92 -81 -167l-416 -1165h-86l-360 987l-355 -987h-83l-476 1292c-9 27 -17 47 -24 59s-22 26 -45 42s-55 32 -96 47v26h619v-26c-61 -19 -103 -37 -126 -54s-35 -36 -35 -57c0 -11 4 -29 12 -54l308 -881l256 727
l-64 172c-13 38 -30 67 -50 86s-61 39 -124 60v26h621v-26c-57 -19 -97 -36 -119 -52s-33 -38 -33 -67c0 -22 10 -62 31 -121l282 -803l269 766c22 63 33 107 32 133c0 30 -11 56 -33 77s-61 43 -117 66v26z" />
    <glyph glyph-name="X" unicode="X" horiz-adv-x="1492" 
d="M1251 201l-1 1c31 -49 61 -86 90 -111s71 -46 126 -62v-27h-653v27c91 30 137 67 137 110c0 21 -9 47 -28 78l-248 395l-248 -340c-38 -52 -57 -96 -57 -133c0 -45 33 -82 100 -110v-27h-438v27c98 42 191 123 280 243l314 418l-369 576c-30 47 -59 83 -87 108
s-71 47 -128 66v26h655v-26c-95 -27 -143 -62 -143 -105c0 -18 11 -45 33 -82l225 -360l227 317c31 45 47 83 47 114c0 45 -33 83 -100 114v26h434v-26c-103 -48 -194 -127 -274 -236l-287 -385z" />
    <glyph glyph-name="Y" unicode="Y" horiz-adv-x="1435" 
d="M1014 1464h406v-26c-87 -42 -165 -119 -233 -232l-326 -534v-400c0 -83 9 -137 28 -162s66 -52 142 -82v-27h-620v27c77 30 125 58 143 83s27 79 27 162v385l-394 639c-15 25 -27 44 -36 56s-25 26 -47 42s-51 31 -87 45v26h621v-26c-53 -22 -90 -41 -111 -57
s-31 -33 -31 -51s16 -54 49 -109l278 -457l262 440c26 45 39 82 39 111c0 47 -37 87 -110 121v26z" />
    <glyph glyph-name="Z" unicode="Z" horiz-adv-x="1239" 
d="M1149 385h28l-50 -385h-1058v35l757 1333h-280c-101 0 -185 -28 -251 -84s-113 -121 -140 -194h-27l37 374h999v-34l-757 -1334h372c79 0 151 29 215 86s116 125 155 203z" />
    <glyph glyph-name="bracketleft" unicode="[" horiz-adv-x="649" 
d="M571 1538h-219v-1855h219v-56h-389v1968h389v-57z" />
    <glyph glyph-name="backslash" unicode="\" horiz-adv-x="718" 
d="M721 -240h-86l-592 1821h86z" />
    <glyph glyph-name="bracketright" unicode="]" horiz-adv-x="632" 
d="M68 1538v57h389v-1968h-389v56h217v1855h-217z" />
    <glyph glyph-name="asciicircum" unicode="^" horiz-adv-x="1165" 
d="M182 836l387 628h31l387 -628h-90l-313 505l-312 -505h-90z" />
    <glyph glyph-name="underscore" unicode="_" horiz-adv-x="1026" 
d="M963 -158v-94h-895v94h895z" />
    <glyph glyph-name="grave" unicode="`" horiz-adv-x="475" 
d="M367 1139v1c-120 135 -214 243 -283 324h266c9 -97 24 -203 45 -319z" />
    <glyph glyph-name="a" unicode="a" horiz-adv-x="1083" 
d="M844 -20l-1 -2c-61 0 -104 20 -129 60s-36 87 -33 142h-2c-31 -52 -77 -98 -137 -138s-130 -60 -209 -60c-82 0 -146 22 -193 65s-70 99 -70 168c0 97 52 181 156 252s257 133 459 186l4 129c1 37 -8 69 -28 95s-51 39 -94 39c-64 0 -115 -26 -153 -78s-63 -115 -75 -189
l-18 -6l-179 127c37 64 93 120 168 167s166 71 274 71c121 0 209 -30 263 -91s80 -135 77 -222l-13 -530c0 -19 5 -35 14 -47s20 -18 33 -18c30 0 57 29 82 88l29 -14c-17 -52 -44 -97 -81 -136s-85 -58 -144 -58zM450 139v1c85 0 159 41 223 123l10 322
c-239 -77 -358 -182 -358 -316c0 -41 11 -73 34 -96s53 -34 91 -34z" />
    <glyph glyph-name="b" unicode="b" horiz-adv-x="1146" 
d="M694 1010c112 0 206 -47 281 -141s113 -216 113 -366c0 -159 -41 -286 -123 -381s-182 -142 -299 -142c-45 0 -87 8 -127 24s-72 33 -96 51s-48 35 -73 51s-46 24 -63 24c-42 0 -91 -52 -147 -156h-29v1291c0 45 -9 80 -27 104s-54 49 -107 75v26c131 8 259 31 383 70
v-706h2c87 117 191 176 312 176zM641 72l1 -1c63 0 110 34 141 101s47 155 47 263c0 125 -20 231 -61 317s-98 129 -172 129c-68 0 -140 -49 -217 -146v-364c23 -79 57 -149 102 -209s98 -90 159 -90z" />
    <glyph glyph-name="c" unicode="c" horiz-adv-x="935" 
d="M520 -20l1 -1c-129 0 -238 47 -327 141s-134 219 -134 375c0 154 44 278 132 372s194 141 317 141c83 0 156 -21 219 -63s113 -92 150 -149l-181 -144l-18 9c-9 67 -30 128 -63 183s-75 83 -127 83c-53 0 -100 -31 -141 -93s-62 -145 -62 -248c0 -129 32 -232 96 -310
s145 -117 244 -117c108 0 189 45 243 135l29 -19c-25 -81 -69 -150 -132 -208s-145 -87 -246 -87z" />
    <glyph glyph-name="d" unicode="d" horiz-adv-x="1171" 
d="M451 -20c-107 0 -199 45 -276 136s-116 213 -116 367c0 159 41 287 124 383s181 144 294 144c109 0 205 -37 288 -111v371c0 86 -46 146 -137 180v20c133 8 261 31 385 70v-1337c0 -42 8 -71 24 -88s53 -36 110 -57v-18l-377 -61v186h-4c-31 -53 -75 -97 -132 -132
s-118 -53 -183 -53zM549 111c77 0 149 47 217 141v364c-26 81 -61 152 -106 212s-97 90 -156 90c-64 0 -111 -36 -142 -109s-46 -160 -46 -262c0 -124 22 -228 65 -311s99 -125 168 -125z" />
    <glyph glyph-name="e" unicode="e" horiz-adv-x="991" 
d="M932 569l-643 -1v-2c0 -134 36 -236 107 -305s156 -104 255 -104c117 0 202 48 254 145l27 -14c-8 -29 -19 -57 -33 -85s-35 -61 -63 -99s-67 -68 -118 -91s-109 -34 -174 -34c-138 0 -253 47 -345 141s-138 218 -138 371s46 278 137 374s205 144 342 144
c61 0 116 -11 165 -33s87 -48 114 -79s50 -65 68 -103s30 -70 36 -97s9 -49 9 -66v-62zM504 925v-2c-55 0 -101 -24 -138 -71s-61 -112 -72 -195l407 5c-4 38 -11 74 -22 109s-32 69 -62 103s-68 51 -113 51z" />
    <glyph glyph-name="f" unicode="f" horiz-adv-x="710" 
d="M418 1450v-2c-45 0 -68 -38 -68 -114s20 -193 60 -350h272l-23 -90h-249v-641c0 -77 10 -128 29 -153s62 -50 129 -74v-27h-540v27c57 25 94 50 110 75s24 76 24 153v641h-131v90h131v88c0 311 97 467 291 467c87 0 193 -28 317 -84l-160 -182l-24 8
c-53 112 -109 168 -168 168z" />
    <glyph glyph-name="g" unicode="g" horiz-adv-x="1048" 
d="M764 145l-4 -1c173 -45 260 -130 260 -255c0 -73 -29 -134 -87 -183s-125 -83 -201 -102s-156 -28 -241 -28c-73 0 -143 7 -210 21s-126 39 -177 74s-76 78 -76 128c0 52 24 97 72 135s104 66 167 85v2c-112 26 -168 78 -168 156c0 45 21 86 63 122s98 63 167 81
c-82 21 -146 57 -193 109s-70 117 -70 195c0 100 37 180 111 239s169 89 285 89h33c94 0 164 15 209 46s70 67 75 109l201 -61v-14c-68 -79 -161 -119 -278 -119c-31 0 -59 2 -84 6v-8c78 -18 146 -53 203 -105s86 -118 86 -198c0 -89 -38 -162 -114 -220s-186 -87 -329 -87
c-8 0 -18 1 -29 2c-68 -21 -102 -49 -102 -84c0 -26 17 -43 51 -52c3 -1 30 -7 82 -17s108 -22 169 -35s104 -23 129 -30zM459 937v1c-45 0 -83 -17 -113 -51s-45 -84 -45 -150c0 -77 20 -147 60 -210s94 -94 161 -94c45 0 82 16 111 48s43 80 43 145c0 79 -20 151 -61 215
s-93 96 -156 96zM524 -346v-3c86 0 158 13 215 40s86 65 86 114c0 64 -46 107 -137 130c-12 3 -122 25 -330 66c-18 -7 -36 -16 -54 -28s-38 -31 -59 -58s-32 -56 -32 -87c0 -56 29 -99 87 -129s133 -45 224 -45z" />
    <glyph glyph-name="h" unicode="h" horiz-adv-x="1216" 
d="M1059 254l1 -5c0 -77 8 -128 24 -153s53 -50 110 -74v-27h-518v27c59 25 97 50 113 75s24 76 24 153v75c0 32 0 64 1 97s1 65 1 96v77v31c0 71 -16 124 -48 160s-73 54 -122 54c-79 0 -157 -48 -233 -144v-444c0 -77 8 -128 24 -153s53 -50 110 -74v-27h-520v27
c59 25 97 50 113 75s24 76 24 153v917c0 94 -8 155 -25 183s-54 56 -111 85v26c141 11 269 34 385 70v-741c97 145 217 217 360 217c77 0 144 -24 201 -72s86 -122 86 -223v-461z" />
    <glyph glyph-name="i" unicode="i" horiz-adv-x="569" 
d="M262 1155h-2c-38 0 -71 14 -100 41s-43 59 -43 96c0 35 14 66 43 93s62 41 100 41s72 -13 101 -40s44 -58 44 -94c0 -37 -14 -69 -43 -96s-62 -41 -100 -41zM25 0v27c59 25 97 50 113 75s24 76 24 153v397c0 94 -8 155 -25 182s-54 55 -111 84v26c141 11 269 34 385 70
v-760c0 -77 8 -128 24 -153s53 -50 110 -74v-27h-520z" />
    <glyph glyph-name="j" unicode="j" horiz-adv-x="548" 
d="M260 1155c-38 0 -71 14 -100 41s-43 59 -43 96c0 35 14 66 43 93s62 41 100 41s71 -13 100 -40s43 -58 43 -94c0 -37 -14 -69 -43 -96s-62 -41 -100 -41zM-25 -428l-14 31c73 37 124 83 153 138s43 135 43 240v671c0 94 -8 155 -24 182s-53 55 -110 84v26
c141 11 269 34 384 70v-910c-1 -287 -145 -464 -432 -532z" />
    <glyph glyph-name="k" unicode="k" horiz-adv-x="1153" 
d="M27 0v25c59 25 97 50 113 75s24 76 24 153v917c0 94 -8 155 -25 183s-54 56 -111 85v26c141 11 269 34 385 70v-1040l293 274c35 34 53 65 53 92c0 38 -30 71 -90 98v27h426v-27c-112 -63 -206 -128 -281 -196l-176 -162l309 -432c52 -73 114 -120 187 -141v-27h-355
l-334 465h-32v-211c0 -77 8 -128 24 -153s53 -50 110 -74v-27h-520z" />
    <glyph glyph-name="l" unicode="l" horiz-adv-x="569" 
d="M27 0v25c59 25 97 50 113 75s24 76 24 153v917c0 94 -8 155 -25 183s-54 56 -111 85v26c141 11 269 34 385 70v-1280c0 -77 8 -128 24 -153s53 -50 110 -74v-27h-520z" />
    <glyph glyph-name="m" unicode="m" horiz-adv-x="1781" 
d="M1624 254l-1 -8c0 -77 8 -128 24 -153s54 -50 113 -74v-27h-518v27c57 25 94 50 110 75s25 76 26 153c1 105 2 230 2 375c0 69 -16 122 -48 158s-71 54 -117 54c-69 0 -135 -42 -198 -127v-459c0 -77 8 -128 24 -153s53 -50 110 -74v-27h-518v27c59 25 97 50 113 75
s25 76 26 153c1 105 2 230 2 375c0 69 -16 122 -48 158s-71 54 -118 54c-69 0 -135 -42 -198 -127v-459c0 -77 8 -128 24 -153s53 -50 110 -74v-27h-518v27c59 25 97 50 113 75s24 76 24 153v399c0 90 -8 150 -25 180s-54 59 -111 88v24c129 11 255 34 379 70v-226
c89 147 200 221 333 222c63 0 121 -18 174 -55s86 -93 100 -168c87 149 198 224 333 225c73 0 138 -24 194 -71s84 -120 84 -218v-467z" />
    <glyph glyph-name="n" unicode="n" horiz-adv-x="1214" 
d="M1057 254l-1 -3c0 -77 8 -128 24 -153s54 -50 113 -74v-27h-520v27c59 25 97 50 113 75s25 76 26 153c1 97 2 221 2 373c0 74 -16 128 -47 163s-72 52 -123 52c-82 0 -160 -49 -233 -146v-442c0 -77 8 -128 24 -153s53 -50 110 -74v-27h-520v27c59 25 97 50 113 75
s24 76 24 153v399c0 90 -8 150 -25 180s-54 59 -111 88v24c129 11 255 34 379 70v-230c100 150 222 225 366 226c77 0 144 -24 201 -72s85 -122 85 -223v-461z" />
    <glyph glyph-name="o" unicode="o" horiz-adv-x="1118" 
d="M555 -20h-1c-147 0 -266 46 -358 138s-138 214 -138 365c0 150 46 275 137 376s214 151 369 151c147 0 266 -46 357 -139s137 -215 137 -367s-45 -277 -136 -376s-213 -148 -367 -148zM599 59c57 0 106 27 146 80s60 132 60 236c0 75 -9 153 -27 233s-50 154 -96 221
s-100 101 -163 101c-59 0 -108 -27 -148 -81s-60 -133 -60 -237c0 -53 6 -110 17 -171s28 -121 50 -180s52 -107 91 -145s82 -57 130 -57z" />
    <glyph glyph-name="p" unicode="p" horiz-adv-x="1161" 
d="M707 1010l-2 1c113 0 208 -45 284 -136s114 -211 114 -360c0 -160 -42 -289 -125 -387s-181 -147 -293 -147c-105 0 -201 40 -288 120h-2v-256c0 -77 11 -128 34 -153s75 -50 157 -75v-27h-574v27c57 25 94 50 110 75s24 76 24 152v949c0 35 -9 61 -27 77s-54 33 -109 50
v24c130 11 257 34 381 70l-2 -183l4 -2c88 121 193 181 314 181zM653 75l-1 1c63 0 111 33 143 98s48 151 48 258c0 124 -21 230 -63 318s-100 132 -175 132c-69 0 -140 -47 -213 -142v-354c23 -83 57 -156 101 -218s97 -93 160 -93z" />
    <glyph glyph-name="q" unicode="q" horiz-adv-x="1157" 
d="M575 -410l1 28c82 25 134 50 157 75s34 76 34 152v312h-2c-33 -48 -76 -89 -130 -124s-114 -52 -181 -52c-111 0 -204 47 -280 141s-114 215 -114 362c0 151 40 277 119 377s180 150 303 150c59 0 113 -13 162 -40s90 -53 123 -79s60 -39 81 -39c41 0 87 46 138 139h29
v-1147c0 -77 8 -128 24 -153s53 -50 110 -75v-27h-574zM550 110h-1c78 0 150 48 217 143v375c-26 78 -61 146 -105 204s-95 87 -154 87c-64 0 -112 -36 -144 -108s-48 -161 -48 -267c0 -125 21 -229 62 -311s99 -123 173 -123z" />
    <glyph glyph-name="r" unicode="r" horiz-adv-x="851" 
d="M27 0l-4 25c59 25 97 50 113 75s24 76 24 153v414c0 77 -8 132 -24 166s-53 63 -112 86v24c133 11 259 34 379 70l-7 -207h7c19 52 53 99 101 141s106 63 174 63c38 0 71 -9 98 -27l-30 -272h-25c-61 71 -122 106 -183 106c-53 0 -95 -33 -126 -100v-463
c0 -77 10 -128 30 -153s67 -50 140 -74v-27h-555z" />
    <glyph glyph-name="s" unicode="s" horiz-adv-x="866" 
d="M456 -27l2 1c-105 0 -224 27 -357 82l-30 277l22 4c138 -189 260 -283 365 -283c39 0 71 11 96 33s37 51 37 88c0 44 -19 83 -57 117s-94 70 -169 108c-37 18 -65 33 -84 44s-44 27 -75 49s-55 43 -71 64s-31 47 -44 78s-19 64 -19 99c0 90 33 159 99 207s146 72 239 72
c85 0 188 -21 309 -64l20 -256l-22 -6c-47 65 -98 122 -153 171s-107 74 -156 74c-34 0 -64 -11 -89 -32s-38 -51 -38 -89c0 -45 18 -82 53 -111s87 -61 156 -95c8 -4 14 -7 19 -8c101 -51 176 -100 224 -148s72 -110 72 -187c0 -89 -32 -159 -96 -211s-148 -78 -253 -78z
" />
    <glyph glyph-name="t" unicode="t" horiz-adv-x="681" 
d="M393 -18c-73 0 -134 24 -184 71s-75 116 -75 206v639h-100v59c160 105 265 203 315 294h29v-266h266l-16 -88h-246l-6 -569c-1 -133 49 -199 150 -199c47 0 90 18 129 53l19 -22c-74 -119 -168 -178 -281 -178z" />
    <glyph glyph-name="u" unicode="u" horiz-adv-x="1212" 
d="M1057 252h-2c0 -65 8 -108 24 -128s53 -39 110 -56v-27l-375 -70v217c-104 -143 -226 -215 -366 -215c-77 0 -144 24 -201 72s-86 122 -86 223v383c0 89 -8 149 -24 180s-53 60 -110 87v26c141 11 269 34 384 70c0 -75 -1 -186 -2 -332s-2 -256 -2 -330
c0 -71 16 -123 47 -157s72 -51 122 -51c78 0 156 42 234 127v381c0 90 -8 150 -24 179s-54 58 -114 87v26c130 8 258 31 385 68v-760z" />
    <glyph glyph-name="v" unicode="v" horiz-adv-x="1089" 
d="M741 985l341 -3v-27c-37 -21 -66 -42 -88 -64s-37 -40 -45 -54s-19 -37 -32 -70l-334 -772h-68l-356 827c-13 33 -30 59 -51 79s-54 38 -98 54v27h525v-27c-42 -13 -72 -27 -90 -42s-27 -33 -27 -55c0 -19 7 -47 22 -84c1 -1 66 -155 195 -462c117 280 180 434 189 463
c9 31 14 54 15 68c0 25 -7 46 -22 62s-40 34 -76 53v27z" />
    <glyph glyph-name="w" unicode="w" horiz-adv-x="1689" 
d="M1337 985l344 -5v-27c-49 -30 -85 -57 -107 -81s-43 -58 -62 -103l-329 -776h-70l-268 629l-264 -629h-66l-356 833c-25 57 -75 99 -150 126v27h525v-27c-82 -23 -123 -54 -123 -93c0 -18 5 -40 16 -65c18 -45 86 -206 203 -482l170 416l-43 103c-23 59 -73 100 -150 123
v27h529v-27c-45 -11 -77 -23 -97 -37s-30 -32 -30 -54c0 -17 5 -38 16 -63c9 -25 78 -188 207 -490c19 45 44 105 74 179s55 134 74 180s33 81 41 104c9 25 14 48 15 69c0 39 -33 78 -99 116v27z" />
    <glyph glyph-name="x" unicode="x" horiz-adv-x="1112" 
d="M954 131l2 1c31 -44 78 -79 141 -104v-27h-551v27c87 19 131 41 131 66c0 11 -8 27 -23 49l-161 244l-160 -205c-19 -25 -29 -48 -29 -69c0 -39 28 -68 84 -86v-27h-364v27c87 41 156 93 207 157l218 271l-277 399c-38 56 -86 91 -143 104v27h551v-27
c-87 -17 -131 -40 -131 -69c0 -12 13 -39 40 -82l129 -193l144 189c23 31 35 55 35 71c0 27 -29 55 -86 84v27h354v-27c-85 -37 -155 -92 -211 -165l-188 -244z" />
    <glyph glyph-name="y" unicode="y" horiz-adv-x="1105" 
d="M752 985l349 -3v-27c-48 -26 -83 -53 -105 -81s-45 -71 -70 -130c-149 -349 -238 -557 -268 -623s-60 -125 -90 -177c-3 -5 -14 -25 -33 -60s-34 -61 -45 -78s-28 -41 -50 -72s-47 -60 -74 -87s-57 -54 -90 -80l-133 174l13 16c143 -8 253 58 329 199c12 25 19 39 21 42
c3 4 10 18 22 43l-368 786c-27 60 -77 104 -150 131v27h547v-27c-81 -29 -121 -63 -121 -102c0 -17 7 -40 21 -70l207 -456c75 168 134 313 176 434c11 30 16 55 16 74c0 49 -35 89 -104 120v27z" />
    <glyph glyph-name="z" unicode="z" horiz-adv-x="954" 
d="M893 985l-1 -48l-543 -856h264c39 0 75 16 107 47s77 99 136 204h27l-33 -332h-789v45l551 860h-243c-33 0 -65 -15 -96 -44s-80 -95 -148 -197h-25l33 321h760z" />
    <glyph glyph-name="braceleft" unicode="{" horiz-adv-x="755" 
d="M440 135l-2 1c-12 -65 -18 -123 -18 -174c0 -183 85 -292 254 -327l-10 -36c-79 8 -149 26 -211 54s-114 73 -157 136s-64 139 -64 229c0 38 4 80 13 125l14 78c7 38 10 73 10 105c0 83 -18 147 -55 192s-75 71 -115 78v27c39 7 77 33 114 78s56 109 56 192
c0 31 -3 66 -10 104l-14 78c-8 45 -12 87 -13 125c0 90 22 167 65 230s95 109 157 137s133 46 212 54l10 -37c-169 -37 -254 -146 -254 -327c0 -51 6 -109 18 -174l17 -88c5 -29 8 -58 8 -88c0 -86 -23 -155 -69 -207s-94 -82 -145 -89c51 -7 99 -37 145 -91
s69 -124 69 -210c0 -29 -3 -58 -8 -87z" />
    <glyph glyph-name="bar" unicode="|" horiz-adv-x="415" 
d="M256 -240h-90v1821h90v-1821z" />
    <glyph glyph-name="braceright" unicode="}" horiz-adv-x="714" 
d="M459 995l-4 -2c-7 -37 -10 -72 -10 -106c0 -83 18 -147 55 -191s75 -69 114 -76v-27c-39 -7 -77 -32 -114 -76s-55 -108 -55 -191c0 -34 3 -70 10 -107l14 -78c8 -45 12 -87 12 -125c0 -131 -41 -231 -123 -299s-185 -108 -310 -120l-8 36c169 37 254 146 254 328
c0 51 -6 108 -18 172l-17 88c-5 29 -8 58 -8 88c0 86 23 156 68 209s93 83 144 90c-49 7 -97 37 -143 90s-69 123 -69 209c0 29 3 58 8 87l16 88c12 65 18 122 19 171c0 100 -21 175 -64 225s-105 84 -187 102l8 37c124 -12 227 -52 310 -120s124 -168 124 -301
c0 -37 -4 -78 -12 -123z" />
    <glyph glyph-name="asciitilde" unicode="~" horiz-adv-x="968" 
d="M682 569l2 -1c-47 0 -115 23 -204 70s-161 70 -216 70c-67 0 -133 -25 -199 -76l-20 16c85 146 182 219 291 219c45 0 113 -24 204 -72s163 -72 216 -72c48 0 100 16 155 47l21 -16c-70 -123 -153 -185 -250 -185z" />
    <glyph glyph-name="exclamdown" unicode="&#xa1;" horiz-adv-x="491" 
d="M247 1016c40 0 74 -14 103 -43s43 -62 43 -100s-14 -71 -43 -99s-63 -42 -103 -42s-74 14 -103 42s-43 61 -43 99c0 39 14 73 43 101s63 42 103 42zM206 582l80 1c29 -361 61 -704 96 -1029v-19h-270v19c29 240 60 583 94 1028z" />
    <glyph glyph-name="cent" unicode="&#xa2;" horiz-adv-x="935" 
d="M897 274l1 1c-22 -73 -61 -138 -117 -195s-128 -89 -217 -97v-170h-71v168c-123 7 -226 57 -309 150s-124 215 -124 366s42 273 125 366s186 142 308 148v135h71v-139c71 -9 133 -34 186 -75s96 -86 129 -135l-181 -144l-18 9c-19 117 -58 197 -117 239v-737
c23 -4 46 -6 68 -6c104 0 183 45 237 135zM286 587l-1 1c0 -97 19 -181 57 -252s88 -120 150 -147v740h-9c-49 0 -94 -31 -135 -93s-62 -145 -62 -249z" />
    <glyph glyph-name="sterling" unicode="&#xa3;" horiz-adv-x="1126" 
d="M993 416h25l-53 -416h-901v78c91 61 155 129 192 203s56 162 56 263c0 63 -16 133 -47 211h-209v94h168c-27 69 -41 135 -41 198c0 123 41 226 124 309s196 125 339 125c98 0 204 -19 318 -56l41 -309h-29c-51 75 -108 140 -172 195s-128 82 -193 82
c-57 0 -106 -19 -148 -57s-63 -89 -63 -154c0 -44 17 -102 51 -174s56 -125 65 -160h301v-94h-284c3 -26 4 -51 4 -76c0 -44 -2 -80 -6 -108s-13 -64 -27 -108s-40 -89 -77 -135s-86 -94 -146 -145h483c44 0 86 23 126 69s74 101 103 165z" />
    <glyph glyph-name="currency" unicode="&#xa4;" horiz-adv-x="1075" 
d="M909 358c0 -1 0 -2 -1 -2s-1 -1 -1 -2l129 -129l-47 -49l-131 131c-93 -78 -199 -117 -318 -117s-225 40 -318 119l-133 -133l-47 47l133 135l-2 2c-77 77 -115 181 -115 312c0 121 40 227 119 317l-133 135l47 47l135 -133c86 78 191 117 314 117
c119 0 225 -40 318 -119v2l2 -2l131 133l45 -47l-131 -131l2 -2h-2c79 -95 119 -201 119 -317s-39 -221 -117 -314h2zM133 672l-3 1c0 -113 40 -210 120 -291s176 -121 288 -121s209 40 290 121s122 178 122 291c0 115 -40 213 -121 293s-177 120 -289 120
c-113 0 -209 -41 -288 -123s-119 -179 -119 -291z" />
    <glyph glyph-name="yen" unicode="&#xa5;" horiz-adv-x="1382" 
d="M977 1440l392 -4v-27c-48 -23 -88 -52 -121 -87s-67 -82 -102 -141l-270 -457h247v-94h-286v-131h288v-94h-288v-136c0 -83 9 -137 27 -162s66 -52 143 -82v-27h-621v27c77 30 125 58 143 83s27 79 27 162v136h-289v94h289v131h-291v94h244l-330 545
c-17 26 -29 44 -37 55s-22 25 -43 42s-48 32 -81 45v27h603v-27c-51 -22 -86 -40 -106 -54s-30 -31 -30 -50s16 -55 47 -108l265 -442l247 426c25 44 37 79 37 106c0 48 -35 89 -104 123v27z" />
    <glyph glyph-name="section" unicode="&#xa7;" horiz-adv-x="1116" 
d="M774 240l1 -2c87 -75 131 -158 131 -249c0 -87 -33 -159 -100 -215s-152 -84 -255 -84c-100 0 -209 25 -326 76l-18 290h26c33 -77 76 -143 129 -199s113 -84 180 -84c44 0 83 13 117 39s51 61 51 105c0 25 -5 49 -15 71s-30 46 -59 72s-53 47 -72 62s-53 40 -102 75
c-116 82 -200 153 -252 212s-78 130 -78 213c0 124 70 234 209 331c-87 78 -131 161 -131 250c0 79 31 147 92 203s144 84 249 84c101 0 203 -21 306 -64l27 -276h-29c-35 68 -79 128 -132 181s-109 79 -168 79c-42 0 -78 -14 -107 -42s-44 -62 -44 -101c0 -26 6 -51 19 -75
s33 -47 60 -70s50 -41 69 -54s45 -30 78 -51c7 -4 12 -7 16 -10c45 -29 84 -56 117 -81s70 -57 110 -97s71 -83 93 -129s33 -94 33 -145c0 -37 -6 -71 -18 -102s-30 -60 -55 -87s-48 -49 -69 -66s-49 -37 -83 -60zM572 385v1c33 -23 85 -60 156 -111c67 61 100 125 100 191
c0 44 -17 89 -52 135s-71 84 -109 113s-86 63 -145 102c-7 5 -13 10 -19 14s-17 12 -33 23s-42 30 -79 56c-67 -51 -100 -113 -100 -186c0 -56 23 -109 68 -160s116 -110 213 -178z" />
    <glyph glyph-name="dieresis" unicode="&#xa8;" horiz-adv-x="765" 
d="M209 1163c-34 0 -63 12 -88 37s-37 55 -37 90c0 34 12 63 37 88s54 37 88 37s64 -12 89 -37s38 -54 38 -88s-13 -64 -38 -89s-55 -38 -89 -38zM561 1163c-34 0 -63 12 -88 37s-37 55 -37 90c0 34 12 63 37 88s54 37 88 37s64 -12 89 -37s38 -54 38 -88s-13 -64 -38 -89
s-55 -38 -89 -38z" />
    <glyph glyph-name="copyright" unicode="&#xa9;" horiz-adv-x="1681" 
d="M842 -12h-1c-207 0 -384 73 -530 219s-219 322 -219 528s73 382 220 528s324 219 530 219s382 -73 528 -219s219 -322 219 -528s-73 -382 -219 -528s-322 -219 -528 -219zM842 57v-1c183 0 340 67 472 202s198 294 198 477c0 181 -66 339 -198 474s-289 203 -472 203
c-181 0 -339 -66 -473 -198s-201 -292 -201 -479c0 -184 67 -343 200 -477s291 -201 474 -201zM846 1179l3 -2c-68 0 -128 -36 -180 -109s-78 -175 -78 -306c0 -135 27 -241 82 -317s116 -114 184 -114c51 0 103 22 156 66s99 95 138 154h16l-26 -232
c-100 -31 -196 -47 -289 -47c-133 0 -242 41 -327 124s-127 199 -127 349c0 151 43 271 128 359s193 132 324 132c78 0 174 -15 289 -45l26 -234h-16c-41 60 -88 112 -141 156s-107 66 -162 66z" />
    <glyph glyph-name="ordfeminine" unicode="&#xaa;" horiz-adv-x="673" 
d="M518 889l-2 1c-77 0 -114 41 -111 123h-2c-19 -31 -46 -59 -82 -84s-77 -37 -124 -37c-49 0 -88 13 -117 40s-44 61 -44 103c0 113 124 200 373 261l2 82c0 48 -21 72 -64 72c-35 0 -64 -16 -87 -48s-38 -69 -46 -112l-14 -4l-119 74c22 41 57 76 105 105s108 44 179 44
c83 0 141 -20 173 -60s47 -89 46 -146l-9 -293c0 -27 8 -41 25 -41s32 17 45 51l23 -10c-26 -81 -76 -121 -150 -121zM293 1002h1c41 0 77 21 108 64l7 186c-123 -38 -185 -95 -186 -172c0 -52 23 -78 70 -78z" />
    <glyph glyph-name="guillemotleft" unicode="&#xab;" horiz-adv-x="1103" 
d="M616 938c-82 -145 -175 -286 -278 -424c104 -138 197 -279 278 -424h-65c-176 173 -329 311 -459 414v20c124 100 277 238 459 414h65zM1016 938c-79 -145 -172 -286 -279 -424c107 -138 200 -279 279 -424h-64c-176 175 -329 313 -460 414v20c124 98 277 236 460 414h64
z" />
    <glyph glyph-name="registered" unicode="&#xae;" horiz-adv-x="1167" 
d="M586 584h-1c-137 0 -253 48 -349 144s-144 212 -144 347s48 251 144 347s213 144 350 144c135 0 251 -48 347 -144s144 -212 144 -347s-48 -251 -144 -347s-212 -144 -347 -144zM585 649v-2c116 0 216 43 299 128s125 184 125 297c0 115 -42 215 -125 300
s-183 127 -299 127s-216 -42 -301 -125s-127 -183 -127 -300s42 -217 127 -300s185 -125 301 -125zM785 868c19 -25 41 -45 66 -60v-12h-137c-73 117 -130 212 -171 285l-43 -2v-182c0 -29 3 -48 10 -58s25 -20 54 -31v-12h-229v12c29 11 47 22 54 32s10 30 10 59v371
c0 33 -3 55 -10 66s-25 22 -54 33v14h237c63 0 113 -13 151 -39s57 -61 57 -105c0 -42 -18 -78 -53 -107s-78 -44 -129 -44h-27v-3c27 -18 59 -25 96 -20c50 -89 89 -155 118 -197zM501 1348v-242h63c33 0 60 11 82 33s33 54 33 96c0 75 -41 113 -123 113h-55z" />
    <glyph glyph-name="macron" unicode="&#xaf;" horiz-adv-x="686" 
d="M606 1339v-135h-522v135h522z" />
    <glyph glyph-name="degree" unicode="&#xb0;" horiz-adv-x="866" 
d="M436 854l-1 -1c-87 0 -162 31 -225 92s-94 136 -94 225s31 165 94 227s138 93 225 93s162 -31 225 -93s95 -137 95 -226s-31 -164 -94 -225s-138 -92 -225 -92zM435 925h-1c67 0 124 24 171 72s70 106 70 173c0 69 -23 128 -69 176s-103 72 -171 72s-125 -24 -171 -72
s-69 -107 -69 -177c0 -67 23 -124 69 -172s103 -72 171 -72z" />
    <glyph glyph-name="uni00B2" unicode="&#xb2;" horiz-adv-x="622" 
d="M408 762l-2 -1c44 0 77 7 99 20s47 37 74 72l18 -2l-74 -240h-516v29c130 130 225 240 284 331s89 171 89 240c0 52 -13 93 -39 122s-58 44 -96 44c-65 0 -131 -39 -198 -118l-22 16c35 61 78 112 129 153s107 62 167 62s112 -20 155 -60s65 -94 65 -162
c0 -77 -27 -153 -81 -229s-142 -168 -265 -277h213z" />
    <glyph glyph-name="uni00B3" unicode="&#xb3;" horiz-adv-x="649" 
d="M49 1305l-3 -3c85 123 187 184 307 184c57 0 105 -15 143 -46s57 -71 57 -120c0 -90 -66 -162 -199 -217v-2c9 3 23 4 42 4c56 0 106 -20 149 -60s65 -96 65 -168c0 -87 -31 -156 -93 -206s-137 -75 -226 -75c-78 0 -163 17 -254 51l74 176l14 -6c17 -42 40 -79 70 -112
s66 -49 107 -49s76 19 105 57s43 84 43 137c0 56 -14 101 -43 136s-69 52 -120 52c-31 0 -67 -8 -107 -24l-14 37c82 41 141 79 178 115s55 74 55 115c0 34 -11 60 -33 78s-51 27 -88 27c-75 0 -145 -33 -210 -100z" />
    <glyph glyph-name="acute" unicode="&#xb4;" horiz-adv-x="475" 
d="M113 1139l-29 5c19 120 34 226 45 319h266c-68 -81 -162 -189 -282 -324z" />
    <glyph glyph-name="paragraph" unicode="&#xb6;" horiz-adv-x="1075" 
d="M582 1464l-2 -1464h-318v27c77 30 125 58 143 83s27 79 27 162v303h-49c-94 0 -174 44 -241 131s-100 191 -100 312c0 123 34 228 101 315s148 131 242 131h197zM1034 1464l-1 -28c-77 -30 -124 -58 -142 -83s-27 -79 -27 -162v-920c0 -83 9 -137 28 -162s66 -52 142 -82
v-27h-317v1464h317z" />
    <glyph glyph-name="periodcentered" unicode="&#xb7;" horiz-adv-x="493" 
d="M247 430h-1c-42 0 -78 16 -109 47s-46 68 -46 110s15 79 46 110s68 47 110 47s79 -16 111 -47s48 -68 48 -110s-16 -79 -48 -110s-69 -47 -111 -47z" />
    <glyph glyph-name="cedilla" unicode="&#xb8;" horiz-adv-x="583" 
d="M100 -406l-2 2c73 7 132 22 177 45s68 53 68 90c0 31 -17 57 -51 78s-79 32 -135 33l106 152h41l-37 -62c159 -12 238 -64 238 -157c0 -69 -36 -122 -109 -160s-177 -56 -312 -55z" />
    <glyph glyph-name="uni00B9" unicode="&#xb9;" horiz-adv-x="458" 
d="M66 612l-1 17c42 18 69 34 80 49s17 44 17 88v494c0 30 -8 53 -24 68s-47 31 -94 48v17l295 104v-731c0 -42 5 -71 14 -86s36 -32 81 -51v-17h-368z" />
    <glyph glyph-name="ordmasculine" unicode="&#xba;" horiz-adv-x="694" 
d="M346 889c-95 0 -171 27 -228 82s-85 129 -85 223s29 170 86 228s133 87 227 87c95 0 171 -28 228 -83s85 -129 85 -222c0 -94 -28 -170 -85 -228s-133 -87 -228 -87zM375 942v-2c29 0 53 14 72 41s29 69 29 125c0 42 -4 88 -13 138s-26 98 -51 143s-56 68 -92 68
c-29 0 -53 -14 -73 -42s-30 -69 -30 -124c0 -74 13 -150 40 -229s66 -118 118 -118z" />
    <glyph glyph-name="guillemotright" unicode="&#xbb;" horiz-adv-x="1103" 
d="M92 938h63c183 -177 336 -315 460 -414v-20c-131 -101 -284 -239 -459 -414h-64c79 145 172 286 279 424c-107 138 -200 279 -279 424zM491 938h62c183 -177 337 -315 462 -414v-20c-131 -101 -285 -239 -461 -414h-63c79 145 172 286 278 424
c-106 138 -199 279 -278 424z" />
    <glyph glyph-name="onequarter" unicode="&#xbc;" horiz-adv-x="1667" 
d="M66 612l-1 17c42 18 69 34 80 49s17 44 17 88v494c0 30 -8 53 -24 68s-47 31 -94 48v17l295 104v-731c0 -42 5 -71 14 -86s36 -32 81 -51v-17h-368zM224 0l1008 1464h86l-1008 -1464h-86zM1584 244l-118 -1v-90c0 -42 5 -70 15 -85s38 -32 83 -51v-18h-355v18
c42 18 68 34 79 48s16 44 16 89v90h-373v41l481 592h55v-553h129zM1038 323h265v333z" />
    <glyph glyph-name="onehalf" unicode="&#xbd;" horiz-adv-x="1630" 
d="M66 612l-1 17c42 18 69 34 80 49s17 44 17 88v494c0 30 -8 53 -24 68s-47 31 -94 48v17l295 104v-731c0 -42 5 -71 14 -86s36 -32 81 -51v-17h-368zM224 0l1008 1464h86l-1008 -1464h-86zM1373 152v-3c44 0 77 6 99 19s47 37 74 73l19 -2l-74 -242h-516v29
c130 130 225 240 284 331s89 172 89 243c0 52 -13 92 -39 121s-58 43 -97 43c-64 0 -130 -39 -198 -117l-23 17c35 60 79 111 131 152s108 62 168 62s111 -20 153 -60s63 -94 63 -163c0 -77 -27 -153 -81 -229s-142 -167 -265 -274h213z" />
    <glyph glyph-name="threequarters" unicode="&#xbe;" horiz-adv-x="1783" 
d="M49 1305l-3 -3c85 123 187 184 307 184c57 0 105 -15 143 -46s57 -71 57 -120c0 -90 -66 -162 -199 -217v-2c9 3 23 4 42 4c56 0 106 -20 149 -60s65 -96 65 -168c0 -87 -31 -156 -93 -206s-137 -75 -226 -75c-78 0 -163 17 -254 51l74 176l14 -6c17 -42 40 -79 70 -112
s66 -49 107 -49s76 19 105 57s43 84 43 137c0 56 -14 101 -43 136s-69 52 -120 52c-31 0 -67 -8 -107 -24l-14 37c82 41 141 79 178 115s55 74 55 115c0 34 -11 60 -33 78s-51 27 -88 27c-75 0 -145 -33 -210 -100zM339 -3l1008 1464h86l-1008 -1464h-86zM1699 241l-117 -1
v-90c0 -42 5 -70 15 -85s37 -32 82 -51v-18h-354v18c42 18 68 34 78 48s15 44 15 89v90h-372v41l481 592h55v-553h129zM1154 320h264v333z" />
    <glyph glyph-name="questiondown" unicode="&#xbf;" horiz-adv-x="913" 
d="M536 1016l-1 -1c40 0 74 -14 103 -43s43 -62 43 -100s-14 -71 -43 -99s-63 -42 -103 -42s-74 14 -103 42s-44 61 -44 99s15 72 44 101s64 43 104 43zM600 581l-2 3c-4 -69 -18 -134 -41 -196s-50 -115 -81 -159s-62 -87 -93 -129s-56 -86 -76 -132s-30 -92 -30 -139
c0 -64 17 -120 51 -167s76 -71 127 -71c33 0 64 11 94 32s56 48 78 81s40 64 54 93s26 57 35 84l18 6l125 -235c-125 -94 -263 -141 -413 -141c-115 0 -209 30 -283 89s-111 140 -111 243c0 60 14 116 41 168s62 99 104 140s84 82 126 122s81 87 117 140s59 109 68 168h92z
" />
    <glyph glyph-name="Agrave" unicode="&#xc0;" horiz-adv-x="1470" 
d="M836 1581l-29 -7c-123 133 -217 237 -283 313h267c11 -87 26 -189 45 -306zM1270 196l-1 1c9 -27 17 -47 23 -60s16 -27 29 -42s29 -28 48 -38s44 -20 75 -29v-27h-617v27c59 21 99 39 121 54s33 36 33 62c0 23 -10 61 -29 114l-77 219h-465l-15 -39
c-49 -137 -73 -224 -72 -262c0 -35 10 -64 30 -86s55 -43 104 -63v-27h-428v27c71 44 123 92 157 144s72 137 114 254l295 827l-66 131c103 41 186 84 249 129zM456 604h374l-188 531z" />
    <glyph glyph-name="Aacute" unicode="&#xc1;" horiz-adv-x="1470" 
d="M956 1888c-22 -26 -116 -134 -282 -325l-29 6c19 116 34 222 45 319h266zM1270 197l-1 1c9 -27 17 -47 23 -60s16 -27 29 -42s29 -28 48 -38s44 -20 75 -29v-27h-617v27c59 21 99 39 121 54s33 36 33 62c0 23 -10 61 -29 114l-77 219h-465l-15 -39
c-49 -137 -73 -224 -72 -262c0 -35 10 -64 30 -86s55 -43 104 -63v-27h-428v27c71 44 123 92 157 144s72 137 114 254l295 827l-66 131c103 41 186 84 249 129zM456 605h374l-188 531z" />
    <glyph glyph-name="Acircumflex" unicode="&#xc2;" horiz-adv-x="1470" 
d="M745 1694l-242 -170l-27 14c86 120 173 245 260 375h15c85 -129 172 -254 261 -375l-25 -14zM1269 197l-1 1c9 -27 17 -47 23 -60s16 -27 29 -42s29 -28 48 -38s44 -20 75 -29v-27h-617v27c59 21 99 39 121 54s33 36 33 62c0 23 -10 61 -29 114l-77 219h-465l-15 -39
c-49 -137 -73 -224 -72 -262c0 -35 10 -64 30 -86s55 -43 104 -63v-27h-428v27c71 44 123 92 157 144s72 137 114 254l295 827l-66 131c103 41 186 84 249 129zM455 605h374l-188 531z" />
    <glyph glyph-name="Atilde" unicode="&#xc3;" horiz-adv-x="1470" 
d="M559 1649l-1 -2c-49 0 -93 -20 -132 -60l-37 13c23 68 54 118 93 149s90 47 153 47c29 0 76 -10 141 -31c75 -23 119 -34 132 -33c39 0 67 3 84 10s38 23 64 48l33 -10c-22 -75 -51 -127 -88 -156s-89 -43 -157 -43c-17 0 -61 11 -133 33c-78 23 -129 35 -152 35z
M1269 195l-1 1c9 -27 17 -47 23 -60s16 -27 29 -42s29 -28 48 -38s44 -20 75 -29v-27h-617v27c59 21 99 39 121 54s33 36 33 62c0 23 -10 61 -29 114l-77 219h-465l-15 -39c-49 -137 -73 -224 -72 -262c0 -35 10 -64 30 -86s55 -43 104 -63v-27h-428v27
c71 44 123 92 157 144s72 137 114 254l295 827l-66 131c103 41 186 84 249 129zM455 603h374l-188 531z" />
    <glyph glyph-name="Adieresis" unicode="&#xc4;" horiz-adv-x="1470" 
d="M539 1554l-2 -2c-35 0 -65 13 -90 38s-38 56 -38 92s13 66 38 91s56 38 92 38c34 0 64 -12 90 -37s39 -55 39 -91s-13 -66 -39 -91s-56 -38 -90 -38zM938 1554v-1c-34 0 -64 12 -89 37s-38 55 -38 91s12 66 37 91s55 38 90 38s65 -12 90 -37s38 -55 38 -91
s-13 -66 -38 -91s-55 -37 -90 -37zM1268 194l-1 1c9 -27 17 -47 23 -60s16 -27 29 -42s29 -28 48 -38s44 -20 75 -29v-27h-617v27c59 21 99 39 121 54s33 36 33 62c0 23 -10 61 -29 114l-77 219h-465l-15 -39c-49 -137 -73 -224 -72 -262c0 -35 10 -64 30 -86
s55 -43 104 -63v-27h-428v27c71 44 123 92 157 144s72 137 114 254l295 827l-66 131c103 41 186 84 249 129zM454 602h374l-188 531z" />
    <glyph glyph-name="Aring" unicode="&#xc5;" horiz-adv-x="1470" 
d="M739 1536v-2c-52 0 -96 19 -132 56s-54 83 -54 138c0 52 18 96 54 133s80 55 132 55s96 -18 132 -55s54 -81 54 -132c0 -55 -18 -101 -54 -138s-80 -55 -132 -55zM736 1866v-2c-34 0 -63 -14 -86 -41s-35 -59 -35 -96s13 -70 38 -99s55 -44 89 -44c35 0 64 14 86 41
s33 60 33 98c0 39 -12 73 -36 101s-54 42 -89 42zM1269 193l-1 1c9 -27 17 -47 23 -60s16 -27 29 -42s29 -28 48 -38s44 -20 75 -29v-27h-617v27c59 21 99 39 121 54s33 36 33 62c0 23 -10 61 -29 114l-77 219h-465l-15 -39c-49 -137 -73 -224 -72 -262c0 -35 10 -64 30 -86
s55 -43 104 -63v-27h-428v27c71 44 123 92 157 144s72 137 114 254l295 827l-66 131c103 41 186 84 249 129zM455 601h374l-188 531z" />
    <glyph glyph-name="AE" unicode="&#xc6;" horiz-adv-x="2000" 
d="M1874 385l24 -4l-50 -385h-1101v27c77 30 125 58 143 83s27 79 27 162v203h-453l-96 -164c-39 -67 -59 -117 -60 -151c0 -49 43 -93 129 -132v-27h-426v27c52 33 96 68 131 105s76 96 123 178l582 983c7 12 10 22 10 31c0 17 -11 34 -34 51s-63 39 -120 65v26h1077
l37 -374h-27c-27 74 -74 139 -140 195s-149 84 -250 84h-201v-539h209c56 0 104 13 144 39s70 57 90 93h25v-369h-25c-21 42 -51 79 -90 110s-87 46 -143 44l-209 -6v-551c0 -26 22 -48 66 -66s104 -27 181 -27h57c79 0 151 29 215 86s116 125 155 203zM540 598h377v641z
" />
    <glyph glyph-name="Ccedilla" unicode="&#xc7;" horiz-adv-x="1402" 
d="M786 70h-1c81 0 162 34 244 102s154 149 217 244h27l-41 -369c-154 -48 -304 -73 -451 -74l-16 -34c180 -15 270 -75 270 -180c0 -121 -128 -181 -385 -180l11 47c146 11 219 47 219 109c0 30 -20 57 -60 80s-90 35 -150 36l69 123c-193 4 -353 71 -481 201
s-192 312 -192 545c0 236 67 424 201 563s303 209 508 209c130 0 282 -25 457 -74l41 -364h-27c-63 93 -136 174 -219 242s-167 102 -253 102c-109 0 -204 -57 -285 -171s-121 -274 -121 -481c0 -213 43 -379 128 -498s182 -178 290 -178z" />
    <glyph glyph-name="Egrave" unicode="&#xc8;" horiz-adv-x="1304" 
d="M756 1569l-29 -6c-154 177 -248 286 -283 327h267c11 -97 26 -204 45 -321zM1178 385l24 -3l-49 -385h-1112v27c55 21 92 39 112 54s34 36 43 63s14 70 14 130v920c0 60 -4 103 -13 130s-23 48 -43 63s-57 33 -112 54v26h1038l37 -374h-26c-29 75 -76 140 -142 195
s-150 83 -251 83h-206v-541h219c57 0 106 13 146 40s70 57 89 91h23v-368h-23c-22 44 -53 81 -93 111s-87 44 -142 43l-219 -6v-549c0 -26 22 -48 66 -66s104 -27 180 -27h70c79 0 151 29 215 86s116 125 155 203z" />
    <glyph glyph-name="Eacute" unicode="&#xc9;" horiz-adv-x="1304" 
d="M881 1888c-22 -26 -116 -134 -283 -325l-29 6c19 116 34 222 45 319h267zM1178 385l24 -3l-49 -385h-1112v27c55 21 92 39 112 54s34 36 43 63s14 70 14 130v920c0 60 -4 103 -13 130s-23 48 -43 63s-57 33 -112 54v26h1038l37 -374h-26c-29 75 -76 140 -142 195
s-150 83 -251 83h-206v-541h219c57 0 106 13 146 40s70 57 89 91h23v-368h-23c-22 44 -53 81 -93 111s-87 44 -142 43l-219 -6v-549c0 -26 22 -48 66 -66s104 -27 180 -27h70c79 0 151 29 215 86s116 125 155 203z" />
    <glyph glyph-name="Ecircumflex" unicode="&#xca;" horiz-adv-x="1304" 
d="M670 1694l-243 -170l-27 14c86 120 173 245 261 375h14c85 -129 172 -254 261 -375l-25 -14zM1177 385l24 -3l-49 -385h-1112v27c55 21 92 39 112 54s34 36 43 63s14 70 14 130v920c0 60 -4 103 -13 130s-23 48 -43 63s-57 33 -112 54v26h1038l37 -374h-26
c-29 75 -76 140 -142 195s-150 83 -251 83h-206v-541h219c57 0 106 13 146 40s70 57 89 91h23v-368h-23c-22 44 -53 81 -93 111s-87 44 -142 43l-219 -6v-549c0 -26 22 -48 66 -66s104 -27 180 -27h70c79 0 151 29 215 86s116 125 155 203z" />
    <glyph glyph-name="Edieresis" unicode="&#xcb;" horiz-adv-x="1304" 
d="M463 1554v-2c-35 0 -65 13 -90 38s-38 56 -38 92s13 66 38 91s55 38 90 38s65 -12 90 -37s38 -55 38 -91s-13 -66 -38 -91s-55 -38 -90 -38zM864 1554l-1 -1c-36 0 -66 12 -91 37s-37 55 -37 91s12 66 37 91s55 38 91 38s66 -12 91 -37s38 -55 38 -91s-12 -66 -37 -91
s-55 -37 -91 -37zM1176 382l24 -3l-49 -385h-1112v27c55 21 92 39 112 54s34 36 43 63s14 70 14 130v920c0 60 -4 103 -13 130s-23 48 -43 63s-57 33 -112 54v26h1038l37 -374h-26c-29 75 -76 140 -142 195s-150 83 -251 83h-206v-541h219c57 0 106 13 146 40s70 57 89 91
h23v-368h-23c-22 44 -53 81 -93 111s-87 44 -142 43l-219 -6v-549c0 -26 22 -48 66 -66s104 -27 180 -27h70c79 0 151 29 215 86s116 125 155 203z" />
    <glyph glyph-name="Igrave" unicode="&#xcc;" horiz-adv-x="700" 
d="M418 1563c-154 177 -248 286 -283 327h266c11 -97 26 -204 45 -321zM43 0l-2 22c55 21 92 39 112 54s34 36 43 63s14 70 14 130v920c0 60 -4 103 -13 130s-23 48 -43 63s-57 33 -112 54v26h619v-26c-77 -30 -124 -58 -142 -83s-27 -79 -27 -162v-920
c0 -83 9 -137 27 -162s66 -52 143 -82v-27h-619z" />
    <glyph glyph-name="Iacute" unicode="&#xcd;" horiz-adv-x="700" 
d="M289 1563l-29 5c19 116 34 222 45 319h266c-21 -25 -115 -133 -282 -324zM43 -1l-2 22c55 21 92 39 112 54s34 36 43 63s14 70 14 130v920c0 60 -4 103 -13 130s-23 48 -43 63s-57 33 -112 54v26h619v-26c-77 -30 -124 -58 -142 -83s-27 -79 -27 -162v-920
c0 -83 9 -137 27 -162s66 -52 143 -82v-27h-619z" />
    <glyph glyph-name="Icircumflex" unicode="&#xce;" horiz-adv-x="700" 
d="M119 1524l-28 14c86 120 173 245 260 375h15c85 -129 172 -254 261 -375l-25 -14l-242 170zM42 0l-2 22c55 21 92 39 112 54s34 36 43 63s14 70 14 130v920c0 60 -4 103 -13 130s-23 48 -43 63s-57 33 -112 54v26h619v-26c-77 -30 -124 -58 -142 -83s-27 -79 -27 -162
v-920c0 -83 9 -137 27 -162s66 -52 143 -82v-27h-619z" />
    <glyph glyph-name="Idieresis" unicode="&#xcf;" horiz-adv-x="700" 
d="M154 1554l-2 -2c-35 0 -65 13 -90 38s-38 56 -38 92s13 66 38 91s56 38 92 38c34 0 64 -12 90 -37s39 -55 39 -91s-13 -66 -39 -91s-56 -38 -90 -38zM553 1554v-1c-34 0 -64 12 -89 37s-38 55 -38 91s12 66 37 91s55 38 90 38s65 -12 90 -37s38 -55 38 -91
s-13 -66 -38 -91s-55 -37 -90 -37zM41 -3l-2 22c55 21 92 39 112 54s34 36 43 63s14 70 14 130v920c0 60 -4 103 -13 130s-23 48 -43 63s-57 33 -112 54v26h619v-26c-77 -30 -124 -58 -142 -83s-27 -79 -27 -162v-920c0 -83 9 -137 27 -162s66 -52 143 -82v-27h-619z" />
    <glyph glyph-name="Eth" unicode="&#xd0;" horiz-adv-x="1495" 
d="M598 1464l-3 -3c273 0 480 -63 620 -189s210 -297 210 -512c0 -219 -66 -401 -199 -546s-311 -217 -535 -217h-649v27c55 21 92 39 112 54s34 36 43 63s14 70 14 130v445h-96v92h96v383c0 60 -4 103 -13 130s-23 48 -43 63s-57 33 -112 54v26h555zM675 95l-1 -1
c138 0 247 59 327 177s120 276 120 474c0 206 -46 361 -137 465s-225 156 -402 156h-94v-561h225v-92h-225v-529c0 -23 16 -43 49 -59s79 -26 138 -30z" />
    <glyph glyph-name="Ntilde" unicode="&#xd1;" horiz-adv-x="1519" 
d="M600 1649v-2c-49 0 -93 -20 -132 -60l-37 13c23 68 54 118 93 149s90 47 153 47c29 0 76 -10 141 -31c75 -23 119 -34 132 -33c39 0 67 3 84 10s38 23 64 48l32 -10c-22 -75 -51 -127 -88 -156s-89 -43 -157 -43c-17 0 -61 11 -133 33c-78 23 -129 35 -152 35zM1489 1462
l5 -31c-63 -23 -107 -45 -132 -66s-43 -55 -55 -102s-18 -122 -18 -226v-1042h-209c-254 411 -497 792 -729 1143v-721c0 -79 2 -139 6 -181s15 -77 32 -106s37 -50 59 -62s57 -27 105 -44v-27h-508v27c48 18 83 33 105 45s42 33 59 62s28 65 32 107s6 103 6 182v833
c-13 38 -38 75 -74 110s-77 64 -124 86v14h408c272 -411 516 -791 731 -1140v718c0 104 -6 180 -18 227s-30 81 -55 102s-69 43 -132 66v26h506z" />
    <glyph glyph-name="Ograve" unicode="&#xd2;" horiz-adv-x="1574" 
d="M852 1563c-154 177 -248 286 -283 327h267c11 -97 26 -204 45 -321zM786 -27h-1c-214 0 -387 69 -519 208s-198 323 -198 552s66 413 198 551s305 207 519 207s388 -69 521 -208s200 -322 200 -550s-66 -412 -199 -551s-307 -209 -521 -209zM829 72l-1 -3
c111 0 202 49 274 147s108 231 108 398c0 82 -9 166 -27 253s-45 170 -80 250s-84 146 -147 197s-134 77 -213 77c-115 0 -207 -50 -277 -150s-105 -231 -105 -394c0 -83 10 -168 29 -255s46 -170 81 -250s84 -145 147 -195s133 -75 211 -75z" />
    <glyph glyph-name="Oacute" unicode="&#xd3;" horiz-adv-x="1574" 
d="M723 1563l-29 5c19 116 34 222 45 319h267c-22 -25 -116 -133 -283 -324zM786 -28h-1c-214 0 -387 69 -519 208s-198 323 -198 552s66 413 198 551s305 207 519 207s388 -69 521 -208s200 -322 200 -550s-66 -412 -199 -551s-307 -209 -521 -209zM829 71l-1 -3
c111 0 202 49 274 147s108 231 108 398c0 82 -9 166 -27 253s-45 170 -80 250s-84 146 -147 197s-134 77 -213 77c-115 0 -207 -50 -277 -150s-105 -231 -105 -394c0 -83 10 -168 29 -255s46 -170 81 -250s84 -145 147 -195s133 -75 211 -75z" />
    <glyph glyph-name="Ocircumflex" unicode="&#xd4;" horiz-adv-x="1574" 
d="M553 1524l-28 14c86 120 173 245 260 375h15c85 -129 172 -254 261 -375l-25 -14l-241 170zM785 -27h-1c-214 0 -387 69 -519 208s-198 323 -198 552s66 413 198 551s305 207 519 207s388 -69 521 -208s200 -322 200 -550s-66 -412 -199 -551s-307 -209 -521 -209z
M828 72l-1 -3c111 0 202 49 274 147s108 231 108 398c0 82 -9 166 -27 253s-45 170 -80 250s-84 146 -147 197s-134 77 -213 77c-115 0 -207 -50 -277 -150s-105 -231 -105 -394c0 -83 10 -168 29 -255s46 -170 81 -250s84 -145 147 -195s133 -75 211 -75z" />
    <glyph glyph-name="Otilde" unicode="&#xd5;" horiz-adv-x="1574" 
d="M1104 1790l32 -12c-22 -75 -51 -127 -88 -156s-89 -43 -157 -43c-17 0 -61 11 -133 33c-78 23 -129 35 -152 35c-49 0 -93 -20 -132 -60l-37 13c23 68 54 118 93 149s90 47 153 47c29 0 76 -10 141 -31c75 -23 119 -34 132 -33c39 0 67 3 84 10s38 23 64 48zM785 -29h-1
c-214 0 -387 69 -519 208s-198 323 -198 552s66 413 198 551s305 207 519 207s388 -69 521 -208s200 -322 200 -550s-66 -412 -199 -551s-307 -209 -521 -209zM828 70l-1 -3c111 0 202 49 274 147s108 231 108 398c0 82 -9 166 -27 253s-45 170 -80 250s-84 146 -147 197
s-134 77 -213 77c-115 0 -207 -50 -277 -150s-105 -231 -105 -394c0 -83 10 -168 29 -255s46 -170 81 -250s84 -145 147 -195s133 -75 211 -75z" />
    <glyph glyph-name="Odieresis" unicode="&#xd6;" horiz-adv-x="1574" 
d="M585 1554l-2 -2c-36 0 -66 13 -91 38s-37 56 -37 92s13 66 38 91s55 38 91 38s67 -12 92 -37s38 -55 38 -91s-13 -66 -38 -91s-55 -38 -91 -38zM984 1554v-1c-35 0 -65 12 -90 37s-37 55 -37 91s12 66 37 91s55 38 90 38s65 -12 90 -37s38 -55 38 -91s-13 -66 -38 -91
s-55 -37 -90 -37zM783 -30h-1c-214 0 -387 69 -519 208s-198 323 -198 552s66 413 198 551s305 207 519 207s388 -69 521 -208s200 -322 200 -550s-66 -412 -199 -551s-307 -209 -521 -209zM826 69l-1 -3c111 0 202 49 274 147s108 231 108 398c0 82 -9 166 -27 253
s-45 170 -80 250s-84 146 -147 197s-134 77 -213 77c-115 0 -207 -50 -277 -150s-105 -231 -105 -394c0 -83 10 -168 29 -255s46 -170 81 -250s84 -145 147 -195s133 -75 211 -75z" />
    <glyph glyph-name="multiply" unicode="&#xd7;" horiz-adv-x="841" 
d="M754 414l-62 -62l-270 271l-264 -263l-58 60l262 262l-272 272l64 62l270 -273l262 263l59 -60l-262 -262z" />
    <glyph glyph-name="Oslash" unicode="&#xd8;" horiz-adv-x="1574" 
d="M1262 1327h1c164 -138 246 -336 245 -594c0 -228 -66 -412 -199 -551s-307 -209 -522 -209c-157 0 -294 39 -411 117l-109 -153h-96l143 200c-164 142 -246 341 -245 596c0 229 66 413 198 551s305 207 519 207c159 0 296 -39 412 -117l100 139h97zM363 846h-2
c0 -181 36 -345 107 -492l596 834c-83 137 -190 205 -321 205c-113 0 -205 -49 -275 -148s-105 -232 -105 -399zM828 72l-1 1c112 0 204 49 276 147s108 231 108 398c0 180 -35 345 -104 494l-598 -836c86 -136 192 -204 319 -204z" />
    <glyph glyph-name="Ugrave" unicode="&#xd9;" horiz-adv-x="1521" 
d="M848 1563c-154 177 -248 286 -283 327h266c11 -97 26 -204 46 -321zM1499 1464l-2 -31c-48 -18 -83 -33 -105 -45s-42 -33 -59 -62s-28 -64 -32 -106s-6 -102 -6 -181v-575c0 -154 -47 -275 -142 -363s-224 -132 -387 -132c-69 0 -134 9 -196 26s-121 45 -177 83
s-101 93 -134 165s-50 158 -50 257v688c0 60 -4 103 -13 130s-23 48 -43 63s-57 33 -112 54v26h619v-26c-77 -30 -124 -58 -142 -83s-27 -79 -27 -162v-686c0 -131 32 -233 95 -305s149 -108 258 -108c107 0 192 34 255 101s94 158 94 273v577c0 79 -2 140 -6 182
s-15 78 -32 107s-37 50 -59 62s-57 27 -105 45v26h508z" />
    <glyph glyph-name="Uacute" unicode="&#xda;" horiz-adv-x="1521" 
d="M717 1563l-29 5c19 116 34 222 45 319h266c-21 -25 -115 -133 -282 -324zM1499 1463l-2 -31c-48 -18 -83 -33 -105 -45s-42 -33 -59 -62s-28 -64 -32 -106s-6 -102 -6 -181v-575c0 -154 -47 -275 -142 -363s-224 -132 -387 -132c-69 0 -134 9 -196 26s-121 45 -177 83
s-101 93 -134 165s-50 158 -50 257v688c0 60 -4 103 -13 130s-23 48 -43 63s-57 33 -112 54v26h619v-26c-77 -30 -124 -58 -142 -83s-27 -79 -27 -162v-686c0 -131 32 -233 95 -305s149 -108 258 -108c107 0 192 34 255 101s94 158 94 273v577c0 79 -2 140 -6 182
s-15 78 -32 107s-37 50 -59 62s-57 27 -105 45v26h508z" />
    <glyph glyph-name="Ucircumflex" unicode="&#xdb;" horiz-adv-x="1521" 
d="M547 1524l-28 14c86 120 173 245 260 375h15c85 -129 172 -254 261 -375l-25 -14l-242 170zM1498 1464l-2 -31c-48 -18 -83 -33 -105 -45s-42 -33 -59 -62s-28 -64 -32 -106s-6 -102 -6 -181v-575c0 -154 -47 -275 -142 -363s-224 -132 -387 -132c-69 0 -134 9 -196 26
s-121 45 -177 83s-101 93 -134 165s-50 158 -50 257v688c0 60 -4 103 -13 130s-23 48 -43 63s-57 33 -112 54v26h619v-26c-77 -30 -124 -58 -142 -83s-27 -79 -27 -162v-686c0 -131 32 -233 95 -305s149 -108 258 -108c107 0 192 34 255 101s94 158 94 273v577
c0 79 -2 140 -6 182s-15 78 -32 107s-37 50 -59 62s-57 27 -105 45v26h508z" />
    <glyph glyph-name="Udieresis" unicode="&#xdc;" horiz-adv-x="1521" 
d="M581 1554l-2 -2c-36 0 -66 13 -91 38s-37 56 -37 92s13 66 38 91s55 38 91 38s67 -12 92 -37s38 -55 38 -91s-13 -66 -38 -91s-55 -38 -91 -38zM980 1554v-1c-35 0 -65 12 -90 37s-37 55 -37 91s12 66 37 91s55 38 90 38s65 -12 90 -37s38 -55 38 -91s-13 -66 -38 -91
s-55 -37 -90 -37zM1496 1461l-2 -31c-48 -18 -83 -33 -105 -45s-42 -33 -59 -62s-28 -64 -32 -106s-6 -102 -6 -181v-575c0 -154 -47 -275 -142 -363s-224 -132 -387 -132c-69 0 -134 9 -196 26s-121 45 -177 83s-101 93 -134 165s-50 158 -50 257v688c0 60 -4 103 -13 130
s-23 48 -43 63s-57 33 -112 54v26h619v-26c-77 -30 -124 -58 -142 -83s-27 -79 -27 -162v-686c0 -131 32 -233 95 -305s149 -108 258 -108c107 0 192 34 255 101s94 158 94 273v577c0 79 -2 140 -6 182s-15 78 -32 107s-37 50 -59 62s-57 27 -105 45v26h508z" />
    <glyph glyph-name="Yacute" unicode="&#xdd;" horiz-adv-x="1435" 
d="M987 1888c-22 -26 -116 -134 -282 -325l-29 6c19 116 34 222 45 319h266zM1014 1464h406v-26c-87 -42 -165 -119 -233 -232l-326 -534v-400c0 -83 9 -137 28 -162s66 -52 142 -82v-27h-620v27c77 30 125 58 143 83s27 79 27 162v385l-394 639c-15 25 -27 44 -36 56
s-25 26 -47 42s-51 31 -87 45v26h621v-26c-53 -22 -90 -41 -111 -57s-31 -33 -31 -51s16 -54 49 -109l278 -457l262 440c26 45 39 82 39 111c0 47 -37 87 -110 121v26z" />
    <glyph glyph-name="germandbls" unicode="&#xdf;" horiz-adv-x="1261" 
d="M737 918h-4c0 -29 16 -58 48 -87s71 -58 116 -87s90 -62 136 -98s85 -83 117 -141s48 -122 48 -192c0 -108 -34 -191 -102 -250s-149 -88 -243 -88c-104 0 -211 34 -321 101l47 309l20 -6c26 -87 62 -163 108 -228s98 -97 155 -97c38 0 70 14 95 43s38 71 38 127
c0 57 -15 109 -45 155s-66 84 -109 115s-86 61 -129 90s-79 62 -109 99s-45 78 -45 123c0 34 9 65 26 92s38 51 63 72l75 63s46 47 63 78s26 67 26 107c0 61 -18 108 -54 141s-77 50 -123 50c-60 0 -112 -27 -156 -82s-66 -136 -66 -244v-831c0 -77 8 -128 24 -153
s53 -50 110 -74v-27h-518v27c57 25 94 50 110 75s24 76 24 153v678h-117v57h117v58c0 131 40 238 120 320s192 123 337 123c104 0 191 -20 261 -61s105 -104 105 -189c0 -47 -13 -87 -39 -121s-54 -58 -85 -73s-59 -33 -85 -55s-39 -46 -39 -72z" />
    <glyph glyph-name="agrave" unicode="&#xe0;" horiz-adv-x="1083" 
d="M612 1135v1c-120 135 -214 243 -282 324h266c11 -93 26 -199 45 -319zM844 -19l-1 -2c-61 0 -104 20 -129 60s-36 87 -33 142h-2c-31 -52 -77 -98 -137 -138s-130 -60 -209 -60c-82 0 -146 22 -193 65s-70 99 -70 168c0 97 52 181 156 252s257 133 459 186l4 129
c1 37 -8 69 -28 95s-51 39 -94 39c-64 0 -115 -26 -153 -78s-63 -115 -75 -189l-18 -6l-179 127c37 64 93 120 168 167s166 71 274 71c121 0 209 -30 263 -91s80 -135 77 -222l-13 -530c0 -19 5 -35 14 -47s20 -18 33 -18c30 0 57 29 82 88l29 -14c-17 -52 -44 -97 -81 -136
s-85 -58 -144 -58zM450 140v1c85 0 159 41 223 123l10 322c-239 -77 -358 -182 -358 -316c0 -41 11 -73 34 -96s53 -34 91 -34z" />
    <glyph glyph-name="aacute" unicode="&#xe1;" horiz-adv-x="1083" 
d="M526 1124l-30 7c21 116 36 223 45 320h268c-25 -29 -119 -138 -283 -327zM844 -19l-1 -2c-61 0 -104 20 -129 60s-36 87 -33 142h-2c-31 -52 -77 -98 -137 -138s-130 -60 -209 -60c-82 0 -146 22 -193 65s-70 99 -70 168c0 97 52 181 156 252s257 133 459 186l4 129
c1 37 -8 69 -28 95s-51 39 -94 39c-64 0 -115 -26 -153 -78s-63 -115 -75 -189l-18 -6l-179 127c37 64 93 120 168 167s166 71 274 71c121 0 209 -30 263 -91s80 -135 77 -222l-13 -530c0 -19 5 -35 14 -47s20 -18 33 -18c30 0 57 29 82 88l29 -14c-17 -52 -44 -97 -81 -136
s-85 -58 -144 -58zM450 140v1c85 0 159 41 223 123l10 322c-239 -77 -358 -182 -358 -316c0 -41 11 -73 34 -96s53 -34 91 -34z" />
    <glyph glyph-name="acircumflex" unicode="&#xe2;" horiz-adv-x="1083" 
d="M322 1106l-20 18c34 45 78 106 131 183s93 135 120 174h12c98 -147 181 -266 250 -357l-20 -14l-236 164zM845 -20l-1 -2c-61 0 -104 20 -129 60s-36 87 -33 142h-2c-31 -52 -77 -98 -137 -138s-130 -60 -209 -60c-82 0 -146 22 -193 65s-70 99 -70 168
c0 97 52 181 156 252s257 133 459 186l4 129c1 37 -8 69 -28 95s-51 39 -94 39c-64 0 -115 -26 -153 -78s-63 -115 -75 -189l-18 -6l-179 127c37 64 93 120 168 167s166 71 274 71c121 0 209 -30 263 -91s80 -135 77 -222l-13 -530c0 -19 5 -35 14 -47s20 -18 33 -18
c30 0 57 29 82 88l29 -14c-17 -52 -44 -97 -81 -136s-85 -58 -144 -58zM451 139v1c85 0 159 41 223 123l10 322c-239 -77 -358 -182 -358 -316c0 -41 11 -73 34 -96s53 -34 91 -34z" />
    <glyph glyph-name="atilde" unicode="&#xe3;" horiz-adv-x="1083" 
d="M850 1386l19 -5c-23 -131 -88 -196 -194 -195c-33 0 -80 10 -142 31c-69 23 -115 34 -137 33c-45 0 -85 -20 -120 -59l-16 4c15 75 39 127 72 156s84 43 152 43c9 0 46 -11 110 -33s105 -33 123 -33c35 0 60 3 74 10s34 23 59 48zM845 -21l-1 -2c-61 0 -104 20 -129 60
s-36 87 -33 142h-2c-31 -52 -77 -98 -137 -138s-130 -60 -209 -60c-82 0 -146 22 -193 65s-70 99 -70 168c0 97 52 181 156 252s257 133 459 186l4 129c1 37 -8 69 -28 95s-51 39 -94 39c-64 0 -115 -26 -153 -78s-63 -115 -75 -189l-18 -6l-179 127c37 64 93 120 168 167
s166 71 274 71c121 0 209 -30 263 -91s80 -135 77 -222l-13 -530c0 -19 5 -35 14 -47s20 -18 33 -18c30 0 57 29 82 88l29 -14c-17 -52 -44 -97 -81 -136s-85 -58 -144 -58zM451 138v1c85 0 159 41 223 123l10 322c-239 -77 -358 -182 -358 -316c0 -41 11 -73 34 -96
s53 -34 91 -34z" />
    <glyph glyph-name="adieresis" unicode="&#xe4;" horiz-adv-x="1083" 
d="M381 1159c-34 0 -63 13 -88 38s-37 55 -37 89s12 63 37 88s54 37 88 37s64 -12 89 -37s38 -54 38 -88s-13 -64 -38 -89s-55 -38 -89 -38zM733 1159c-34 0 -63 13 -88 38s-37 55 -37 89s12 63 37 88s54 37 88 37s64 -12 89 -37s38 -54 38 -88c0 -35 -12 -65 -37 -90
s-55 -37 -90 -37zM844 -20l-1 -2c-61 0 -104 20 -129 60s-36 87 -33 142h-2c-31 -52 -77 -98 -137 -138s-130 -60 -209 -60c-82 0 -146 22 -193 65s-70 99 -70 168c0 97 52 181 156 252s257 133 459 186l4 129c1 37 -8 69 -28 95s-51 39 -94 39c-64 0 -115 -26 -153 -78
s-63 -115 -75 -189l-18 -6l-179 127c37 64 93 120 168 167s166 71 274 71c121 0 209 -30 263 -91s80 -135 77 -222l-13 -530c0 -19 5 -35 14 -47s20 -18 33 -18c30 0 57 29 82 88l29 -14c-17 -52 -44 -97 -81 -136s-85 -58 -144 -58zM450 139v1c85 0 159 41 223 123l10 322
c-239 -77 -358 -182 -358 -316c0 -41 11 -73 34 -96s53 -34 91 -34z" />
    <glyph glyph-name="aring" unicode="&#xe5;" horiz-adv-x="1083" 
d="M559 1081v-1c-52 0 -96 19 -132 56s-54 83 -54 138c0 52 18 96 54 133s80 55 132 55s96 -18 132 -55s54 -81 54 -133c0 -55 -18 -101 -54 -138s-80 -55 -132 -55zM565 1132v-1c34 0 62 14 84 43s33 62 33 99c0 38 -13 71 -38 98s-55 41 -89 41s-62 -13 -85 -40
s-34 -59 -34 -97c0 -37 13 -70 39 -99s56 -44 90 -44zM844 -22l-1 -2c-61 0 -104 20 -129 60s-36 87 -33 142h-2c-31 -52 -77 -98 -137 -138s-130 -60 -209 -60c-82 0 -146 22 -193 65s-70 99 -70 168c0 97 52 181 156 252s257 133 459 186l4 129c1 37 -8 69 -28 95
s-51 39 -94 39c-64 0 -115 -26 -153 -78s-63 -115 -75 -189l-18 -6l-179 127c37 64 93 120 168 167s166 71 274 71c121 0 209 -30 263 -91s80 -135 77 -222l-13 -530c0 -19 5 -35 14 -47s20 -18 33 -18c30 0 57 29 82 88l29 -14c-17 -52 -44 -97 -81 -136s-85 -58 -144 -58z
M450 137v1c85 0 159 41 223 123l10 322c-239 -77 -358 -182 -358 -316c0 -41 11 -73 34 -96s53 -34 91 -34z" />
    <glyph glyph-name="ae" unicode="&#xe6;" horiz-adv-x="1646" 
d="M362 -20l-1 -2c-85 0 -155 20 -211 59s-84 96 -84 170c0 195 211 343 632 444l2 107c1 48 -11 86 -36 115s-61 43 -108 43c-65 0 -116 -27 -152 -81s-57 -114 -62 -180l-25 -8l-174 125c30 56 84 109 163 160s171 76 276 76c127 0 218 -48 274 -144
c93 95 202 143 328 144c120 0 217 -38 290 -115s110 -165 110 -264v-62h-665c-7 -135 28 -237 105 -306s166 -104 267 -104c119 0 208 48 267 145l26 -14c-18 -83 -62 -155 -132 -216s-161 -92 -273 -92c-83 0 -160 18 -230 54s-126 86 -167 150
c-113 -136 -253 -204 -420 -204zM923 657l426 4c-3 69 -24 130 -64 183s-89 80 -148 80c-56 0 -104 -25 -145 -75s-64 -114 -69 -192zM480 128l-2 -2c51 0 100 12 147 36s85 56 114 97c-30 73 -45 149 -45 228c0 34 2 67 6 99c-130 -44 -225 -89 -285 -136
s-90 -106 -90 -177c-1 -97 51 -145 155 -145z" />
    <glyph glyph-name="ccedilla" unicode="&#xe7;" horiz-adv-x="935" 
d="M520 -20l-1 1c-18 0 -32 1 -41 2l-26 -48c157 -12 235 -66 234 -161c0 -67 -36 -119 -109 -157s-177 -56 -312 -55l17 35c73 7 132 22 177 45s67 53 67 90c0 31 -17 57 -51 78s-79 32 -135 33l102 142c-111 19 -202 74 -274 165s-108 206 -108 345c0 154 44 278 132 372
s194 141 317 141c83 0 156 -21 219 -63s113 -92 150 -149l-181 -144l-18 9c-9 67 -30 128 -63 183s-75 83 -127 83c-53 0 -100 -31 -141 -93s-62 -145 -62 -248c0 -129 32 -232 96 -310s145 -117 244 -117c108 0 189 45 243 135l29 -19c-25 -81 -69 -150 -132 -208
s-145 -87 -246 -87z" />
    <glyph glyph-name="egrave" unicode="&#xe8;" horiz-adv-x="991" 
d="M602 1141l-29 -5c-120 135 -214 243 -282 324h266c11 -93 26 -199 45 -319zM932 570l-643 -1v-2c0 -134 36 -236 107 -305s156 -104 255 -104c117 0 202 48 254 145l27 -14c-8 -29 -19 -57 -33 -85s-35 -61 -63 -99s-67 -68 -118 -91s-109 -34 -174 -34
c-138 0 -253 47 -345 141s-138 218 -138 371s46 278 137 374s205 144 342 144c61 0 116 -11 165 -33s87 -48 114 -79s50 -65 68 -103s30 -70 36 -97s9 -49 9 -66v-62zM504 926v-2c-55 0 -101 -24 -138 -71s-61 -112 -72 -195l407 5c-4 38 -11 74 -22 109s-32 69 -62 103
s-68 51 -113 51z" />
    <glyph glyph-name="eacute" unicode="&#xe9;" horiz-adv-x="991" 
d="M768 1450v1c-25 -29 -119 -138 -283 -327l-30 6c21 116 36 223 45 320h268zM932 570l-643 -1v-2c0 -134 36 -236 107 -305s156 -104 255 -104c117 0 202 48 254 145l27 -14c-8 -29 -19 -57 -33 -85s-35 -61 -63 -99s-67 -68 -118 -91s-109 -34 -174 -34
c-138 0 -253 47 -345 141s-138 218 -138 371s46 278 137 374s205 144 342 144c61 0 116 -11 165 -33s87 -48 114 -79s50 -65 68 -103s30 -70 36 -97s9 -49 9 -66v-62zM504 926v-2c-55 0 -101 -24 -138 -71s-61 -112 -72 -195l407 5c-4 38 -11 74 -22 109s-32 69 -62 103
s-68 51 -113 51z" />
    <glyph glyph-name="ecircumflex" unicode="&#xea;" horiz-adv-x="991" 
d="M518 1274l-236 -168l-21 18c34 45 78 106 131 183s93 135 120 174h12c98 -147 181 -266 250 -357l-20 -14zM933 569l-643 -1v-2c0 -134 36 -236 107 -305s156 -104 255 -104c117 0 202 48 254 145l27 -14c-8 -29 -19 -57 -33 -85s-35 -61 -63 -99s-67 -68 -118 -91
s-109 -34 -174 -34c-138 0 -253 47 -345 141s-138 218 -138 371s46 278 137 374s205 144 342 144c61 0 116 -11 165 -33s87 -48 114 -79s50 -65 68 -103s30 -70 36 -97s9 -49 9 -66v-62zM505 925v-2c-55 0 -101 -24 -138 -71s-61 -112 -72 -195l407 5c-4 38 -11 74 -22 109
s-32 69 -62 103s-68 51 -113 51z" />
    <glyph glyph-name="edieresis" unicode="&#xeb;" horiz-adv-x="991" 
d="M342 1159c-34 0 -63 13 -88 38s-37 55 -37 89s12 63 37 88s54 37 88 37s64 -12 89 -37s38 -54 38 -88s-13 -64 -38 -89s-55 -38 -89 -38zM694 1159c-34 0 -63 13 -88 38s-37 55 -37 89s12 63 37 88s54 37 88 37s64 -12 89 -37s38 -54 38 -88c0 -35 -13 -65 -38 -90
s-55 -37 -89 -37zM932 569l-643 -1v-2c0 -134 36 -236 107 -305s156 -104 255 -104c117 0 202 48 254 145l27 -14c-8 -29 -19 -57 -33 -85s-35 -61 -63 -99s-67 -68 -118 -91s-109 -34 -174 -34c-138 0 -253 47 -345 141s-138 218 -138 371s46 278 137 374s205 144 342 144
c61 0 116 -11 165 -33s87 -48 114 -79s50 -65 68 -103s30 -70 36 -97s9 -49 9 -66v-62zM504 925v-2c-55 0 -101 -24 -138 -71s-61 -112 -72 -195l407 5c-4 38 -11 74 -22 109s-32 69 -62 103s-68 51 -113 51z" />
    <glyph glyph-name="igrave" unicode="&#xec;" horiz-adv-x="569" 
d="M315 1139v1c-120 135 -214 243 -282 324h266c11 -93 26 -199 45 -319zM27 1v27c59 25 97 50 113 75s24 76 24 153v397c0 94 -8 155 -25 182s-54 55 -111 84v26c141 11 269 34 385 70v-760c0 -77 8 -128 24 -153s53 -50 110 -74v-27h-520z" />
    <glyph glyph-name="iacute" unicode="&#xed;" horiz-adv-x="569" 
d="M227 1128l-30 8c21 116 36 222 45 319h268c-25 -29 -119 -138 -283 -327zM27 1v27c59 25 97 50 113 75s24 76 24 153v397c0 94 -8 155 -25 182s-54 55 -111 84v26c141 11 269 34 385 70v-760c0 -77 8 -128 24 -153s53 -50 110 -74v-27h-520z" />
    <glyph glyph-name="icircumflex" unicode="&#xee;" horiz-adv-x="569" 
d="M25 1110l-20 18c34 45 78 106 131 183s93 135 120 174h12c98 -147 181 -266 250 -357l-20 -14l-236 164zM28 0v27c59 25 97 50 113 75s24 76 24 153v397c0 94 -8 155 -25 182s-54 55 -111 84v26c141 11 269 34 385 70v-760c0 -77 8 -128 24 -153s53 -50 110 -74v-27h-520
z" />
    <glyph glyph-name="idieresis" unicode="&#xef;" horiz-adv-x="569" 
d="M84 1163c-34 0 -63 13 -88 38s-37 55 -37 89s12 63 37 88s54 37 88 37s64 -12 89 -37s38 -54 38 -88s-13 -64 -38 -89s-55 -38 -89 -38zM436 1163c-34 0 -63 13 -88 38s-37 55 -37 89s12 63 37 88s54 37 88 37s64 -12 89 -37s38 -54 38 -88c0 -35 -13 -65 -38 -90
s-55 -37 -89 -37zM27 0v27c59 25 97 50 113 75s24 76 24 153v397c0 94 -8 155 -25 182s-54 55 -111 84v26c141 11 269 34 385 70v-760c0 -77 8 -128 24 -153s53 -50 110 -74v-27h-520z" />
    <glyph glyph-name="ntilde" unicode="&#xf1;" horiz-adv-x="1214" 
d="M461 1251v-2c-45 0 -85 -20 -120 -59l-16 4c15 75 39 127 72 156s84 43 153 43c9 0 46 -11 110 -33s105 -33 122 -33c35 0 60 4 75 11s34 23 58 47l19 -4c-23 -131 -88 -196 -195 -195c-33 0 -80 10 -141 31c-69 23 -115 34 -137 34zM1057 252l-1 -3
c0 -77 8 -128 24 -153s54 -50 113 -74v-27h-520v27c59 25 97 50 113 75s25 76 26 153c1 97 2 221 2 373c0 74 -16 128 -47 163s-72 52 -123 52c-82 0 -160 -49 -233 -146v-442c0 -77 8 -128 24 -153s53 -50 110 -74v-27h-520v27c59 25 97 50 113 75s24 76 24 153v399
c0 90 -8 150 -25 180s-54 59 -111 88v24c129 11 255 34 379 70v-230c100 150 222 225 366 226c77 0 144 -24 201 -72s85 -122 85 -223v-461z" />
    <glyph glyph-name="ograve" unicode="&#xf2;" horiz-adv-x="1118" 
d="M614 1135v1c-120 135 -214 243 -282 324h266c11 -93 26 -199 45 -319zM555 -19h-1c-147 0 -266 46 -358 138s-138 214 -138 365c0 150 46 275 137 376s214 151 369 151c147 0 266 -46 357 -139s137 -215 137 -367s-45 -277 -136 -376s-213 -148 -367 -148zM599 60
c57 0 106 27 146 80s60 132 60 236c0 75 -9 153 -27 233s-50 154 -96 221s-100 101 -163 101c-59 0 -108 -27 -148 -81s-60 -133 -60 -237c0 -53 6 -110 17 -171s28 -121 50 -180s52 -107 91 -145s82 -57 130 -57z" />
    <glyph glyph-name="oacute" unicode="&#xf3;" horiz-adv-x="1118" 
d="M526 1124l-30 7c21 116 36 223 45 320h268c-25 -29 -119 -138 -283 -327zM555 -19h-1c-147 0 -266 46 -358 138s-138 214 -138 365c0 150 46 275 137 376s214 151 369 151c147 0 266 -46 357 -139s137 -215 137 -367s-45 -277 -136 -376s-213 -148 -367 -148zM599 60
c57 0 106 27 146 80s60 132 60 236c0 75 -9 153 -27 233s-50 154 -96 221s-100 101 -163 101c-59 0 -108 -27 -148 -81s-60 -133 -60 -237c0 -53 6 -110 17 -171s28 -121 50 -180s52 -107 91 -145s82 -57 130 -57z" />
    <glyph glyph-name="ocircumflex" unicode="&#xf4;" horiz-adv-x="1118" 
d="M322 1106l-20 18c34 45 78 106 131 183s93 135 120 174h12c98 -147 181 -266 250 -357l-20 -14l-236 164zM556 -20h-1c-147 0 -266 46 -358 138s-138 214 -138 365c0 150 46 275 137 376s214 151 369 151c147 0 266 -46 357 -139s137 -215 137 -367s-45 -277 -136 -376
s-213 -148 -367 -148zM600 59c57 0 106 27 146 80s60 132 60 236c0 75 -9 153 -27 233s-50 154 -96 221s-100 101 -163 101c-59 0 -108 -27 -148 -81s-60 -133 -60 -237c0 -53 6 -110 17 -171s28 -121 50 -180s52 -107 91 -145s82 -57 130 -57z" />
    <glyph glyph-name="otilde" unicode="&#xf5;" horiz-adv-x="1118" 
d="M852 1386l19 -5c-23 -131 -88 -196 -194 -195c-33 0 -80 10 -141 31c-69 23 -115 34 -138 33c-45 0 -85 -20 -120 -59l-16 4c15 75 39 127 72 156s84 43 152 43c9 0 46 -11 110 -33s105 -33 123 -33c35 0 60 3 74 10s34 23 59 48zM556 -21h-1c-147 0 -266 46 -358 138
s-138 214 -138 365c0 150 46 275 137 376s214 151 369 151c147 0 266 -46 357 -139s137 -215 137 -367s-45 -277 -136 -376s-213 -148 -367 -148zM600 58c57 0 106 27 146 80s60 132 60 236c0 75 -9 153 -27 233s-50 154 -96 221s-100 101 -163 101c-59 0 -108 -27 -148 -81
s-60 -133 -60 -237c0 -53 6 -110 17 -171s28 -121 50 -180s52 -107 91 -145s82 -57 130 -57z" />
    <glyph glyph-name="odieresis" unicode="&#xf6;" horiz-adv-x="1118" 
d="M383 1159c-34 0 -63 13 -88 38s-37 55 -37 89s12 63 37 88s54 37 88 37s64 -12 89 -37s38 -54 38 -88s-13 -64 -38 -89s-55 -38 -89 -38zM735 1159c-34 0 -63 13 -88 38s-37 55 -37 89s12 63 37 88s54 37 88 37s64 -12 89 -37s38 -54 38 -88c0 -35 -13 -65 -38 -90
s-55 -37 -89 -37zM555 -20h-1c-147 0 -266 46 -358 138s-138 214 -138 365c0 150 46 275 137 376s214 151 369 151c147 0 266 -46 357 -139s137 -215 137 -367s-45 -277 -136 -376s-213 -148 -367 -148zM599 59c57 0 106 27 146 80s60 132 60 236c0 75 -9 153 -27 233
s-50 154 -96 221s-100 101 -163 101c-59 0 -108 -27 -148 -81s-60 -133 -60 -237c0 -53 6 -110 17 -171s28 -121 50 -180s52 -107 91 -145s82 -57 130 -57z" />
    <glyph glyph-name="divide" unicode="&#xf7;" horiz-adv-x="905" 
d="M444 836l-1 -2c-29 0 -53 10 -73 30s-30 45 -30 74s10 54 30 74s45 30 74 30s54 -10 75 -30s31 -44 31 -73s-10 -53 -31 -73s-46 -30 -75 -30zM818 729v-88h-727v88h727zM437 307l-1 -1c-29 0 -53 10 -73 31s-30 46 -30 75s10 54 30 74s45 30 74 30s54 -10 75 -30
s31 -44 31 -73s-10 -54 -31 -75s-46 -31 -75 -31z" />
    <glyph glyph-name="oslash" unicode="&#xf8;" horiz-adv-x="1118" 
d="M895 897h-1c109 -97 164 -229 164 -396c0 -150 -45 -274 -135 -373s-211 -148 -364 -148c-105 0 -198 24 -278 71l-99 -135h-88l129 178c-109 90 -164 220 -164 389c0 150 46 275 137 376s212 151 363 151c108 0 200 -24 277 -72l82 115h90zM312 614h-1
c0 -107 19 -213 56 -319l348 481c-52 103 -116 154 -193 154c-60 0 -110 -27 -150 -80s-60 -132 -60 -236zM596 59l-1 1c60 0 110 27 149 80s59 131 59 234c0 109 -18 217 -55 324l-351 -481c52 -105 118 -158 199 -158z" />
    <glyph glyph-name="ugrave" unicode="&#xf9;" horiz-adv-x="1212" 
d="M692 1141l-28 -5c-120 135 -214 243 -283 324h266c11 -93 26 -199 45 -319zM1057 253h-2c0 -65 8 -108 24 -128s53 -39 110 -56v-27l-375 -70v217c-104 -143 -226 -215 -366 -215c-77 0 -144 24 -201 72s-86 122 -86 223v383c0 89 -8 149 -24 180s-53 60 -110 87v26
c141 11 269 34 384 70c0 -75 -1 -186 -2 -332s-2 -256 -2 -330c0 -71 16 -123 47 -157s72 -51 122 -51c78 0 156 42 234 127v381c0 90 -8 150 -24 179s-54 58 -114 87v26c130 8 258 31 385 68v-760z" />
    <glyph glyph-name="uacute" unicode="&#xfa;" horiz-adv-x="1212" 
d="M858 1450v1c-25 -29 -119 -138 -283 -327l-30 6c21 116 36 223 45 320h268zM1057 253h-2c0 -65 8 -108 24 -128s53 -39 110 -56v-27l-375 -70v217c-104 -143 -226 -215 -366 -215c-77 0 -144 24 -201 72s-86 122 -86 223v383c0 89 -8 149 -24 180s-53 60 -110 87v26
c141 11 269 34 384 70c0 -75 -1 -186 -2 -332s-2 -256 -2 -330c0 -71 16 -123 47 -157s72 -51 122 -51c78 0 156 42 234 127v381c0 90 -8 150 -24 179s-54 58 -114 87v26c130 8 258 31 385 68v-760z" />
    <glyph glyph-name="ucircumflex" unicode="&#xfb;" horiz-adv-x="1212" 
d="M608 1274l-236 -168l-21 18c34 45 78 106 131 183s93 135 120 174h12c98 -147 181 -266 250 -357l-20 -14zM1058 252h-2c0 -65 8 -108 24 -128s53 -39 110 -56v-27l-375 -70v217c-104 -143 -226 -215 -366 -215c-77 0 -144 24 -201 72s-86 122 -86 223v383
c0 89 -8 149 -24 180s-53 60 -110 87v26c141 11 269 34 384 70c0 -75 -1 -186 -2 -332s-2 -256 -2 -330c0 -71 16 -123 47 -157s72 -51 122 -51c78 0 156 42 234 127v381c0 90 -8 150 -24 179s-54 58 -114 87v26c130 8 258 31 385 68v-760z" />
    <glyph glyph-name="udieresis" unicode="&#xfc;" horiz-adv-x="1212" 
d="M432 1159c-34 0 -63 13 -88 38s-37 55 -37 89s12 63 37 88s54 37 88 37s64 -12 89 -37s38 -54 38 -88s-13 -64 -38 -89s-55 -38 -89 -38zM784 1159h-2c-34 0 -63 13 -88 38s-37 55 -37 89s12 63 37 88s55 37 89 37s64 -12 89 -37s38 -54 38 -88c0 -35 -12 -65 -37 -90
s-55 -37 -89 -37zM1054 252h-2c0 -65 8 -108 24 -128s53 -39 110 -56v-27l-375 -70v217c-104 -143 -226 -215 -366 -215c-77 0 -144 24 -201 72s-86 122 -86 223v383c0 89 -8 149 -24 180s-53 60 -110 87v26c141 11 269 34 384 70c0 -75 -1 -186 -2 -332s-2 -256 -2 -330
c0 -71 16 -123 47 -157s72 -51 122 -51c78 0 156 42 234 127v381c0 90 -8 150 -24 179s-54 58 -114 87v26c130 8 258 31 385 68v-760z" />
    <glyph glyph-name="yacute" unicode="&#xfd;" horiz-adv-x="1105" 
d="M831 1450v1c-25 -29 -119 -138 -282 -327l-31 6c21 116 36 223 45 320h268zM752 986l349 -3v-27c-48 -26 -83 -53 -105 -81s-45 -71 -70 -130c-149 -349 -238 -557 -268 -623s-60 -125 -90 -177c-3 -5 -14 -25 -33 -60s-34 -61 -45 -78s-28 -41 -50 -72s-47 -60 -74 -87
s-57 -54 -90 -80l-133 174l13 16c143 -8 253 58 329 199c12 25 19 39 21 42c3 4 10 18 22 43l-368 786c-27 60 -77 104 -150 131v27h547v-27c-81 -29 -121 -63 -121 -102c0 -17 7 -40 21 -70l207 -456c75 168 134 313 176 434c11 30 16 55 16 74c0 49 -35 89 -104 120v27z
" />
    <glyph glyph-name="ydieresis" unicode="&#xff;" horiz-adv-x="1105" 
d="M405 1159h-1c-34 0 -63 13 -87 38s-36 55 -36 89s12 63 36 88s53 37 87 37s64 -12 89 -37s38 -54 38 -88s-12 -64 -37 -89s-55 -38 -89 -38zM756 1159c-34 0 -63 13 -88 38s-37 55 -37 89s12 63 37 88s54 37 88 37s64 -12 89 -37s38 -54 38 -88c0 -35 -12 -65 -37 -90
s-55 -37 -90 -37zM750 985l349 -3v-27c-48 -26 -83 -53 -105 -81s-45 -71 -70 -130c-149 -349 -238 -557 -268 -623s-60 -125 -90 -177c-3 -5 -14 -25 -33 -60s-34 -61 -45 -78s-28 -41 -50 -72s-47 -60 -74 -87s-57 -54 -90 -80l-133 174l13 16c143 -8 253 58 329 199
c12 25 19 39 21 42c3 4 10 18 22 43l-368 786c-27 60 -77 104 -150 131v27h547v-27c-81 -29 -121 -63 -121 -102c0 -17 7 -40 21 -70l207 -456c75 168 134 313 176 434c11 30 16 55 16 74c0 49 -35 89 -104 120v27z" />
    <glyph glyph-name="Amacron" unicode="&#x100;" horiz-adv-x="1470" 
d="M1014 1724v-135h-547v135h547zM1270 197l-1 1c9 -27 17 -47 23 -60s16 -27 29 -42s29 -28 48 -38s44 -20 75 -29v-27h-617v27c59 21 99 39 121 54s33 36 33 62c0 23 -10 61 -29 114l-77 219h-465l-15 -39c-49 -137 -73 -224 -72 -262c0 -35 10 -64 30 -86s55 -43 104 -63
v-27h-428v27c71 44 123 92 157 144s72 137 114 254l295 827l-66 131c103 41 186 84 249 129zM456 605h374l-188 531z" />
    <glyph glyph-name="amacron" unicode="&#x101;" horiz-adv-x="1083" 
d="M825 1335v-135h-522v135h522zM844 -20l-1 -2c-61 0 -104 20 -129 60s-36 87 -33 142h-2c-31 -52 -77 -98 -137 -138s-130 -60 -209 -60c-82 0 -146 22 -193 65s-70 99 -70 168c0 97 52 181 156 252s257 133 459 186l4 129c1 37 -8 69 -28 95s-51 39 -94 39
c-64 0 -115 -26 -153 -78s-63 -115 -75 -189l-18 -6l-179 127c37 64 93 120 168 167s166 71 274 71c121 0 209 -30 263 -91s80 -135 77 -222l-13 -530c0 -19 5 -35 14 -47s20 -18 33 -18c30 0 57 29 82 88l29 -14c-17 -52 -44 -97 -81 -136s-85 -58 -144 -58zM450 139v1
c85 0 159 41 223 123l10 322c-239 -77 -358 -182 -358 -316c0 -41 11 -73 34 -96s53 -34 91 -34z" />
    <glyph glyph-name="Abreve" unicode="&#x102;" horiz-adv-x="1470" 
d="M741 1556h1c-149 0 -234 108 -255 324h31c15 -56 44 -100 86 -131s88 -47 137 -47s94 16 136 47s71 75 86 131h30c-21 -216 -105 -324 -252 -324zM1271 197l-1 1c9 -27 17 -47 23 -60s16 -27 29 -42s29 -28 48 -38s44 -20 75 -29v-27h-617v27c59 21 99 39 121 54
s33 36 33 62c0 23 -10 61 -29 114l-77 219h-465l-15 -39c-49 -137 -73 -224 -72 -262c0 -35 10 -64 30 -86s55 -43 104 -63v-27h-428v27c71 44 123 92 157 144s72 137 114 254l295 827l-66 131c103 41 186 84 249 129zM457 605h374l-188 531z" />
    <glyph glyph-name="abreve" unicode="&#x103;" horiz-adv-x="1083" 
d="M786 1456h29c-21 -223 -105 -334 -252 -334c-149 0 -234 111 -255 334h25c17 -57 47 -102 90 -135s89 -49 138 -49s95 16 138 49s72 78 87 135zM848 -20l-1 -2c-61 0 -104 20 -129 60s-36 87 -33 142h-2c-31 -52 -77 -98 -137 -138s-130 -60 -209 -60
c-82 0 -146 22 -193 65s-70 99 -70 168c0 97 52 181 156 252s257 133 459 186l4 129c1 37 -8 69 -28 95s-51 39 -94 39c-64 0 -115 -26 -153 -78s-63 -115 -75 -189l-18 -6l-179 127c37 64 93 120 168 167s166 71 274 71c121 0 209 -30 263 -91s80 -135 77 -222l-13 -530
c0 -19 5 -35 14 -47s20 -18 33 -18c30 0 57 29 82 88l29 -14c-17 -52 -44 -97 -81 -136s-85 -58 -144 -58zM454 139v1c85 0 159 41 223 123l10 322c-239 -77 -358 -182 -358 -316c0 -41 11 -73 34 -96s53 -34 91 -34z" />
    <glyph glyph-name="Aogonek" unicode="&#x104;" horiz-adv-x="1470" 
d="M1268 0l-1 2c-87 -71 -131 -140 -131 -207c0 -27 9 -48 26 -62s38 -21 63 -21c52 0 100 21 143 62l21 -17c-30 -44 -69 -79 -118 -105s-99 -39 -150 -39c-48 0 -87 12 -118 35s-46 54 -46 93c0 87 79 174 238 260h-367v27c59 21 99 39 121 54s33 36 33 62
c0 23 -10 61 -29 114l-77 219h-465l-15 -39c-49 -137 -73 -224 -72 -262c0 -35 10 -64 30 -86s55 -43 104 -63v-27h-428v27c71 44 123 92 157 144s72 137 114 254l295 827l-66 131c103 41 186 84 249 129l492 -1316c9 -27 17 -47 23 -60s16 -27 29 -42s29 -28 48 -38
s44 -20 75 -29v-27h-178zM456 606h374l-188 531z" />
    <glyph glyph-name="aogonek" unicode="&#x105;" horiz-adv-x="1083" 
d="M891 -285l-1 -3c52 0 100 21 143 62l21 -17c-30 -42 -69 -76 -118 -103s-99 -40 -150 -40c-48 0 -87 12 -117 35s-45 54 -45 93c0 78 64 157 192 236c-52 7 -88 30 -109 70s-30 84 -27 131h-2c-31 -52 -77 -98 -137 -138s-130 -60 -209 -60c-82 0 -146 22 -193 65
s-70 99 -70 168c0 97 52 181 156 252s257 133 459 186l4 129c1 37 -8 69 -28 95s-51 39 -94 39c-64 0 -115 -26 -153 -78s-63 -115 -75 -189l-18 -6l-179 127c37 64 93 120 168 167s166 71 274 71c121 0 209 -30 263 -91s80 -135 77 -222l-13 -530c0 -19 5 -35 14 -47
s20 -18 33 -18c30 0 57 29 82 88l29 -14c-31 -93 -81 -153 -149 -180c-78 -67 -117 -132 -117 -195c0 -27 9 -48 26 -62s38 -21 63 -21zM673 261l10 323c-239 -77 -358 -182 -358 -316c0 -41 11 -73 33 -96s53 -34 92 -34c85 0 159 41 223 123z" />
    <glyph glyph-name="Cacute" unicode="&#x106;" horiz-adv-x="1402" 
d="M729 1563l-29 5c19 116 34 222 45 319h267c-22 -25 -116 -133 -283 -324zM776 1396h-1c-109 0 -204 -57 -285 -171s-121 -274 -121 -481c0 -213 43 -379 128 -498s181 -178 288 -178c81 0 162 34 244 102s154 149 217 244h27l-41 -369c-151 -49 -304 -74 -459 -74
c-206 0 -375 65 -507 194s-198 312 -198 549c0 239 67 428 201 567s303 209 508 209c130 0 282 -25 457 -74l41 -364h-27c-63 93 -136 174 -219 242s-167 102 -253 102z" />
    <glyph glyph-name="cacute" unicode="&#x107;" horiz-adv-x="935" 
d="M465 1124l-31 7c21 116 36 223 45 320h269c-25 -29 -119 -138 -283 -327zM520 -19l1 -1c-129 0 -238 47 -327 141s-134 219 -134 375c0 154 44 278 132 372s194 141 317 141c83 0 156 -21 219 -63s113 -92 150 -149l-181 -144l-18 9c-9 67 -30 128 -63 183
s-75 83 -127 83c-53 0 -100 -31 -141 -93s-62 -145 -62 -248c0 -129 32 -232 96 -310s145 -117 244 -117c108 0 189 45 243 135l29 -19c-25 -81 -69 -150 -132 -208s-145 -87 -246 -87z" />
    <glyph glyph-name="Ccircumflex" unicode="&#x108;" horiz-adv-x="1402" 
d="M559 1524l-28 14c86 120 173 245 261 375h14c85 -129 172 -254 261 -375l-25 -14l-241 170zM775 1397h-1c-109 0 -204 -57 -285 -171s-121 -274 -121 -481c0 -213 43 -379 128 -498s181 -178 288 -178c81 0 162 34 244 102s154 149 217 244h27l-41 -369
c-151 -49 -304 -74 -459 -74c-206 0 -375 65 -507 194s-198 312 -198 549c0 239 67 428 201 567s303 209 508 209c130 0 282 -25 457 -74l41 -364h-27c-63 93 -136 174 -219 242s-167 102 -253 102z" />
    <glyph glyph-name="ccircumflex" unicode="&#x109;" horiz-adv-x="935" 
d="M260 1106l-19 18c34 45 78 106 131 183s93 135 120 174h12c98 -147 181 -266 250 -357l-21 -14l-235 164zM521 -20l1 -1c-129 0 -238 47 -327 141s-134 219 -134 375c0 154 44 278 132 372s194 141 317 141c83 0 156 -21 219 -63s113 -92 150 -149l-181 -144l-18 9
c-9 67 -30 128 -63 183s-75 83 -127 83c-53 0 -100 -31 -141 -93s-62 -145 -62 -248c0 -129 32 -232 96 -310s145 -117 244 -117c108 0 189 45 243 135l29 -19c-25 -81 -69 -150 -132 -208s-145 -87 -246 -87z" />
    <glyph glyph-name="Cdotaccent" unicode="&#x10a;" horiz-adv-x="1402" 
d="M793 1559l-1 -2c-34 0 -64 13 -90 38s-39 55 -39 91s13 67 39 92s56 38 91 38s65 -13 90 -38s38 -55 38 -91s-13 -66 -38 -91s-55 -37 -90 -37zM775 1395h-1c-109 0 -204 -57 -285 -171s-121 -274 -121 -481c0 -213 43 -379 128 -498s181 -178 288 -178
c81 0 162 34 244 102s154 149 217 244h27l-41 -369c-151 -49 -304 -74 -459 -74c-206 0 -375 65 -507 194s-198 312 -198 549c0 239 67 428 201 567s303 209 508 209c130 0 282 -25 457 -74l41 -364h-27c-63 93 -136 174 -219 242s-167 102 -253 102z" />
    <glyph glyph-name="cdotaccent" unicode="&#x10b;" horiz-adv-x="935" 
d="M497 1149h-2c-38 0 -71 14 -100 41s-43 59 -43 96c0 35 14 66 43 93s63 41 101 41s72 -14 101 -41s43 -58 43 -93c0 -37 -14 -69 -43 -96s-62 -41 -100 -41zM517 -20l1 -1c-129 0 -238 47 -327 141s-134 219 -134 375c0 154 44 278 132 372s194 141 317 141
c83 0 156 -21 219 -63s113 -92 150 -149l-181 -144l-18 9c-9 67 -30 128 -63 183s-75 83 -127 83c-53 0 -100 -31 -141 -93s-62 -145 -62 -248c0 -129 32 -232 96 -310s145 -117 244 -117c108 0 189 45 243 135l29 -19c-25 -81 -69 -150 -132 -208s-145 -87 -246 -87z" />
    <glyph glyph-name="Ccaron" unicode="&#x10c;" horiz-adv-x="1402" 
d="M557 1921l244 -170l241 170l25 -14c-89 -121 -176 -246 -261 -375h-12c-119 173 -207 298 -264 375zM778 1397h-1c-109 0 -204 -57 -285 -171s-121 -274 -121 -481c0 -213 43 -379 128 -498s181 -178 288 -178c81 0 162 34 244 102s154 149 217 244h27l-41 -369
c-151 -49 -304 -74 -459 -74c-206 0 -375 65 -507 194s-198 312 -198 549c0 239 67 428 201 567s303 209 508 209c130 0 282 -25 457 -74l41 -364h-27c-63 93 -136 174 -219 242s-167 102 -253 102z" />
    <glyph glyph-name="ccaron" unicode="&#x10d;" horiz-adv-x="935" 
d="M254 1489l237 -166l235 164l23 -14c-75 -98 -159 -218 -252 -359h-13c-26 37 -65 94 -118 172s-96 140 -130 187zM519 -20l1 -1c-129 0 -238 47 -327 141s-134 219 -134 375c0 154 44 278 132 372s194 141 317 141c83 0 156 -21 219 -63s113 -92 150 -149l-181 -144
l-18 9c-9 67 -30 128 -63 183s-75 83 -127 83c-53 0 -100 -31 -141 -93s-62 -145 -62 -248c0 -129 32 -232 96 -310s145 -117 244 -117c108 0 189 45 243 135l29 -19c-25 -81 -69 -150 -132 -208s-145 -87 -246 -87z" />
    <glyph glyph-name="Dcaron" unicode="&#x10e;" horiz-adv-x="1495" 
d="M739 1532h-11c-119 173 -206 298 -262 375l27 14l241 -170l242 170l24 -14c-89 -121 -176 -246 -261 -375zM599 1464l-3 -3c273 0 480 -63 620 -189s210 -297 210 -512c0 -219 -66 -401 -199 -546s-311 -217 -535 -217h-649v27c55 21 92 39 112 54s34 36 43 63
s14 70 14 130v920c0 60 -4 103 -13 130s-23 48 -43 63s-57 33 -112 54v26h555zM676 95l-1 -1c138 0 247 59 327 177s120 276 120 474c0 206 -46 361 -137 465s-225 156 -402 156h-94v-1182c0 -23 16 -43 49 -59s79 -26 138 -30z" />
    <glyph glyph-name="dcaron" unicode="&#x10f;" horiz-adv-x="1171" 
d="M451 -20c-107 0 -199 45 -276 136s-116 213 -116 367c0 159 41 287 124 383s181 144 294 144c109 0 205 -37 288 -111v371c0 86 -46 146 -137 180v20c133 8 261 31 385 70v-1337c0 -42 8 -71 24 -88s53 -36 110 -57v-18l-377 -61v186h-4c-31 -53 -75 -97 -132 -132
s-118 -53 -183 -53zM1145 1047h-29l33 442h229zM549 111c77 0 149 47 217 141v364c-26 81 -61 152 -106 212s-97 90 -156 90c-64 0 -111 -36 -142 -109s-46 -160 -46 -262c0 -124 22 -228 65 -311s99 -125 168 -125z" />
    <glyph glyph-name="Dcroat" unicode="&#x110;" horiz-adv-x="1495" 
d="M598 1464l-3 -3c273 0 480 -63 620 -189s210 -297 210 -512c0 -219 -66 -401 -199 -546s-311 -217 -535 -217h-649v27c55 21 92 39 112 54s34 36 43 63s14 70 14 130v445h-96v92h96v383c0 60 -4 103 -13 130s-23 48 -43 63s-57 33 -112 54v26h555zM675 95l-1 -1
c138 0 247 59 327 177s120 276 120 474c0 206 -46 361 -137 465s-225 156 -402 156h-94v-561h225v-92h-225v-529c0 -23 16 -43 49 -59s79 -26 138 -30z" />
    <glyph glyph-name="dcroat" unicode="&#x111;" horiz-adv-x="1171" 
d="M1014 203h1c0 -42 8 -71 24 -88s53 -36 110 -57v-18l-377 -61v186h-4c-31 -53 -75 -97 -132 -132s-118 -53 -183 -53c-107 0 -199 45 -276 136s-116 213 -116 367c0 159 41 287 124 383s181 144 294 144c109 0 205 -37 288 -111v289h-258v92h258c-3 79 -49 136 -138 170
v20c133 8 261 31 385 70v-260h125v-92h-125v-985zM767 252l-2 364c-26 81 -61 152 -106 212s-97 90 -156 90c-64 0 -111 -36 -142 -109s-46 -160 -46 -262c0 -124 22 -228 65 -311s100 -125 170 -125c77 0 149 47 217 141z" />
    <glyph glyph-name="Emacron" unicode="&#x112;" horiz-adv-x="1304" 
d="M967 1724v-135h-607v135h607zM1178 385l24 -3l-49 -385h-1112v27c55 21 92 39 112 54s34 36 43 63s14 70 14 130v920c0 60 -4 103 -13 130s-23 48 -43 63s-57 33 -112 54v26h1038l37 -374h-26c-29 75 -76 140 -142 195s-150 83 -251 83h-206v-541h219c57 0 106 13 146 40
s70 57 89 91h23v-368h-23c-22 44 -53 81 -93 111s-87 44 -142 43l-219 -6v-549c0 -26 22 -48 66 -66s104 -27 180 -27h70c79 0 151 29 215 86s116 125 155 203z" />
    <glyph glyph-name="emacron" unicode="&#x113;" horiz-adv-x="991" 
d="M786 1335v-135h-522v135h522zM932 569l-643 -1v-2c0 -134 36 -236 107 -305s156 -104 255 -104c117 0 202 48 254 145l27 -14c-8 -29 -19 -57 -33 -85s-35 -61 -63 -99s-67 -68 -118 -91s-109 -34 -174 -34c-138 0 -253 47 -345 141s-138 218 -138 371s46 278 137 374
s205 144 342 144c61 0 116 -11 165 -33s87 -48 114 -79s50 -65 68 -103s30 -70 36 -97s9 -49 9 -66v-62zM504 925v-2c-55 0 -101 -24 -138 -71s-61 -112 -72 -195l407 5c-4 38 -11 74 -22 109s-32 69 -62 103s-68 51 -113 51z" />
    <glyph glyph-name="Ebreve" unicode="&#x114;" horiz-adv-x="1304" 
d="M662 1544h1c-149 0 -234 111 -255 334h30c15 -57 44 -102 86 -134s88 -48 137 -48s94 16 136 48s71 77 86 134h30c-20 -223 -104 -334 -251 -334zM1179 385l24 -3l-49 -385h-1112v27c55 21 92 39 112 54s34 36 43 63s14 70 14 130v920c0 60 -4 103 -13 130s-23 48 -43 63
s-57 33 -112 54v26h1038l37 -374h-26c-29 75 -76 140 -142 195s-150 83 -251 83h-206v-541h219c57 0 106 13 146 40s70 57 89 91h23v-368h-23c-22 44 -53 81 -93 111s-87 44 -142 43l-219 -6v-549c0 -26 22 -48 66 -66s104 -27 180 -27h70c79 0 151 29 215 86
s116 125 155 203z" />
    <glyph glyph-name="ebreve" unicode="&#x115;" horiz-adv-x="991" 
d="M518 1122h1c-149 0 -234 111 -255 334h25c17 -57 47 -102 90 -135s89 -49 138 -49s96 16 140 49s73 78 88 135h25c-21 -223 -105 -334 -252 -334zM933 569l-643 -1v-2c0 -134 36 -236 107 -305s156 -104 255 -104c117 0 202 48 254 145l27 -14c-8 -29 -19 -57 -33 -85
s-35 -61 -63 -99s-67 -68 -118 -91s-109 -34 -174 -34c-138 0 -253 47 -345 141s-138 218 -138 371s46 278 137 374s205 144 342 144c61 0 116 -11 165 -33s87 -48 114 -79s50 -65 68 -103s30 -70 36 -97s9 -49 9 -66v-62zM505 925v-2c-55 0 -101 -24 -138 -71
s-61 -112 -72 -195l407 5c-4 38 -11 74 -22 109s-32 69 -62 103s-68 51 -113 51z" />
    <glyph glyph-name="Edotaccent" unicode="&#x116;" horiz-adv-x="1304" 
d="M662 1559l-1 -2c-34 0 -64 13 -90 38s-39 55 -39 91s13 67 39 92s56 38 91 38s65 -13 90 -38s38 -55 38 -91s-13 -66 -38 -91s-55 -37 -90 -37zM1177 383l24 -3l-49 -385h-1112v27c55 21 92 39 112 54s34 36 43 63s14 70 14 130v920c0 60 -4 103 -13 130s-23 48 -43 63
s-57 33 -112 54v26h1038l37 -374h-26c-29 75 -76 140 -142 195s-150 83 -251 83h-206v-541h219c57 0 106 13 146 40s70 57 89 91h23v-368h-23c-22 44 -53 81 -93 111s-87 44 -142 43l-219 -6v-549c0 -26 22 -48 66 -66s104 -27 180 -27h70c79 0 151 29 215 86
s116 125 155 203z" />
    <glyph glyph-name="edotaccent" unicode="&#x117;" horiz-adv-x="991" 
d="M518 1149h-2c-38 0 -71 14 -100 41s-43 59 -43 96c0 35 14 66 43 93s62 41 100 41s72 -14 101 -41s44 -58 44 -93c0 -37 -14 -69 -43 -96s-62 -41 -100 -41zM930 569l-643 -1v-2c0 -134 36 -236 107 -305s156 -104 255 -104c117 0 202 48 254 145l27 -14
c-8 -29 -19 -57 -33 -85s-35 -61 -63 -99s-67 -68 -118 -91s-109 -34 -174 -34c-138 0 -253 47 -345 141s-138 218 -138 371s46 278 137 374s205 144 342 144c61 0 116 -11 165 -33s87 -48 114 -79s50 -65 68 -103s30 -70 36 -97s9 -49 9 -66v-62zM502 925v-2
c-55 0 -101 -24 -138 -71s-61 -112 -72 -195l407 5c-4 38 -11 74 -22 109s-32 69 -62 103s-68 51 -113 51z" />
    <glyph glyph-name="Eogonek" unicode="&#x118;" horiz-adv-x="1304" 
d="M987 0l-4 -5c-37 -27 -68 -59 -94 -95s-39 -70 -39 -101c0 -26 9 -46 26 -60s38 -21 63 -21c53 0 101 19 143 58l13 -10c-26 -42 -63 -76 -111 -103s-97 -40 -147 -40c-48 0 -87 12 -118 35s-46 53 -46 90c0 87 85 170 254 249h-887v27c55 21 92 39 112 54s34 36 43 63
s14 70 14 130v920c0 60 -4 103 -13 130s-23 48 -43 63s-57 33 -112 54v26h1038l37 -374h-26c-29 75 -76 140 -142 195s-150 83 -251 83h-206v-541h219c57 0 106 13 146 40s70 57 89 91h23v-368h-23c-22 44 -53 81 -93 111s-87 44 -142 43l-219 -6v-549c0 -26 22 -48 66 -66
s104 -27 180 -27h70c79 0 151 29 215 86s116 125 156 203h26l-49 -385h-168z" />
    <glyph glyph-name="eogonek" unicode="&#x119;" horiz-adv-x="991" 
d="M932 569h-646v-2c0 -134 36 -236 107 -305s156 -104 255 -104c117 0 202 48 254 145l27 -14c-35 -133 -107 -225 -215 -276c-38 -27 -72 -61 -102 -102s-45 -79 -45 -114c0 -27 9 -48 26 -62s38 -21 63 -21c52 0 100 21 144 62l20 -17c-30 -44 -69 -79 -117 -105
s-97 -39 -148 -39c-48 0 -87 12 -118 35s-46 54 -46 93c0 81 66 160 199 238c-9 -1 -21 -2 -36 -2c-145 0 -263 47 -355 141s-138 218 -138 371s46 278 137 374s205 144 342 144c61 0 116 -11 165 -33s87 -48 114 -79s50 -65 68 -103s30 -70 36 -97s9 -49 9 -66v-62z
M501 926v-2c-55 0 -101 -24 -138 -71s-61 -112 -72 -195l407 5c-4 38 -11 74 -22 109s-32 69 -62 103s-68 51 -113 51z" />
    <glyph glyph-name="Ecaron" unicode="&#x11a;" horiz-adv-x="1304" 
d="M674 1532h-10c-119 173 -207 298 -264 375l27 14l242 -170l241 170l25 -14c-89 -121 -176 -246 -261 -375zM1180 385l24 -3l-49 -385h-1112v27c55 21 92 39 112 54s34 36 43 63s14 70 14 130v920c0 60 -4 103 -13 130s-23 48 -43 63s-57 33 -112 54v26h1038l37 -374h-26
c-29 75 -76 140 -142 195s-150 83 -251 83h-206v-541h219c57 0 106 13 146 40s70 57 89 91h23v-368h-23c-22 44 -53 81 -93 111s-87 44 -142 43l-219 -6v-549c0 -26 22 -48 66 -66s104 -27 180 -27h70c79 0 151 29 215 86s116 125 155 203z" />
    <glyph glyph-name="ecaron" unicode="&#x11b;" horiz-adv-x="991" 
d="M518 1114l-12 1c-26 37 -66 94 -119 172s-97 140 -131 187l18 16l238 -166l236 164l22 -14c-75 -99 -159 -219 -252 -360zM932 570l-643 -1v-2c0 -134 36 -236 107 -305s156 -104 255 -104c117 0 202 48 254 145l27 -14c-8 -29 -19 -57 -33 -85s-35 -61 -63 -99
s-67 -68 -118 -91s-109 -34 -174 -34c-138 0 -253 47 -345 141s-138 218 -138 371s46 278 137 374s205 144 342 144c61 0 116 -11 165 -33s87 -48 114 -79s50 -65 68 -103s30 -70 36 -97s9 -49 9 -66v-62zM504 926v-2c-55 0 -101 -24 -138 -71s-61 -112 -72 -195l407 5
c-4 38 -11 74 -22 109s-32 69 -62 103s-68 51 -113 51z" />
    <glyph glyph-name="Gcircumflex" unicode="&#x11c;" horiz-adv-x="1550" 
d="M575 1524l-27 14c86 120 173 245 260 375h14c85 -129 172 -254 261 -375l-24 -14l-242 170zM738 -27l-3 -2c-190 0 -349 65 -478 196s-193 314 -193 549c0 239 68 428 204 567s313 208 530 208c159 0 315 -28 468 -84l43 -365h-27c-150 236 -312 354 -485 355
c-121 0 -223 -58 -306 -173s-125 -277 -125 -486c0 -216 43 -381 128 -495s187 -171 306 -171c41 0 80 5 117 14s72 30 104 62s48 72 48 119v228c0 78 -17 135 -50 171s-101 56 -204 60v37h629v-27c-45 -29 -73 -56 -85 -81s-18 -79 -18 -162v-455h-24
c-37 37 -80 55 -129 55c-27 0 -62 -10 -104 -30s-93 -40 -153 -60s-124 -30 -193 -30z" />
    <glyph glyph-name="gcircumflex" unicode="&#x11d;" horiz-adv-x="1048" 
d="M492 1274l-237 -168l-21 18c34 45 78 106 131 183s93 135 120 174h13c98 -147 181 -266 250 -357l-21 -14zM765 145l-4 -1c173 -45 260 -130 260 -255c0 -73 -29 -134 -87 -183s-125 -83 -201 -102s-156 -28 -241 -28c-73 0 -143 7 -210 21s-126 39 -177 74
s-76 78 -76 128c0 52 24 97 72 135s104 66 167 85v2c-112 26 -168 78 -168 156c0 45 21 86 63 122s98 63 167 81c-82 21 -146 57 -193 109s-70 117 -70 195c0 100 37 180 111 239s169 89 285 89h33c94 0 164 15 209 46s70 67 75 109l201 -61v-14
c-68 -79 -161 -119 -278 -119c-31 0 -59 2 -84 6v-8c78 -18 146 -53 203 -105s86 -118 86 -198c0 -89 -38 -162 -114 -220s-186 -87 -329 -87c-8 0 -18 1 -29 2c-68 -21 -102 -49 -102 -84c0 -26 17 -43 51 -52c3 -1 30 -7 82 -17s108 -22 169 -35s104 -23 129 -30zM460 937
v1c-45 0 -83 -17 -113 -51s-45 -84 -45 -150c0 -77 20 -147 60 -210s94 -94 161 -94c45 0 82 16 111 48s43 80 43 145c0 79 -20 151 -61 215s-93 96 -156 96zM525 -346v-3c86 0 158 13 215 40s86 65 86 114c0 64 -46 107 -137 130c-12 3 -122 25 -330 66
c-18 -7 -36 -16 -54 -28s-38 -31 -59 -58s-32 -56 -32 -87c0 -56 29 -99 87 -129s133 -45 224 -45z" />
    <glyph glyph-name="Gbreve" unicode="&#x11e;" horiz-adv-x="1550" 
d="M1030 1878h34c-21 -223 -105 -334 -252 -334c-149 0 -234 111 -255 334h31c15 -57 44 -102 86 -134s88 -48 137 -48s94 16 135 48s69 77 84 134zM742 -27l-3 -2c-190 0 -349 65 -478 196s-193 314 -193 549c0 239 68 428 204 567s313 208 530 208c159 0 315 -28 468 -84
l43 -365h-27c-150 236 -312 354 -485 355c-121 0 -223 -58 -306 -173s-125 -277 -125 -486c0 -216 43 -381 128 -495s187 -171 306 -171c41 0 80 5 117 14s72 30 104 62s48 72 48 119v228c0 78 -17 135 -50 171s-101 56 -204 60v37h629v-27c-45 -29 -73 -56 -85 -81
s-18 -79 -18 -162v-455h-24c-37 37 -80 55 -129 55c-27 0 -62 -10 -104 -30s-93 -40 -153 -60s-124 -30 -193 -30z" />
    <glyph glyph-name="gbreve" unicode="&#x11f;" horiz-adv-x="1048" 
d="M492 1122c-149 0 -234 111 -255 334h24c17 -57 47 -102 91 -135s90 -49 139 -49s95 16 139 49s74 78 89 135h24c-20 -223 -104 -334 -251 -334zM764 145l-4 -1c173 -45 260 -130 260 -255c0 -73 -29 -134 -87 -183s-125 -83 -201 -102s-156 -28 -241 -28
c-73 0 -143 7 -210 21s-126 39 -177 74s-76 78 -76 128c0 52 24 97 72 135s104 66 167 85v2c-112 26 -168 78 -168 156c0 45 21 86 63 122s98 63 167 81c-82 21 -146 57 -193 109s-70 117 -70 195c0 100 37 180 111 239s169 89 285 89h33c94 0 164 15 209 46s70 67 75 109
l201 -61v-14c-68 -79 -161 -119 -278 -119c-31 0 -59 2 -84 6v-8c78 -18 146 -53 203 -105s86 -118 86 -198c0 -89 -38 -162 -114 -220s-186 -87 -329 -87c-8 0 -18 1 -29 2c-68 -21 -102 -49 -102 -84c0 -26 17 -43 51 -52c3 -1 30 -7 82 -17s108 -22 169 -35
s104 -23 129 -30zM459 937v1c-45 0 -83 -17 -113 -51s-45 -84 -45 -150c0 -77 20 -147 60 -210s94 -94 161 -94c45 0 82 16 111 48s43 80 43 145c0 79 -20 151 -61 215s-93 96 -156 96zM524 -346v-3c86 0 158 13 215 40s86 65 86 114c0 64 -46 107 -137 130
c-12 3 -122 25 -330 66c-18 -7 -36 -16 -54 -28s-38 -31 -59 -58s-32 -56 -32 -87c0 -56 29 -99 87 -129s133 -45 224 -45z" />
    <glyph glyph-name="Gdotaccent" unicode="&#x120;" horiz-adv-x="1550" 
d="M809 1559v-2c-34 0 -64 13 -90 38s-39 55 -39 91s13 67 39 92s56 38 90 38c35 0 65 -13 90 -38s38 -55 38 -91s-13 -66 -38 -91s-55 -37 -90 -37zM739 -29l-3 -2c-190 0 -349 65 -478 196s-193 314 -193 549c0 239 68 428 204 567s313 208 530 208c159 0 315 -28 468 -84
l43 -365h-27c-150 236 -312 354 -485 355c-121 0 -223 -58 -306 -173s-125 -277 -125 -486c0 -216 43 -381 128 -495s187 -171 306 -171c41 0 80 5 117 14s72 30 104 62s48 72 48 119v228c0 78 -17 135 -50 171s-101 56 -204 60v37h629v-27c-45 -29 -73 -56 -85 -81
s-18 -79 -18 -162v-455h-24c-37 37 -80 55 -129 55c-27 0 -62 -10 -104 -30s-93 -40 -153 -60s-124 -30 -193 -30z" />
    <glyph glyph-name="gdotaccent" unicode="&#x121;" horiz-adv-x="1048" 
d="M491 1163l-2 -1c-36 0 -66 13 -91 39s-38 56 -38 90s13 64 38 90s56 39 92 39s67 -12 92 -37s38 -55 38 -91s-13 -66 -38 -91s-55 -38 -91 -38zM761 144l-4 -1c173 -45 260 -130 260 -255c0 -73 -29 -134 -87 -183s-125 -83 -201 -102s-156 -28 -241 -28
c-73 0 -143 7 -210 21s-126 39 -177 74s-76 78 -76 128c0 52 24 97 72 135s104 66 167 85v2c-112 26 -168 78 -168 156c0 45 21 86 63 122s98 63 167 81c-82 21 -146 57 -193 109s-70 117 -70 195c0 100 37 180 111 239s169 89 285 89h33c94 0 164 15 209 46s70 67 75 109
l201 -61v-14c-68 -79 -161 -119 -278 -119c-31 0 -59 2 -84 6v-8c78 -18 146 -53 203 -105s86 -118 86 -198c0 -89 -38 -162 -114 -220s-186 -87 -329 -87c-8 0 -18 1 -29 2c-68 -21 -102 -49 -102 -84c0 -26 17 -43 51 -52c3 -1 30 -7 82 -17s108 -22 169 -35
s104 -23 129 -30zM456 936v1c-45 0 -83 -17 -113 -51s-45 -84 -45 -150c0 -77 20 -147 60 -210s94 -94 161 -94c45 0 82 16 111 48s43 80 43 145c0 79 -20 151 -61 215s-93 96 -156 96zM521 -347v-3c86 0 158 13 215 40s86 65 86 114c0 64 -46 107 -137 130
c-12 3 -122 25 -330 66c-18 -7 -36 -16 -54 -28s-38 -31 -59 -58s-32 -56 -32 -87c0 -56 29 -99 87 -129s133 -45 224 -45z" />
    <glyph glyph-name="uni0122" unicode="&#x122;" horiz-adv-x="1550" 
d="M1446 762l-3 -29c-45 -29 -73 -56 -85 -81s-18 -79 -18 -162v-455h-24c-37 37 -80 55 -129 55c-27 0 -62 -10 -104 -30s-93 -40 -152 -60s-124 -30 -194 -30c-189 0 -348 65 -477 196s-194 314 -194 549c0 239 68 428 204 567s313 208 530 208c159 0 315 -28 468 -84
l43 -365h-27c-150 236 -312 354 -485 355c-121 0 -223 -58 -306 -173s-125 -277 -125 -486c0 -216 43 -381 128 -495s187 -171 306 -171c41 0 80 5 117 14s72 30 104 62s48 72 48 119v228c0 78 -17 135 -50 171s-101 56 -204 60v37h629zM816 -70v-2c37 0 68 -11 94 -34
s39 -56 39 -99c0 -51 -20 -104 -60 -160s-99 -100 -178 -132l-15 27c74 51 122 112 144 184h-21c-37 0 -69 10 -96 31s-40 46 -40 76s13 56 40 77s58 32 93 32z" />
    <glyph glyph-name="uni0123" unicode="&#x123;" horiz-adv-x="1048" 
d="M461 1137h-1c-35 0 -66 12 -93 36s-40 57 -40 98c0 52 20 106 60 163s100 101 179 132l15 -27c-73 -49 -121 -111 -144 -186c4 1 11 2 21 2c37 0 69 -10 96 -31s40 -46 40 -76s-13 -56 -40 -78s-58 -33 -93 -33zM763 145l-4 -1c173 -45 260 -130 260 -255
c0 -73 -29 -134 -87 -183s-125 -83 -201 -102s-156 -28 -241 -28c-73 0 -143 7 -210 21s-126 39 -177 74s-76 78 -76 128c0 52 24 97 72 135s104 66 167 85v2c-112 26 -168 78 -168 156c0 45 21 86 63 122s98 63 167 81c-82 21 -146 57 -193 109s-70 117 -70 195
c0 100 37 180 111 239s169 89 285 89h33c94 0 164 15 209 46s70 67 75 109l201 -61v-14c-68 -79 -161 -119 -278 -119c-31 0 -59 2 -84 6v-8c78 -18 146 -53 203 -105s86 -118 86 -198c0 -89 -38 -162 -114 -220s-186 -87 -329 -87c-8 0 -18 1 -29 2
c-68 -21 -102 -49 -102 -84c0 -26 17 -43 51 -52c3 -1 30 -7 82 -17s108 -22 169 -35s104 -23 129 -30zM458 937v1c-45 0 -83 -17 -113 -51s-45 -84 -45 -150c0 -77 20 -147 60 -210s94 -94 161 -94c45 0 82 16 111 48s43 80 43 145c0 79 -20 151 -61 215s-93 96 -156 96z
M523 -346v-3c86 0 158 13 215 40s86 65 86 114c0 64 -46 107 -137 130c-12 3 -122 25 -330 66c-18 -7 -36 -16 -54 -28s-38 -31 -59 -58s-32 -56 -32 -87c0 -56 29 -99 87 -129s133 -45 224 -45z" />
    <glyph glyph-name="Hcircumflex" unicode="&#x124;" horiz-adv-x="1605" 
d="M807 1694l-243 -170l-26 14c86 120 173 245 260 375h14c85 -129 172 -254 261 -375l-24 -14zM1566 1438l-3 -10c-77 -30 -124 -58 -142 -83s-27 -79 -27 -162v-920c0 -83 9 -137 27 -162s66 -52 143 -82v-27h-619v27c55 21 92 39 112 54s34 36 43 63s13 70 13 130v465
h-624v-465c0 -83 9 -137 27 -162s66 -52 143 -82v-27h-619v27c55 21 92 39 112 54s34 36 43 63s14 70 14 130v920c0 60 -4 103 -13 130s-23 48 -43 63s-57 33 -112 54v26h619v-26c-77 -30 -124 -58 -142 -83s-27 -79 -27 -162v-330h624v330c0 60 -4 103 -13 130
s-23 48 -43 63s-57 33 -112 54v26h619v-26z" />
    <glyph glyph-name="hcircumflex" unicode="&#x125;" horiz-adv-x="1216" 
d="M598 1718l-218 -153l-25 14c73 97 152 210 237 339h12c83 -127 161 -240 234 -339l-21 -14zM1058 254l1 -5c0 -77 8 -128 24 -153s53 -50 110 -74v-27h-518v27c59 25 97 50 113 75s24 76 24 153v75c0 32 0 64 1 97s1 65 1 96v77v31c0 71 -16 124 -48 160s-73 54 -122 54
c-79 0 -157 -48 -233 -144v-444c0 -77 8 -128 24 -153s53 -50 110 -74v-27h-520v27c59 25 97 50 113 75s24 76 24 153v917c0 94 -8 155 -25 183s-54 56 -111 85v26c141 11 269 34 385 70v-741c97 145 217 217 360 217c77 0 144 -24 201 -72s86 -122 86 -223v-461z" />
    <glyph glyph-name="Hbar" unicode="&#x126;" horiz-adv-x="1605" 
d="M1567 1438l-3 -10c-77 -30 -124 -58 -142 -83s-27 -79 -27 -162v-76h143v-86h-143v-758c0 -83 9 -137 27 -162s66 -52 143 -82v-27h-619v27c55 21 92 39 112 54s34 36 43 63s13 70 13 130v465h-624v-465c0 -83 9 -137 27 -162s66 -52 143 -82v-27h-619v27
c55 21 92 39 112 54s34 36 43 63s14 70 14 130v758h-143v86h143v76c0 60 -4 103 -13 130s-23 48 -43 63s-57 33 -112 54v26h619v-26c-77 -30 -124 -58 -142 -83s-27 -79 -27 -162v-76h624v76c0 60 -4 103 -13 130s-23 48 -43 63s-57 33 -112 54v26h619v-26zM1113 852v168
h-624v-168h624z" />
    <glyph glyph-name="hbar" unicode="&#x127;" horiz-adv-x="1216" 
d="M1059 254l1 -4c0 -77 8 -128 24 -153s53 -50 110 -74v-27h-518v27c59 25 97 50 113 75s24 76 24 153v75c0 32 0 64 1 97s1 65 1 96v77v31c0 71 -16 124 -48 160s-73 54 -122 54c-79 0 -157 -48 -233 -144v-444c0 -77 8 -128 24 -153s53 -50 110 -74v-27h-520v27
c59 25 97 50 113 75s24 76 24 153v934h-127v92h121c-4 33 -12 59 -25 79s-25 33 -36 40s-34 20 -69 39v26c141 11 269 34 385 70v-254h233v-92h-233v-395c97 145 217 217 360 217c77 0 144 -24 201 -72s86 -122 86 -223v-461z" />
    <glyph glyph-name="Itilde" unicode="&#x128;" horiz-adv-x="700" 
d="M672 1790l32 -12c-22 -75 -51 -127 -88 -156s-89 -43 -157 -43c-17 0 -61 11 -133 33c-78 23 -129 35 -152 35c-49 0 -93 -20 -132 -60l-37 13c23 68 54 118 93 149s90 47 153 47c29 0 76 -10 141 -31c75 -23 119 -34 132 -33c39 0 67 3 84 10s38 23 64 48zM42 -2l-2 22
c55 21 92 39 112 54s34 36 43 63s14 70 14 130v920c0 60 -4 103 -13 130s-23 48 -43 63s-57 33 -112 54v26h619v-26c-77 -30 -124 -58 -142 -83s-27 -79 -27 -162v-920c0 -83 9 -137 27 -162s66 -52 143 -82v-27h-619z" />
    <glyph glyph-name="itilde" unicode="&#x129;" horiz-adv-x="569" 
d="M553 1391l19 -6c-23 -131 -88 -196 -194 -195c-33 0 -80 10 -141 31c-69 23 -115 34 -138 33c-45 0 -85 -20 -120 -59l-16 4c15 75 39 127 72 156s84 43 152 43c9 0 46 -11 110 -33s105 -33 123 -33c35 0 60 4 74 11s34 23 59 48zM28 -1v27c59 25 97 50 113 75
s24 76 24 153v397c0 94 -8 155 -25 182s-54 55 -111 84v26c141 11 269 34 385 70v-760c0 -77 8 -128 24 -153s53 -50 110 -74v-27h-520z" />
    <glyph glyph-name="Imacron" unicode="&#x12a;" horiz-adv-x="700" 
d="M657 1724v-135h-606v135h606zM43 0l-2 22c55 21 92 39 112 54s34 36 43 63s14 70 14 130v920c0 60 -4 103 -13 130s-23 48 -43 63s-57 33 -112 54v26h619v-26c-77 -30 -124 -58 -142 -83s-27 -79 -27 -162v-920c0 -83 9 -137 27 -162s66 -52 143 -82v-27h-619z" />
    <glyph glyph-name="imacron" unicode="&#x12b;" horiz-adv-x="569" 
d="M528 1339v-135h-522v135h522zM27 0v27c59 25 97 50 113 75s24 76 24 153v397c0 94 -8 155 -25 182s-54 55 -111 84v26c141 11 269 34 385 70v-760c0 -77 8 -128 24 -153s53 -50 110 -74v-27h-520z" />
    <glyph glyph-name="Ibreve" unicode="&#x12c;" horiz-adv-x="700" 
d="M575 1878h34c-21 -223 -105 -334 -252 -334c-149 0 -234 111 -255 334h31c15 -57 44 -102 86 -134s88 -48 137 -48s94 16 135 48s69 77 84 134zM46 0l-2 22c55 21 92 39 112 54s34 36 43 63s14 70 14 130v920c0 60 -4 103 -13 130s-23 48 -43 63s-57 33 -112 54v26h619
v-26c-77 -30 -124 -58 -142 -83s-27 -79 -27 -162v-920c0 -83 9 -137 27 -162s66 -52 143 -82v-27h-619z" />
    <glyph glyph-name="ibreve" unicode="&#x12d;" horiz-adv-x="569" 
d="M489 1460h29c-21 -223 -105 -334 -252 -334c-149 0 -234 111 -255 334h25c17 -57 47 -102 90 -135s89 -49 138 -49s95 16 138 49s72 78 87 135zM31 0v27c59 25 97 50 113 75s24 76 24 153v397c0 94 -8 155 -25 182s-54 55 -111 84v26c141 11 269 34 385 70v-760
c0 -77 8 -128 24 -153s53 -50 110 -74v-27h-520z" />
    <glyph glyph-name="Iogonek" unicode="&#x12e;" horiz-adv-x="700" 
d="M662 1438l-4 -5c-77 -30 -124 -58 -142 -83s-27 -79 -27 -162v-920c0 -83 9 -137 27 -162s66 -52 143 -82v-27h-213c-37 -27 -68 -59 -94 -95s-39 -70 -39 -101c0 -26 9 -46 26 -60s38 -21 62 -21c53 0 101 19 144 58l12 -10c-23 -41 -59 -75 -107 -103s-98 -42 -150 -42
c-48 0 -87 12 -118 35s-46 53 -46 90c0 87 85 170 254 249h-348v27c55 21 92 39 112 54s34 36 43 63s14 70 14 130v920c0 60 -4 103 -13 130s-23 48 -43 63s-57 33 -112 54v26h619v-26z" />
    <glyph glyph-name="iogonek" unicode="&#x12f;" horiz-adv-x="569" 
d="M262 1155h-2c-38 0 -71 14 -100 41s-43 59 -43 96c0 35 14 66 43 93s62 41 100 41s72 -13 101 -40s44 -58 44 -94c0 -37 -14 -69 -43 -96s-62 -41 -100 -41zM393 0l-2 1c-87 -71 -131 -140 -131 -207c0 -27 9 -48 26 -62s38 -21 63 -21c52 0 100 21 144 62l20 -17
c-30 -44 -69 -79 -117 -105s-97 -39 -148 -39c-48 0 -87 12 -118 35s-46 54 -46 93c0 87 79 174 238 260h-297v27c59 25 97 50 113 75s24 76 24 153v397c0 94 -8 155 -25 182s-54 55 -111 84v26c141 11 269 34 385 70v-760c0 -77 8 -128 24 -153s53 -50 110 -74v-27h-152z
" />
    <glyph glyph-name="Idotaccent" unicode="&#x130;" horiz-adv-x="700" 
d="M352 1559l-2 -2c-36 0 -66 13 -91 38s-38 55 -38 91s13 67 38 92s56 38 92 38s66 -13 91 -38s38 -55 38 -91s-12 -66 -37 -91s-55 -37 -91 -37zM40 -2l-2 22c55 21 92 39 112 54s34 36 43 63s14 70 14 130v920c0 60 -4 103 -13 130s-23 48 -43 63s-57 33 -112 54v26h619
v-26c-77 -30 -124 -58 -142 -83s-27 -79 -27 -162v-920c0 -83 9 -137 27 -162s66 -52 143 -82v-27h-619z" />
    <glyph glyph-name="dotlessi" unicode="&#x131;" horiz-adv-x="569" 
d="M27 0v27c59 25 97 50 113 75s24 76 24 153v397c0 94 -8 155 -25 182s-54 55 -111 84v26c141 11 269 34 385 70v-760c0 -77 8 -128 24 -153s53 -50 110 -74v-27h-520z" />
    <glyph glyph-name="Jcircumflex" unicode="&#x134;" horiz-adv-x="688" 
d="M109 1524l-28 14c86 120 173 245 260 375h14c85 -129 172 -254 261 -375l-24 -14l-242 170zM50 -268l-12 29c112 65 168 163 168 293v1139c0 83 -9 137 -27 162s-65 53 -142 83v26h620v-26c-77 -30 -124 -58 -142 -83s-27 -79 -27 -162v-973c0 -78 -13 -147 -39 -206
s-62 -107 -109 -143s-92 -64 -136 -84s-95 -38 -154 -55z" />
    <glyph glyph-name="jcircumflex" unicode="&#x135;" horiz-adv-x="548" 
d="M23 1110l-20 18c34 45 78 106 131 183s93 135 120 174h12c98 -147 181 -266 250 -357l-20 -14l-236 164zM-24 -428l-14 31c73 37 124 83 153 138s43 135 43 240v671c0 94 -8 155 -24 182s-53 55 -110 84v26c141 11 269 34 384 70v-910c-1 -287 -145 -464 -432 -532z" />
    <glyph glyph-name="uni0136" unicode="&#x136;" horiz-adv-x="1480" 
d="M492 272l-2 -5c0 -83 9 -137 27 -162s66 -52 143 -82v-27h-619v27c55 21 92 39 112 54s34 36 43 63s14 70 14 130v920c0 60 -4 103 -13 130s-23 48 -43 63s-57 33 -112 54v26h619v-26c-77 -30 -124 -58 -142 -83s-27 -79 -27 -162v-920zM516 710l414 428
c65 67 98 127 98 180s-33 91 -98 114v26h495v-26c-113 -68 -235 -166 -366 -295l-303 -301l473 -647c68 -95 144 -150 227 -165v-29h-426zM789 -73l-1 -2c37 0 68 -11 94 -34s39 -56 39 -99c0 -51 -20 -104 -60 -160s-100 -100 -179 -132l-14 27c74 51 122 112 143 184h-20
c-37 0 -69 10 -96 31s-40 46 -40 76s14 56 41 77s58 32 93 32z" />
    <glyph glyph-name="uni0137" unicode="&#x137;" horiz-adv-x="1153" 
d="M27 0v25c59 25 97 50 113 75s24 76 24 153v917c0 94 -8 155 -25 183s-54 56 -111 85v26c141 11 269 34 385 70v-1040l293 274c35 34 53 65 53 92c0 38 -30 71 -90 98v27h426v-27c-112 -63 -206 -128 -281 -196l-176 -162l309 -432c52 -73 114 -120 187 -141v-27h-355
l-334 465h-32v-211c0 -77 8 -128 24 -153s53 -50 110 -74v-27h-520zM614 -70v-2c37 0 69 -11 95 -34s39 -56 39 -99c0 -51 -20 -104 -60 -160s-100 -100 -179 -132l-14 27c74 51 122 112 143 184h-21c-37 0 -69 10 -96 31s-40 46 -40 76s13 56 40 77s58 32 93 32z" />
    <glyph glyph-name="Lacute" unicode="&#x139;" horiz-adv-x="1271" 
d="M584 1888c-22 -26 -116 -134 -283 -325l-29 6c19 116 34 222 45 319h267zM1145 385l24 -3l-49 -385h-1079v27c55 21 92 39 112 54s34 36 43 63s14 70 14 130v920c0 60 -4 103 -13 130s-23 48 -43 63s-57 33 -112 54v26h619v-26c-77 -30 -124 -58 -142 -83
s-27 -79 -27 -162v-1004c0 -26 22 -48 66 -66s104 -27 180 -27h37c79 0 151 29 215 86s116 125 155 203z" />
    <glyph glyph-name="lacute" unicode="&#x13a;" horiz-adv-x="569" 
d="M129 1587l-27 12c48 113 87 213 117 299l258 -59c-48 -37 -164 -121 -348 -252zM27 0v25c59 25 97 50 113 75s24 76 24 153v917c0 94 -8 155 -25 183s-54 56 -111 85v26c141 11 269 34 385 70v-1280c0 -77 8 -128 24 -153s53 -50 110 -74v-27h-520z" />
    <glyph glyph-name="uni013B" unicode="&#x13b;" horiz-adv-x="1271" 
d="M1145 385l24 -3l-49 -385h-1079v27c55 21 92 39 112 54s34 36 43 63s14 70 14 130v920c0 60 -4 103 -13 130s-23 48 -43 63s-57 33 -112 54v26h619v-26c-77 -30 -124 -58 -142 -83s-27 -79 -27 -162v-1004c0 -26 22 -48 66 -66s104 -27 180 -27h37c79 0 151 29 215 86
s116 125 155 203zM694 -71l1 -2c37 0 68 -11 94 -34s39 -56 39 -99c0 -51 -20 -104 -60 -160s-100 -100 -179 -132l-15 27c74 51 122 112 144 184h-21c-37 0 -69 10 -96 31s-40 46 -40 76s13 56 40 77s58 32 93 32z" />
    <glyph glyph-name="uni013C" unicode="&#x13c;" horiz-adv-x="569" 
d="M27 0v25c59 25 97 50 113 75s24 76 24 153v917c0 94 -8 155 -25 183s-54 56 -111 85v26c141 11 269 34 385 70v-1280c0 -77 8 -128 24 -153s53 -50 110 -74v-27h-520zM291 -70v-2c37 0 68 -11 94 -34s39 -56 39 -99c0 -51 -20 -104 -60 -160s-100 -100 -179 -132l-14 27
c74 51 122 112 143 184h-20c-37 0 -69 10 -96 31s-40 46 -40 76s13 56 40 77s58 32 93 32z" />
    <glyph glyph-name="Lcaron" unicode="&#x13d;" horiz-adv-x="1271" 
d="M1145 385l24 -3l-49 -385h-1079v27c55 21 92 39 112 54s34 36 43 63s14 70 14 130v920c0 60 -4 103 -13 130s-23 48 -43 63s-57 33 -112 54v26h619v-26c-77 -30 -124 -58 -142 -83s-27 -79 -27 -162v-1004c0 -26 22 -48 66 -66s104 -27 180 -27h37c79 0 151 29 215 86
s116 125 155 203zM1014 1459c-25 -29 -119 -137 -283 -325l-31 6c21 116 36 222 46 319h268z" />
    <glyph glyph-name="lcaron" unicode="&#x13e;" horiz-adv-x="524" 
d="M27 0v25c59 25 97 50 113 75s24 76 24 153v917c0 94 -8 155 -25 183s-54 56 -111 85v26c141 11 269 34 385 70v-1280c0 -77 8 -128 24 -153s53 -50 110 -74v-27h-520zM528 1042h-26l33 445h227z" />
    <glyph glyph-name="Ldot" unicode="&#x13f;" horiz-adv-x="1271" 
d="M1145 385l24 -3l-49 -385h-1079v27c55 21 92 39 112 54s34 36 43 63s14 70 14 130v920c0 60 -4 103 -13 130s-23 48 -43 63s-57 33 -112 54v26h619v-26c-77 -30 -124 -58 -142 -83s-27 -79 -27 -162v-1004c0 -26 22 -48 66 -66s104 -27 180 -27h37c79 0 151 29 215 86
s116 125 155 203zM843 513v-1c-42 0 -79 15 -110 46s-47 68 -47 110s16 79 47 110s68 47 110 47s79 -16 111 -47s48 -68 48 -110s-16 -78 -48 -109s-69 -46 -111 -46z" />
    <glyph glyph-name="ldot" unicode="&#x140;" horiz-adv-x="980" 
d="M27 0v25c59 25 97 50 113 75s24 76 24 153v917c0 94 -8 155 -25 183s-54 56 -111 85v26c141 11 269 34 385 70v-1280c0 -77 8 -128 24 -153s53 -50 110 -74v-27h-520zM770 428l-2 -1c-44 0 -81 16 -112 47s-46 68 -46 110s16 79 48 110s69 46 111 46s79 -15 110 -46
s46 -67 46 -109s-15 -79 -46 -110s-67 -47 -109 -47z" />
    <glyph glyph-name="Lslash" unicode="&#x141;" horiz-adv-x="1277" 
d="M1151 385l25 1l-50 -385h-1081v27c77 30 125 58 143 83s27 79 27 162v250l-174 -104v102l174 103v569c0 83 -9 137 -27 162s-65 53 -142 83v26h621v-26c-77 -30 -124 -58 -142 -83s-27 -79 -27 -162v-404l282 166v-98l-282 -168v-500c0 -26 22 -48 66 -66
s104 -27 180 -27h37c79 0 151 29 215 86s116 125 155 203z" />
    <glyph glyph-name="lslash" unicode="&#x142;" horiz-adv-x="569" 
d="M412 254v-2c0 -77 8 -128 24 -153s53 -50 110 -74v-27h-520v27c59 25 97 50 113 75s24 76 24 153v385l-131 -96v100l131 98v430c0 94 -8 155 -25 183s-54 56 -111 85v26c141 11 269 34 385 70v-608l108 80v-105l-108 -80v-567z" />
    <glyph glyph-name="Nacute" unicode="&#x143;" horiz-adv-x="1519" 
d="M997 1888c-22 -26 -116 -134 -282 -325l-29 6c19 116 34 222 45 319h266zM1489 1464l5 -31c-63 -23 -107 -45 -132 -66s-43 -55 -55 -102s-18 -122 -18 -226v-1042h-209c-254 411 -497 792 -729 1143v-721c0 -79 2 -139 6 -181s15 -77 32 -106s37 -50 59 -62
s57 -27 105 -44v-27h-508v27c48 18 83 33 105 45s42 33 59 62s28 65 32 107s6 103 6 182v833c-13 38 -38 75 -74 110s-77 64 -124 86v14h408c272 -411 516 -791 731 -1140v718c0 104 -6 180 -18 227s-30 81 -55 102s-69 43 -132 66v26h506z" />
    <glyph glyph-name="nacute" unicode="&#x144;" horiz-adv-x="1214" 
d="M872 1450v1c-25 -29 -119 -138 -282 -327l-31 6c21 116 36 223 45 320h268zM1057 255l-1 -3c0 -77 8 -128 24 -153s54 -50 113 -74v-27h-520v27c59 25 97 50 113 75s25 76 26 153c1 97 2 221 2 373c0 74 -16 128 -47 163s-72 52 -123 52c-82 0 -160 -49 -233 -146v-442
c0 -77 8 -128 24 -153s53 -50 110 -74v-27h-520v27c59 25 97 50 113 75s24 76 24 153v399c0 90 -8 150 -25 180s-54 59 -111 88v24c129 11 255 34 379 70v-230c100 150 222 225 366 226c77 0 144 -24 201 -72s85 -122 85 -223v-461z" />
    <glyph glyph-name="uni0145" unicode="&#x145;" horiz-adv-x="1519" 
d="M1489 1464l5 -31c-63 -23 -107 -45 -132 -66s-43 -55 -55 -102s-18 -122 -18 -226v-1042h-209c-254 411 -497 792 -729 1143v-721c0 -79 2 -139 6 -181s15 -77 32 -106s37 -50 59 -62s57 -27 105 -44v-27h-508v27c48 18 83 33 105 45s42 33 59 62s28 65 32 107
s6 103 6 182v833c-13 38 -38 75 -74 110s-77 64 -124 86v14h408c272 -411 516 -791 731 -1140v718c0 104 -6 180 -18 227s-30 81 -55 102s-69 43 -132 66v26h506zM779 -73v-2c37 0 68 -11 94 -34s39 -56 39 -99c0 -51 -20 -104 -60 -160s-99 -100 -178 -132l-15 27
c74 51 122 112 144 184h-21c-37 0 -69 10 -96 31s-40 46 -40 76s13 56 40 77s58 32 93 32z" />
    <glyph glyph-name="uni0146" unicode="&#x146;" horiz-adv-x="1214" 
d="M1057 254l-1 -3c0 -77 8 -128 24 -153s54 -50 113 -74v-27h-520v27c59 25 97 50 113 75s25 76 26 153c1 97 2 221 2 373c0 74 -16 128 -47 163s-72 52 -123 52c-82 0 -160 -49 -233 -146v-442c0 -77 8 -128 24 -153s53 -50 110 -74v-27h-520v27c59 25 97 50 113 75
s24 76 24 153v399c0 90 -8 150 -25 180s-54 59 -111 88v24c129 11 255 34 379 70v-230c100 150 222 225 366 226c77 0 144 -24 201 -72s85 -122 85 -223v-461zM624 -71v-2c37 0 68 -11 94 -34s39 -56 39 -99c0 -51 -20 -104 -60 -160s-100 -100 -179 -132l-14 27
c74 51 122 112 143 184h-20c-37 0 -69 10 -96 31s-40 46 -40 76s13 56 40 77s58 32 93 32z" />
    <glyph glyph-name="Ncaron" unicode="&#x147;" horiz-adv-x="1519" 
d="M791 1532h-12c-119 173 -206 298 -262 375l27 14l241 -170l242 170l25 -14c-89 -121 -176 -246 -261 -375zM1490 1464l5 -31c-63 -23 -107 -45 -132 -66s-43 -55 -55 -102s-18 -122 -18 -226v-1042h-209c-254 411 -497 792 -729 1143v-721c0 -79 2 -139 6 -181
s15 -77 32 -106s37 -50 59 -62s57 -27 105 -44v-27h-508v27c48 18 83 33 105 45s42 33 59 62s28 65 32 107s6 103 6 182v833c-13 38 -38 75 -74 110s-77 64 -124 86v14h408c272 -411 516 -791 731 -1140v718c0 104 -6 180 -18 227s-30 81 -55 102s-69 43 -132 66v26h506z
" />
    <glyph glyph-name="ncaron" unicode="&#x148;" horiz-adv-x="1214" 
d="M623 1114l-12 1c-26 37 -65 94 -118 172s-97 140 -132 187l19 16l237 -166l236 164l22 -14c-75 -99 -159 -219 -252 -360zM1058 255l-1 -3c0 -77 8 -128 24 -153s54 -50 113 -74v-27h-520v27c59 25 97 50 113 75s25 76 26 153c1 97 2 221 2 373c0 74 -16 128 -47 163
s-72 52 -123 52c-82 0 -160 -49 -233 -146v-442c0 -77 8 -128 24 -153s53 -50 110 -74v-27h-520v27c59 25 97 50 113 75s24 76 24 153v399c0 90 -8 150 -25 180s-54 59 -111 88v24c129 11 255 34 379 70v-230c100 150 222 225 366 226c77 0 144 -24 201 -72s85 -122 85 -223
v-461z" />
    <glyph glyph-name="Eng" unicode="&#x14a;" horiz-adv-x="1519" 
d="M1489 1464l4 -31c-63 -23 -107 -45 -132 -66s-43 -55 -55 -102s-18 -122 -18 -226v-1202c0 -85 -20 -150 -61 -195s-99 -67 -174 -67c-94 0 -169 27 -226 80l111 246l22 -10c11 -53 29 -99 53 -137s53 -57 87 -57c27 0 50 12 68 35s27 52 27 87v178h-115
c-254 411 -497 792 -729 1143v-721c0 -79 2 -139 6 -181s15 -77 32 -106s37 -50 59 -62s57 -27 105 -44v-27h-508v27c48 18 83 33 105 45s42 33 59 62s28 65 32 107s6 103 6 182v833c-13 38 -38 75 -74 110s-77 64 -124 86v14h408c272 -411 516 -791 731 -1140v718
c0 104 -6 180 -18 227s-30 81 -55 102s-69 43 -132 66v26h506z" />
    <glyph glyph-name="eng" unicode="&#x14b;" horiz-adv-x="1198" 
d="M770 1010l-1 -4c78 0 146 -24 203 -72s86 -122 86 -223l-2 -611c-1 -287 -145 -462 -432 -526l-13 29c71 37 121 83 151 138s46 134 47 237l4 647c0 73 -15 127 -46 162s-70 53 -118 53c-82 0 -161 -49 -237 -148v-440c0 -77 8 -128 24 -153s53 -50 110 -74v-27h-520v27
c59 25 97 50 113 75s24 76 24 153v399c0 90 -8 150 -25 180s-54 59 -111 88v24c129 11 255 34 379 70v-226c106 148 227 222 364 222z" />
    <glyph glyph-name="Omacron" unicode="&#x14c;" horiz-adv-x="1574" 
d="M1092 1724v-135h-607v135h607zM786 -27h-1c-214 0 -387 69 -519 208s-198 323 -198 552s66 413 198 551s305 207 519 207s388 -69 521 -208s200 -322 200 -550s-66 -412 -199 -551s-307 -209 -521 -209zM829 72l-1 -3c111 0 202 49 274 147s108 231 108 398
c0 82 -9 166 -27 253s-45 170 -80 250s-84 146 -147 197s-134 77 -213 77c-115 0 -207 -50 -277 -150s-105 -231 -105 -394c0 -83 10 -168 29 -255s46 -170 81 -250s84 -145 147 -195s133 -75 211 -75z" />
    <glyph glyph-name="omacron" unicode="&#x14d;" horiz-adv-x="1118" 
d="M827 1335v-135h-522v135h522zM555 -20h-1c-147 0 -266 46 -358 138s-138 214 -138 365c0 150 46 275 137 376s214 151 369 151c147 0 266 -46 357 -139s137 -215 137 -367s-45 -277 -136 -376s-213 -148 -367 -148zM599 59c57 0 106 27 146 80s60 132 60 236
c0 75 -9 153 -27 233s-50 154 -96 221s-100 101 -163 101c-59 0 -108 -27 -148 -81s-60 -133 -60 -237c0 -53 6 -110 17 -171s28 -121 50 -180s52 -107 91 -145s82 -57 130 -57z" />
    <glyph glyph-name="Obreve" unicode="&#x14e;" horiz-adv-x="1574" 
d="M1008 1878h31c-21 -223 -105 -334 -252 -334c-149 0 -234 111 -255 334h31c15 -57 44 -102 86 -134s88 -48 137 -48s94 16 136 48s71 77 86 134zM787 -27h-1c-214 0 -387 69 -519 208s-198 323 -198 552s66 413 198 551s305 207 519 207s388 -69 521 -208
s200 -322 200 -550s-66 -412 -199 -551s-307 -209 -521 -209zM830 72l-1 -3c111 0 202 49 274 147s108 231 108 398c0 82 -9 166 -27 253s-45 170 -80 250s-84 146 -147 197s-134 77 -213 77c-115 0 -207 -50 -277 -150s-105 -231 -105 -394c0 -83 10 -168 29 -255
s46 -170 81 -250s84 -145 147 -195s133 -75 211 -75z" />
    <glyph glyph-name="obreve" unicode="&#x14f;" horiz-adv-x="1118" 
d="M786 1456h29c-21 -223 -105 -334 -252 -334c-149 0 -234 111 -255 334h25c17 -57 47 -102 90 -135s89 -49 138 -49s95 16 138 49s72 78 87 135zM559 -20h-1c-147 0 -266 46 -358 138s-138 214 -138 365c0 150 46 275 137 376s214 151 369 151c147 0 266 -46 357 -139
s137 -215 137 -367s-45 -277 -136 -376s-213 -148 -367 -148zM603 59c57 0 106 27 146 80s60 132 60 236c0 75 -9 153 -27 233s-50 154 -96 221s-100 101 -163 101c-59 0 -108 -27 -148 -81s-60 -133 -60 -237c0 -53 6 -110 17 -171s28 -121 50 -180s52 -107 91 -145
s82 -57 130 -57z" />
    <glyph glyph-name="Ohungarumlaut" unicode="&#x150;" horiz-adv-x="1574" 
d="M893 1563l-28 6c21 146 35 252 42 319h256c-67 -84 -157 -192 -270 -325zM529 1561l-28 6c21 146 35 252 42 319h256c-67 -84 -157 -192 -270 -325zM783 -27h-1c-214 0 -387 69 -519 208s-198 323 -198 552s66 413 198 551s305 207 519 207s388 -69 521 -208
s200 -322 200 -550s-66 -412 -199 -551s-307 -209 -521 -209zM826 72l-1 -3c111 0 202 49 274 147s108 231 108 398c0 82 -9 166 -27 253s-45 170 -80 250s-84 146 -147 197s-134 77 -213 77c-115 0 -207 -50 -277 -150s-105 -231 -105 -394c0 -83 10 -168 29 -255
s46 -170 81 -250s84 -145 147 -195s133 -75 211 -75z" />
    <glyph glyph-name="ohungarumlaut" unicode="&#x151;" horiz-adv-x="1118" 
d="M666 1137l-28 6c21 146 35 252 42 319h256c-67 -84 -157 -192 -270 -325zM302 1135l-28 6c21 146 35 252 42 319h256c-67 -84 -157 -192 -270 -325zM553 -20h-1c-147 0 -266 46 -358 138s-138 214 -138 365c0 150 46 275 137 376s214 151 369 151c147 0 266 -46 357 -139
s137 -215 137 -367s-45 -277 -136 -376s-213 -148 -367 -148zM597 59c57 0 106 27 146 80s60 132 60 236c0 75 -9 153 -27 233s-50 154 -96 221s-100 101 -163 101c-59 0 -108 -27 -148 -81s-60 -133 -60 -237c0 -53 6 -110 17 -171s28 -121 50 -180s52 -107 91 -145
s82 -57 130 -57z" />
    <glyph glyph-name="OE" unicode="&#x152;" horiz-adv-x="2195" 
d="M2068 385l31 -3l-49 -385h-922v92c-95 -77 -214 -115 -356 -115c-199 0 -365 69 -499 207s-201 321 -201 549s67 411 200 548s299 206 498 206c139 0 258 -39 357 -117v94h861l36 -374h-26c-30 75 -78 140 -144 195s-149 83 -250 83h-211v-539h211c57 0 105 13 144 40
s68 58 87 93h25v-369h-25c-22 42 -53 79 -93 110s-87 46 -141 44l-211 -6v-551c0 -27 22 -49 65 -66s103 -25 179 -25h64c79 0 151 29 215 86s116 125 155 203zM831 69v-1c134 0 233 67 297 202v766c-38 115 -89 203 -154 263s-139 90 -222 90c-113 0 -206 -48 -278 -144
s-108 -229 -108 -398c0 -85 9 -171 28 -258s46 -170 81 -250s84 -145 146 -195s132 -75 210 -75z" />
    <glyph glyph-name="oe" unicode="&#x153;" horiz-adv-x="1763" 
d="M1704 569l-669 -1v-2c0 -134 37 -236 111 -305s163 -104 267 -104c116 0 202 48 258 145l31 -16c-11 -35 -25 -68 -42 -100s-41 -64 -71 -97s-69 -59 -118 -79s-105 -30 -168 -30c-159 0 -286 61 -381 184c-77 -123 -199 -184 -367 -184c-149 0 -269 46 -360 138
s-136 214 -136 365c0 150 46 275 137 376s212 151 363 151c168 0 290 -60 367 -181c93 120 216 180 370 181c64 0 122 -11 173 -33s91 -48 119 -79s51 -65 70 -102s31 -69 37 -95s9 -48 9 -66v-66zM599 58h-3c59 0 108 27 148 81s60 134 60 239c0 75 -9 153 -27 233
s-50 153 -96 219s-100 99 -163 99c-57 0 -106 -27 -146 -81s-60 -132 -60 -233c0 -73 9 -150 27 -231s50 -156 96 -224s101 -102 164 -102zM1256 925v-3c-59 0 -107 -24 -145 -71s-62 -112 -73 -195l428 7c-3 33 -10 67 -21 102s-33 70 -66 106s-74 54 -123 54z" />
    <glyph glyph-name="Racute" unicode="&#x154;" horiz-adv-x="1445" 
d="M862 1888c-22 -26 -116 -134 -282 -325l-29 6c19 116 34 222 45 319h266zM1247 190l-2 -5c41 -60 98 -115 172 -165v-25h-370c-164 249 -311 485 -441 709l-116 -7v-430c0 -83 9 -137 27 -162s66 -52 143 -82v-27h-619v27c55 21 92 39 112 54s34 36 43 63s14 70 14 130
v920c0 60 -4 103 -13 130s-23 48 -43 63s-57 33 -112 54v26h637c173 0 308 -33 405 -99s146 -153 146 -261c0 -87 -33 -163 -99 -229s-150 -110 -253 -133c117 -187 240 -371 369 -551zM490 1365v-598h153c93 0 167 26 223 77s84 129 84 234c0 191 -106 287 -319 287h-141z
" />
    <glyph glyph-name="racute" unicode="&#x155;" horiz-adv-x="851" 
d="M391 1124l-31 7c21 116 36 223 46 320h268c-25 -29 -119 -138 -283 -327zM27 1l-4 25c59 25 97 50 113 75s24 76 24 153v414c0 77 -8 132 -24 166s-53 63 -112 86v24c133 11 259 34 379 70l-7 -207h7c19 52 53 99 101 141s106 63 174 63c38 0 71 -9 98 -27l-30 -272h-25
c-61 71 -122 106 -183 106c-53 0 -95 -33 -126 -100v-463c0 -77 10 -128 30 -153s67 -50 140 -74v-27h-555z" />
    <glyph glyph-name="uni0156" unicode="&#x156;" horiz-adv-x="1445" 
d="M1247 190l-2 -5c41 -60 98 -115 172 -165v-25h-370c-164 249 -311 485 -441 709l-116 -7v-430c0 -83 9 -137 27 -162s66 -52 143 -82v-27h-619v27c55 21 92 39 112 54s34 36 43 63s14 70 14 130v920c0 60 -4 103 -13 130s-23 48 -43 63s-57 33 -112 54v26h637
c173 0 308 -33 405 -99s146 -153 146 -261c0 -87 -33 -163 -99 -229s-150 -110 -253 -133c117 -187 240 -371 369 -551zM490 1365v-598h153c93 0 167 26 223 77s84 129 84 234c0 191 -106 287 -319 287h-141zM731 -73v-2c37 0 68 -11 94 -34s39 -56 39 -99
c0 -51 -20 -104 -60 -160s-99 -100 -178 -132l-15 27c74 51 122 112 144 184h-21c-37 0 -69 10 -96 31s-40 46 -40 76s13 56 40 77s58 32 93 32z" />
    <glyph glyph-name="uni0157" unicode="&#x157;" horiz-adv-x="851" 
d="M27 0l-4 25c59 25 97 50 113 75s24 76 24 153v414c0 77 -8 132 -24 166s-53 63 -112 86v24c133 11 259 34 379 70l-7 -207h7c19 52 53 99 101 141s106 63 174 63c38 0 71 -9 98 -27l-30 -272h-25c-61 71 -122 106 -183 106c-53 0 -95 -33 -126 -100v-463
c0 -77 10 -128 30 -153s67 -50 140 -74v-27h-555zM291 -70v-2c37 0 68 -11 94 -34s39 -56 39 -99c0 -51 -20 -104 -60 -160s-100 -100 -179 -132l-14 27c74 51 122 112 143 184h-20c-37 0 -69 10 -96 31s-40 46 -40 76s13 56 40 77s58 32 93 32z" />
    <glyph glyph-name="Rcaron" unicode="&#x158;" horiz-adv-x="1445" 
d="M655 1532h-11c-119 173 -206 298 -262 375l27 14l241 -170l242 170l24 -14c-89 -121 -176 -246 -261 -375zM1248 190l-2 -5c41 -60 98 -115 172 -165v-25h-370c-164 249 -311 485 -441 709l-116 -7v-430c0 -83 9 -137 27 -162s66 -52 143 -82v-27h-619v27
c55 21 92 39 112 54s34 36 43 63s14 70 14 130v920c0 60 -4 103 -13 130s-23 48 -43 63s-57 33 -112 54v26h637c173 0 308 -33 405 -99s146 -153 146 -261c0 -87 -33 -163 -99 -229s-150 -110 -253 -133c117 -187 240 -371 369 -551zM491 1365v-598h153c93 0 167 26 223 77
s84 129 84 234c0 191 -106 287 -319 287h-141z" />
    <glyph glyph-name="rcaron" unicode="&#x159;" horiz-adv-x="851" 
d="M180 1489l238 -166l235 164l23 -14c-75 -98 -159 -218 -252 -359h-12c-26 37 -66 94 -119 172s-97 140 -131 187zM27 0l-4 25c59 25 97 50 113 75s24 76 24 153v414c0 77 -8 132 -24 166s-53 63 -112 86v24c133 11 259 34 379 70l-7 -207h7c19 52 53 99 101 141
s106 63 174 63c38 0 71 -9 98 -27l-30 -272h-25c-61 71 -122 106 -183 106c-53 0 -95 -33 -126 -100v-463c0 -77 10 -128 30 -153s67 -50 140 -74v-27h-555z" />
    <glyph glyph-name="Sacute" unicode="&#x15a;" horiz-adv-x="1132" 
d="M512 1563l-29 5c19 116 34 222 45 319h267c-22 -25 -116 -133 -283 -324zM590 -28l-2 -4c-137 0 -290 44 -459 131l-25 381h27c53 -109 120 -205 200 -287s166 -123 259 -123c61 0 112 19 152 58s60 90 60 153c0 39 -8 76 -24 111s-41 68 -75 98s-64 54 -90 72
s-62 41 -108 68c-129 78 -213 136 -252 174c-85 79 -127 175 -127 287c0 123 41 220 123 290s184 105 305 105c113 0 238 -27 375 -82l39 -369h-27c-47 93 -105 175 -174 247s-143 108 -222 108c-55 0 -101 -18 -139 -54s-57 -84 -57 -145c0 -59 20 -108 60 -148
s116 -93 228 -160c61 -37 105 -64 132 -81s62 -42 105 -75s74 -64 92 -92s35 -63 50 -105s23 -88 23 -137c0 -94 -23 -174 -69 -240s-102 -113 -167 -140s-136 -41 -213 -41z" />
    <glyph glyph-name="sacute" unicode="&#x15b;" horiz-adv-x="866" 
d="M391 1124l-31 7c21 116 36 223 46 320h268c-25 -29 -119 -138 -283 -327zM456 -26l2 1c-105 0 -224 27 -357 82l-30 277l22 4c138 -189 260 -283 365 -283c39 0 71 11 96 33s37 51 37 88c0 44 -19 83 -57 117s-94 70 -169 108c-37 18 -65 33 -84 44s-44 27 -75 49
s-55 43 -71 64s-31 47 -44 78s-19 64 -19 99c0 90 33 159 99 207s146 72 239 72c85 0 188 -21 309 -64l20 -256l-22 -6c-47 65 -98 122 -153 171s-107 74 -156 74c-34 0 -64 -11 -89 -32s-38 -51 -38 -89c0 -45 18 -82 53 -111s87 -61 156 -95c8 -4 14 -7 19 -8
c101 -51 176 -100 224 -148s72 -110 72 -187c0 -89 -32 -159 -96 -211s-148 -78 -253 -78z" />
    <glyph glyph-name="Scircumflex" unicode="&#x15c;" horiz-adv-x="1132" 
d="M340 1524l-28 14c86 120 173 245 260 375h15c85 -129 172 -254 261 -375l-25 -14l-241 170zM589 -27l-2 -4c-137 0 -290 44 -459 131l-25 381h27c53 -109 120 -205 200 -287s166 -123 259 -123c61 0 112 19 152 58s60 90 60 153c0 39 -8 76 -24 111s-41 68 -75 98
s-64 54 -90 72s-62 41 -108 68c-129 78 -213 136 -252 174c-85 79 -127 175 -127 287c0 123 41 220 123 290s184 105 305 105c113 0 238 -27 375 -82l39 -369h-27c-47 93 -105 175 -174 247s-143 108 -222 108c-55 0 -101 -18 -139 -54s-57 -84 -57 -145
c0 -59 20 -108 60 -148s116 -93 228 -160c61 -37 105 -64 132 -81s62 -42 105 -75s74 -64 92 -92s35 -63 50 -105s23 -88 23 -137c0 -94 -23 -174 -69 -240s-102 -113 -167 -140s-136 -41 -213 -41z" />
    <glyph glyph-name="scircumflex" unicode="&#x15d;" horiz-adv-x="866" 
d="M186 1106l-19 18c34 45 78 106 131 183s93 135 120 174h12c98 -147 181 -266 250 -357l-21 -14l-235 164zM457 -27l2 1c-105 0 -224 27 -357 82l-30 277l22 4c138 -189 260 -283 365 -283c39 0 71 11 96 33s37 51 37 88c0 44 -19 83 -57 117s-94 70 -169 108
c-37 18 -65 33 -84 44s-44 27 -75 49s-55 43 -71 64s-31 47 -44 78s-19 64 -19 99c0 90 33 159 99 207s146 72 239 72c85 0 188 -21 309 -64l20 -256l-22 -6c-47 65 -98 122 -153 171s-107 74 -156 74c-34 0 -64 -11 -89 -32s-38 -51 -38 -89c0 -45 18 -82 53 -111
s87 -61 156 -95c8 -4 14 -7 19 -8c101 -51 176 -100 224 -148s72 -110 72 -187c0 -89 -32 -159 -96 -211s-148 -78 -253 -78z" />
    <glyph glyph-name="Scedilla" unicode="&#x15e;" horiz-adv-x="1132" 
d="M1040 395v-3c0 -138 -45 -243 -134 -315s-194 -108 -314 -108l-17 -34c180 -15 270 -75 271 -180c0 -121 -128 -181 -385 -180l10 47c146 11 219 47 219 109c0 30 -20 57 -60 80s-90 35 -150 36l70 125c-131 8 -271 51 -420 129l-25 381h27c53 -109 120 -205 200 -287
s166 -123 259 -123c61 0 112 19 152 58s60 90 60 153c0 39 -8 76 -24 111s-41 68 -75 98s-64 54 -90 72s-62 41 -108 68c-129 78 -213 136 -252 174c-85 79 -127 175 -127 287c0 123 41 220 123 290s184 105 305 105c113 0 238 -27 375 -82l39 -369h-27
c-47 93 -105 175 -174 247s-143 108 -222 108c-55 0 -101 -18 -139 -54s-57 -84 -57 -145c0 -59 20 -108 60 -148s116 -93 228 -160c61 -37 105 -64 132 -81s62 -42 105 -75s74 -64 92 -92s35 -63 50 -105s23 -88 23 -137z" />
    <glyph glyph-name="scedilla" unicode="&#x15f;" horiz-adv-x="866" 
d="M805 262l-6 3c0 -87 -31 -157 -94 -209s-149 -79 -258 -80l-23 -41c157 -12 236 -66 236 -161c0 -67 -37 -119 -110 -157s-177 -56 -312 -55l16 34c73 7 132 22 177 45s68 53 68 90c0 31 -17 57 -51 78s-79 32 -135 33l95 133c-90 5 -194 32 -312 80l-30 277l22 4
c138 -189 260 -283 365 -283c39 0 71 11 96 33s37 51 37 88c0 44 -19 83 -57 117s-94 70 -169 108c-37 18 -65 33 -84 44s-44 27 -75 49s-55 43 -71 64s-31 47 -44 78s-19 64 -19 99c0 90 33 159 99 207s146 72 239 72c85 0 188 -21 309 -64l20 -256l-22 -6
c-47 65 -98 122 -153 171s-107 74 -156 74c-34 0 -64 -11 -89 -32s-38 -51 -38 -89c0 -11 1 -21 4 -31s6 -19 9 -27s8 -16 16 -25s15 -16 20 -22s13 -13 25 -21l27 -18s17 -10 32 -18s25 -13 31 -16s17 -9 34 -18s28 -15 33 -18c100 -49 175 -97 224 -145s74 -111 74 -189z
" />
    <glyph glyph-name="Scaron" unicode="&#x160;" horiz-adv-x="1132" 
d="M340 1921l243 -170l241 170l25 -14c-89 -121 -176 -246 -261 -375h-13c-119 173 -206 298 -262 375zM591 -27l-2 -4c-137 0 -290 44 -459 131l-25 381h27c53 -109 120 -205 200 -287s166 -123 259 -123c61 0 112 19 152 58s60 90 60 153c0 39 -8 76 -24 111
s-41 68 -75 98s-64 54 -90 72s-62 41 -108 68c-129 78 -213 136 -252 174c-85 79 -127 175 -127 287c0 123 41 220 123 290s184 105 305 105c113 0 238 -27 375 -82l39 -369h-27c-47 93 -105 175 -174 247s-143 108 -222 108c-55 0 -101 -18 -139 -54s-57 -84 -57 -145
c0 -59 20 -108 60 -148s116 -93 228 -160c61 -37 105 -64 132 -81s62 -42 105 -75s74 -64 92 -92s35 -63 50 -105s23 -88 23 -137c0 -94 -23 -174 -69 -240s-102 -113 -167 -140s-136 -41 -213 -41z" />
    <glyph glyph-name="scaron" unicode="&#x161;" horiz-adv-x="866" 
d="M180 1489l238 -166l235 164l23 -14c-75 -98 -159 -218 -252 -359h-12c-26 37 -66 94 -119 172s-97 140 -131 187zM456 -27l2 1c-105 0 -224 27 -357 82l-30 277l22 4c138 -189 260 -283 365 -283c39 0 71 11 96 33s37 51 37 88c0 44 -19 83 -57 117s-94 70 -169 108
c-37 18 -65 33 -84 44s-44 27 -75 49s-55 43 -71 64s-31 47 -44 78s-19 64 -19 99c0 90 33 159 99 207s146 72 239 72c85 0 188 -21 309 -64l20 -256l-22 -6c-47 65 -98 122 -153 171s-107 74 -156 74c-34 0 -64 -11 -89 -32s-38 -51 -38 -89c0 -45 18 -82 53 -111
s87 -61 156 -95c8 -4 14 -7 19 -8c101 -51 176 -100 224 -148s72 -110 72 -187c0 -89 -32 -159 -96 -211s-148 -78 -253 -78z" />
    <glyph glyph-name="uni0162" unicode="&#x162;" horiz-adv-x="1357" 
d="M1268 1464l37 -375h-27c-29 75 -76 140 -142 195s-149 83 -250 83h-60v-1096c0 -85 9 -139 28 -163s66 -51 142 -81v-27h-284l-27 -55c180 -15 270 -75 270 -180c0 -121 -128 -181 -385 -180l11 47c146 11 219 47 219 109c0 30 -20 57 -60 80s-90 35 -150 36l80 143h-295
v27c77 30 125 58 143 83s27 79 27 162v1096h-68c-100 0 -183 -27 -248 -82s-113 -120 -143 -196h-27l37 374h1172z" />
    <glyph glyph-name="uni0163" unicode="&#x163;" horiz-adv-x="681" 
d="M387 -18l-3 4c-9 0 -16 1 -21 2l-29 -52c157 -12 235 -66 234 -161c0 -67 -36 -119 -109 -157s-177 -56 -312 -55l16 34c73 7 132 22 177 45s68 53 68 90c0 31 -17 57 -51 78s-79 32 -135 33l105 146c-57 13 -103 42 -139 87s-54 106 -54 183v639h-100v59
c160 105 265 203 315 294h29v-266h266l-16 -88h-246l-6 -569c-1 -133 49 -199 150 -199c47 0 90 18 129 53l19 -22c-74 -119 -170 -178 -287 -178z" />
    <glyph glyph-name="Tcaron" unicode="&#x164;" horiz-adv-x="1357" 
d="M696 1532h-11c-119 173 -206 298 -262 375l27 14l241 -170l242 170l24 -14c-89 -121 -176 -246 -261 -375zM1269 1464l36 -375h-27c-29 75 -76 140 -142 195s-149 83 -250 83h-60v-1096c0 -85 9 -139 28 -163s66 -51 142 -81v-27h-620v27c77 30 125 58 143 83
s27 79 27 162v1096h-68c-100 0 -183 -27 -248 -82s-113 -120 -143 -196h-27l37 374h1172z" />
    <glyph glyph-name="tcaron" unicode="&#x165;" horiz-adv-x="681" 
d="M496 1057h-29l33 428h229zM393 -18c-73 0 -134 24 -184 71s-75 116 -75 206v639h-100v59c160 105 265 203 315 294h29v-266h266l-16 -88h-246l-6 -569c-1 -133 49 -199 150 -199c47 0 90 18 129 53l19 -22c-74 -119 -168 -178 -281 -178z" />
    <glyph glyph-name="Tbar" unicode="&#x166;" horiz-adv-x="1357" 
d="M1268 1464l36 -375h-27c-29 75 -76 140 -142 195s-149 83 -250 83h-60v-457h238v-92h-238v-547c0 -85 9 -139 28 -163s66 -51 142 -81v-27h-620v27c77 30 125 58 143 83s27 79 27 162v547h-234v92h234v457h-68c-100 0 -183 -27 -248 -82s-113 -120 -143 -196h-27l37 374
h1172z" />
    <glyph glyph-name="tbar" unicode="&#x167;" horiz-adv-x="681" 
d="M655 182l19 -22c-74 -119 -168 -178 -281 -178c-73 0 -134 24 -184 71s-75 116 -75 206v406h-96v92h96v141h-100v59c160 105 265 203 315 294h29v-266h266l-16 -88h-246l-2 -141h219v-92h-219l-4 -336c-1 -133 49 -199 150 -199c47 0 90 18 129 53z" />
    <glyph glyph-name="Utilde" unicode="&#x168;" horiz-adv-x="1521" 
d="M1100 1790l32 -12c-22 -75 -51 -127 -88 -156s-89 -43 -157 -43c-17 0 -61 11 -133 33c-78 23 -129 35 -152 35c-49 0 -93 -20 -132 -60l-37 13c23 68 54 118 93 149s90 47 153 47c29 0 76 -10 141 -31c75 -23 119 -34 132 -33c39 0 67 3 84 10s38 23 64 48zM1498 1462
l-2 -31c-48 -18 -83 -33 -105 -45s-42 -33 -59 -62s-28 -64 -32 -106s-6 -102 -6 -181v-575c0 -154 -47 -275 -142 -363s-224 -132 -387 -132c-69 0 -134 9 -196 26s-121 45 -177 83s-101 93 -134 165s-50 158 -50 257v688c0 60 -4 103 -13 130s-23 48 -43 63
s-57 33 -112 54v26h619v-26c-77 -30 -124 -58 -142 -83s-27 -79 -27 -162v-686c0 -131 32 -233 95 -305s149 -108 258 -108c107 0 192 34 255 101s94 158 94 273v577c0 79 -2 140 -6 182s-15 78 -32 107s-37 50 -59 62s-57 27 -105 45v26h508z" />
    <glyph glyph-name="utilde" unicode="&#x169;" horiz-adv-x="1212" 
d="M446 1251l1 -2c-45 0 -85 -20 -120 -59l-17 4c15 75 39 127 72 156s84 43 153 43c9 0 46 -11 110 -33s105 -33 123 -33c35 0 60 4 74 11s34 23 59 47l19 -4c-23 -131 -88 -196 -195 -195c-33 0 -80 10 -141 31c-70 23 -116 34 -138 34zM1058 250h-2c0 -65 8 -108 24 -128
s53 -39 110 -56v-27l-375 -70v217c-104 -143 -226 -215 -366 -215c-77 0 -144 24 -201 72s-86 122 -86 223v383c0 89 -8 149 -24 180s-53 60 -110 87v26c141 11 269 34 384 70c0 -75 -1 -186 -2 -332s-2 -256 -2 -330c0 -71 16 -123 47 -157s72 -51 122 -51
c78 0 156 42 234 127v381c0 90 -8 150 -24 179s-54 58 -114 87v26c130 8 258 31 385 68v-760z" />
    <glyph glyph-name="Umacron" unicode="&#x16a;" horiz-adv-x="1521" 
d="M1085 1724v-135h-606v135h606zM1499 1464l-2 -31c-48 -18 -83 -33 -105 -45s-42 -33 -59 -62s-28 -64 -32 -106s-6 -102 -6 -181v-575c0 -154 -47 -275 -142 -363s-224 -132 -387 -132c-69 0 -134 9 -196 26s-121 45 -177 83s-101 93 -134 165s-50 158 -50 257v688
c0 60 -4 103 -13 130s-23 48 -43 63s-57 33 -112 54v26h619v-26c-77 -30 -124 -58 -142 -83s-27 -79 -27 -162v-686c0 -131 32 -233 95 -305s149 -108 258 -108c107 0 192 34 255 101s94 158 94 273v577c0 79 -2 140 -6 182s-15 78 -32 107s-37 50 -59 62s-57 27 -105 45v26
h508z" />
    <glyph glyph-name="umacron" unicode="&#x16b;" horiz-adv-x="1212" 
d="M877 1335v-135h-523v135h523zM1057 252h-2c0 -65 8 -108 24 -128s53 -39 110 -56v-27l-375 -70v217c-104 -143 -226 -215 -366 -215c-77 0 -144 24 -201 72s-86 122 -86 223v383c0 89 -8 149 -24 180s-53 60 -110 87v26c141 11 269 34 384 70c0 -75 -1 -186 -2 -332
s-2 -256 -2 -330c0 -71 16 -123 47 -157s72 -51 122 -51c78 0 156 42 234 127v381c0 90 -8 150 -24 179s-54 58 -114 87v26c130 8 258 31 385 68v-760z" />
    <glyph glyph-name="Ubreve" unicode="&#x16c;" horiz-adv-x="1521" 
d="M1004 1878h31c-21 -223 -105 -334 -252 -334c-149 0 -234 111 -255 334h31c15 -57 44 -102 86 -134s88 -48 137 -48s94 16 136 48s71 77 86 134zM1500 1464l-2 -31c-48 -18 -83 -33 -105 -45s-42 -33 -59 -62s-28 -64 -32 -106s-6 -102 -6 -181v-575
c0 -154 -47 -275 -142 -363s-224 -132 -387 -132c-69 0 -134 9 -196 26s-121 45 -177 83s-101 93 -134 165s-50 158 -50 257v688c0 60 -4 103 -13 130s-23 48 -43 63s-57 33 -112 54v26h619v-26c-77 -30 -124 -58 -142 -83s-27 -79 -27 -162v-686c0 -131 32 -233 95 -305
s149 -108 258 -108c107 0 192 34 255 101s94 158 94 273v577c0 79 -2 140 -6 182s-15 78 -32 107s-37 50 -59 62s-57 27 -105 45v26h508z" />
    <glyph glyph-name="ubreve" unicode="&#x16d;" horiz-adv-x="1212" 
d="M608 1122c-149 0 -234 111 -255 334h25c17 -57 47 -102 91 -135s90 -49 139 -49s95 16 139 49s74 78 89 135h24c-21 -223 -105 -334 -252 -334zM1057 252h-2c0 -65 8 -108 24 -128s53 -39 110 -56v-27l-375 -70v217c-104 -143 -226 -215 -366 -215c-77 0 -144 24 -201 72
s-86 122 -86 223v383c0 89 -8 149 -24 180s-53 60 -110 87v26c141 11 269 34 384 70c0 -75 -1 -186 -2 -332s-2 -256 -2 -330c0 -71 16 -123 47 -157s72 -51 122 -51c78 0 156 42 234 127v381c0 90 -8 150 -24 179s-54 58 -114 87v26c130 8 258 31 385 68v-760z" />
    <glyph glyph-name="Uring" unicode="&#x16e;" horiz-adv-x="1521" 
d="M782 1536v-2c-52 0 -96 19 -132 56s-54 83 -54 138c0 52 18 96 54 133s80 55 132 55s96 -18 132 -55s54 -81 54 -132c0 -55 -18 -101 -54 -138s-80 -55 -132 -55zM790 1585v-1c33 0 60 14 82 41s33 60 33 98c0 39 -12 73 -36 101s-53 42 -88 42s-64 -14 -87 -41
s-35 -58 -35 -93c0 -38 13 -72 39 -102s57 -45 92 -45zM1498 1461l-2 -31c-48 -18 -83 -33 -105 -45s-42 -33 -59 -62s-28 -64 -32 -106s-6 -102 -6 -181v-575c0 -154 -47 -275 -142 -363s-224 -132 -387 -132c-69 0 -134 9 -196 26s-121 45 -177 83s-101 93 -134 165
s-50 158 -50 257v688c0 60 -4 103 -13 130s-23 48 -43 63s-57 33 -112 54v26h619v-26c-77 -30 -124 -58 -142 -83s-27 -79 -27 -162v-686c0 -131 32 -233 95 -305s149 -108 258 -108c107 0 192 34 255 101s94 158 94 273v577c0 79 -2 140 -6 182s-15 78 -32 107
s-37 50 -59 62s-57 27 -105 45v26h508z" />
    <glyph glyph-name="uring" unicode="&#x16f;" horiz-adv-x="1212" 
d="M610 1081v-1c-52 0 -96 19 -132 56s-54 83 -54 138c0 52 18 96 54 133s80 55 132 55s96 -18 132 -55s54 -81 54 -133c0 -55 -18 -101 -54 -138s-80 -55 -132 -55zM606 1412c-34 0 -62 -13 -85 -40s-34 -59 -34 -97c0 -37 13 -70 39 -99s56 -44 90 -44s62 14 84 42
s33 61 33 99s-13 71 -38 98s-55 41 -89 41zM1057 251h-2c0 -65 8 -108 24 -128s53 -39 110 -56v-27l-375 -70v217c-104 -143 -226 -215 -366 -215c-77 0 -144 24 -201 72s-86 122 -86 223v383c0 89 -8 149 -24 180s-53 60 -110 87v26c141 11 269 34 384 70
c0 -75 -1 -186 -2 -332s-2 -256 -2 -330c0 -71 16 -123 47 -157s72 -51 122 -51c78 0 156 42 234 127v381c0 90 -8 150 -24 179s-54 58 -114 87v26c130 8 258 31 385 68v-760z" />
    <glyph glyph-name="Uhungarumlaut" unicode="&#x170;" horiz-adv-x="1521" 
d="M889 1563l-28 6c21 146 35 252 42 319h256c-67 -84 -157 -192 -270 -325zM525 1561l-28 6c21 146 35 252 42 319h256c-67 -84 -157 -192 -270 -325zM1496 1464l-2 -31c-48 -18 -83 -33 -105 -45s-42 -33 -59 -62s-28 -64 -32 -106s-6 -102 -6 -181v-575
c0 -154 -47 -275 -142 -363s-224 -132 -387 -132c-69 0 -134 9 -196 26s-121 45 -177 83s-101 93 -134 165s-50 158 -50 257v688c0 60 -4 103 -13 130s-23 48 -43 63s-57 33 -112 54v26h619v-26c-77 -30 -124 -58 -142 -83s-27 -79 -27 -162v-686c0 -131 32 -233 95 -305
s149 -108 258 -108c107 0 192 34 255 101s94 158 94 273v577c0 79 -2 140 -6 182s-15 78 -32 107s-37 50 -59 62s-57 27 -105 45v26h508z" />
    <glyph glyph-name="uhungarumlaut" unicode="&#x171;" horiz-adv-x="1212" 
d="M985 1462h-1c-67 -85 -157 -193 -270 -325l-27 6c21 146 35 252 42 319h256zM622 1460h-1c-67 -85 -157 -193 -271 -325l-26 6c21 146 35 252 42 319h256zM1055 252h-2c0 -65 8 -108 24 -128s53 -39 110 -56v-27l-375 -70v217c-104 -143 -226 -215 -366 -215
c-77 0 -144 24 -201 72s-86 122 -86 223v383c0 89 -8 149 -24 180s-53 60 -110 87v26c141 11 269 34 384 70c0 -75 -1 -186 -2 -332s-2 -256 -2 -330c0 -71 16 -123 47 -157s72 -51 122 -51c78 0 156 42 234 127v381c0 90 -8 150 -24 179s-54 58 -114 87v26
c130 8 258 31 385 68v-760z" />
    <glyph glyph-name="Uogonek" unicode="&#x172;" horiz-adv-x="1521" 
d="M1499 1464l-2 -33c-48 -18 -83 -33 -105 -45s-42 -33 -59 -62s-28 -64 -32 -106s-6 -102 -6 -181v-575c0 -109 -24 -202 -73 -279s-118 -133 -207 -169c-37 -27 -69 -59 -96 -95s-40 -70 -40 -103c0 -26 9 -46 26 -60s38 -21 63 -21c53 0 101 19 143 57l12 -10
c-26 -42 -63 -76 -111 -103s-97 -40 -148 -40c-48 0 -87 12 -118 35s-46 53 -46 90c0 74 63 146 189 217c-44 -7 -85 -11 -123 -12c-69 0 -134 9 -196 26s-121 45 -177 83s-101 93 -134 165s-50 158 -50 257v688c0 60 -4 103 -13 130s-23 48 -43 63s-57 33 -112 54v26h619
v-26c-77 -30 -124 -58 -142 -83s-27 -79 -27 -162v-686c0 -131 32 -233 95 -305s149 -108 258 -108c107 0 192 34 255 101s94 158 94 273v577c0 79 -2 140 -6 182s-15 78 -32 107s-37 50 -59 62s-57 27 -105 45v26h508z" />
    <glyph glyph-name="uogonek" unicode="&#x173;" horiz-adv-x="1212" 
d="M844 -23l-3 2c-69 -64 -104 -125 -105 -184c0 -27 9 -48 26 -62s38 -21 62 -21c52 0 100 21 144 62l20 -17c-30 -44 -69 -79 -117 -105s-97 -39 -148 -39c-48 0 -87 12 -118 35s-46 54 -46 93c0 91 85 180 254 267v180c-104 -143 -226 -215 -366 -215
c-77 0 -144 24 -201 72s-86 122 -86 223v383c0 89 -8 149 -24 180s-53 60 -110 87v26c141 11 269 34 384 70c0 -75 -1 -186 -2 -332s-2 -256 -2 -330c0 -71 16 -123 47 -157s72 -51 122 -51c78 0 156 42 234 127v381c0 90 -8 150 -24 179s-54 58 -114 87v26
c130 8 258 31 385 68v-760c0 -65 8 -108 24 -128s53 -39 110 -56v-27z" />
    <glyph glyph-name="Wcircumflex" unicode="&#x174;" horiz-adv-x="2205" 
d="M1149 1694l-243 -170l-26 14c86 120 173 245 260 375h14c85 -129 172 -254 261 -375l-24 -14zM1746 1464l443 1v-26c-73 -35 -123 -71 -150 -107s-54 -92 -81 -167l-416 -1165h-86l-360 987l-355 -987h-83l-476 1292c-9 27 -17 47 -24 59s-22 26 -45 42s-55 32 -96 47v26
h619v-26c-61 -19 -103 -37 -126 -54s-35 -36 -35 -57c0 -11 4 -29 12 -54l308 -881l256 727l-64 172c-13 38 -30 67 -50 86s-61 39 -124 60v26h621v-26c-57 -19 -97 -36 -119 -52s-33 -38 -33 -67c0 -22 10 -62 31 -121l282 -803l269 766c22 63 33 107 32 133
c0 30 -11 56 -33 77s-61 43 -117 66v26z" />
    <glyph glyph-name="wcircumflex" unicode="&#x175;" horiz-adv-x="1689" 
d="M866 1274l-236 -168l-21 18c34 45 78 106 131 183s93 135 120 174h12c98 -147 181 -266 250 -357l-20 -14zM1338 985l344 -5v-27c-49 -30 -85 -57 -107 -81s-43 -58 -62 -103l-329 -776h-70l-268 629l-264 -629h-66l-356 833c-25 57 -75 99 -150 126v27h525v-27
c-82 -23 -123 -54 -123 -93c0 -18 5 -40 16 -65c18 -45 86 -206 203 -482l170 416l-43 103c-23 59 -73 100 -150 123v27h529v-27c-45 -11 -77 -23 -97 -37s-30 -32 -30 -54c0 -17 5 -38 16 -63c9 -25 78 -188 207 -490c19 45 44 105 74 179s55 134 74 180s33 81 41 104
c9 25 14 48 15 69c0 39 -33 78 -99 116v27z" />
    <glyph glyph-name="Ycircumflex" unicode="&#x176;" horiz-adv-x="1435" 
d="M776 1694l-242 -170l-27 14c86 120 173 245 260 375h14c85 -129 172 -254 261 -375l-24 -14zM1013 1464h406v-26c-87 -42 -165 -119 -233 -232l-326 -534v-400c0 -83 9 -137 28 -162s66 -52 142 -82v-27h-620v27c77 30 125 58 143 83s27 79 27 162v385l-394 639
c-15 25 -27 44 -36 56s-25 26 -47 42s-51 31 -87 45v26h621v-26c-53 -22 -90 -41 -111 -57s-31 -33 -31 -51s16 -54 49 -109l278 -457l262 440c26 45 39 82 39 111c0 47 -37 87 -110 121v26z" />
    <glyph glyph-name="ycircumflex" unicode="&#x177;" horiz-adv-x="1105" 
d="M584 1274l-237 -168l-20 18c34 45 78 106 131 183s93 135 120 174h12c98 -147 181 -266 250 -357l-21 -14zM753 985l349 -3v-27c-48 -26 -83 -53 -105 -81s-45 -71 -70 -130c-149 -349 -238 -557 -268 -623s-60 -125 -90 -177c-3 -5 -14 -25 -33 -60s-34 -61 -45 -78
s-28 -41 -50 -72s-47 -60 -74 -87s-57 -54 -90 -80l-133 174l13 16c143 -8 253 58 329 199c12 25 19 39 21 42c3 4 10 18 22 43l-368 786c-27 60 -77 104 -150 131v27h547v-27c-81 -29 -121 -63 -121 -102c0 -17 7 -40 21 -70l207 -456c75 168 134 313 176 434
c11 30 16 55 16 74c0 49 -35 89 -104 120v27z" />
    <glyph glyph-name="Ydieresis" unicode="&#x178;" horiz-adv-x="1435" 
d="M569 1554l-2 -2c-36 0 -66 13 -91 38s-38 56 -38 92s13 66 38 91s56 38 92 38s66 -12 91 -37s38 -55 38 -91s-12 -66 -37 -91s-55 -38 -91 -38zM968 1554v-1c-35 0 -65 12 -90 37s-37 55 -37 91s12 66 37 91s55 38 90 38s65 -12 90 -37s38 -55 38 -91s-13 -66 -38 -91
s-55 -37 -90 -37zM1011 1461h406v-26c-87 -42 -165 -119 -233 -232l-326 -534v-400c0 -83 9 -137 28 -162s66 -52 142 -82v-27h-620v27c77 30 125 58 143 83s27 79 27 162v385l-394 639c-15 25 -27 44 -36 56s-25 26 -47 42s-51 31 -87 45v26h621v-26
c-53 -22 -90 -41 -111 -57s-31 -33 -31 -51s16 -54 49 -109l278 -457l262 440c26 45 39 82 39 111c0 47 -37 87 -110 121v26z" />
    <glyph glyph-name="Zacute" unicode="&#x179;" horiz-adv-x="1239" 
d="M872 1888c-22 -26 -116 -134 -282 -325l-29 6c19 116 34 222 45 319h266zM1149 385h28l-50 -385h-1058v35l757 1333h-280c-101 0 -185 -28 -251 -84s-113 -121 -140 -194h-27l37 374h999v-34l-757 -1334h372c79 0 151 29 215 86s116 125 155 203z" />
    <glyph glyph-name="zacute" unicode="&#x17a;" horiz-adv-x="954" 
d="M735 1450v1c-25 -29 -119 -138 -282 -327l-31 6c21 116 36 223 45 320h268zM893 986l-1 -48l-543 -856h264c39 0 75 16 107 47s77 99 136 204h27l-33 -332h-789v45l551 860h-243c-33 0 -65 -15 -96 -44s-80 -95 -148 -197h-25l33 321h760z" />
    <glyph glyph-name="Zdotaccent" unicode="&#x17b;" horiz-adv-x="1239" 
d="M653 1559v-2c-34 0 -64 13 -90 38s-39 55 -39 91s13 67 39 92s56 38 90 38c35 0 65 -13 90 -38s38 -55 38 -91s-13 -66 -38 -91s-55 -37 -90 -37zM1149 383h28l-50 -385h-1058v35l757 1333h-280c-101 0 -185 -28 -251 -84s-113 -121 -140 -194h-27l37 374h999v-34
l-757 -1334h372c79 0 151 29 215 86s116 125 155 203z" />
    <glyph glyph-name="zdotaccent" unicode="&#x17c;" horiz-adv-x="954" 
d="M485 1149h-2c-38 0 -71 14 -100 41s-43 59 -43 96c0 35 14 66 43 93s63 41 101 41s72 -14 101 -41s43 -58 43 -93c0 -37 -14 -69 -43 -96s-62 -41 -100 -41zM890 985l-1 -48l-543 -856h264c39 0 75 16 107 47s77 99 136 204h27l-33 -332h-789v45l551 860h-243
c-33 0 -65 -15 -96 -44s-80 -95 -148 -197h-25l33 321h760z" />
    <glyph glyph-name="Zcaron" unicode="&#x17d;" horiz-adv-x="1239" 
d="M666 1532h-12c-119 173 -206 298 -262 375l27 14l241 -170l242 170l25 -14c-89 -121 -176 -246 -261 -375zM1150 385h28l-50 -385h-1058v35l757 1333h-280c-101 0 -185 -28 -251 -84s-113 -121 -140 -194h-27l37 374h999v-34l-757 -1334h372c79 0 151 29 215 86
s116 125 155 203z" />
    <glyph glyph-name="zcaron" unicode="&#x17e;" horiz-adv-x="954" 
d="M485 1114l-12 1c-26 37 -66 94 -119 172s-97 140 -131 187l19 16l237 -166l236 164l22 -14c-75 -99 -159 -219 -252 -360zM893 986l-1 -48l-543 -856h264c39 0 75 16 107 47s77 99 136 204h27l-33 -332h-789v45l551 860h-243c-33 0 -65 -15 -96 -44s-80 -95 -148 -197
h-25l33 321h760z" />
    <glyph glyph-name="Aringacute" unicode="&#x1fa;" horiz-adv-x="1470" 
d="M956 2216c-31 -31 -125 -126 -282 -285l-29 6c19 105 34 198 45 279h266zM739 1536v-2c-52 0 -96 19 -132 56s-54 83 -54 138c0 52 18 96 54 133s80 55 132 55s96 -18 132 -55s54 -81 54 -132c0 -55 -18 -101 -54 -138s-80 -55 -132 -55zM736 1866v-2
c-34 0 -63 -14 -86 -41s-35 -59 -35 -96s13 -70 38 -99s55 -44 89 -44c35 0 64 14 86 41s33 60 33 98c0 39 -12 73 -36 101s-54 42 -89 42zM1269 193l-1 1c9 -27 17 -47 23 -60s16 -27 29 -42s29 -28 48 -38s44 -20 75 -29v-27h-617v27c59 21 99 39 121 54s33 36 33 62
c0 23 -10 61 -29 114l-77 219h-465l-15 -39c-49 -137 -73 -224 -72 -262c0 -35 10 -64 30 -86s55 -43 104 -63v-27h-428v27c71 44 123 92 157 144s72 137 114 254l295 827l-66 131c103 41 186 84 249 129zM455 601h374l-188 531z" />
    <glyph glyph-name="aringacute" unicode="&#x1fb;" horiz-adv-x="1083" 
d="M524 1499l-30 7c21 116 36 223 45 320h268c-25 -29 -119 -138 -283 -327zM559 1082v-1c-52 0 -96 19 -132 56s-54 83 -54 138c0 52 18 96 54 133s80 55 132 55s96 -18 132 -55s54 -81 54 -133c0 -55 -18 -101 -54 -138s-80 -55 -132 -55zM565 1133v-1c34 0 62 14 84 43
s33 62 33 99c0 38 -13 71 -38 98s-55 41 -89 41s-62 -13 -85 -40s-34 -59 -34 -97c0 -37 13 -70 39 -99s56 -44 90 -44zM844 -21l-1 -2c-61 0 -104 20 -129 60s-36 87 -33 142h-2c-31 -52 -77 -98 -137 -138s-130 -60 -209 -60c-82 0 -146 22 -193 65s-70 99 -70 168
c0 97 52 181 156 252s257 133 459 186l4 129c1 37 -8 69 -28 95s-51 39 -94 39c-64 0 -115 -26 -153 -78s-63 -115 -75 -189l-18 -6l-179 127c37 64 93 120 168 167s166 71 274 71c121 0 209 -30 263 -91s80 -135 77 -222l-13 -530c0 -19 5 -35 14 -47s20 -18 33 -18
c30 0 57 29 82 88l29 -14c-17 -52 -44 -97 -81 -136s-85 -58 -144 -58zM450 138v1c85 0 159 41 223 123l10 322c-239 -77 -358 -182 -358 -316c0 -41 11 -73 34 -96s53 -34 91 -34z" />
    <glyph glyph-name="AEacute" unicode="&#x1fc;" horiz-adv-x="2000" 
d="M1585 1888c-22 -26 -116 -134 -282 -325l-29 6c19 116 34 222 45 319h266zM1874 385l24 -4l-50 -385h-1101v27c77 30 125 58 143 83s27 79 27 162v203h-453l-96 -164c-39 -67 -59 -117 -60 -151c0 -49 43 -93 129 -132v-27h-426v27c52 33 96 68 131 105s76 96 123 178
l582 983c7 12 10 22 10 31c0 17 -11 34 -34 51s-63 39 -120 65v26h1077l37 -374h-27c-27 74 -74 139 -140 195s-149 84 -250 84h-201v-539h209c56 0 104 13 144 39s70 57 90 93h25v-369h-25c-21 42 -51 79 -90 110s-87 46 -143 44l-209 -6v-551c0 -26 22 -48 66 -66
s104 -27 181 -27h57c79 0 151 29 215 86s116 125 155 203zM540 598h377v641z" />
    <glyph glyph-name="aeacute" unicode="&#x1fd;" horiz-adv-x="1646" 
d="M823 1124l-30 7c21 116 36 223 45 320h268c-25 -29 -119 -138 -283 -327zM362 -19l-1 -2c-85 0 -155 20 -211 59s-84 96 -84 170c0 195 211 343 632 444l2 107c1 48 -11 86 -36 115s-61 43 -108 43c-65 0 -116 -27 -152 -81s-57 -114 -62 -180l-25 -8l-174 125
c30 56 84 109 163 160s171 76 276 76c127 0 218 -48 274 -144c93 95 202 143 328 144c120 0 217 -38 290 -115s110 -165 110 -264v-62h-665c-7 -135 28 -237 105 -306s166 -104 267 -104c119 0 208 48 267 145l26 -14c-18 -83 -62 -155 -132 -216s-161 -92 -273 -92
c-83 0 -160 18 -230 54s-126 86 -167 150c-113 -136 -253 -204 -420 -204zM923 658l426 4c-3 69 -24 130 -64 183s-89 80 -148 80c-56 0 -104 -25 -145 -75s-64 -114 -69 -192zM480 129l-2 -2c51 0 100 12 147 36s85 56 114 97c-30 73 -45 149 -45 228c0 34 2 67 6 99
c-130 -44 -225 -89 -285 -136s-90 -106 -90 -177c-1 -97 51 -145 155 -145z" />
    <glyph glyph-name="Oslashacute" unicode="&#x1fe;" horiz-adv-x="1574" 
d="M1006 1888c-22 -26 -116 -134 -283 -325l-29 6c19 116 34 222 45 319h267zM1262 1327h1c164 -138 246 -336 245 -594c0 -228 -66 -412 -199 -551s-307 -209 -522 -209c-157 0 -294 39 -411 117l-109 -153h-96l143 200c-164 142 -246 341 -245 596c0 229 66 413 198 551
s305 207 519 207c159 0 296 -39 412 -117l100 139h97zM363 846h-2c0 -181 36 -345 107 -492l596 834c-83 137 -190 205 -321 205c-113 0 -205 -49 -275 -148s-105 -232 -105 -399zM828 72l-1 1c112 0 204 49 276 147s108 231 108 398c0 180 -35 345 -104 494l-598 -836
c86 -136 192 -204 319 -204z" />
    <glyph glyph-name="oslashacute" unicode="&#x1ff;" horiz-adv-x="1118" 
d="M809 1450v1c-25 -29 -119 -138 -283 -327l-30 6c21 116 36 223 45 320h268zM895 898h-1c109 -97 164 -229 164 -396c0 -150 -45 -274 -135 -373s-211 -148 -364 -148c-105 0 -198 24 -278 71l-99 -135h-88l129 178c-109 90 -164 220 -164 389c0 150 46 275 137 376
s212 151 363 151c108 0 200 -24 277 -72l82 115h90zM312 615h-1c0 -107 19 -213 56 -319l348 481c-52 103 -116 154 -193 154c-60 0 -110 -27 -150 -80s-60 -132 -60 -236zM596 60l-1 1c60 0 110 27 149 80s59 131 59 234c0 109 -18 217 -55 324l-351 -481
c52 -105 118 -158 199 -158z" />
    <glyph glyph-name="uni0218" unicode="&#x218;" horiz-adv-x="1132" 
d="M590 -27l-2 -4c-137 0 -290 44 -459 131l-25 381h27c53 -109 120 -205 200 -287s166 -123 259 -123c61 0 112 19 152 58s60 90 60 153c0 39 -8 76 -24 111s-41 68 -75 98s-64 54 -90 72s-62 41 -108 68c-129 78 -213 136 -252 174c-85 79 -127 175 -127 287
c0 123 41 220 123 290s184 105 305 105c113 0 238 -27 375 -82l39 -369h-27c-47 93 -105 175 -174 247s-143 108 -222 108c-55 0 -101 -18 -139 -54s-57 -84 -57 -145c0 -59 20 -108 60 -148s116 -93 228 -160c61 -37 105 -64 132 -81s62 -42 105 -75s74 -64 92 -92
s35 -63 50 -105s23 -88 23 -137c0 -94 -23 -174 -69 -240s-102 -113 -167 -140s-136 -41 -213 -41zM576 -72l-1 -2c37 0 68 -11 94 -34s39 -56 39 -99c0 -51 -20 -104 -60 -160s-100 -100 -179 -132l-14 27c74 51 122 112 143 184h-20c-37 0 -69 10 -96 31s-40 46 -40 76
s14 56 41 77s58 32 93 32z" />
    <glyph glyph-name="uni0219" unicode="&#x219;" horiz-adv-x="866" 
d="M456 -27l2 1c-105 0 -224 27 -357 82l-30 277l22 4c138 -189 260 -283 365 -283c39 0 71 11 96 33s37 51 37 88c0 44 -19 83 -57 117s-94 70 -169 108c-37 18 -65 33 -84 44s-44 27 -75 49s-55 43 -71 64s-31 47 -44 78s-19 64 -19 99c0 90 33 159 99 207s146 72 239 72
c85 0 188 -21 309 -64l20 -256l-22 -6c-47 65 -98 122 -153 171s-107 74 -156 74c-34 0 -64 -11 -89 -32s-38 -51 -38 -89c0 -45 18 -82 53 -111s87 -61 156 -95c8 -4 14 -7 19 -8c101 -51 176 -100 224 -148s72 -110 72 -187c0 -89 -32 -159 -96 -211s-148 -78 -253 -78z
M443 -67l1 -2c37 0 68 -11 94 -34s39 -56 39 -99c0 -51 -20 -104 -60 -160s-100 -100 -179 -132l-14 27c74 51 122 112 143 184h-21c-37 0 -69 10 -96 31s-40 46 -40 76s13 56 40 77s58 32 93 32z" />
    <glyph glyph-name="uni021A" unicode="&#x21a;" horiz-adv-x="1357" 
d="M1268 1464l36 -375h-27c-29 75 -76 140 -142 195s-149 83 -250 83h-60v-1096c0 -85 9 -139 28 -163s66 -51 142 -81v-27h-620v27c77 30 125 58 143 83s27 79 27 162v1096h-68c-100 0 -183 -27 -248 -82s-113 -120 -143 -196h-27l37 374h1172zM687 -62v-1
c37 0 68 -12 94 -35s39 -56 39 -99c0 -51 -20 -104 -60 -160s-99 -100 -178 -131l-15 26c74 51 122 113 144 186h-21c-37 0 -69 10 -96 30s-40 45 -40 75s13 56 40 77s58 32 93 32z" />
    <glyph glyph-name="uni021B" unicode="&#x21b;" horiz-adv-x="681" 
d="M393 -18c-73 0 -134 24 -184 71s-75 116 -75 206v639h-100v59c160 105 265 203 315 294h29v-266h266l-16 -88h-246l-6 -569c-1 -133 49 -199 150 -199c47 0 90 18 129 53l19 -22c-74 -119 -168 -178 -281 -178zM350 -68v-2c37 0 68 -11 94 -34s39 -56 39 -99
c0 -51 -20 -104 -60 -160s-99 -100 -178 -132l-15 27c74 51 122 112 144 184h-21c-37 0 -69 10 -96 31s-40 46 -40 76s13 56 40 77s58 32 93 32z" />
    <glyph glyph-name="uni0237" unicode="&#x237;" horiz-adv-x="548" 
d="M-25 -428l-14 31c73 37 124 83 153 138s43 135 43 240v671c0 94 -8 155 -24 182s-53 55 -110 84v26c141 11 269 34 384 70v-910c-1 -287 -145 -464 -432 -532z" />
    <glyph glyph-name="circumflex" unicode="&#x2c6;" horiz-adv-x="675" 
d="M102 1110l-17 19c31 42 72 101 123 176s93 135 126 180h12c98 -147 181 -266 250 -357l-21 -14l-235 164z" />
    <glyph glyph-name="caron" unicode="&#x2c7;" horiz-adv-x="675" 
d="M102 1493l239 -167l235 164l21 -14c-75 -98 -158 -218 -249 -359h-12c-29 41 -70 100 -123 177s-96 138 -129 183z" />
    <glyph glyph-name="breve" unicode="&#x2d8;" horiz-adv-x="669" 
d="M565 1460h29c-21 -223 -105 -334 -252 -334c-149 0 -234 111 -255 334h25c17 -57 47 -102 90 -135s89 -49 138 -49s95 16 138 49s72 78 87 135z" />
    <glyph glyph-name="dotaccent" unicode="&#x2d9;" horiz-adv-x="448" 
d="M227 1155h-1c-38 0 -71 14 -100 41s-43 59 -43 96c0 35 14 66 43 93s63 41 101 41s71 -13 99 -40s42 -58 42 -94c0 -37 -14 -69 -42 -96s-61 -41 -99 -41z" />
    <glyph glyph-name="ring" unicode="&#x2da;" horiz-adv-x="534" 
d="M270 1085v-1c-52 0 -96 19 -132 56s-54 83 -54 138c0 52 18 96 54 133s80 55 132 55s96 -18 132 -55s54 -81 54 -133c0 -55 -18 -101 -54 -138s-80 -55 -132 -55zM276 1136v-1c34 0 62 14 84 43s33 62 33 99c0 38 -13 71 -38 98s-55 41 -89 41s-62 -13 -85 -40
s-34 -59 -34 -97c0 -37 13 -70 39 -99s56 -44 90 -44z" />
    <glyph glyph-name="ogonek" unicode="&#x2db;" horiz-adv-x="589" 
d="M246 -389l-1 1c-47 0 -86 12 -117 35s-46 54 -46 93c0 55 31 109 92 162s137 99 227 138l27 -14c-41 -25 -79 -60 -115 -105s-54 -88 -54 -129c0 -27 9 -48 26 -62s38 -21 63 -21c52 0 101 21 146 62l18 -17c-27 -41 -65 -75 -115 -102s-100 -41 -151 -41z" />
    <glyph glyph-name="tilde" unicode="&#x2dc;" horiz-adv-x="774" 
d="M674 1393l19 -4c-23 -131 -88 -197 -195 -197c-34 0 -81 10 -140 31c-69 23 -117 34 -144 33c-39 0 -77 -20 -114 -59l-14 4c15 75 39 127 72 156s84 43 152 43c9 0 46 -11 110 -33s105 -33 123 -33c35 0 60 4 75 11s34 23 56 48z" />
    <glyph glyph-name="hungarumlaut" unicode="&#x2dd;" horiz-adv-x="817" 
d="M471 1141l-30 6c21 127 35 233 43 319h254c-43 -54 -132 -162 -267 -325zM108 1139l-30 5c21 127 35 233 43 319h254c-43 -55 -132 -163 -267 -324z" />
    <glyph glyph-name="Wgrave" unicode="&#x1e80;" horiz-adv-x="2205" 
d="M1235 1569l-29 -6c-154 177 -248 286 -282 327h266c11 -97 26 -204 45 -321zM1747 1464l443 1v-26c-73 -35 -123 -71 -150 -107s-54 -92 -81 -167l-416 -1165h-86l-360 987l-355 -987h-83l-476 1292c-9 27 -17 47 -24 59s-22 26 -45 42s-55 32 -96 47v26h619v-26
c-61 -19 -103 -37 -126 -54s-35 -36 -35 -57c0 -11 4 -29 12 -54l308 -881l256 727l-64 172c-13 38 -30 67 -50 86s-61 39 -124 60v26h621v-26c-57 -19 -97 -36 -119 -52s-33 -38 -33 -67c0 -22 10 -62 31 -121l282 -803l269 766c22 63 33 107 32 133c0 30 -11 56 -33 77
s-61 43 -117 66v26z" />
    <glyph glyph-name="wgrave" unicode="&#x1e81;" horiz-adv-x="1689" 
d="M948 1141l-28 -5c-120 135 -214 243 -283 324h266c11 -93 26 -199 45 -319zM1337 986l344 -5v-27c-49 -30 -85 -57 -107 -81s-43 -58 -62 -103l-329 -776h-70l-268 629l-264 -629h-66l-356 833c-25 57 -75 99 -150 126v27h525v-27c-82 -23 -123 -54 -123 -93
c0 -18 5 -40 16 -65c18 -45 86 -206 203 -482l170 416l-43 103c-23 59 -73 100 -150 123v27h529v-27c-45 -11 -77 -23 -97 -37s-30 -32 -30 -54c0 -17 5 -38 16 -63c9 -25 78 -188 207 -490c19 45 44 105 74 179s55 134 74 180s33 81 41 104c9 25 14 48 15 69
c0 39 -33 78 -99 116v27z" />
    <glyph glyph-name="Wacute" unicode="&#x1e82;" horiz-adv-x="2205" 
d="M1360 1888c-22 -26 -116 -134 -283 -325l-28 6c19 116 34 222 45 319h266zM1747 1464l443 1v-26c-73 -35 -123 -71 -150 -107s-54 -92 -81 -167l-416 -1165h-86l-360 987l-355 -987h-83l-476 1292c-9 27 -17 47 -24 59s-22 26 -45 42s-55 32 -96 47v26h619v-26
c-61 -19 -103 -37 -126 -54s-35 -36 -35 -57c0 -11 4 -29 12 -54l308 -881l256 727l-64 172c-13 38 -30 67 -50 86s-61 39 -124 60v26h621v-26c-57 -19 -97 -36 -119 -52s-33 -38 -33 -67c0 -22 10 -62 31 -121l282 -803l269 766c22 63 33 107 32 133c0 30 -11 56 -33 77
s-61 43 -117 66v26z" />
    <glyph glyph-name="wacute" unicode="&#x1e83;" horiz-adv-x="1689" 
d="M1116 1450v1c-25 -29 -119 -138 -282 -327l-31 6c21 116 36 223 45 320h268zM1337 986l344 -5v-27c-49 -30 -85 -57 -107 -81s-43 -58 -62 -103l-329 -776h-70l-268 629l-264 -629h-66l-356 833c-25 57 -75 99 -150 126v27h525v-27c-82 -23 -123 -54 -123 -93
c0 -18 5 -40 16 -65c18 -45 86 -206 203 -482l170 416l-43 103c-23 59 -73 100 -150 123v27h529v-27c-45 -11 -77 -23 -97 -37s-30 -32 -30 -54c0 -17 5 -38 16 -63c9 -25 78 -188 207 -490c19 45 44 105 74 179s55 134 74 180s33 81 41 104c9 25 14 48 15 69
c0 39 -33 78 -99 116v27z" />
    <glyph glyph-name="Wdieresis" unicode="&#x1e84;" horiz-adv-x="2205" 
d="M940 1554v-2c-35 0 -65 13 -90 38s-38 56 -38 92s13 66 38 91s55 38 90 38c34 0 64 -12 90 -37s39 -55 39 -91s-13 -66 -39 -91s-56 -38 -90 -38zM1341 1554l-2 -1c-34 0 -64 12 -89 37s-38 55 -38 91s12 66 37 91s55 38 91 38s66 -12 91 -37s38 -55 38 -91
s-13 -66 -38 -91s-55 -37 -90 -37zM1745 1461l443 1v-26c-73 -35 -123 -71 -150 -107s-54 -92 -81 -167l-416 -1165h-86l-360 987l-355 -987h-83l-476 1292c-9 27 -17 47 -24 59s-22 26 -45 42s-55 32 -96 47v26h619v-26c-61 -19 -103 -37 -126 -54s-35 -36 -35 -57
c0 -11 4 -29 12 -54l308 -881l256 727l-64 172c-13 38 -30 67 -50 86s-61 39 -124 60v26h621v-26c-57 -19 -97 -36 -119 -52s-33 -38 -33 -67c0 -22 10 -62 31 -121l282 -803l269 766c22 63 33 107 32 133c0 30 -11 56 -33 77s-61 43 -117 66v26z" />
    <glyph glyph-name="wdieresis" unicode="&#x1e85;" horiz-adv-x="1689" 
d="M690 1159c-34 0 -63 13 -88 38s-37 55 -37 89s12 63 37 88s54 37 88 37s64 -12 89 -37s38 -54 38 -88s-13 -64 -38 -89s-55 -38 -89 -38zM1042 1159h-1c-34 0 -63 13 -87 38s-36 55 -36 89s12 63 36 88s53 37 87 37s64 -12 89 -37s38 -54 38 -88c0 -35 -12 -65 -37 -90
s-55 -37 -89 -37zM1335 985l344 -5v-27c-49 -30 -85 -57 -107 -81s-43 -58 -62 -103l-329 -776h-70l-268 629l-264 -629h-66l-356 833c-25 57 -75 99 -150 126v27h525v-27c-82 -23 -123 -54 -123 -93c0 -18 5 -40 16 -65c18 -45 86 -206 203 -482l170 416l-43 103
c-23 59 -73 100 -150 123v27h529v-27c-45 -11 -77 -23 -97 -37s-30 -32 -30 -54c0 -17 5 -38 16 -63c9 -25 78 -188 207 -490c19 45 44 105 74 179s55 134 74 180s33 81 41 104c9 25 14 48 15 69c0 39 -33 78 -99 116v27z" />
    <glyph glyph-name="uni1E8A" unicode="&#x1e8a;" horiz-adv-x="1492" 
d="M786 1559l-2 -2c-36 0 -66 13 -91 38s-38 55 -38 91s13 67 38 92s56 38 92 38s66 -13 91 -38s38 -55 38 -91s-12 -66 -37 -91s-55 -37 -91 -37zM1248 199l-1 1c31 -49 61 -86 90 -111s71 -46 126 -62v-27h-653v27c91 30 137 67 137 110c0 21 -9 47 -28 78l-248 395
l-248 -340c-38 -52 -57 -96 -57 -133c0 -45 33 -82 100 -110v-27h-438v27c98 42 191 123 280 243l314 418l-369 576c-30 47 -59 83 -87 108s-71 47 -128 66v26h655v-26c-95 -27 -143 -62 -143 -105c0 -18 11 -45 33 -82l225 -360l227 317c31 45 47 83 47 114
c0 45 -33 83 -100 114v26h434v-26c-103 -48 -194 -127 -274 -236l-287 -385z" />
    <glyph glyph-name="uni1E8B" unicode="&#x1e8b;" horiz-adv-x="1112" 
d="M563 1149h-2c-38 0 -71 14 -100 41s-43 59 -43 96c0 35 14 66 43 93s63 41 101 41s72 -14 101 -41s43 -58 43 -93c0 -37 -14 -69 -43 -96s-62 -41 -100 -41zM951 131l2 1c31 -44 78 -79 141 -104v-27h-551v27c87 19 131 41 131 66c0 11 -8 27 -23 49l-161 244l-160 -205
c-19 -25 -29 -48 -29 -69c0 -39 28 -68 84 -86v-27h-364v27c87 41 156 93 207 157l218 271l-277 399c-38 56 -86 91 -143 104v27h551v-27c-87 -17 -131 -40 -131 -69c0 -12 13 -39 40 -82l129 -193l144 189c23 31 35 55 35 71c0 27 -29 55 -86 84v27h354v-27
c-85 -37 -155 -92 -211 -165l-188 -244z" />
    <glyph glyph-name="Ygrave" unicode="&#x1ef2;" horiz-adv-x="1435" 
d="M862 1569l-28 -6c-154 177 -248 286 -283 327h266c11 -97 26 -204 45 -321zM1014 1464h406v-26c-87 -42 -165 -119 -233 -232l-326 -534v-400c0 -83 9 -137 28 -162s66 -52 142 -82v-27h-620v27c77 30 125 58 143 83s27 79 27 162v385l-394 639c-15 25 -27 44 -36 56
s-25 26 -47 42s-51 31 -87 45v26h621v-26c-53 -22 -90 -41 -111 -57s-31 -33 -31 -51s16 -54 49 -109l278 -457l262 440c26 45 39 82 39 111c0 47 -37 87 -110 121v26z" />
    <glyph glyph-name="ygrave" unicode="&#x1ef3;" horiz-adv-x="1105" 
d="M666 1141l-29 -5c-120 135 -214 243 -283 324h267c11 -93 26 -199 45 -319zM752 986l349 -3v-27c-48 -26 -83 -53 -105 -81s-45 -71 -70 -130c-149 -349 -238 -557 -268 -623s-60 -125 -90 -177c-3 -5 -14 -25 -33 -60s-34 -61 -45 -78s-28 -41 -50 -72s-47 -60 -74 -87
s-57 -54 -90 -80l-133 174l13 16c143 -8 253 58 329 199c12 25 19 39 21 42c3 4 10 18 22 43l-368 786c-27 60 -77 104 -150 131v27h547v-27c-81 -29 -121 -63 -121 -102c0 -17 7 -40 21 -70l207 -456c75 168 134 313 176 434c11 30 16 55 16 74c0 49 -35 89 -104 120v27z
" />
    <glyph glyph-name="endash" unicode="&#x2013;" horiz-adv-x="993" 
d="M913 582v-97h-829v97h829z" />
    <glyph glyph-name="emdash" unicode="&#x2014;" horiz-adv-x="1824" 
d="M1745 582v-95h-1661v95h1661z" />
    <glyph glyph-name="quoteleft" unicode="&#x2018;" horiz-adv-x="385" 
d="M195 1227l-3 1c37 0 68 -12 93 -36s38 -54 38 -89c0 -37 -13 -68 -38 -93s-55 -37 -90 -37c-37 0 -68 14 -94 41s-39 67 -39 119c0 61 20 126 60 195s99 122 177 159l14 -27c-69 -60 -114 -138 -135 -233h17z" />
    <glyph glyph-name="quoteright" unicode="&#x2019;" horiz-adv-x="385" 
d="M193 1489c37 0 68 -14 94 -41s39 -67 39 -119c0 -61 -20 -126 -60 -195s-99 -122 -178 -160l-12 26c68 61 113 139 135 234h-16c-37 0 -68 12 -94 37s-39 55 -39 90s13 65 39 90s57 38 92 38z" />
    <glyph glyph-name="quotesinglbase" unicode="&#x201a;" horiz-adv-x="503" 
d="M252 274l-1 -2c39 0 73 -15 101 -45s42 -74 42 -131c0 -68 -21 -139 -64 -214s-107 -134 -193 -178l-14 31c79 73 130 160 153 262h-20c-39 0 -73 13 -101 40s-42 60 -42 98s14 71 41 98s60 41 98 41z" />
    <glyph glyph-name="quotedblleft" unicode="&#x201c;" horiz-adv-x="727" 
d="M195 1227l-3 1c37 0 68 -12 93 -36s38 -54 38 -89c0 -37 -13 -68 -38 -93s-55 -37 -90 -37c-37 0 -68 14 -94 41s-39 67 -39 119c0 61 20 126 60 195s99 122 177 159l14 -27c-69 -60 -114 -138 -135 -233h17zM532 1228v1c38 0 70 -12 95 -36s38 -54 38 -89
c0 -37 -13 -68 -38 -93s-55 -37 -90 -37c-37 0 -69 14 -96 42s-40 67 -40 118c0 61 20 126 60 195s99 122 177 159l14 -27c-69 -60 -115 -138 -137 -233h17z" />
    <glyph glyph-name="quotedblright" unicode="&#x201d;" horiz-adv-x="727" 
d="M193 1489c37 0 68 -14 94 -41s39 -67 39 -119c0 -61 -20 -126 -60 -195s-99 -122 -178 -160l-12 26c68 61 113 139 135 234h-16c-37 0 -68 12 -94 37s-39 55 -39 90s13 65 39 90s57 38 92 38zM535 1489c37 0 68 -14 94 -41s39 -67 39 -119c0 -61 -20 -126 -60 -195
s-99 -122 -177 -160l-12 26c68 61 113 139 135 234h-16c-37 0 -68 12 -93 37s-38 55 -38 90s13 65 38 90s55 38 90 38z" />
    <glyph glyph-name="quotedblbase" unicode="&#x201e;" horiz-adv-x="862" 
d="M252 274l-1 -2c39 0 73 -15 101 -45s42 -74 42 -131c0 -68 -21 -139 -64 -214s-107 -134 -193 -178l-14 31c79 73 130 160 153 262h-20c-39 0 -73 13 -101 40s-42 60 -42 98s14 71 41 98s60 41 98 41zM611 272l1 -2c39 0 73 -15 101 -45s42 -74 42 -131
c0 -68 -21 -139 -64 -214s-107 -134 -193 -178l-15 31c79 73 130 160 153 262h-21c-39 0 -73 13 -101 40s-42 60 -42 98s14 71 41 98s60 41 98 41z" />
    <glyph glyph-name="dagger" unicode="&#x2020;" horiz-adv-x="808" 
d="M674 1221v-76h-232v-559h-71v559h-230v76h230v243h71v-243h232z" />
    <glyph glyph-name="daggerdbl" unicode="&#x2021;" horiz-adv-x="808" 
d="M674 1145h-232v-205h232v-76h-232v-278h-71v278h-230v76h230v205h-230v76h230v243h71v-243h232v-76z" />
    <glyph glyph-name="bullet" unicode="&#x2022;" horiz-adv-x="788" 
d="M397 289c-82 0 -153 30 -214 91s-91 132 -91 214c0 81 30 152 91 213s132 92 214 92s153 -31 214 -92s91 -132 91 -213c0 -82 -30 -153 -91 -214s-132 -91 -214 -91z" />
    <glyph glyph-name="ellipsis" unicode="&#x2026;" horiz-adv-x="1413" 
d="M256 -14c-39 0 -73 14 -101 42s-42 62 -42 101s14 73 42 102s62 43 101 43s73 -14 102 -43s43 -63 43 -102s-14 -73 -43 -101s-63 -42 -102 -42zM708 -14c-40 0 -74 14 -103 43s-43 62 -43 100c0 39 14 73 43 102s63 43 103 43s74 -14 103 -43s43 -63 43 -102
c0 -38 -14 -71 -43 -100s-63 -43 -103 -43zM1158 -14h-2c-38 0 -71 14 -100 42s-43 62 -43 101s14 73 42 102s62 43 102 43s74 -14 103 -43s43 -63 43 -102s-14 -73 -43 -101s-63 -42 -102 -42z" />
    <glyph glyph-name="perthousand" unicode="&#x2030;" horiz-adv-x="2762" 
d="M498 -39l-68 37l997 1501l66 -39zM453 539l1 -1c-115 0 -209 42 -282 127s-109 193 -109 325c0 130 36 241 107 333s166 138 285 138c120 0 216 -44 287 -131s107 -195 107 -323s-36 -238 -108 -330s-168 -138 -288 -138zM482 605v-1c52 0 96 27 131 81s53 132 53 235
c0 73 -8 144 -24 213s-42 130 -79 183s-81 79 -132 79c-52 0 -96 -27 -131 -81s-53 -133 -53 -237c0 -115 21 -222 62 -322s99 -150 173 -150zM1484 911l-3 1c119 0 214 -44 285 -131s107 -194 107 -321c0 -129 -35 -240 -106 -333s-166 -139 -286 -139
c-115 0 -209 43 -282 128s-109 194 -109 326c0 130 36 241 107 332s167 137 287 137zM2310 912l-3 1c119 0 214 -44 285 -131s107 -194 107 -321c0 -129 -35 -240 -106 -333s-166 -139 -286 -139c-115 0 -209 43 -282 128s-109 194 -109 326c0 130 36 241 107 332
s167 137 287 137zM1451 846v1c-53 0 -97 -27 -132 -81s-52 -132 -52 -235c0 -116 21 -224 62 -324s98 -150 171 -150c52 0 96 27 132 80s54 132 54 236c0 73 -8 144 -24 213s-42 130 -79 182s-81 78 -132 78zM2281 847l-2 -1c-53 0 -97 -27 -132 -80s-52 -131 -52 -234
c0 -116 21 -224 63 -324s100 -150 174 -150c52 0 96 27 131 80s53 132 53 236c0 71 -8 142 -24 212s-42 131 -79 183s-81 78 -132 78z" />
    <glyph glyph-name="guilsinglleft" unicode="&#x2039;" horiz-adv-x="702" 
d="M616 938c-82 -145 -175 -286 -278 -424c104 -138 197 -279 278 -424h-65c-176 173 -329 311 -459 414v20c124 100 277 238 459 414h65z" />
    <glyph glyph-name="guilsinglright" unicode="&#x203a;" horiz-adv-x="702" 
d="M92 938h63c183 -177 336 -315 460 -414v-20c-131 -101 -284 -239 -459 -414h-64c79 145 172 286 279 424c-107 138 -200 279 -279 424z" />
    <glyph glyph-name="fraction" unicode="&#x2044;" horiz-adv-x="434" 
d="M-287 0l1008 1464h86l-1008 -1464h-86z" />
    <glyph glyph-name="Euro" unicode="&#x20ac;" horiz-adv-x="1488" 
d="M913 70h1c71 0 143 34 217 102s140 148 199 240h27l-37 -367c-146 -48 -285 -72 -418 -72c-175 0 -321 55 -438 165s-184 269 -202 478h-194v84h190v15c0 45 3 93 10 143h-200v86h217c37 161 112 288 225 381s245 139 396 139c113 0 250 -24 411 -71l37 -361h-27
c-60 93 -127 173 -201 241s-148 102 -222 102s-142 -37 -204 -111s-105 -180 -128 -319h572l-8 -86h-574c-4 -42 -6 -87 -6 -135v-23h524l-8 -84h-512c13 -171 55 -305 125 -402s146 -145 228 -145z" />
    <glyph glyph-name="trademark" unicode="&#x2122;" horiz-adv-x="1679" 
d="M670 1464l19 -205h-16c-13 41 -35 78 -67 111s-71 49 -118 49h-32v-549c0 -39 4 -65 11 -79s29 -28 66 -43v-17h-317v17c35 17 57 32 66 45s14 39 14 77v549h-35c-47 0 -86 -16 -117 -48s-53 -69 -66 -111h-19l19 204h592zM1625 1445l1 -4c-37 -15 -59 -29 -67 -42
s-12 -38 -12 -76v-457c0 -39 4 -65 12 -77s30 -27 65 -44v-15h-315v15c37 17 60 32 68 46s12 39 12 76v459h-3c-117 -220 -199 -382 -245 -485h-21c-90 180 -173 335 -250 465v-353c0 -71 5 -118 15 -142s39 -46 86 -66v-17h-248v17c48 22 77 45 86 69s14 71 14 140v414
c-19 33 -52 62 -99 87v8h233c49 -83 123 -225 222 -426l227 426h219v-18z" />
    <glyph glyph-name="oneeighth" unicode="&#x215b;" horiz-adv-x="1681" 
d="M66 612l-1 17c42 18 69 34 80 49s17 44 17 88v494c0 30 -8 53 -24 68s-47 31 -94 48v17l295 104v-731c0 -42 5 -71 14 -86s36 -32 81 -51v-17h-368zM224 0l1008 1464h86l-1008 -1464h-86zM1299 -14v-2c-82 0 -152 21 -210 63s-87 98 -87 169c0 101 59 176 178 225
c-97 52 -146 124 -147 217c0 67 26 120 79 160s118 60 195 60c74 0 136 -18 185 -54s74 -81 74 -134c0 -67 -52 -132 -156 -196c127 -65 191 -151 192 -258c0 -75 -29 -135 -87 -181s-130 -69 -216 -69zM1369 514l-1 -1c53 49 80 106 80 170c0 39 -14 72 -41 99
s-60 40 -98 40c-35 0 -64 -11 -87 -33s-35 -49 -35 -82c0 -37 14 -70 43 -99s75 -60 139 -94zM1303 36v1c42 0 77 13 104 39s41 59 41 98c0 79 -78 160 -233 243c-59 -45 -89 -110 -90 -195c0 -56 17 -101 51 -135s76 -51 127 -51z" />
    <glyph glyph-name="threeeighths" unicode="&#x215c;" horiz-adv-x="1796" 
d="M49 1305l-3 -3c85 123 187 184 307 184c57 0 105 -15 143 -46s57 -71 57 -120c0 -90 -66 -162 -199 -217v-2c9 3 23 4 42 4c56 0 106 -20 149 -60s65 -96 65 -168c0 -87 -31 -156 -93 -206s-137 -75 -226 -75c-78 0 -163 17 -254 51l74 176l14 -6c17 -42 40 -79 70 -112
s66 -49 107 -49s76 19 105 57s43 84 43 137c0 56 -14 101 -43 136s-69 52 -120 52c-31 0 -67 -8 -107 -24l-14 37c82 41 141 79 178 115s55 74 55 115c0 34 -11 60 -33 78s-51 27 -88 27c-75 0 -145 -33 -210 -100zM339 -3l1008 1464h86l-1008 -1464h-86zM1414 -17l-1 -2
c-82 0 -152 21 -210 63s-87 98 -87 169c0 101 59 176 178 225c-97 52 -145 124 -145 217c0 67 26 120 79 160s117 60 193 60c74 0 136 -18 185 -54s74 -81 74 -134c0 -67 -52 -132 -155 -196c127 -65 190 -151 190 -258c0 -75 -29 -135 -86 -181s-129 -69 -215 -69z
M1483 511l-1 -1c53 49 80 106 80 170c0 39 -13 72 -40 99s-60 40 -100 40c-35 0 -64 -11 -87 -33s-34 -49 -34 -82c0 -37 14 -70 43 -99s75 -60 139 -94zM1416 33l-1 1c42 0 77 13 105 39s42 59 42 98c0 79 -78 160 -234 243c-59 -45 -88 -110 -88 -195
c0 -56 17 -101 50 -135s75 -51 126 -51z" />
    <glyph glyph-name="fiveeighths" unicode="&#x215d;" horiz-adv-x="1814" 
d="M317 1153l1 1c82 0 151 -25 206 -76s83 -118 83 -201c0 -89 -32 -158 -97 -207s-138 -74 -219 -74c-75 0 -160 18 -254 55l61 205l19 -4c47 -133 106 -199 178 -199c37 0 70 17 100 51s45 83 45 147c0 68 -18 119 -53 152s-80 50 -135 50c-63 0 -122 -16 -177 -49
l112 471h279c30 0 54 3 72 10s30 13 37 19s19 20 36 42l17 -2l-78 -219h-334l-49 -201c45 19 95 29 150 29zM361 1l1008 1464h86l-1008 -1464h-86zM1437 -13l-2 -2c-82 0 -152 21 -210 63s-87 98 -87 169c0 101 59 176 178 225c-97 52 -146 124 -147 217c0 67 26 120 79 160
s118 60 195 60c74 0 136 -18 185 -54s74 -81 74 -134c0 -67 -52 -132 -156 -196c127 -65 191 -151 192 -258c0 -75 -29 -135 -86 -181s-129 -69 -215 -69zM1504 515l-1 -1c53 49 80 106 80 170c0 39 -14 72 -41 99s-60 40 -98 40c-35 0 -64 -11 -87 -33s-35 -49 -35 -82
c0 -37 14 -70 43 -99s75 -60 139 -94zM1438 37v1c42 0 77 13 104 39s41 59 41 98c0 79 -78 160 -233 243c-59 -45 -88 -110 -88 -195c0 -56 17 -101 50 -135s75 -51 126 -51z" />
    <glyph glyph-name="seveneighths" unicode="&#x215e;" horiz-adv-x="1662" 
d="M137 612l1 -2c45 235 152 467 321 697h-254c-47 0 -80 -6 -100 -18s-43 -36 -69 -73l-19 2l72 256h537v-27c-108 -124 -184 -249 -228 -375s-77 -279 -99 -460h-162zM210 -2l1008 1464h86l-1008 -1464h-86zM1285 -16l-1 -2c-82 0 -152 21 -210 63s-87 98 -87 169
c0 101 59 176 178 225c-97 52 -145 124 -145 217c0 67 26 120 79 160s117 60 193 60c74 0 136 -18 185 -54s74 -81 74 -134c0 -67 -52 -132 -155 -196c127 -65 190 -151 190 -258c0 -75 -29 -135 -86 -181s-129 -69 -215 -69zM1354 512l-2 -1c53 49 80 106 80 170
c0 39 -14 72 -41 99s-60 40 -99 40c-35 0 -64 -11 -87 -33s-35 -49 -35 -82c0 -37 15 -70 44 -99s76 -60 140 -94zM1286 34l-1 1c42 0 77 13 105 39s42 59 42 98c0 79 -78 160 -234 243c-59 -45 -88 -110 -88 -195c0 -56 17 -101 50 -135s75 -51 126 -51z" />
    <glyph glyph-name="arrowleft" unicode="&#x2190;" horiz-adv-x="1191" 
d="M1124 584l2 -97h-835c81 -41 156 -92 225 -153s120 -119 153 -175l-217 -70c-67 167 -193 316 -379 447c186 131 312 280 379 446l217 -70c-33 -56 -84 -114 -154 -175s-145 -112 -226 -153h835z" />
    <glyph glyph-name="arrowup" unicode="&#x2191;" horiz-adv-x="1032" 
d="M518 1061c130 -187 279 -314 447 -381l-70 -217c-56 34 -115 86 -176 156s-112 145 -152 226v-838h-98v838c-39 -81 -89 -156 -151 -226s-121 -122 -177 -156l-69 217c167 67 316 194 446 381z" />
    <glyph glyph-name="arrowright" unicode="&#x2192;" horiz-adv-x="1191" 
d="M745 981l-2 -1c67 -167 193 -316 379 -447c-186 -131 -312 -280 -379 -447l-217 70c33 56 84 114 154 175s145 112 226 153h-835v99h835c-81 41 -156 92 -225 153s-120 119 -153 175z" />
    <glyph glyph-name="arrowdown" unicode="&#x2193;" horiz-adv-x="1032" 
d="M895 604l68 -217c-168 -67 -317 -194 -447 -381c-130 187 -279 314 -446 381l69 217c56 -34 115 -86 177 -156s113 -145 152 -226v838h98v-838c39 81 90 156 152 226s121 122 177 156z" />
    <glyph glyph-name="uni2196" unicode="&#x2196;" horiz-adv-x="964" 
d="M899 203l-70 -70l-591 592c35 -105 53 -218 53 -338c0 -60 -6 -114 -17 -162l-204 105c47 105 70 223 69 354c0 75 -7 151 -20 228c78 -13 154 -20 229 -20c131 0 249 23 354 70l105 -205c-48 -11 -102 -17 -162 -18c-120 0 -233 18 -338 54z" />
    <glyph glyph-name="uni2197" unicode="&#x2197;" horiz-adv-x="966" 
d="M852 915v3c-15 -87 -23 -164 -23 -231c0 -129 23 -247 70 -354l-203 -105c-12 47 -18 102 -18 166c0 117 18 228 53 333l-590 -590l-69 70l590 592c-108 -37 -221 -56 -338 -57c-63 0 -117 6 -162 19l104 203c108 -47 226 -70 355 -70c67 -1 144 6 231 21z" />
    <glyph glyph-name="uni2198" unicode="&#x2198;" horiz-adv-x="964" 
d="M899 741v-1c-47 -105 -70 -222 -70 -350c0 -69 8 -147 23 -234c-87 15 -165 22 -234 21c-130 0 -247 -23 -352 -69l-104 202c48 12 103 18 166 19c116 0 226 -18 331 -54l-589 590l71 70l590 -590c-35 107 -53 220 -53 339c0 60 5 114 16 162z" />
    <glyph glyph-name="uni2199" unicode="&#x2199;" horiz-adv-x="964" 
d="M307 287l-2 2c105 35 218 53 338 53c60 0 114 -5 162 -16l-105 -203c-105 47 -222 70 -351 69c-67 0 -144 -7 -231 -22c13 78 20 154 20 229c0 131 -23 249 -69 354l204 104c11 -48 17 -102 18 -162c0 -119 -18 -232 -53 -339l591 592l70 -69z" />
    <glyph glyph-name="minus" unicode="&#x2212;" horiz-adv-x="806" 
d="M770 731v-88h-727v88h727z" />
    <glyph glyph-name="glyph1" horiz-adv-x="0" 
 />
    <glyph glyph-name="glyph2" horiz-adv-x="681" 
 />
    <glyph glyph-name="J.aalt" horiz-adv-x="688" 
d="M279 1563l-29 5c19 116 34 222 45 319h266c-21 -25 -115 -133 -282 -324zM51 -269l-12 29c112 65 168 163 168 293v1139c0 83 -9 137 -27 162s-65 53 -142 83v26h620v-26c-77 -30 -124 -58 -142 -83s-27 -79 -27 -162v-973c0 -78 -13 -147 -39 -206s-62 -107 -109 -143
s-92 -64 -136 -84s-95 -38 -154 -55z" />
    <glyph glyph-name="R.aalt" horiz-adv-x="1445" 
d="M1247 190l2 -5c39 -59 96 -113 171 -163v-27h-370c-167 254 -315 492 -444 713l-114 -6v-435c0 -83 9 -137 27 -162s66 -52 143 -82v-27h-619v27c55 21 92 39 112 54s34 36 43 63s14 70 14 130v920c0 60 -4 103 -13 130s-23 48 -43 63s-57 33 -112 54v26h637
c173 0 308 -33 405 -99s146 -152 146 -259c0 -108 -47 -198 -141 -270s-209 -108 -346 -108h-38v-6c59 -35 125 -53 198 -53c7 0 20 1 39 4c86 -153 187 -314 303 -482zM494 1365v-604h163c86 0 157 28 213 83s84 134 84 236c0 190 -106 285 -319 285h-141z" />
    <glyph glyph-name="i.aalt" horiz-adv-x="569" 
d="M262 1155h-2c-38 0 -71 14 -100 41s-43 59 -43 96c0 35 14 66 43 93s62 41 100 41s72 -13 101 -40s44 -58 44 -94c0 -37 -14 -69 -43 -96s-62 -41 -100 -41zM25 0v27c59 25 97 50 113 75s24 76 24 153v397c0 94 -8 155 -25 182s-54 55 -111 84v26c141 11 269 34 385 70
v-760c0 -77 8 -128 24 -153s53 -50 110 -74v-27h-520z" />
    <glyph glyph-name="j.aalt" horiz-adv-x="548" 
d="M227 1128l-30 8c21 116 36 222 45 319h268c-25 -29 -119 -138 -283 -327zM-25 -427l-14 31c73 37 124 83 153 138s43 135 43 240v671c0 94 -8 155 -24 182s-53 55 -110 84v26c141 11 269 34 384 70v-910c-1 -287 -145 -464 -432 -532z" />
    <glyph glyph-name="glyph372" horiz-adv-x="1492" 
d="M965 -27h-2c-116 0 -236 25 -361 74l68 318h10c37 -79 81 -149 133 -209s106 -90 162 -90c53 0 101 25 144 75s65 114 65 192c0 60 -15 115 -44 165s-67 92 -114 126s-95 61 -145 81s-100 35 -151 44l-53 84l352 473c-26 22 -62 42 -109 60s-98 27 -153 27
c-87 0 -155 -25 -204 -76s-73 -114 -73 -189v-1130h-449v27c55 21 92 39 112 54s34 36 43 63s14 70 14 130v721c0 161 45 284 134 369s218 128 387 128c115 0 216 -17 303 -52s154 -75 202 -120v-21l-313 -389c59 -12 115 -31 168 -56s105 -57 156 -97s92 -91 123 -153
s46 -131 46 -208c0 -131 -42 -234 -126 -309s-192 -112 -325 -112z" />
    <glyph glyph-name="a.salt" horiz-adv-x="1171" 
d="M451 -20l3 1c-108 0 -200 45 -277 135s-115 212 -115 366c0 161 42 290 125 386s183 144 300 144c44 0 86 -8 126 -24s72 -33 95 -51s47 -35 71 -51s44 -24 61 -24c39 0 86 49 141 148h35v-799c0 -42 8 -71 24 -88s53 -35 110 -55v-27l-377 -66v189h-4
c-31 -52 -75 -96 -132 -131s-119 -53 -186 -53zM554 107h-2c75 0 147 47 215 142v364c-26 83 -61 155 -105 215s-96 90 -156 90c-64 0 -111 -36 -142 -109s-46 -160 -46 -262c0 -124 22 -228 65 -313s100 -127 171 -127z" />
    <glyph glyph-name="glyph374" horiz-adv-x="1171" 
d="M569 1124l-30 7c21 116 36 223 45 320h268c-25 -29 -119 -138 -283 -327zM451 -19l3 1c-108 0 -200 45 -277 135s-115 212 -115 366c0 161 42 290 125 386s183 144 300 144c44 0 86 -8 126 -24s72 -33 95 -51s47 -35 71 -51s44 -24 61 -24c39 0 86 49 141 148h35v-799
c0 -42 8 -71 24 -88s53 -35 110 -55v-27l-377 -66v189h-4c-31 -52 -75 -96 -132 -131s-119 -53 -186 -53zM554 108h-2c75 0 147 47 215 142v364c-26 83 -61 155 -105 215s-96 90 -156 90c-64 0 -111 -36 -142 -109s-46 -160 -46 -262c0 -124 22 -228 65 -313
s100 -127 171 -127z" />
    <glyph glyph-name="glyph375" horiz-adv-x="1171" 
d="M829 1456h29c-21 -223 -105 -334 -252 -334c-149 0 -234 111 -255 334h25c17 -57 47 -102 90 -135s89 -49 138 -49s95 16 138 49s72 78 87 135zM455 -20l3 1c-108 0 -200 45 -277 135s-115 212 -115 366c0 161 42 290 125 386s183 144 300 144c44 0 86 -8 126 -24
s72 -33 95 -51s47 -35 71 -51s44 -24 61 -24c39 0 86 49 141 148h35v-799c0 -42 8 -71 24 -88s53 -35 110 -55v-27l-377 -66v189h-4c-31 -52 -75 -96 -132 -131s-119 -53 -186 -53zM558 107h-2c75 0 147 47 215 142v364c-26 83 -61 155 -105 215s-96 90 -156 90
c-64 0 -111 -36 -142 -109s-46 -160 -46 -262c0 -124 22 -228 65 -313s100 -127 171 -127z" />
    <glyph glyph-name="glyph376" horiz-adv-x="1171" 
d="M365 1106l-20 18c34 45 78 106 131 183s93 135 120 174h12c98 -147 181 -266 250 -357l-20 -14l-236 164zM452 -20l3 1c-108 0 -200 45 -277 135s-115 212 -115 366c0 161 42 290 125 386s183 144 300 144c44 0 86 -8 126 -24s72 -33 95 -51s47 -35 71 -51s44 -24 61 -24
c39 0 86 49 141 148h35v-799c0 -42 8 -71 24 -88s53 -35 110 -55v-27l-377 -66v189h-4c-31 -52 -75 -96 -132 -131s-119 -53 -186 -53zM555 107h-2c75 0 147 47 215 142v364c-26 83 -61 155 -105 215s-96 90 -156 90c-64 0 -111 -36 -142 -109s-46 -160 -46 -262
c0 -124 22 -228 65 -313s100 -127 171 -127z" />
    <glyph glyph-name="glyph377" horiz-adv-x="1171" 
d="M426 1159c-34 0 -63 13 -88 38s-37 55 -37 89s12 63 37 88s54 37 88 37s64 -12 89 -37s38 -54 38 -88s-13 -64 -38 -89s-55 -38 -89 -38zM778 1159c-34 0 -63 13 -88 38s-37 55 -37 89s12 63 37 88s54 37 88 37s64 -12 89 -37s38 -54 38 -88c0 -35 -12 -65 -37 -90
s-55 -37 -90 -37zM451 -20l3 1c-108 0 -200 45 -277 135s-115 212 -115 366c0 161 42 290 125 386s183 144 300 144c44 0 86 -8 126 -24s72 -33 95 -51s47 -35 71 -51s44 -24 61 -24c39 0 86 49 141 148h35v-799c0 -42 8 -71 24 -88s53 -35 110 -55v-27l-377 -66v189h-4
c-31 -52 -75 -96 -132 -131s-119 -53 -186 -53zM554 107h-2c75 0 147 47 215 142v364c-26 83 -61 155 -105 215s-96 90 -156 90c-64 0 -111 -36 -142 -109s-46 -160 -46 -262c0 -124 22 -228 65 -313s100 -127 171 -127z" />
    <glyph glyph-name="glyph378" horiz-adv-x="1171" 
d="M657 1135v1c-120 135 -214 243 -282 324h266c11 -93 26 -199 45 -319zM451 -19l3 1c-108 0 -200 45 -277 135s-115 212 -115 366c0 161 42 290 125 386s183 144 300 144c44 0 86 -8 126 -24s72 -33 95 -51s47 -35 71 -51s44 -24 61 -24c39 0 86 49 141 148h35v-799
c0 -42 8 -71 24 -88s53 -35 110 -55v-27l-377 -66v189h-4c-31 -52 -75 -96 -132 -131s-119 -53 -186 -53zM554 108h-2c75 0 147 47 215 142v364c-26 83 -61 155 -105 215s-96 90 -156 90c-64 0 -111 -36 -142 -109s-46 -160 -46 -262c0 -124 22 -228 65 -313
s100 -127 171 -127z" />
    <glyph glyph-name="glyph379" horiz-adv-x="1171" 
d="M870 1335v-135h-522v135h522zM451 -20l3 1c-108 0 -200 45 -277 135s-115 212 -115 366c0 161 42 290 125 386s183 144 300 144c44 0 86 -8 126 -24s72 -33 95 -51s47 -35 71 -51s44 -24 61 -24c39 0 86 49 141 148h35v-799c0 -42 8 -71 24 -88s53 -35 110 -55v-27
l-377 -66v189h-4c-31 -52 -75 -96 -132 -131s-119 -53 -186 -53zM554 107h-2c75 0 147 47 215 142v364c-26 83 -61 155 -105 215s-96 90 -156 90c-64 0 -111 -36 -142 -109s-46 -160 -46 -262c0 -124 22 -228 65 -313s100 -127 171 -127z" />
    <glyph glyph-name="glyph380" horiz-adv-x="1171" 
d="M954 6h1c-35 -27 -66 -60 -93 -98s-40 -74 -40 -108c0 -27 9 -48 26 -62s38 -21 63 -21c52 0 100 21 144 62l20 -17c-30 -42 -69 -76 -117 -103s-97 -40 -148 -40c-48 0 -87 12 -118 35s-46 54 -46 93c0 81 69 162 207 244l-78 -15v189h-4c-31 -52 -75 -96 -132 -131
s-119 -53 -186 -53c-108 0 -200 45 -277 135s-115 212 -115 366c0 161 42 290 125 386s183 144 300 144c44 0 86 -8 126 -24s72 -33 95 -51s47 -35 71 -51s44 -24 61 -24c39 0 86 49 141 148h35v-799c0 -42 8 -71 24 -88s53 -35 110 -55v-27zM767 248l-2 364
c-26 83 -61 155 -105 215s-96 90 -156 90c-64 0 -111 -36 -142 -109s-46 -160 -46 -262c0 -124 22 -228 65 -313s100 -127 171 -127c75 1 147 48 215 142z" />
    <glyph glyph-name="glyph381" horiz-adv-x="1171" 
d="M604 1081v-1c-52 0 -96 19 -132 56s-54 83 -54 138c0 52 18 96 54 133s80 55 132 55s96 -18 132 -55s54 -81 54 -133c0 -55 -18 -101 -54 -138s-80 -55 -132 -55zM610 1132v-1c34 0 62 14 84 43s33 62 33 99c0 38 -13 71 -38 98s-55 41 -89 41s-62 -13 -85 -40
s-34 -59 -34 -97c0 -37 13 -70 39 -99s56 -44 90 -44zM450 -22l3 1c-108 0 -200 45 -277 135s-115 212 -115 366c0 161 42 290 125 386s183 144 300 144c44 0 86 -8 126 -24s72 -33 95 -51s47 -35 71 -51s44 -24 61 -24c39 0 86 49 141 148h35v-799c0 -42 8 -71 24 -88
s53 -35 110 -55v-27l-377 -66v189h-4c-31 -52 -75 -96 -132 -131s-119 -53 -186 -53zM553 105h-2c75 0 147 47 215 142v364c-26 83 -61 155 -105 215s-96 90 -156 90c-64 0 -111 -36 -142 -109s-46 -160 -46 -262c0 -124 22 -228 65 -313s100 -127 171 -127z" />
    <glyph glyph-name="glyph382" horiz-adv-x="1171" 
d="M569 1499l-30 7c21 116 36 223 45 320h268c-25 -29 -119 -138 -283 -327zM604 1082v-1c-52 0 -96 19 -132 56s-54 83 -54 138c0 52 18 96 54 133s80 55 132 55s96 -18 132 -55s54 -81 54 -133c0 -55 -18 -101 -54 -138s-80 -55 -132 -55zM610 1133v-1c34 0 62 14 84 43
s33 62 33 99c0 38 -13 71 -38 98s-55 41 -89 41s-62 -13 -85 -40s-34 -59 -34 -97c0 -37 13 -70 39 -99s56 -44 90 -44zM450 -21l3 1c-108 0 -200 45 -277 135s-115 212 -115 366c0 161 42 290 125 386s183 144 300 144c44 0 86 -8 126 -24s72 -33 95 -51s47 -35 71 -51
s44 -24 61 -24c39 0 86 49 141 148h35v-799c0 -42 8 -71 24 -88s53 -35 110 -55v-27l-377 -66v189h-4c-31 -52 -75 -96 -132 -131s-119 -53 -186 -53zM553 106h-2c75 0 147 47 215 142v364c-26 83 -61 155 -105 215s-96 90 -156 90c-64 0 -111 -36 -142 -109
s-46 -160 -46 -262c0 -124 22 -228 65 -313s100 -127 171 -127z" />
    <glyph glyph-name="glyph383" horiz-adv-x="1171" 
d="M895 1386l19 -5c-23 -131 -88 -196 -194 -195c-33 0 -80 10 -141 31c-69 23 -115 34 -138 33c-45 0 -85 -20 -120 -59l-16 4c15 75 39 127 72 156s84 43 152 43c9 0 46 -11 110 -33s105 -33 123 -33c35 0 60 3 74 10s34 23 59 48zM452 -21l3 1c-108 0 -200 45 -277 135
s-115 212 -115 366c0 161 42 290 125 386s183 144 300 144c44 0 86 -8 126 -24s72 -33 95 -51s47 -35 71 -51s44 -24 61 -24c39 0 86 49 141 148h35v-799c0 -42 8 -71 24 -88s53 -35 110 -55v-27l-377 -66v189h-4c-31 -52 -75 -96 -132 -131s-119 -53 -186 -53zM555 106h-2
c75 0 147 47 215 142v364c-26 83 -61 155 -105 215s-96 90 -156 90c-64 0 -111 -36 -142 -109s-46 -160 -46 -262c0 -124 22 -228 65 -313s100 -127 171 -127z" />
    <glyph glyph-name="zero.zero" horiz-adv-x="1175" 
d="M588 1464l-2 1c142 0 264 -69 366 -207s153 -320 153 -547c0 -224 -50 -403 -151 -537s-222 -201 -364 -201c-143 0 -266 67 -369 202s-154 316 -154 543c0 225 52 406 155 542s225 204 366 204zM582 1375l-2 -3c-75 0 -138 -55 -189 -166s-76 -274 -76 -489
c0 -69 4 -139 11 -210c42 60 123 152 243 275s203 221 249 293c-23 100 -55 175 -96 225s-88 75 -140 75zM590 61l-4 1c75 0 138 55 188 166s75 274 75 490c0 83 -4 159 -12 227c-45 -63 -127 -156 -246 -279s-201 -220 -246 -291c22 -105 55 -184 98 -236s92 -78 147 -78z
" />
    <glyph glyph-name="zero.superior" horiz-adv-x="790" 
d="M395 887l1 1c-89 0 -166 40 -231 119s-97 188 -97 327c0 135 33 243 98 324s141 122 228 122s164 -41 230 -122s99 -191 99 -329c0 -137 -32 -245 -97 -324s-142 -118 -231 -118zM396 947l-1 -1c42 0 77 32 104 96s41 161 41 290s-14 226 -41 291s-62 98 -104 98
s-76 -33 -103 -98s-40 -162 -40 -291c0 -131 13 -228 40 -291s62 -94 104 -94z" />
    <glyph glyph-name="one.superior" horiz-adv-x="458" 
d="M66 901l-1 19c42 18 69 34 80 49s17 44 17 87v495c0 29 -8 51 -24 66s-47 32 -94 51v14l295 105v-731c0 -42 5 -70 15 -85s37 -32 80 -51v-19h-368z" />
    <glyph glyph-name="two.superior" horiz-adv-x="622" 
d="M408 1053l-2 -1c44 0 77 7 99 20s47 37 74 72l18 -2l-74 -242h-516v29c130 131 225 242 284 333s89 171 89 240c0 52 -13 92 -39 121s-58 43 -96 43c-64 0 -130 -39 -199 -117l-22 17c83 142 182 213 297 213c60 0 112 -20 155 -60s65 -94 65 -163
c0 -77 -27 -153 -81 -229s-142 -167 -265 -274h213z" />
    <glyph glyph-name="three.superior" horiz-adv-x="677" 
d="M49 1593l-3 -4c86 124 188 186 307 187c57 0 105 -15 143 -46s57 -71 57 -120c0 -91 -66 -164 -199 -219v-2c9 3 23 4 42 4c56 0 106 -20 149 -60s65 -96 65 -169c0 -87 -31 -155 -93 -205s-137 -75 -224 -75c-82 0 -167 18 -256 53l74 174l14 -4c17 -42 40 -79 70 -112
s66 -49 107 -49s76 19 105 57s43 84 43 139c0 53 -14 97 -43 132s-68 52 -117 52c-31 0 -67 -8 -108 -24l-14 38c81 39 140 77 177 113s56 75 56 116c0 71 -41 106 -122 106c-78 0 -148 -33 -211 -100z" />
    <glyph glyph-name="four.superior" horiz-adv-x="722" 
d="M682 1145l-117 1v-90c0 -42 5 -70 15 -85s38 -32 83 -51v-19h-355v19c42 18 68 34 78 48s15 43 15 87v90h-372v41l481 592h55v-553h129zM137 1226h264v334z" />
    <glyph glyph-name="five.superior" horiz-adv-x="696" 
d="M317 1442l-2 -3c85 0 154 -26 208 -77s81 -117 81 -198c0 -90 -32 -159 -97 -207s-138 -72 -220 -72c-74 0 -158 18 -252 53l61 205l19 -4c47 -133 106 -199 177 -199c37 0 71 18 102 53s46 85 46 149c0 67 -18 117 -53 150s-80 49 -135 49c-63 0 -122 -16 -177 -49
l112 473h279c30 0 54 4 72 11s30 13 36 18s19 19 38 41l17 -2l-78 -219h-334l-49 -199c46 18 96 27 149 27z" />
    <glyph glyph-name="six.superior" horiz-adv-x="761" 
d="M434 1403c69 0 130 -21 182 -63s78 -102 78 -180c0 -82 -30 -148 -90 -198s-135 -75 -225 -75c-91 0 -166 27 -224 82s-87 136 -87 243c0 146 52 270 156 372s230 166 377 192l6 -25c-97 -41 -177 -98 -240 -172s-104 -158 -123 -252c53 51 116 76 190 76zM383 942h-1
c41 0 75 17 102 51s41 78 41 131c0 52 -14 97 -41 135s-66 57 -116 57c-53 0 -98 -21 -135 -64c-1 -9 -2 -24 -2 -45c0 -77 14 -140 41 -190s64 -75 111 -75z" />
    <glyph glyph-name="seven.superior" horiz-adv-x="638" 
d="M137 901c47 236 154 469 322 698h-254c-45 0 -78 -6 -99 -18s-44 -37 -70 -76l-19 2l72 258h537v-26c-108 -125 -184 -251 -228 -378s-77 -280 -99 -460h-162z" />
    <glyph glyph-name="eight.superior" horiz-adv-x="731" 
d="M365 887l-1 -3c-82 0 -152 21 -210 63s-87 98 -87 169c0 101 59 176 176 225c-95 52 -143 124 -144 216c0 68 26 122 78 162s116 60 193 60c74 0 136 -18 186 -54s75 -80 75 -132c0 -67 -53 -133 -158 -198c129 -67 193 -153 193 -258c0 -75 -29 -135 -86 -181
s-129 -69 -215 -69zM431 1414l-1 -1c53 49 80 106 80 170c0 39 -14 72 -41 99s-60 40 -98 40c-35 0 -64 -11 -87 -33s-35 -49 -35 -82c0 -37 14 -70 43 -99s75 -60 139 -94zM365 936l-1 1c42 0 77 13 104 39s41 59 41 98c0 79 -78 160 -233 243c-57 -44 -86 -108 -86 -191
c0 -57 16 -103 49 -138s75 -52 126 -52z" />
    <glyph glyph-name="nine.superior" horiz-adv-x="702" 
d="M352 1780l-2 -3c91 0 166 -27 225 -82s89 -136 89 -243c0 -147 -52 -271 -156 -373s-230 -166 -379 -193l-6 26c97 41 177 98 240 171s104 157 123 251c-52 -49 -116 -73 -192 -72c-75 0 -137 23 -185 68s-72 104 -72 176c0 81 30 147 90 198s135 76 225 76zM360 1347
l-1 -1c52 0 97 20 136 61c1 18 2 28 2 31c0 89 -14 158 -42 208s-65 75 -112 75c-38 0 -71 -17 -99 -52s-42 -79 -42 -132c0 -52 14 -97 41 -134s66 -56 117 -56z" />
    <glyph glyph-name="zero.superior.zero" horiz-adv-x="731" 
d="M367 1780l2 -1c87 0 163 -41 228 -123s98 -191 98 -328s-32 -245 -97 -324s-142 -118 -231 -118s-166 40 -231 119s-98 187 -98 324s33 246 99 328s143 123 230 123zM367 1719l-1 -3c-44 0 -79 -34 -105 -101s-39 -160 -39 -279c0 -31 1 -68 4 -111c21 26 64 74 130 143
s113 124 140 165c-23 124 -66 186 -129 186zM368 942l-2 -1c42 0 76 32 103 96s40 161 40 292c0 31 -1 71 -4 120c-22 -27 -66 -75 -132 -143s-113 -122 -140 -163c23 -134 68 -201 135 -201z" />
    <glyph glyph-name="zero.oldstyle" horiz-adv-x="1130" 
d="M567 -25l-1 -2c-147 0 -268 50 -364 149s-144 220 -144 362c0 143 48 266 144 369s218 155 365 155s268 -52 362 -155s141 -226 141 -369c0 -142 -47 -262 -141 -361s-215 -148 -362 -148zM564 51l-1 -2c112 0 210 38 293 115s125 183 125 318c0 137 -41 246 -124 327
s-180 121 -292 121c-113 0 -211 -40 -294 -121s-125 -190 -125 -327c0 -135 42 -241 126 -317s181 -114 292 -114z" />
    <glyph glyph-name="one.oldstyle" horiz-adv-x="606" 
d="M449 254v-1c0 -77 8 -128 24 -153s54 -50 113 -74v-27h-506v27c57 25 94 50 110 75s24 76 24 153v438c0 57 -10 95 -30 114s-67 34 -141 46v27l406 135v-760z" />
    <glyph glyph-name="two.oldstyle" horiz-adv-x="964" 
d="M633 195l-1 -1c51 0 93 6 126 18s57 25 71 39s38 41 72 81l25 -6l-49 -172l-46 -154h-780v49c193 147 332 269 417 365s128 183 128 261c0 56 -19 100 -57 133s-86 49 -145 49c-77 0 -163 -44 -258 -131l-45 12c117 180 253 270 408 271c89 0 164 -25 225 -74
s92 -113 92 -192c0 -85 -37 -170 -111 -255s-198 -183 -373 -293h301z" />
    </font>
</defs>
</svg>
