<?xml version="1.0" encoding="UTF-8"?>
<svg width="1594px" height="93px" viewBox="0 0 1594 93" version="1.1" xmlns="http://www.w3.org/2000/svg" xmlns:xlink="http://www.w3.org/1999/xlink">
    <title>Path 3</title>
    <g id="Page-1" stroke="none" stroke-width="1" fill="none" fill-rule="evenodd">
        <g id="404-Page" transform="translate(-3.000000, -324.000000)" fill="#889BA6" fill-rule="nonzero">
            <g id="Group" transform="translate(3.000000, 209.502664)">
                <path d="M787.969987,957.163098 L788.622904,955.264158 L787.676881,954.940057 L787.024685,956.836902 L787.969987,957.163098 Z M791.81224,945.783438 L792.438562,943.879487 L791.488289,943.56807 L790.862669,945.469885 L791.81224,945.783438 Z M795.500123,934.355958 L796.097172,932.454398 L795.142754,932.155923 L794.546386,934.055314 L795.500123,934.355958 Z M799.028249,922.889505 L799.602755,920.967314 L798.644301,920.682065 L798.070462,922.602029 L799.028249,922.889505 Z M802.404054,911.349729 L802.952124,909.417457 L801.989752,909.145719 L801.442328,911.075716 L802.404054,911.349729 Z M805.609553,899.788662 L806.128006,897.856483 L805.161861,897.598481 L804.644028,899.52835 L805.609553,899.788662 Z M808.651881,888.171976 L809.14111,886.237362 L808.171332,885.993372 L807.682697,887.925639 L808.651881,888.171976 Z M811.523674,876.517118 L811.986413,874.567304 L811.013154,874.337593 L810.550985,876.285008 L811.523674,876.517118 Z M814.226307,864.807086 L814.658534,862.857033 L813.68196,862.641853 L813.250272,864.589473 L814.226307,864.807086 Z M816.752931,853.059289 L817.155829,851.102158 L816.176114,850.901762 L815.773725,852.856419 L816.752931,853.059289 Z M819.097783,841.291059 L819.471459,839.324234 L818.488794,839.138843 L818.115597,841.10315 L819.097783,841.291059 Z M821.262206,829.485397 L821.605792,827.510884 L820.620375,827.34073 L820.277234,829.312683 L821.262206,829.485397 Z M823.243701,817.64249 L823.555724,815.666756 L822.567763,815.512057 L822.256148,817.485201 L823.243701,817.64249 Z M825.039756,805.762528 L825.320648,803.780689 L824.330358,803.641672 L824.049838,805.620885 L825.039756,805.762528 Z M826.645686,793.862764 L826.894614,791.878554 L825.902226,791.755403 L825.653631,793.736957 L826.645686,793.862764 Z M828.061687,781.926284 L828.278352,779.939729 L827.284102,779.832648 L827.067729,781.81652 L828.061687,781.926284 Z M829.283619,769.970303 L829.468142,767.977346 L828.472277,767.886511 L828.288005,769.876752 L829.283619,769.970303 Z M830.308469,758.011952 L830.460098,756.018119 L829.462874,755.943659 L829.311453,757.934753 L830.308469,758.011952 Z M831.13745,746.01734 L831.256114,744.019485 L830.257793,743.961576 L830.139292,745.956666 L831.13745,746.01734 Z M831.76501,734.054495 L831.850464,732.054513 L830.851317,732.013218 L830.765982,734.010415 L831.76501,734.054495 Z M832.193857,722.055612 L832.24576,720.055222 L831.246061,720.030685 L831.19423,722.028274 L832.193857,722.055612 Z M832.421067,710.05472 L832.439274,708.054071 L831.439303,708.046377 L831.421122,710.044213 L832.421067,710.05472 Z M832.445674,698.034993 L832.429998,696.034217 L831.43004,696.043465 L831.445695,698.041416 L832.445674,698.034993 Z M832.266751,686.030314 L832.217104,684.029524 L831.217448,684.055747 L831.267025,686.053704 L832.266751,686.030314 Z M831.880565,674.029598 L831.7903,672.019558 L830.79141,672.066655 L830.881474,674.072235 L831.880565,674.029598 Z M831.203774,662.020634 C831.156672,661.35225 831.108094,660.685993 831.058046,660.02184 L830.060873,660.096984 L830.206248,662.090932 L831.203774,662.020634 Z M830.181146,650.052401 L829.975709,648.068342 L828.981302,648.17396 L829.186197,650.152781 L830.181146,650.052401 Z M828.780696,638.110863 C828.691864,637.448733 828.601399,636.788709 828.509305,636.13075 L827.518959,636.269369 C827.61079,636.925445 827.700997,637.583586 827.789576,638.243833 L828.780696,638.110863 Z M826.975667,626.232768 C826.863021,625.57118 826.748641,624.911612 826.632529,624.254014 L825.647762,624.427894 C825.76352,625.083484 825.877551,625.741041 825.989855,626.400619 L826.975667,626.232768 Z M824.740916,614.43429 C824.604117,613.77977 824.46551,613.127038 824.325093,612.47602 L823.347572,612.68686 C823.48754,613.335796 823.625705,613.986443 823.762068,614.638876 L824.740916,614.43429 Z M821.083463,602.95556 L822.05364,602.713163 L821.561041,600.768534 L820.592464,601.017248 C820.758037,601.662045 820.921699,602.308112 821.083463,602.95556 Z M818.909538,591.096098 C818.72293,590.455912 818.534314,589.816386 818.343658,589.177343 L817.385397,589.463235 L817.949492,591.375941 L818.909538,591.096098 Z M815.336564,579.634341 C815.126647,579.001202 814.914509,578.367457 814.700068,577.732777 L813.752683,578.052872 L814.387375,579.949046 L815.336564,579.634341 Z M810.428887,568.62903 L811.367754,568.284751 L810.674373,566.406913 L809.737045,566.755361 C809.97055,567.383492 810.20108,568.007791 810.428887,568.62903 Z M807.099193,557.063331 L806.365111,555.197973 L805.435022,555.565307 L806.168186,557.428332 L807.099193,557.063331 Z M802.654918,545.913004 L801.909236,544.058298 L800.98137,544.431211 L801.727114,546.286071 L802.654918,545.913004 Z M798.210048,534.767237 L797.72263,533.519118 C797.642793,533.313995 797.563627,533.110243 797.485088,532.907746 L796.552757,533.269352 L797.278956,535.132021 L798.210048,534.767237 Z M793.980603,523.549805 C793.75368,522.916874 793.53135,522.290127 793.313337,521.668656 L792.369715,521.999681 C792.588493,522.623332 792.811588,523.252233 793.039275,523.887296 L793.980603,523.549805 Z M790.197832,512.180936 C790.003483,511.541396 789.813355,510.904527 789.627356,510.269878 L788.66772,510.551121 C788.854655,511.188966 789.04573,511.829006 789.241035,512.471695 L790.197832,512.180936 Z M787.08178,500.626035 C786.930246,499.977664 786.782889,499.329731 786.639684,498.68196 L785.66326,498.897821 C785.807332,499.549517 785.955578,500.201357 786.108021,500.853618 L787.08178,500.626035 Z M784.790721,488.881044 C784.688339,488.224933 784.590088,487.567741 784.49597,486.909282 L783.506031,487.050781 C783.600755,487.713476 783.699638,488.374894 783.802677,489.035221 L784.790721,488.881044 Z M783.402414,477.01223 C783.35052,476.351511 783.302615,475.68874 783.258712,475.023784 L782.260884,475.089665 C782.305061,475.758762 782.353265,476.425674 782.405484,477.09053 L783.402414,477.01223 Z M782.903105,465.042591 C782.89908,464.380592 782.898815,463.715989 782.902325,463.048686 L781.902339,463.043425 C781.898809,463.714505 781.899076,464.382889 781.903124,465.048671 L782.903105,465.042591 Z M783.224425,453.093554 C783.263088,452.432711 783.305236,451.769007 783.350885,451.102372 L782.353221,451.034055 C782.307347,451.703988 782.264989,452.370996 782.226132,453.035148 L783.224425,453.093554 Z M784.268067,441.152912 C784.343663,440.49546 784.422452,439.835083 784.504448,439.171728 L783.512001,439.049055 C783.429658,439.715217 783.350534,440.378408 783.274613,441.03868 L784.268067,441.152912 Z M785.9262,429.29932 C786.033115,428.645873 786.142945,427.989542 786.255702,427.330288 L785.270015,427.161699 C785.156853,427.82332 785.046627,428.482024 784.939322,429.13785 L785.9262,429.29932 Z M788.106779,417.509849 C788.239052,416.853706 788.368794,416.199512 788.496015,415.547243 L787.51451,415.355807 C787.387692,416.006012 787.258358,416.658146 787.1265,417.312233 L788.106779,417.509849 Z M790.253055,405.677184 C790.359724,405.012791 790.463675,404.350369 790.564917,403.689889 L789.576462,403.538373 C789.475579,404.196514 789.371995,404.8566 789.265699,405.518662 L790.253055,405.677184 Z M790.906926,393.649865 L791.90034,393.76445 L792.12135,391.780451 L791.127071,391.673636 C791.056504,392.330506 790.983126,392.989237 790.906926,393.649865 Z M792.989627,381.788074 C793.033729,381.118855 793.074828,380.451425 793.11294,379.785738 L792.114575,379.72858 C792.076628,380.391399 792.035704,381.055962 791.991791,381.722317 L792.989627,381.788074 Z M793.464041,369.775638 C793.472403,369.105927 793.477657,368.437774 793.479816,367.77112 L792.479821,367.767882 C792.477673,368.431453 792.472443,369.096523 792.464119,369.763152 L793.464041,369.775638 Z M793.276546,357.757784 C793.24701,357.088592 793.214292,356.42059 793.178406,355.753697 L792.179851,355.807431 C792.215564,356.471113 792.248124,357.135902 792.277519,357.801878 L793.276546,357.757784 Z M792.395963,345.745328 C792.327511,345.078445 792.255856,344.412194 792.181006,343.746465 L791.187267,343.858193 C791.261757,344.520722 791.333067,345.183766 791.40119,345.847437 L792.395963,345.745328 Z M790.823986,333.81278 C790.718068,333.153191 790.60901,332.493435 790.496809,331.833356 L789.51095,332.000934 C789.622641,332.658013 789.731202,333.31476 789.836635,333.97133 L790.823986,333.81278 Z M788.60062,321.994579 C788.460569,321.342838 788.317461,320.689825 788.171273,320.035307 L787.19532,320.253288 C787.340924,320.905189 787.483455,321.555572 787.622938,322.20467 L788.60062,321.994579 Z M785.804157,310.303197 C785.635478,309.659643 785.463783,309.013249 785.288997,308.363619 L784.323338,308.623435 C784.497566,309.270987 784.668705,309.91529 784.836832,310.556738 L785.804157,310.303197 Z M782.547959,298.73435 C782.358945,298.101976 782.166755,297.464313 781.971173,296.820547 L781.014356,297.111236 L781.589842,299.020727 L782.547959,298.73435 Z M778.973805,287.276233 L778.357079,285.372884 L777.406125,285.682217 L778.022127,287.58333 L778.973805,287.276233 Z M775.224436,275.869077 L774.594335,273.973662 L773.645417,274.289187 L774.275458,276.184417 L775.224436,275.869077 Z M771.448821,264.470348 L770.827618,262.570472 L769.876849,262.880373 L770.498611,264.781957 L771.448821,264.470348 Z M767.789329,253.052213 L767.198919,251.143346 L766.243051,251.437143 L766.834495,253.349351 L767.789329,253.052213 Z M763.39901,241.841791 L764.360844,241.568156 L763.818752,239.645127 L762.855604,239.914101 C763.034426,240.554429 763.215535,241.196868 763.39901,241.841791 Z M761.255936,229.98219 L760.775838,228.042326 L759.804429,228.27974 L760.285922,230.225239 L761.255936,229.98219 Z M757.575778,218.523891 L758.554003,218.316346 L758.145764,216.361466 L757.166231,216.56275 C757.300589,217.216594 757.437101,217.870265 757.575778,218.523891 Z M756.294763,206.543659 C756.18236,205.888205 756.072088,205.232086 755.963947,204.575214 L754.977229,204.737658 C755.085732,205.396727 755.196372,206.055038 755.30915,206.71268 L756.294763,206.543659 Z M754.50875,194.708641 C754.422785,194.049477 754.338922,193.389235 754.257165,192.727849 L753.264719,192.85053 C753.346749,193.514131 753.430893,194.176587 753.517147,194.837961 L754.50875,194.708641 Z M753.196343,182.791005 C753.136744,182.129348 753.079203,181.466343 753.023726,180.801942 L752.027194,180.885152 C752.082852,181.551721 752.140581,182.216894 752.200375,182.880717 L753.196343,182.791005 Z M751.354181,170.887764 L752.352864,170.836456 L752.256628,168.84167 L751.257645,168.886746 C751.287811,169.555293 751.319992,170.222287 751.354181,170.887764 Z M751.957123,158.855464 C751.946079,158.183513 751.93664,157.516823 751.928801,156.855332 L750.928871,156.867183 C750.936729,157.530206 750.946189,158.198423 750.957258,158.871898 L751.957123,158.855464 Z M750.936378,146.8687 L751.936275,146.883047 L751.970959,144.882841 L750.971166,144.862466 C750.957656,145.525376 750.946058,146.19409 750.936378,146.8687 Z M752.341277,134.910095 C752.378303,134.241157 752.417636,133.578692 752.459269,132.92255 L751.461276,132.859227 C751.419472,133.518062 751.37998,134.183214 751.342806,134.854829 L752.341277,134.910095 Z M753.316651,122.976747 C753.390816,122.308931 753.467868,121.647934 753.547806,120.993484 L752.555184,120.872239 C752.474802,121.530318 752.397328,122.194938 752.322761,122.86637 L753.316651,122.976747 Z M755.055341,111.135859 C755.177903,110.477784 755.304104,109.825514 755.433989,109.178491 L754.453548,108.981676 C754.322747,109.633267 754.195661,110.29011 754.072246,110.952764 L755.055341,111.135859 Z M757.748561,99.4910769 C757.926381,98.851673 758.108921,98.2131923 758.29649,97.5741358 L757.336966,97.292507 C757.148069,97.9360879 756.964225,98.5791325 756.785124,99.2231427 L757.748561,99.4910769 Z M761.401903,88.094492 L762.078878,86.2168799 L761.139272,85.874623 L760.45997,87.7586902 L761.401903,88.094492 Z M765.561176,76.8440623 L766.250954,74.9634035 L765.311239,74.6214457 L764.623114,76.4975937 L765.561176,76.8440623 Z M769.494134,65.4804888 C769.695768,64.8418152 769.893385,64.2038842 770.087346,63.5651859 L769.130495,63.2746067 C768.937605,63.9097782 768.74107,64.5442166 768.540529,65.1794291 L769.494134,65.4804888 Z M772.727761,53.8841141 C772.884283,53.2380163 773.038087,52.5873744 773.189233,51.9316909 L772.214788,51.7070651 C772.064475,52.3591342 771.911524,53.006169 771.755874,53.6486669 L772.727761,53.8841141 Z M775.1843,42.1068032 C775.300106,41.4536798 775.41379,40.7948755 775.52536,40.1301586 L774.539156,39.9646275 C774.428092,40.6263277 774.314929,41.2821128 774.199658,41.9322147 L775.1843,42.1068032 Z M776.974496,30.2212533 C777.057388,29.5643268 777.138552,28.9018233 777.217986,28.2336156 L776.224978,28.1155696 C776.145826,28.7814009 776.064954,29.4415236 775.982363,30.0960648 L776.974496,30.2212533 Z M777.239453,18.190371 L778.235716,18.2767488 L778.403209,16.2791028 L777.406475,16.1983398 C777.352249,16.8675682 777.296574,17.5315525 777.239453,18.190371 Z M778.084812,6.22451781 L779.083257,6.28026316 L779.190328,4.28199649 L778.191644,4.23070367 C778.157269,4.90000617 778.121656,5.56459364 778.084812,6.22451781 Z M779.600655,-5.71990934 L779.659586,-7.71867576 L778.659969,-7.74635886 L778.601144,-5.75118807 L779.600655,-5.71990934 Z M779.852922,-17.7346562 L779.872679,-19.7359666 L778.872715,-19.7443666 L778.852986,-17.746015 L779.852922,-17.7346562 Z M779.887423,-29.7435834 L779.874712,-31.7429926 L778.874741,-31.7354061 L778.887437,-29.738467 L779.887423,-29.7435834 Z M779.740855,-41.7339202 L779.700802,-43.7361703 L778.701023,-43.7151258 L778.741034,-41.7149736 L779.740855,-41.7339202 Z M779.440457,-53.7446102 L779.37711,-55.7444295 L778.37764,-55.711873 L778.44093,-53.7138532 L779.440457,-53.7446102 Z M779.008957,-65.7347134 L778.92552,-67.7331211 L777.926423,-67.6906275 L778.009795,-65.693782 L779.008957,-65.7347134 Z M778.463515,-77.719327 L778.362518,-79.7170994 L777.363828,-79.6659264 L777.464756,-77.6695242 L778.463515,-77.719327 Z M777.817831,-89.7058084 L777.701332,-91.7032826 L776.703064,-91.6444541 L776.819492,-89.6481924 L777.817831,-89.7058084 Z M777.083998,-101.68407 L776.954274,-103.678137 L775.95636,-103.613574 L776.086084,-101.619521 L777.083998,-101.68407 Z M776.365226,-113.668929 L776.262486,-115.649157 L775.263767,-115.598544 L775.366632,-113.615922 L776.365226,-113.668929 Z M775.818225,-125.652808 L775.744972,-127.650954 L774.745595,-127.615645 L774.818946,-125.614852 L775.818225,-125.652808 Z M775.460205,-137.654793 L775.420292,-139.653698 L774.420464,-139.635194 L774.460434,-137.633378 L775.460205,-137.654793 Z M775.310786,-149.622533 L775.307476,-151.60603 L774.307476,-151.605958 L774.310791,-149.619276 L775.310786,-149.622533 Z M775.390467,-161.631501 L775.427899,-163.638919 L774.428108,-163.659352 L774.390609,-161.648367 L775.390467,-161.631501 Z M774.724454,-173.654136 L775.723689,-173.61503 L775.806225,-175.622494 L774.807152,-175.665558 C774.77835,-174.997363 774.750783,-174.326894 774.724454,-173.654136 Z M776.336481,-185.566356 L776.467554,-187.551066 L775.469874,-187.619143 L775.338513,-185.630087 L776.336481,-185.566356 Z M776.266355,-197.61453 L777.262195,-197.523412 L777.448461,-199.506289 L776.453075,-199.602236 C776.389441,-198.942085 776.3272,-198.279523 776.266355,-197.61453 Z M777.542126,-209.576028 L778.534718,-209.454528 L778.783975,-211.446112 L777.792058,-211.573 C777.707228,-210.909861 777.623916,-210.244213 777.542126,-209.576028 Z M780.188388,-221.323393 L780.502976,-223.290054 L779.516006,-223.450956 L779.200476,-221.478411 L780.188388,-221.323393 Z M782.260736,-233.113613 L782.649962,-235.072105 L781.669789,-235.270249 L781.279286,-233.305332 L782.260736,-233.113613 Z M784.793351,-244.824774 C784.947827,-245.47407 785.104159,-246.121004 785.262351,-246.765644 L784.291166,-247.003969 C784.132412,-246.35704 783.975526,-245.707815 783.820505,-245.056226 L784.793351,-244.824774 Z M787.815807,-256.414813 C787.998571,-257.057601 788.183337,-257.698334 788.370116,-258.337105 L787.410307,-258.617757 C787.22283,-257.976602 787.037375,-257.333482 786.853932,-256.688301 L787.815807,-256.414813 Z M791.34848,-267.85659 C791.558734,-268.486769 791.771133,-269.115487 791.985702,-269.742887 L791.039507,-270.066484 L790.399884,-268.173081 L791.34848,-267.85659 Z M795.398561,-279.146391 C795.636944,-279.767427 795.877711,-280.388004 796.120924,-281.008359 L795.189918,-281.373364 C794.94584,-280.750802 794.704214,-280.128009 794.464975,-279.504747 L795.398561,-279.146391 Z M799.923159,-290.239908 C800.185206,-290.847736 800.450037,-291.456865 800.717815,-292.067747 L799.801942,-292.469216 L799.004864,-290.635803 L799.923159,-290.239908 Z M804.851889,-301.156093 L805.707049,-302.965063 L804.803883,-303.394355 L803.946892,-301.581512 L804.851889,-301.156093 Z M810.073075,-311.951619 L810.960125,-313.742431 L810.064393,-314.187026 L809.176585,-312.394683 L810.073075,-311.951619 Z M815.421884,-322.696551 L816.312135,-324.488871 L815.416197,-324.93305 L814.526572,-323.141989 L815.421884,-322.696551 Z M820.695927,-333.47693 L821.553094,-335.284645 L820.648513,-335.710948 L819.79334,-333.907437 L820.695927,-333.47693 Z M825.691213,-344.403245 C825.959157,-345.020344 826.222969,-345.63415 826.482865,-346.245269 L825.562627,-346.636627 C825.30372,-346.027835 825.040899,-345.416334 824.773947,-344.801522 L825.691213,-344.403245 Z M830.21497,-355.557066 C830.45006,-356.183801 830.681544,-356.809924 830.909503,-357.435757 L829.969895,-357.778009 C829.74303,-357.155178 829.512649,-356.532041 829.278673,-355.908274 L830.21497,-355.557066 Z M834.106781,-366.948295 C834.303209,-367.586663 834.496291,-368.226065 834.686057,-368.866702 L833.727237,-369.150717 C833.53847,-368.513453 833.346403,-367.877411 833.151005,-367.242391 L834.106781,-366.948295 Z M837.278239,-378.55641 C837.433482,-379.20538 837.58559,-379.856404 837.734571,-380.509618 L836.759607,-380.731981 C836.61141,-380.082203 836.460103,-379.434608 836.305678,-378.789062 L837.278239,-378.55641 Z M839.711138,-390.348803 C839.82559,-391.004915 839.937133,-391.663661 840.045764,-392.325134 L839.058982,-392.48719 C838.950887,-391.828981 838.839897,-391.173499 838.726014,-390.520648 L839.711138,-390.348803 Z M841.432074,-402.251207 C841.508707,-402.912132 841.58266,-403.575973 841.653926,-404.242797 L840.659589,-404.349067 C840.588639,-403.68521 840.515018,-403.024339 840.438729,-402.366384 L841.432074,-402.251207 Z M842.504939,-414.229333 C842.547666,-414.892981 842.587936,-415.559635 842.625743,-416.229347 L841.627333,-416.285711 C841.589674,-415.618624 841.549562,-414.954598 841.507005,-414.293581 L842.504939,-414.229333 Z M843.002473,-426.250399 L843.038143,-428.248988 L842.038269,-428.264828 L842.00267,-426.270244 L843.002473,-426.250399 Z M843.095076,-438.259691 L843.081774,-440.264353 L842.081812,-440.255639 L842.095087,-438.25513 L843.095076,-438.259691 Z M842.889633,-450.269255 L842.825911,-452.26496 L841.826491,-452.23091 L841.890076,-450.239475 L842.889633,-450.269255 Z M842.37622,-462.274672 L842.260237,-464.271047 L841.262051,-464.210844 L841.377778,-462.218874 L842.37622,-462.274672 Z M841.545986,-474.257238 C841.490961,-474.921419 841.434476,-475.584949 841.37653,-476.247828 L840.380329,-476.160744 L840.5494,-474.174675 L841.545986,-474.257238 Z M840.388367,-486.226996 C840.314964,-486.889804 840.240072,-487.551948 840.163688,-488.213428 L839.17029,-488.098718 L839.394444,-486.116924 L840.388367,-486.226996 Z M838.897007,-498.151588 L838.615898,-500.131185 L837.62617,-499.988219 L837.906606,-498.013365 L838.897007,-498.151588 Z M836.080229,-509.846763 L837.066197,-510.013692 L836.726899,-511.988288 L835.741763,-511.816516 C835.856127,-511.160621 835.968949,-510.504037 836.080229,-509.846763 Z M833.905725,-521.627586 L834.886296,-521.82375 L834.488179,-523.788186 L833.508605,-523.5871 C833.642545,-522.934628 833.774918,-522.281457 833.905725,-521.627586 Z M831.374993,-533.352243 L832.349154,-533.578101 L831.891862,-535.527806 L830.91887,-535.296968 C831.072494,-534.649433 831.224535,-534.001192 831.374993,-533.352243 Z M829.453548,-545.246649 L828.936034,-547.18158 L827.970665,-546.920691 L828.486836,-544.990783 L829.453548,-545.246649 Z M825.235382,-556.540625 L826.193581,-556.826726 L825.615303,-558.745028 L824.658625,-558.453881 C824.852493,-557.81685 825.044746,-557.179099 825.235382,-556.540625 Z M821.623274,-567.973545 L822.571899,-568.289946 L821.933271,-570.187822 L820.986343,-569.866374 C821.200279,-569.236157 821.412589,-568.605214 821.623274,-567.973545 Z M818.584937,-579.634672 L817.886194,-581.509793 L816.950079,-581.158099 L817.64695,-579.288002 L818.584937,-579.634672 Z M814.249452,-590.809279 L813.490009,-592.662624 L812.565708,-592.280961 L813.323106,-590.432604 L814.249452,-590.809279 Z M808.631061,-601.457071 L809.544733,-601.863523 L808.726311,-603.689991 L807.814845,-603.278616 C808.088556,-602.672166 808.360628,-602.064984 808.631061,-601.457071 Z M804.478971,-612.771478 C804.187936,-613.372477 803.895257,-613.972741 803.600934,-614.572272 L802.703271,-614.131589 C802.996803,-613.533671 803.288694,-612.935021 803.578946,-612.33564 L804.478971,-612.771478 Z M799.069821,-623.496679 C798.759682,-624.087727 798.447905,-624.678044 798.134489,-625.267631 L797.251496,-624.798244 L798.184324,-623.032034 L799.069821,-623.496679 Z M792.442897,-633.559113 L793.313027,-634.051934 L792.321471,-635.791826 L791.453974,-635.294383 C791.78524,-634.716685 792.114881,-634.138261 792.442897,-633.559113 Z" id="Path-3" transform="translate(797.011974, 160.685636) rotate(-270.000000) translate(-797.011974, -160.685636) "></path>
            </g>
        </g>
    </g>
</svg>