<svg xmlns="http://www.w3.org/2000/svg" width="106" height="106" viewBox="0 0 106 106">
    <g fill="none" fill-rule="evenodd">
        <g fill="#9EB92B" fill-rule="nonzero">
            <g>
                <g>
                    <g>
                        <g>
                            <path d="M84.201 18.685c1.678 4.759 2.614 9.97 2.614 15.438 0 14.544-6.58 27.483-16.388 34.572 1.37 1.354 2.822 2.567 4.402 3.475-.253.72-.426 1.528-.426 2.466 0 3.876 2.615 5.835 4.345 7.13 1.564 1.175 1.86 1.52 1.86 2.171 0 .651-.296.997-1.86 2.171-1.73 1.296-4.345 3.255-4.345 7.13 0 3.876 2.615 5.835 4.345 7.131 1.564 1.175 1.86 1.52 1.86 2.171 0 1.714 1.389 3.1 3.104 3.1s3.103-1.386 3.103-3.1c0-3.875-2.615-5.834-4.346-7.13-1.563-1.175-1.86-1.52-1.86-2.171 0-.651.297-.996 1.86-2.171 1.73-1.296 4.346-3.255 4.346-7.13 0-3.876-2.615-5.835-4.346-7.131-1.563-1.175-1.86-1.52-1.86-2.17 0-.096.046-.192.062-.284 1 .18 2.014.283 3.041.283 11.976 0 21.929-12.724 21.929-28.11 0-15.173-9.694-27.498-21.44-27.841zM0 46.525C0 60.581 8.356 72.33 18.879 74.243c-.007.137-.076.254-.076.393 0 3.876 2.612 5.835 4.34 7.13 1.562 1.175 1.859 1.52 1.859 2.171 0 .651-.297.997-1.859 2.171-1.728 1.296-4.34 3.255-4.34 7.13 0 3.876 2.612 5.835 4.34 7.131 1.562 1.175 1.859 1.52 1.859 2.171 0 1.714 1.386 3.1 3.099 3.1 1.713 0 3.1-1.386 3.1-3.1 0-3.875-2.613-5.834-4.341-7.13-1.562-1.175-1.858-1.52-1.858-2.171 0-.651.296-.996 1.858-2.171 1.728-1.296 4.34-3.255 4.34-7.13 0-3.876-2.612-5.835-4.34-7.131-1.562-1.175-1.858-1.52-1.858-2.17 0-.117.03-.213.052-.314 3.74-.705 7.223-2.675 10.16-5.597-9.82-7.083-16.411-20.037-16.411-34.603 0-5.467.934-10.68 2.61-15.438C9.682 19.028 0 31.353 0 46.525zM49.83 36.79l-.342 2.017 1.852-.942c.464-.238.972-.355 1.48-.355.509 0 1.017.117 1.481.355l1.851.942-.342-2.017c-.172-1.013.17-2.042.913-2.763l1.487-1.438-2.064-.305c-1.032-.154-1.926-.791-2.394-1.709l-.932-1.83-.932 1.83c-.467.918-1.361 1.555-2.396 1.71l-2.061.304 1.486 1.435c.744.72 1.086 1.752.914 2.766z" transform="translate(-1138 -1500) translate(0 924) translate(231 383) translate(780 87) translate(127 106)"/>
                            <path d="M47.54 67.863c-1.695 1.295-3.942 3.21-3.942 6.828 0 3.869 2.59 5.825 4.305 7.118 1.549 1.173 1.843 1.517 1.843 2.167 0 .65-.294.994-1.843 2.167-1.714 1.294-4.305 3.25-4.305 7.118 0 3.869 2.59 5.824 4.305 7.118 1.549 1.172 1.843 1.517 1.843 2.167 0 1.71 1.375 3.095 3.074 3.095 1.7 0 3.075-1.385 3.075-3.095 0-3.869-2.591-5.825-4.306-7.118-1.549-1.173-1.843-1.517-1.843-2.167 0-.65.294-.994 1.843-2.167 1.715-1.294 4.306-3.25 4.306-7.118 0-3.869-2.591-5.824-4.306-7.118-1.549-1.172-1.843-1.517-1.843-2.167 0-.65.294-.994 1.843-2.167 1.203-.907 2.796-2.183 3.664-4.174 14.12-1.524 25.235-16.338 25.235-34.1C80.488 15.48 68.078 0 52.82 0 37.563 0 25.153 15.479 25.153 34.25c0 16.55 9.649 30.57 22.387 33.613zM38.2 29.469c.36-1.115 1.315-1.931 2.468-2.106l6.475-.98 2.927-5.896c1.045-2.098 4.455-2.098 5.5 0l2.927 5.896 6.476.98c1.15.175 2.105.991 2.465 2.103.36 1.115.063 2.34-.766 3.161l-4.665 4.628 1.075 6.504c.192 1.157-.283 2.321-1.225 3.01-.921.677-2.168.795-3.225.245l-5.812-3.037-5.812 3.037c-1.038.538-2.287.445-3.224-.244-.943-.69-1.417-1.853-1.225-3.01l1.075-6.505-4.668-4.624c-.83-.826-1.126-2.05-.766-3.162z" transform="translate(-1138 -1500) translate(0 924) translate(231 383) translate(780 87) translate(127 106)"/>
                        </g>
                    </g>
                </g>
            </g>
        </g>
    </g>
</svg>
