<svg xmlns="http://www.w3.org/2000/svg" width="16" height="12" viewBox="0 0 16 12">
    <g fill="none" fill-rule="evenodd">
        <g fill="#405E70" fill-rule="nonzero">
            <g>
                <g>
                    <g>
                        <g>
                            <path d="M11.685 8.577l-2.24-2.154-2.241-2.155c-.272-.261-.272-.584 0-.845C7.476 3.16 7.98 3 8.524 3h8.954c.84 0 1.522.379 1.522.846 0 .148-.07.293-.203.42L16.56 6.424 14.32 8.577c-.272.262-.774.423-1.318.423s-1.046-.161-1.318-.423z" transform="translate(-792 -3632) translate(0 924) translate(0 2329) translate(775 360) translate(17 19) rotate(-90 13 6)"/>
                            <path d="M1.685 8.577l-2.24-2.154-2.241-2.155c-.272-.261-.272-.584 0-.845C-2.524 3.16-2.02 3-1.476 3h8.954C8.318 3 9 3.379 9 3.846c0 .148-.07.293-.203.42L6.56 6.424 4.32 8.577C4.05 8.84 3.547 9 3.003 9s-1.046-.161-1.318-.423z" transform="translate(-792 -3632) translate(0 924) translate(0 2329) translate(775 360) translate(17 19) matrix(0 -1 -1 0 9 9)"/>
                        </g>
                    </g>
                </g>
            </g>
        </g>
    </g>
</svg>
