<svg xmlns="http://www.w3.org/2000/svg" width="23" height="23" viewBox="0 0 23 23">
    <g fill="none" fill-rule="evenodd">
        <g fill="#9EB92B" fill-rule="nonzero">
            <g>
                <g>
                    <g>
                        <path d="M4.836 0c-.294 0-.682 0-1.161.104-.468.105-.838.21-1.11.315-.545.313-1.122.94-1.732 2.09-.267.452-.466.928-.605 1.415 0 .005-.002.009-.004.013-.051.184-.084.37-.118.557-.015.084-.04.167-.05.251-.02.14-.022.282-.031.423-.008.118-.025.237-.025.353v.02c0 .314.016.522.049.836.043.313.114.627.212.941.098.35.174.61.229.784.048.122.16.404.267.68.031.082.04.116.076.208.163.419.26.733.293.837.21.574.446 1.109.698 1.62.205.431.42.846.657 1.229.552.896 1.252 1.805 2.063 2.734.449.532.924 1.073 1.451 1.631.992.973 1.96 1.794 2.908 2.49.475.36.947.697 1.414.986.487.304 1.028.58 1.596.841.238.111.484.213.736.306.183.073.351.157.54.225.1.032.349.13.784.294.164.061.215.078.343.123.13.053.243.095.337.12.061.022.192.067.234.084.061.02.193.055.276.08.151.067.279.135.502.202.163 0 .316.026.463.061l.077.02c.137.038.27.08.392.127h.869c1.002 0 2.013-.26 3.036-.817 1.1-.611 1.763-1.186 1.992-1.731.062-.141.119-.311.173-.505l.002-.006c.058-.183.113-.391.168-.6.108-.523.163-.836.163-1.15 0-.209-.016-.314-.049-.418-.008-.013-.07-.055-.088-.074-.086-.102-.223-.216-.434-.351-.003.006-.01.012-.012.018-.194-.127-.403-.263-.708-.43-.207-.105-.5-.314-.882-.523-.381-.21-.729-.314-1.045-.523-.305-.209-.594-.314-.867-.523-.044 0-.18-.103-.408-.312-.23-.105-.424-.21-.588-.314-.152-.105-.304-.105-.457-.105-.218 0-.49.105-.816.419-.327.314-.629.732-.9 1.046-.273.418-.56.732-.865 1.045-.305.314-.556.419-.751.419-.099 0-.225-.002-.378-.106-.141 0-.25-.105-.326-.105-.076 0-.207-.104-.392-.208-.185-.104-.289-.21-.31-.21-1.492-.836-2.772-1.776-3.839-2.822-1.067-1.046-2.015-2.404-2.842-3.868-.011 0-.076-.105-.196-.314-.109-.209-.185-.314-.228-.419-.033 0-.076-.103-.13-.312-.055-.105-.082-.21-.082-.315 0-.209.152-.523.457-.837.316-.313.653-.521 1.012-.835.37-.209.709-.523 1.014-.837.316-.418.473-.626.473-.835 0-.209-.038-.314-.114-.522-.076-.105-.196-.314-.36-.523-.152-.314-.244-.419-.277-.419-.163-.313-.333-.628-.508-.941-.174-.314-.364-.627-.571-1.046-.207-.313-.37-.628-.49-.837C5.662.522 5.374.105 5.178 0h-.342z" transform="translate(-573 -7419) translate(0 990) translate(573 6339) translate(0 90)"/>
                    </g>
                </g>
            </g>
        </g>
    </g>
</svg>
