<svg xmlns="http://www.w3.org/2000/svg" width="87" height="91" viewBox="0 0 87 91">
    <g fill="none" fill-rule="evenodd">
        <g fill="#9EB92B" fill-rule="nonzero">
            <g>
                <g>
                    <g>
                        <g>
                            <path d="M82.635 46.586c-.364-.747-.364-1.605 0-2.352l3.374-6.93c1.88-3.858.39-8.456-3.389-10.47l-6.788-3.614c-.732-.39-1.234-1.084-1.377-1.903l-1.328-7.597c-.74-4.23-4.637-7.073-8.873-6.471l-7.608 1.08c-.821.117-1.633-.148-2.23-.727L48.895 2.24c-3.075-2.986-7.892-2.987-10.967 0l-5.523 5.363c-.596.578-1.408.843-2.23.727l-7.608-1.08c-4.236-.602-8.133 2.24-8.872 6.47l-1.328 7.597c-.143.82-.645 1.513-1.377 1.903L4.2 26.835C.42 28.848-1.067 33.447.81 37.305l3.375 6.929c.364.748.364 1.605 0 2.353L.811 53.516c-1.879 3.858-.39 8.457 3.39 10.47l6.787 3.614c.733.39 1.235 1.084 1.378 1.903l1.328 7.597c.673 3.851 3.962 6.552 7.743 6.551.372 0 .75-.026 1.13-.08l7.608-1.08c.82-.117 1.633.148 2.229.727l5.523 5.362c1.537 1.494 3.51 2.24 5.483 2.24 1.973 0 3.947-.747 5.484-2.24l5.523-5.362c.596-.579 1.408-.843 2.229-.727l7.608 1.08c4.238.602 8.134-2.24 8.873-6.47l1.328-7.597c.143-.82.645-1.514 1.377-1.904l6.788-3.615c3.78-2.012 5.268-6.611 3.39-10.47l-3.375-6.929zM32.973 21.84c5.275 0 9.567 4.308 9.567 9.603s-4.292 9.603-9.567 9.603-9.568-4.308-9.568-9.603 4.293-9.603 9.568-9.603zm-4.938 42.708c-.51.511-1.178.767-1.845.767-.668 0-1.336-.256-1.845-.767-1.02-1.023-1.02-2.682 0-3.704l34.44-34.57c1.02-1.023 2.672-1.023 3.69 0 1.02 1.023 1.02 2.681 0 3.704l-34.44 34.57zm25.812 4.434c-5.275 0-9.567-4.308-9.567-9.603s4.292-9.603 9.567-9.603c5.276 0 9.568 4.308 9.568 9.603s-4.292 9.603-9.568 9.603z" transform="translate(-367 -1508) translate(0 924) translate(231 383) translate(0 87) translate(136 114)"/>
                            <path d="M53.815 54.78c-2.374 0-4.306 1.94-4.306 4.325 0 2.385 1.932 4.325 4.306 4.325 2.373 0 4.305-1.94 4.305-4.325 0-2.385-1.932-4.325-4.305-4.325zM33.006 27.39c-2.374 0-4.305 1.94-4.305 4.325 0 2.384 1.931 4.325 4.305 4.325 2.374 0 4.305-1.94 4.305-4.325 0-2.385-1.931-4.325-4.305-4.325z" transform="translate(-367 -1508) translate(0 924) translate(231 383) translate(0 87) translate(136 114)"/>
                        </g>
                    </g>
                </g>
            </g>
        </g>
    </g>
</svg>
