<svg xmlns="http://www.w3.org/2000/svg" width="90" height="72" viewBox="0 0 90 72">
    <g fill="none" fill-rule="evenodd">
        <g fill="#9EB92B" fill-rule="nonzero">
            <g>
                <g>
                    <g>
                        <g>
                            <path d="M75.9 13c-4.1 0-7.5-2.9-8.8-6.8C65.9 2.7 62.6 0 58.8 0H31.3c-3.8 0-7.1 2.8-8.3 6.2-1.3 3.8-4.7 6.8-8.8 6.8C6.4 13 0 18 0 25.8v31.7C0 65.3 6.4 72 14.2 72H76c7.7 0 14-6.7 14-14.5V25.8C90 18 83.7 13 75.9 13zM57.4 50.7c-3.3 3.3-7.7 5.1-12.3 5.1-.5 0-1 0-1.6-.1-8.4-.7-15-7.4-15.7-15.7-.5-5.2 1.4-10.2 5-13.9 3.7-3.7 8.7-5.5 13.9-5 8.4.7 15 7.4 15.7 15.7.4 5.2-1.4 10.3-5 13.9zm13.1-27.3c-1.3 0-2.3-1-2.3-2.3 0-1.3 1-2.3 2.3-2.3 1.3 0 2.3 1 2.3 2.3 0 1.3-1.1 2.3-2.3 2.3z" transform="translate(-1146 -2579) translate(230 924) translate(1 273) translate(780 1257) translate(135 125)"/>
                        </g>
                    </g>
                </g>
            </g>
        </g>
    </g>
</svg>
