<svg xmlns="http://www.w3.org/2000/svg" width="81" height="107" viewBox="0 0 81 107">
    <g fill="none" fill-rule="evenodd">
        <g fill="#9EB92B" fill-rule="nonzero">
            <g>
                <g>
                    <g>
                        <g>
                            <path d="M74.865 106.49V42.545H5.333v63.945h69.532zM16.07 61.398v-.765c0-.254 0-.254.255-.51.256-.254.256-.509.512-.763l.255-.255.256-.255c.255 0 .255-.255.511-.255s.256 0 .511-.255h43.713c.256 0 .256 0 .512.255.255 0 .51.255.766.51l.256.255c.256.254.256.509.511.764 0 0 0 .255.256.255v27.514c0 1.528-1.278 2.547-2.556 2.547H18.626c-1.534 0-2.556-1.273-2.556-2.547V61.398zM68.474 11.719C60.805 4.076 50.836 0 40.1 0 18.882 0 1.499 16.56.221 37.195h80.012c-.767-9.68-4.857-18.597-11.759-25.476zm-12.27 17.579h-32.21c-1.534 0-2.556-1.274-2.556-2.548 0-1.529 1.278-2.548 2.556-2.548h31.954c1.534 0 2.556 1.274 2.556 2.548.256 1.274-1.022 2.548-2.3 2.548z" transform="translate(-370 -2569) translate(230 924) translate(1 273) translate(0 1257) translate(139 115)"/>
                            <path d="M58.76 65.983l-17.383 10.7c-.511.255-1.022.51-1.534.51-.51 0-1.022-.255-1.533-.51l-17.383-10.7V85.09h37.322V65.983h.511z" transform="translate(-370 -2569) translate(230 924) translate(1 273) translate(0 1257) translate(139 115)"/>
                            <path d="M52.114 63.945L28.084 63.945 40.099 71.333z" transform="translate(-370 -2569) translate(230 924) translate(1 273) translate(0 1257) translate(139 115)"/>
                        </g>
                    </g>
                </g>
            </g>
        </g>
    </g>
</svg>
