<svg xmlns="http://www.w3.org/2000/svg" width="74" height="75" viewBox="0 0 74 75">
    <g fill="none" fill-rule="evenodd">
        <g fill="#9EB92B" fill-rule="nonzero">
            <g>
                <g>
                    <g>
                        <g>
                            <path d="M37.99.388c-.558-.516-1.417-.517-1.976-.004L.473 33.109C.029 33.507-.12 34.14.1 34.695c.22.554.763.912 1.36.896H6.7V73.61c0 .806.652 1.391 1.458 1.391h19.607c.805 0 1.458-.585 1.458-1.391V55.377h15.232v18.232c0 .806.653 1.391 1.458 1.391H65.52c.805 0 1.458-.585 1.458-1.391V35.59h5.564c.595.014 1.136-.343 1.358-.896.219-.55.07-1.177-.37-1.571L37.99.388z" transform="translate(-764 -1794) translate(230 924) translate(1 273) translate(390 477) translate(143 120)"/>
                        </g>
                    </g>
                </g>
            </g>
        </g>
    </g>
</svg>
