<svg xmlns="http://www.w3.org/2000/svg" width="83" height="90" viewBox="0 0 83 90">
    <g fill="none" fill-rule="evenodd">
        <g fill="#9EB92B" fill-rule="nonzero">
            <g>
                <g>
                    <g>
                        <g transform="translate(-1150 -1405) translate(230 924) translate(1 273) translate(780 87) translate(139 121)">
                            <circle cx="35.627" cy="10.053" r="10.053"/>
                            <circle cx="35.628" cy="64.665" r="4"/>
                            <path d="M35.627 48.19c9.415 0 17.075 7.66 17.075 17.074 0 9.416-7.66 17.075-17.075 17.075S18.553 74.68 18.553 65.264c0-9.413 7.659-17.074 17.074-17.074zm0-7.659c-13.661 0-24.733 11.075-24.733 24.733C10.894 78.927 21.966 90 35.627 90c13.66 0 24.734-11.073 24.734-24.735 0-13.659-11.074-24.734-24.734-24.734z"/>
                            <path d="M14.947 21.678h-.435c-.536 0-11.587 2.269-11.587 2.269-1.953.381-3.24 2.292-2.858 4.245l.172.883c.381 1.953 2.292 3.24 4.244 2.858l6.41-1.228v23.458c1.754-3.9 4.39-7.315 7.671-9.975V25.296c.001-1.99-1.627-3.618-3.617-3.618zM61.574 32.625L45.68 29.524v-4.842c0-1.99-1.6-3.313-3.554-2.941l-11.252 2.144c-3.332 1.062-5.301 3.402-5.301 7.181v9.02c3.111-1.244 6.497-1.947 10.053-1.947 3.556 0 6.941.703 10.054 1.947v-2.271l14.335 2.796c1.953.381 3.862-.904 4.245-2.859l.172-.882c.38-1.954-.905-3.864-2.858-4.245zM82.704 79.906l-8.778-20.309c-.792-1.826-3.026-3.674-4.972-4.102l-8.897-1.967c1.711 3.555 2.698 7.526 2.698 11.735 0 .62-.051 1.224-.093 1.832 1.915.332 4.045 1.91 4.84 3.637l6.043 13.133c.833 1.809 3.011 2.642 4.836 1.853l2.438-1.056c1.827-.79 2.675-2.929 1.885-4.756z"/>
                        </g>
                    </g>
                </g>
            </g>
        </g>
    </g>
</svg>
