<svg xmlns="http://www.w3.org/2000/svg" width="87" height="68" viewBox="0 0 87 68">
    <g fill="none" fill-rule="evenodd">
        <g fill="#9EB92B">
            <g>
                <g>
                    <g>
                        <g transform="translate(-1147 -2193) translate(230 924) translate(1 273) translate(780 867) translate(136 121)">
                            <path d="M44.602 55.264c-1.247 0-2.263.84-2.263 1.872s1.016 1.872 2.263 1.872c1.248 0 2.261-.841 2.261-1.872 0-1.033-1.013-1.872-2.26-1.872z"/>
                            <ellipse cx="44.051" cy="47.247" rx="2.203" ry="1.648"/>
                            <path d="M55.613 65.152c-1.248 0-2.261.842-2.261 1.873 0 1.034 1.015 1.872 2.26 1.872 1.248 0 2.264-.838 2.264-1.872 0-1.031-1.015-1.873-2.263-1.873z"/>
                            <ellipse cx="33.038" cy="47.247" rx="2.203" ry="1.648"/>
                            <path d="M44.602 65.152c-1.247 0-2.263.842-2.263 1.873 0 1.034 1.016 1.872 2.263 1.872 1.248 0 2.261-.838 2.261-1.872 0-1.031-1.013-1.873-2.26-1.873zM32.486 55.264c-1.247 0-2.261.84-2.261 1.872s1.015 1.872 2.26 1.872c1.248 0 2.265-.841 2.265-1.872 0-1.033-1.017-1.872-2.264-1.872zM32.486 65.152c-1.247 0-2.261.842-2.261 1.873 0 1.034 1.015 1.872 2.26 1.872 1.248 0 2.265-.838 2.265-1.872 0-1.031-1.017-1.873-2.264-1.873zM27.354 22.818c-.027-.317.155-.62.476-.788 7.694-4.02 23.641-4.019 31.336 0 .32.168.504.471.475.788-.2 2.223-1.417 10.134-.44 11.915h27.652l.083-5.544c-.174.26-.5.437-.881.437H69.843c-.561 0-1.016-.381-1.016-.85 0-.471.455-.854 1.016-.854h16.212c.388 0 .721.186.892.457.012-.792.174-2.665-.133-3.457-2.302-5.891-12.39-12.112-21.44-15.705h-43.73C12.848 12.75 2.44 19.137.182 24.923c-.281.705-.154 2.227-.142 2.999h15.083c.56 0 1.015.382 1.015.853 0 .469-.454.851-1.015.851H.064l.076 5.108h27.658c.97-1.8-.242-9.678-.444-11.917z"/>
                            <path d="M71.348 36.928H58.461c-1.188 0-1.74-2.024-1.854-2.767-.017-.105-.065-.423.833-10.276-7.093-3.279-21.114-3.279-28.208 0 .9 9.853.85 10.17.835 10.276-.114.742-.662 2.767-1.849 2.767H16.755C6.809 43.706 1.107 53.674 1.1 64.328l.556 10.937h85.066L87 64.337c0-10.656-5.704-20.63-15.651-27.409zM32.677 70.227c-2.35 0-4.265-1.583-4.265-3.529 0-1.945 1.914-3.527 4.265-3.527 2.353 0 4.267 1.582 4.267 3.527 0 1.946-1.913 3.529-4.267 3.529zm0-9.408c-2.35 0-4.265-1.582-4.265-3.527s1.914-3.528 4.265-3.528c2.353 0 4.267 1.583 4.267 3.528 0 1.946-1.913 3.527-4.267 3.527zm0-9.406c-2.35 0-4.265-1.581-4.265-3.528 0-1.944 1.914-3.527 4.265-3.527 2.353 0 4.267 1.583 4.267 3.527 0 1.947-1.913 3.528-4.267 3.528zM44.05 70.227c-2.352 0-4.265-1.583-4.265-3.529 0-1.945 1.913-3.527 4.265-3.527 2.353 0 4.266 1.582 4.266 3.527-.001 1.946-1.914 3.529-4.266 3.529zm0-9.408c-2.352 0-4.265-1.582-4.265-3.527s1.913-3.528 4.265-3.528c2.353 0 4.266 1.583 4.266 3.528-.001 1.946-1.914 3.527-4.266 3.527zm0-9.406c-2.352 0-4.265-1.581-4.265-3.528 0-1.944 1.913-3.527 4.265-3.527 2.353 0 4.266 1.583 4.266 3.527-.001 1.947-1.914 3.528-4.266 3.528zm11.373 18.814c-2.351 0-4.265-1.583-4.265-3.529 0-1.945 1.914-3.527 4.265-3.527 2.352 0 4.266 1.582 4.266 3.527 0 1.946-1.914 3.529-4.266 3.529zm0-9.408c-2.351 0-4.265-1.582-4.265-3.527s1.914-3.528 4.265-3.528c2.352 0 4.266 1.583 4.266 3.528 0 1.946-1.914 3.527-4.266 3.527zm0-9.406c-2.351 0-4.265-1.581-4.265-3.528 0-1.944 1.914-3.527 4.265-3.527 2.352 0 4.266 1.583 4.266 3.527 0 1.947-1.914 3.528-4.266 3.528z"/>
                            <ellipse cx="56.165" cy="47.247" rx="2.203" ry="1.648"/>
                            <path d="M55.613 55.264c-1.248 0-2.261.84-2.261 1.872s1.015 1.872 2.26 1.872c1.248 0 2.264-.841 2.264-1.872 0-1.033-1.015-1.872-2.263-1.872z"/>
                        </g>
                    </g>
                </g>
            </g>
        </g>
    </g>
</svg>
