<svg xmlns="http://www.w3.org/2000/svg" width="59" height="76" viewBox="0 0 59 76">
    <g fill="none" fill-rule="evenodd">
        <g fill="#9EB92B" fill-rule="nonzero">
            <g>
                <g>
                    <g>
                        <g>
                            <path d="M53.444 31.223v-7.042C53.437 10.822 42.721 0 29.497 0 16.28 0 5.563 10.822 5.556 24.18v7.04C2.39 31.835 0 34.629 0 38v31.092C0 72.907 3.063 76 6.84 76h45.32c3.777 0 6.84-3.093 6.84-6.908V38c0-3.372-2.393-6.169-5.556-6.777zM32.066 55.41v10.23h-5.132v-10.23c-2.506-1.026-4.274-3.498-4.274-6.397 0-3.815 3.063-6.91 6.84-6.91 3.777 0 6.84 3.093 6.84 6.91 0 2.899-1.768 5.371-4.274 6.397zm11.107-24.317H15.82V24.18c.012-7.636 6.123-13.812 13.677-13.82 7.555.008 13.668 6.184 13.676 13.82v6.91z" transform="translate(-1161 -1794) translate(230 924) translate(1 273) translate(780 477) translate(150 120)"/>
                        </g>
                    </g>
                </g>
            </g>
        </g>
    </g>
</svg>
