<svg xmlns="http://www.w3.org/2000/svg" width="89" height="71" viewBox="0 0 89 71">
    <g fill="none" fill-rule="evenodd">
        <g fill="#9EB92B" fill-rule="nonzero">
            <g>
                <g>
                    <g>
                        <g>
                            <path d="M44.5 0C28.918 0 13.334 5.69 1.192 17.068.44 17.773.017 18.725 0 19.753c-.015 1.023.376 1.987 1.101 2.71l7.134 7.118c1.436 1.432 3.724 1.477 5.21.102 8.449-7.82 19.478-12.13 31.055-12.13 11.578 0 22.607 4.31 31.057 12.13.722.67 1.634 1.003 2.548 1.003.962 0 1.924-.37 2.66-1.105l7.135-7.118c.725-.723 1.118-1.687 1.1-2.71-.017-1.027-.44-1.98-1.193-2.685C75.665 5.69 60.083 0 44.5 0zm0 27.607c-8.75 0-17.151 3.182-23.656 8.96-.764.679-1.22 1.655-1.25 2.68-.03 1.03.372 2.036 1.103 2.765l7.149 7.133c1.391 1.387 3.57 1.481 5.074.218 3.224-2.708 7.338-4.2 11.58-4.2 4.243 0 8.357 1.492 11.58 4.2.708.595 1.564.888 2.419.888.961 0 1.92-.37 2.658-1.106l7.147-7.131c.73-.729 1.132-1.738 1.102-2.768-.03-1.024-.485-2-1.25-2.68-6.504-5.777-14.905-8.959-23.656-8.959zm0 27.606c-2.113 0-4.1.823-5.595 2.314-3.085 3.079-3.086 8.087 0 11.165C40.447 70.231 42.474 71 44.5 71c2.027 0 4.053-.769 5.596-2.308 1.494-1.49 2.317-3.473 2.317-5.582 0-2.11-.823-4.092-2.317-5.583-1.495-1.492-3.482-2.314-5.596-2.314z" transform="translate(-366 -1797) translate(230 924) translate(1 273) translate(0 477) translate(135 123)"/>
                        </g>
                    </g>
                </g>
            </g>
        </g>
    </g>
</svg>
