<svg xmlns="http://www.w3.org/2000/svg" width="79" height="76" viewBox="0 0 79 76">
    <g fill="none" fill-rule="evenodd">
        <g fill="#9EB92B" fill-rule="nonzero">
            <g>
                <g>
                    <g>
                        <g>
                            <path d="M53.177 25.463c-.077-.114-.204-.18-.342-.18H20.338c-.155 0-.297.086-.37.223-.072.137-.062.304.027.433 1.542 2.24 3.015 4.529 4.377 6.804 8.431 14.086 13.145 28.285 14.012 42.198.013.221.196.392.415.392H71.316c.23 0 .416-.187.416-.418 0-.055-.01-.106-.031-.156-1.032-16.138-7.436-33.182-18.524-49.296z" transform="translate(-761 -2192) translate(230 924) translate(1 273) translate(390 867) translate(140 128)"/>
                            <path d="M71.623.667H7.378C3.31.667 0 4.417 0 9.024v33.354c0 4.607 3.31 8.355 7.378 8.355h22.135c-2.097-5.417-4.747-10.848-7.992-16.27-.528-.883-1.085-1.763-1.643-2.647h-5.293V19.585h49.831v12.23h-3.282c3.63 6.24 6.587 12.576 8.834 18.917h3.262c3.183 0 5.77-3.75 5.77-8.355V9.024C79 4.416 75.689.667 71.623.667zM24.78 12.312H14.169c-.918 0-1.662-.747-1.662-1.67 0-.924.745-1.669 1.664-1.669h10.61c.919 0 1.664.745 1.664 1.669 0 .923-.747 1.67-1.665 1.67zm16.384 0h-10.61c-.92 0-1.665-.747-1.665-1.67 0-.924.746-1.669 1.664-1.669h10.61c.92 0 1.665.745 1.665 1.669 0 .923-.747 1.67-1.664 1.67z" transform="translate(-761 -2192) translate(230 924) translate(1 273) translate(390 867) translate(140 128)"/>
                        </g>
                    </g>
                </g>
            </g>
        </g>
    </g>
</svg>
