<svg xmlns="http://www.w3.org/2000/svg" width="84" height="97" viewBox="0 0 84 97">
    <g fill="none" fill-rule="evenodd">
        <g fill="#9EB92B" fill-rule="nonzero">
            <g>
                <g>
                    <g>
                        <g transform="translate(-760 -1401) translate(230 924) translate(1 273) translate(390 87) translate(139 117)">
                            <path d="M34 78c5.2-1.2 9.7-4 13.1-7.9l-2.8-6.7c-2.5 4.2-6.7 7.4-11.7 8.5C22.7 74.2 12.7 68 10.4 58c-1.6-6.9.9-13.8 5.9-18.1l-.2-7.5c-9.2 5.3-14.3 16.1-11.8 27C7.4 72.7 20.7 81 34 78z"/>
                            <path d="M30.6 22.4h-3.3c-1.8 0-3.4.7-4.6 2-1.2 1.3-1.9 2.9-1.8 4.7l.4 18.2c0 1.9.9 3.7 2.5 4.9 1.5 1.2 3.5 1.6 5.4 1.2L43.9 50 52 69.7c.9 2.1 3.1 3.2 5.2 2.7.2-.1.5-.1.7-.2 2.3-1 3.4-3.6 2.5-5.9l-8.8-21.4c-1.3-3.1-4.6-4.8-7.9-4.1L37.8 42l-.3-7.3 1.6.9c.9.5 1.9.6 2.9.4l7.3-1.7c2.2-.5 3.6-2.7 3.1-5s-2.7-3.6-5-3.1l-5.8 1.3s-6.2-3.5-7.1-4c-.7-.3-2.4-1.1-3.9-1.1z"/>
                            <circle cx="28.704" cy="10.7" r="9.2" transform="rotate(-6.788 28.704 10.7)"/>
                            <path d="M79.9 72.5L2.8 90.8c-3.3.8-2.8 5.7.7 5.7h77.1c1.6 0 2.9-1.3 2.9-2.9V75.3c-.1-1.8-1.8-3.2-3.6-2.8z"/>
                        </g>
                    </g>
                </g>
            </g>
        </g>
    </g>
</svg>
