<svg xmlns="http://www.w3.org/2000/svg" width="68" height="86" viewBox="0 0 68 86">
    <g fill="none" fill-rule="evenodd">
        <g fill="#9EB92B" fill-rule="nonzero">
            <g>
                <g>
                    <g>
                        <g>
                            <path d="M59.96 36.049l.277-28.858c.01-.124.014-.205.014-.285-.001-1.354-1.093-2.451-2.44-2.453H10.094c-.08 0-.16.004-.239.012C8.514 4.6 7.535 5.8 7.666 7.147l.013 1.392h6.315c1.708-.007 3.127 1.322 3.24 3.035.115 1.714-1.115 3.22-2.809 3.443-1.693.222-3.267-.917-3.595-2.602-1.06-.124-2.106-.358-3.12-.697l.237 24.33H59.96zM57.67 83.078l-1.903-20.76c-6.477 4.27-14.068 6.515-21.814 6.45-7.746.065-15.338-2.18-21.815-6.45l-1.902 20.76c-.008.076-.01.15-.01.225.001 1.354 1.092 2.45 2.44 2.453H55.24c.075 0 .15-.004.225-.01 1.34-.127 2.326-1.32 2.204-2.668z" transform="translate(-377 -2187) translate(230 924) translate(1 273) translate(0 867) translate(146 123)"/>
                            <path d="M67.783 42.156c.02-.163-.03-.328-.14-.45-.118-.134-.287-.212-.465-.212H.728c-.179 0-.348.078-.465.212-.11.122-.162.287-.141.45 1.86 14.606 16.405 25.62 33.83 25.62 17.426 0 31.97-11.014 33.831-25.62zM2.797 37.041c-1.544.002-2.795 1.26-2.796 2.812-.009.167.05.33.164.453.114.122.272.193.439.195H67.3c.333 0 .604-.271.604-.606.007-.752-.283-1.476-.808-2.012-.525-.535-1.241-.838-1.99-.842H2.798zM57.812 3.46h1.836c.333 0 .603-.271.603-.606.008-.752-.282-1.476-.807-2.012-.525-.536-1.241-.839-1.99-.842H10.452C8.907.002 7.656 1.26 7.654 2.811c-.008.168.05.331.165.454.113.122.272.193.438.196h49.555zM5.661 9.532c1.66 1.185 3.627 1.86 5.661 1.942.24.025.425.22.44.461.081 1.224 1.12 2.158 2.339 2.103 1.218-.056 2.17-1.08 2.14-2.306-.029-1.226-1.027-2.203-2.247-2.2H5.66z" transform="translate(-377 -2187) translate(230 924) translate(1 273) translate(0 867) translate(146 123)"/>
                        </g>
                    </g>
                </g>
            </g>
        </g>
    </g>
</svg>
