<svg xmlns="http://www.w3.org/2000/svg" xmlns:xlink="http://www.w3.org/1999/xlink" width="20" height="20" viewBox="0 0 20 20">
    <defs>
        <path id="z86281j2sa" d="M14.241 0h-8.9C2.39 0 0 2.331 0 5.207v8.677c0 2.876 2.391 5.207 5.34 5.207h8.901c2.95 0 5.34-2.331 5.34-5.207V5.207c0-2.876-2.39-5.207-5.34-5.207zM6.368 12.883c1.493 1.456 3.776 1.814 5.662.888 1.887-.926 2.952-2.926 2.642-4.963-.316-2.08-1.991-3.713-4.125-4.021-2.089-.302-4.14.736-5.09 2.575-.95 1.84-.583 4.065.91 5.52zm9.677-8.339c.085.556-.206 1.101-.72 1.354-.514.252-1.137.154-1.544-.243-.408-.397-.508-1.004-.249-1.505.26-.502.819-.785 1.389-.702.581.084 1.038.529 1.124 1.096zM7.842 8.533c.431-.836 1.364-1.308 2.314-1.171.97.14 1.73.882 1.875 1.828.14.925-.344 1.835-1.201 2.256-.858.42-1.895.258-2.574-.404-.679-.662-.846-1.673-.414-2.51z"/>
    </defs>
    <g fill="none" fill-rule="evenodd">
        <g>
            <g>
                <g>
                    <g>
                        <g transform="translate(-994 -4364) translate(0 927) translate(0 3111) translate(815 146) translate(179 180)">
                            <mask id="8dpd225mgb" fill="#fff">
                                <use xlink:href="#z86281j2sa"/>
                            </mask>
                            <path fill="#FFF" fill-rule="nonzero" d="M-1.78 -1.736H21.362V20.826H-1.78z" mask="url(#8dpd225mgb)"/>
                        </g>
                    </g>
                </g>
            </g>
        </g>
    </g>
</svg>
