<svg xmlns="http://www.w3.org/2000/svg" xmlns:xlink="http://www.w3.org/1999/xlink" width="13" height="14" viewBox="0 0 13 14">
    <defs>
        <path id="mq778bdxfa" d="M9.257 0H3.47C1.554 0 0 1.515 0 3.384v5.64c0 1.87 1.554 3.385 3.471 3.385h5.786c1.917 0 3.471-1.515 3.471-3.384v-5.64C12.728 1.514 11.174 0 9.257 0zM4.139 8.374c.97.946 2.455 1.179 3.68.577C9.047 8.35 9.74 7.05 9.538 5.725 9.33 4.373 8.242 3.312 6.856 3.111c-1.358-.196-2.692.479-3.31 1.674-.616 1.196-.378 2.642.593 3.589zm6.29-5.42c.055.36-.133.715-.468.88-.334.164-.739.1-1.004-.158-.264-.258-.33-.653-.161-.979.168-.326.532-.51.902-.456.379.055.675.344.732.713zM5.098 5.546c.28-.543.887-.85 1.504-.76.63.09 1.125.573 1.219 1.187.091.602-.223 1.193-.78 1.467-.558.273-1.232.167-1.674-.263-.44-.43-.55-1.087-.269-1.63z"/>
    </defs>
    <g fill="none" fill-rule="evenodd">
        <g>
            <g>
                <g>
                    <g>
                        <g>
                            <g transform="translate(-1110 -4943) translate(0 4663) translate(1010 71) translate(0 203) translate(100 6) translate(0 .59)">
                                <mask id="3ds01kzfvb" fill="#fff">
                                    <use xlink:href="#mq778bdxfa"/>
                                </mask>
                                <path fill="#405E70" fill-rule="nonzero" d="M-1.157 -1.128H13.885V13.536999999999999H-1.157z" mask="url(#3ds01kzfvb)" opacity=".595"/>
                            </g>
                        </g>
                    </g>
                </g>
            </g>
        </g>
    </g>
</svg>
