<svg xmlns="http://www.w3.org/2000/svg" width="453" height="559" viewBox="0 0 453 559">
    <g fill="none" fill-rule="evenodd">
        <g fill="#405E70" fill-rule="nonzero">
            <g>
                <g>
                    <g>
                        <path d="M-52 500.485c.638.213 1.275.418 1.912.618l.298-.955c-.63-.197-1.261-.401-1.894-.612l-.316.949zm11.635 3.15c.66.136 1.32.265 1.978.387l.182-.983c-.651-.12-1.304-.249-1.957-.384l-.203.98zm11.959 1.661c.67.047 1.338.085 2.005.116l.046-.999c-.66-.03-1.32-.068-1.982-.115l-.07.998zm12.112-.039c.671-.052 1.341-.112 2.01-.18l-.102-.996c-.66.068-1.322.128-1.985.18l.077.996zm11.89-1.824c.653-.152 1.307-.31 1.959-.479l-.25-.968c-.644.166-1.289.323-1.935.472l.225.975zm11.566-3.581c.622-.243 1.243-.493 1.863-.751l-.385-.923c-.612.255-1.226.502-1.841.742l.363.932zm10.956-5.139c.586-.322 1.172-.652 1.756-.989l-.5-.866c-.578.333-1.158.66-1.738.979l.482.876zm10.142-6.367c.543-.384 1.084-.774 1.625-1.17l-.591-.807c-.536.393-1.074.78-1.612 1.16l.578.817zm9.496-7.45c.505-.437 1.01-.88 1.514-1.328l-.665-.747c-.5.445-1.001.884-1.503 1.317l.654.757zm8.776-8.245c.468-.475.936-.956 1.402-1.442l-.72-.693c-.465.483-.93.961-1.394 1.434l.712.701zm8.16-8.9c.433-.506.866-1.016 1.299-1.531l-.766-.643c-.43.512-.862 1.02-1.293 1.523l.76.651zm7.566-9.377c.402-.528.804-1.06 1.205-1.597l-.801-.599c-.4.534-.8 1.064-1.2 1.59l.796.606zm7.053-9.766c.376-.547.75-1.098 1.125-1.652l-.829-.56c-.373.552-.746 1.101-1.12 1.646l.824.566zm6.6-10.079c.353-.564.705-1.131 1.057-1.702l-.851-.525c-.351.57-.702 1.135-1.054 1.697l.848.53zm6.19-10.32l.992-1.736-.87-.494-.99 1.732.867.499zm4.872-10.853l.882.471.939-1.768-.885-.467c-.312.59-.624 1.179-.936 1.764zm6.384-10.2l.891-1.798-.897-.442-.89 1.795.896.446zm5.22-10.822l.844-1.817-.908-.42-.843 1.814.906.423zm4.97-10.968l.802-1.834-.916-.4-.802 1.832.915.402zm4.716-11.03l.766-1.85-.925-.381-.765 1.848.924.384zm4.518-11.159l.732-1.865-.93-.364-.732 1.862.93.367zm4.302-11.185l.702-1.877-.938-.349-.7 1.874.936.352zm4.14-11.3l.671-1.883-.942-.334-.67 1.88.94.337zm3.97-11.348l.644-1.892-.947-.322-.644 1.89.946.324zm3.803-11.364l.621-1.902-.95-.31-.621 1.9.95.312zm3.677-11.457l.598-1.909-.955-.298-.597 1.907.954.3zm3.53-11.454l.577-1.916-.958-.288-.577 1.915.958.289zm3.42-11.539l.558-1.923-.961-.278-.557 1.922.96.28zm3.291-11.526l.539-1.927-.964-.268-.538 1.925.963.27zm3.198-11.612l.521-1.931-.965-.26-.521 1.93.965.261zm3.085-11.6l.505-1.937-.968-.252-.504 1.936.967.253zm2.986-11.613l.49-1.941-.97-.244-.49 1.94.97.245zm2.898-11.65l.475-1.944-.972-.237-.474 1.943.971.238zm2.814-11.675l.46-1.949-.973-.23-.46 1.948.973.23zm2.74-11.732l.448-1.95-.975-.223-.447 1.949.974.224zm2.649-11.687l.435-1.953-.976-.216-.435 1.951.976.218zm2.579-11.719l.423-1.955-.978-.211-.423 1.954.978.212zm2.51-11.742l.412-1.957-.979-.206-.411 1.957.978.206zm2.469-11.744l.42-1.948-.976-.213-.422 1.951.978.21zm2.616-11.735l.447-1.917-.974-.228-.447 1.92.974.225zm2.818-11.662l.487-1.915-.969-.248-.488 1.918.97.245zm2.104-11.845l.963.269.54-1.92-.961-.273c-.181.636-.362 1.278-.542 1.924zm4.359-11.23c.201-.643.403-1.28.606-1.91l-.953-.305-.607 1.916.954.3zm3.818-11.344c.227-.627.455-1.247.683-1.858l-.937-.35c-.229.615-.458 1.237-.686 1.867l.94.341zm4.415-11.117c.27-.618.541-1.226.813-1.823l-.91-.413c-.274.6-.547 1.213-.82 1.835l.917.401zm5.31-10.687c.334-.584.668-1.153 1.004-1.706l-.856-.518c-.34.56-.678 1.136-1.016 1.727l.868.497zm6.828-9.73c.453-.504.907-.982 1.363-1.433l-.704-.71c-.47.465-.937.956-1.403 1.474l.744.669zm9.522-6.72c.622-.197 1.246-.35 1.872-.459l-.17-.985c-.672.116-1.34.28-2.004.49l.302.954zm11.355 1.11c.572.277 1.147.586 1.726.927l.508-.861c-.602-.355-1.201-.677-1.798-.966l-.436.9zm9.334 7.077c.455.462.911.941 1.37 1.438l.735-.678c-.466-.505-.93-.992-1.393-1.461l-.712.701zm7.646 9.181c.383.527.767 1.065 1.152 1.614l.819-.574c-.389-.554-.776-1.096-1.162-1.628l-.81.588zm6.607 9.987c.34.559.682 1.126 1.025 1.702l.86-.512c-.346-.579-.69-1.149-1.032-1.71l-.853.52zm5.954 10.385c.316.582.632 1.17.95 1.765l.882-.47c-.319-.598-.636-1.188-.953-1.772l-.879.477zm5.532 10.65c.296.592.592 1.19.89 1.792l.897-.442-.892-1.796-.895.446zm5.234 10.83l.842 1.802.907-.422-.843-1.805-.906.425zm4.995 10.911l.818 1.833.914-.406-.819-1.835-.913.408zm4.837 11.014l.795 1.845.919-.395-.796-1.846-.918.396zm4.692 11.026l.772 1.841.922-.386-.772-1.842-.922.387zm4.597 11.064l.76 1.85.925-.38-.76-1.85-.925.38zm4.535 11.11l.748 1.848.927-.375-.749-1.849-.926.376zm4.452 11.04l.747 1.863.928-.372-.747-1.863-.928.373zm4.462 11.15l.745 1.867.93-.37-.746-1.868-.929.37zm4.452 11.16l.744 1.865.928-.37-.743-1.865-.929.37zm4.442 11.13l.74 1.853.93-.372-.742-1.852-.928.37zm4.45 11.103l.747 1.858.928-.373-.748-1.858-.927.373zm4.497 11.138l.753 1.854.927-.377-.753-1.853-.927.376zm4.547 11.134l.758 1.84.924-.38-.757-1.84-.925.38zm4.596 11.093l.77 1.84.923-.386-.77-1.84-.923.386zm4.668 11.063l.782 1.83.92-.394-.782-1.828-.92.392zm4.763 11.041l.8 1.828.915-.402-.799-1.826-.916.4zm4.858 10.977l.825 1.832.911-.412-.824-1.83-.912.41zm4.98 10.914l.846 1.82.906-.423-.846-1.817-.907.42zm5.124 10.846l.873 1.807.9-.436-.872-1.805-.901.434zm5.318 10.807l.904 1.79.892-.453-.903-1.787-.893.45zm5.496 10.653c.313.592.626 1.18.938 1.765l.882-.471-.937-1.762-.883.468zm5.769 10.586c.327.584.654 1.163.981 1.739l.87-.494-.98-1.734-.871.49zm6.885 9.859l-.856.516 1.04 1.714.853-.52-1.037-1.71zm5.535 10.706c.367.56.734 1.116 1.1 1.668l.833-.554c-.365-.55-.73-1.103-1.096-1.662l-.837.548zm6.816 9.91c.394.544.788 1.082 1.181 1.615l.804-.594c-.391-.53-.783-1.066-1.175-1.607l-.81.587zm7.354 9.545c.429.522.858 1.037 1.286 1.545l.765-.645c-.426-.505-.853-1.017-1.28-1.535l-.771.635zm8.014 8.999c.471.484.942.961 1.413 1.43l.705-.708c-.466-.465-.933-.938-1.4-1.419l-.718.697zm8.861 8.191c.525.43 1.05.849 1.574 1.258l.615-.788c-.518-.405-1.037-.82-1.555-1.244l-.634.774zm9.912 6.92c.587.34 1.174.666 1.76.979l.471-.882c-.577-.308-1.154-.63-1.731-.962l-.5.866zm11.11 4.886c.65.196 1.299.375 1.948.54l.245-.97c-.634-.16-1.269-.336-1.903-.528l-.29.958zm12.012 1.811c.676 0 1.35-.018 2.026-.053l-.051-.999c-.659.034-1.317.052-1.975.052v1zm12.004-1.833c.64-.196 1.28-.407 1.92-.634l-.334-.942c-.626.222-1.252.428-1.878.62l.292.956zm10.945-4.874c.574-.336 1.149-.686 1.724-1.048l-.533-.846c-.566.356-1.131.7-1.696 1.03l.505.864zm9.84-7.004c.508-.426 1.017-.863 1.525-1.31l-.66-.75c-.502.44-1.005.872-1.508 1.293l.643.767zm8.735-8.304c.455-.483.91-.974 1.364-1.474l-.74-.673c-.45.495-.901.982-1.352 1.461l.728.686zm7.846-9.13c.412-.52.823-1.047 1.235-1.58l-.792-.612c-.41.53-.818 1.055-1.227 1.572l.784.62zm7.096-9.616c.378-.546.755-1.097 1.133-1.654l-.828-.561c-.376.554-.752 1.103-1.127 1.646l.822.569zm6.587-10.078l1.049-1.707-.854-.52-1.045 1.7.85.527z" transform="translate(-285 -4553) translate(0 990) translate(230 3342) translate(54.842 221) rotate(90 226.712 279.564)"/>
                    </g>
                </g>
            </g>
        </g>
    </g>
</svg>
