<svg xmlns="http://www.w3.org/2000/svg" width="449" height="1119" viewBox="0 0 449 1119">
    <g fill="none" fill-rule="evenodd">
        <g fill="#8D9FAA" fill-rule="nonzero">
            <g>
                <g>
                    <g>
                        <path d="M-335 781.238l1.99.155.076-.997-1.987-.155-.079.997zm11.986.867l2.009.128.062-.998-2.006-.128-.065.998zm11.973.683l2.004.095.045-1-2-.094-.05.999zm12.027-.527l-.03 1 1.997.056.026-1c-.661-.017-1.326-.036-1.993-.056zm11.993 1.226l2 .01.003-1-1.996-.01-.007 1zm11.982-1.067l.02 1 2-.044-.024-1c-.661.016-1.327.03-1.996.044zm12.027.576c.673-.035 1.34-.072 2.004-.11l-.058-1c-.662.04-1.328.076-1.998.112l.052.998zm12.004-.867c.672-.063 1.339-.129 2-.196l-.101-.995c-.66.067-1.324.132-1.993.195l.094.996zm11.945-1.435c.666-.1 1.325-.201 1.977-.306l-.158-.987c-.649.104-1.304.205-1.966.304l.147.989zm11.822-2.19c.66-.149 1.312-.302 1.956-.458l-.236-.972c-.639.155-1.286.307-1.94.455l.22.975zm11.606-3.253c.643-.222 1.275-.448 1.896-.678l-.347-.938c-.614.228-1.24.451-1.875.67l.326.946zm11.086-4.835c.598-.33 1.181-.668 1.75-1.011l-.518-.856c-.557.336-1.129.667-1.716.992l.484.875zm9.747-7.24c.479-.49.937-.99 1.373-1.5l-.759-.65c-.422.492-.866.976-1.33 1.452l.716.698zm6.47-10.219c.227-.639.428-1.288.606-1.947l-.966-.26c-.17.634-.365 1.259-.582 1.874l.943.333zm1.497-12.06c-.048-.665-.113-1.337-.198-2.017l-.993.124c.083.662.147 1.317.193 1.963l.998-.07zm-2.555-11.857c-.215-.627-.444-1.26-.685-1.897l-.935.355c.238.628.463 1.25.675 1.867l.945-.325zm-4.868-11.06c-.31-.584-.628-1.173-.957-1.766l-.874.485c.325.587.64 1.17.946 1.749l.885-.467zm-6.198-10.354c-.366-.551-.74-1.106-1.12-1.664l-.826.564c.378.554.749 1.105 1.113 1.653l.833-.553zm-7.03-9.797c-.404-.525-.814-1.053-1.23-1.584l-.787.617c.414.528.822 1.053 1.224 1.577l.793-.61zm-8.352-8.704l.76-.65-1.305-1.52-.756.655c.438.507.872 1.012 1.3 1.515zm-7.229-9.641l-1.362-1.468-.731.682 1.358 1.464.735-.678zm-7.89-8.954c-.367-.547-.713-1.104-1.04-1.674l-.868.498c.339.59.698 1.167 1.077 1.732l.83-.556zm-4.473-10.895c-.13-.638-.245-1.285-.343-1.943l-.99.148c.102.675.22 1.34.354 1.996l.98-.201zm-.672-11.805c.044-.65.1-1.308.167-1.974l-.995-.1c-.068.676-.125 1.345-.17 2.006l.998.068zm1.88-11.813c.152-.64.314-1.285.484-1.936l-.967-.253c-.172.658-.336 1.31-.49 1.956l.972.233zm3.42-11.4c.22-.619.447-1.243.68-1.872l-.938-.347c-.234.633-.462 1.261-.684 1.885l.942.335zm4.43-11.108c.265-.605.536-1.214.812-1.827l-.912-.41c-.277.615-.55 1.227-.816 1.835l.916.402zm5.116-10.848c.297-.59.598-1.185.903-1.782l-.89-.455c-.307.6-.609 1.195-.907 1.788l.894.449zm4.723-11.098l.875.483.968-1.745-.874-.487c-.327.586-.65 1.169-.97 1.749zm6.827-9.944l1.02-1.723-.86-.511-1.021 1.726.861.508zm6.218-10.277l1.056-1.697-.849-.53-1.057 1.7.85.527zm6.394-10.117l1.086-1.684-.84-.543-1.088 1.686.842.54zm6.532-10.009l1.107-1.67-.833-.553-1.108 1.672.834.551zm6.657-9.96l1.117-1.653-.828-.56-1.118 1.654.83.56zm6.74-9.922l1.128-1.65-.825-.565-1.128 1.65.825.565zm6.785-9.895l1.134-1.65-.824-.566-1.134 1.65.824.566zm6.813-9.909l1.132-1.649-.825-.565-1.132 1.648.825.566zm6.783-9.909l1.126-1.653-.827-.562-1.125 1.652.826.563zm6.72-9.936l1.113-1.664-.832-.555-1.112 1.662.831.557zm6.632-10.025l1.092-1.68-.84-.543-1.09 1.677.838.546zm6.474-10.133l1.056-1.7-.85-.526-1.055 1.697.849.53zm6.231-10.298c.34-.583.675-1.161 1.005-1.734l-.867-.499c-.328.571-.662 1.147-1.002 1.729l.864.504zm5.837-10.512c.314-.6.62-1.193.92-1.78l-.89-.455c-.299.584-.604 1.175-.916 1.772l.886.463zm5.192-10.839c.268-.626.526-1.244.774-1.854l-.926-.377c-.246.605-.501 1.217-.767 1.838l.92.393zm4.004-11.364l.52-1.906-.964-.265-.521 1.908.965.263zm3.22-11.531l.556-1.925-.96-.278-.556 1.927.96.276zm3.405-11.506l.584-1.902-.955-.295-.586 1.905.957.292zm2.671-11.74l.95.312.625-1.885-.949-.317c-.208.624-.417 1.254-.626 1.89zm3.908-11.347l.94.34.69-1.89-.94-.346c-.23.626-.46 1.258-.69 1.896zm5.228-10.86c.253-.62.505-1.233.757-1.836l-.923-.385c-.253.606-.506 1.22-.76 1.843l.926.377zm4.83-10.95l.293-.605.585-1.186-.895-.446-.589 1.194-.295.608.901.434zm5.707-10.497c.362-.577.723-1.136 1.082-1.676l-.832-.554c-.365.547-.73 1.114-1.097 1.7l.847.53zm7.347-9.298c.497-.46.992-.882 1.485-1.267l-.615-.788c-.515.402-1.032.842-1.55 1.32l.68.735zm10.453-4.188c.62.09 1.237.24 1.855.451l.324-.946c-.676-.231-1.355-.397-2.036-.495l-.143.99zm9.537 6.217c.417.482.835.991 1.253 1.528l.79-.615c-.43-.55-.858-1.073-1.288-1.568l-.755.655zm6.614 9.86c.313.568.625 1.152.938 1.75l.886-.464c-.316-.604-.632-1.193-.947-1.767l-.877.481zm5.205 10.76c.262.603.524 1.217.786 1.84l.922-.387c-.264-.627-.527-1.244-.79-1.85l-.918.397zm4.46 11.148c.23.617.46 1.242.691 1.875l.94-.343c-.232-.635-.463-1.262-.694-1.88l-.937.348zm3.989 11.32l.629 1.89.95-.313-.631-1.895-.948.317zm3.684 11.444l.587 1.903.956-.293-.588-1.907-.955.297zm3.46 11.484l.557 1.908.96-.28-.558-1.91-.96.282zm3.313 11.544l.543 1.936.963-.269-.543-1.938-.963.271zm3.207 11.575l.525 1.923.965-.263-.525-1.924-.965.264zm3.13 11.572l.52 1.943.966-.258-.52-1.944-.967.259zm3.09 11.605l.51 1.926.967-.256-.51-1.926-.967.256zm3.057 11.561l.514 1.945.966-.255-.513-1.945-.967.255zm3.05 11.54l.512 1.928.966-.256-.511-1.929-.967.256zm3.084 11.592l.516 1.926.966-.26-.515-1.924-.967.258zm3.124 11.595l.525 1.931.965-.263-.525-1.93-.965.262zm3.168 11.544l.536 1.925.963-.269-.535-1.924-.964.268zm3.257 11.576l.55 1.925.962-.276-.55-1.923-.962.274zm3.339 11.51l.565 1.91.959-.284-.565-1.908-.96.283zm3.469 11.521l.59 1.916.956-.296-.59-1.913-.956.293zm3.609 11.467l.615 1.9.95-.31-.614-1.897-.951.307zm3.773 11.384l.65 1.893.945-.326-.648-1.89-.947.323zm3.995 11.342l.691 1.886.939-.346-.69-1.882-.94.342zm4.25 11.235l.735 1.858.929-.37-.734-1.854-.93.366zm4.585 11.15c.266.617.531 1.228.797 1.835l.916-.402c-.265-.605-.53-1.214-.795-1.828l-.918.396zm4.969 10.933c.292.608.585 1.21.877 1.807l.898-.44c-.291-.595-.583-1.195-.874-1.8l-.901.433zm5.504 10.725c.326.592.652 1.177.979 1.756l.87-.492c-.324-.575-.649-1.157-.973-1.746l-.876.482zm6.184 10.344c.37.566.74 1.124 1.112 1.674l.829-.56c-.37-.546-.737-1.1-1.104-1.661l-.837.547zm7.106 9.734c.432.524.866 1.037 1.3 1.539l.756-.654c-.429-.496-.857-1.003-1.285-1.522l-.771.637zm8.425 8.696c.517.443 1.035.87 1.556 1.283l.62-.783c-.51-.405-1.018-.825-1.526-1.26l-.65.76zm10.139 6.64c.62.285 1.242.55 1.866.793l.364-.932c-.606-.236-1.21-.493-1.813-.77l-.417.91zm11.847 2.904c.676.025 1.355.028 2.036.008l-.03-1c-.659.02-1.315.017-1.968-.008l-.038 1zm12.015-1.902c.63-.22 1.262-.457 1.896-.715l-.376-.926c-.619.25-1.235.483-1.849.697l.33.944zm10.803-5.496c.552-.366 1.105-.747 1.66-1.142l-.58-.815c-.546.389-1.09.764-1.634 1.125l.554.832zm9.433-7.486c.488-.448.976-.907 1.466-1.376l-.691-.722c-.485.464-.97.918-1.452 1.362l.677.736zm8.415-8.634c.439-.497.878-1 1.32-1.513l-.759-.652c-.438.509-.874 1.01-1.31 1.502l.749.663zm7.562-9.23c.402-.526.805-1.059 1.209-1.599l-.8-.599c-.403.537-.804 1.067-1.204 1.591l.795.607zm7.007-9.721c.374-.548.749-1.101 1.124-1.66l-.83-.557c-.374.556-.747 1.107-1.12 1.653l.826.564zm6.567-10.076c.351-.563.703-1.13 1.055-1.703l-.852-.524c-.35.57-.701 1.136-1.051 1.698l.848.529zm5.536-10.673c.291-.588.589-1.182.894-1.785l-.892-.451c-.307.605-.606 1.202-.898 1.792l.896.444zm5.595-10.59c.325-.577.653-1.155.984-1.732l-.868-.498c-.332.58-.662 1.16-.988 1.74l.872.49zm6.15-10.264c.359-.561.72-1.12 1.082-1.674l-.836-.547c-.365.557-.728 1.118-1.089 1.682l.843.54zm6.777-9.867c.397-.536.796-1.067 1.196-1.592l-.796-.606c-.403.529-.804 1.063-1.203 1.602l.803.596zm7.522-9.302c.444-.5.89-.991 1.336-1.475l-.735-.678c-.45.488-.9.985-1.348 1.489l.747.664zm8.438-8.435c.502-.44 1.006-.869 1.51-1.288l-.64-.769c-.51.424-1.02.86-1.529 1.305l.659.752zm9.602-7.038c.575-.339 1.15-.663 1.726-.973l-.474-.88c-.587.315-1.174.646-1.76.992l.508.861zm10.907-4.615c.641-.163 1.282-.306 1.922-.43l-.189-.981c-.66.127-1.32.274-1.979.442l.246.969zm11.74-.758c.648.084 1.296.189 1.943.315l.192-.982c-.669-.13-1.338-.238-2.007-.325l-.128.992zm11.226 3.63c.577.3 1.153.62 1.729.957l.505-.863c-.59-.345-1.18-.672-1.77-.981l-.464.886zm9.72 6.838c.487.434.975.881 1.461 1.342l.688-.726c-.494-.468-.99-.922-1.485-1.363l-.664.747zm8.201 8.646c.415.507.83 1.025 1.243 1.553l.787-.617c-.418-.533-.836-1.056-1.256-1.57l-.774.634zm7.04 9.678c.36.55.719 1.11 1.078 1.676l.845-.535c-.362-.571-.724-1.134-1.086-1.688l-.837.547zm6.134 10.249l.973 1.74.873-.488-.973-1.74-.873.488zm5.871 10.458l.98 1.734.87-.492-.98-1.733-.87.491zm5.939 10.434l.996 1.733.867-.5-.996-1.73-.867.497zm6.026 10.378l1.013 1.718.86-.508-1.01-1.717-.863.507zm6.16 10.326l1.035 1.705.854-.52-1.034-1.703-.855.518zm6.292 10.203l1.066 1.69.845-.535-1.064-1.688-.847.533zm6.495 10.11l1.103 1.671.834-.552-1.102-1.668-.835.549zm6.725 9.97l1.145 1.644.82-.573-1.143-1.64-.822.57zm6.985 9.775c.398.538.795 1.073 1.192 1.605l.801-.599c-.396-.53-.792-1.063-1.188-1.6l-.805.594zm7.303 9.545c.416.524.832 1.044 1.247 1.56l.78-.627c-.415-.515-.83-1.033-1.245-1.555l-.782.622zm7.668 9.25c.44.509.88 1.013 1.32 1.513l.751-.661c-.439-.498-.877-1-1.316-1.506l-.755.655zm8.1 8.888c.467.485.933.965 1.4 1.441l.714-.7c-.464-.473-.929-.952-1.393-1.435l-.72.694zm8.595 8.415c.496.455.991.905 1.487 1.35l.668-.745c-.493-.442-.986-.89-1.478-1.342l-.677.737zm9.17 7.822c.528.416 1.057.826 1.585 1.231l.608-.794c-.525-.402-1.05-.81-1.574-1.223l-.619.786zm9.78 7.032c.564.367 1.129.728 1.694 1.082l.531-.847c-.56-.352-1.12-.71-1.68-1.073l-.545.838zm10.457 6.046c.6.303 1.2.6 1.802.89l.434-.9c-.595-.288-1.19-.582-1.785-.883l-.451.893zm11.07 4.781c.632.227 1.265.446 1.9.657l.316-.948c-.628-.21-1.254-.426-1.88-.65l-.337.941zm11.604 3.284c.657.137 1.315.266 1.974.387l.18-.983c-.65-.12-1.3-.248-1.95-.383l-.204.979zm11.96 1.605c.668.04 1.338.073 2.008.098l.037-1c-.663-.024-1.324-.056-1.984-.096l-.061.998zm12.069-.129c.666-.054 1.334-.116 2.003-.185l-.104-.995c-.661.069-1.321.13-1.98.183l.081.997zm11.945-1.775c.652-.14 1.305-.287 1.96-.442l-.23-.973c-.648.153-1.295.299-1.94.437l.21.978zm11.63-3.225c.631-.213 1.263-.434 1.896-.66l-.337-.942c-.628.225-1.254.443-1.88.655l.322.947zm11.2-4.433c.608-.274 1.216-.554 1.825-.84l-.426-.906c-.604.284-1.207.563-1.81.835l.412.911zm10.765-5.428c.582-.323 1.164-.652 1.748-.985l-.497-.868c-.58.331-1.159.658-1.737.979l.486.874zm10.33-6.234c.557-.363 1.116-.73 1.675-1.103l-.554-.832c-.556.37-1.112.736-1.667 1.097l.546.838zm9.29-7.668l.593.805 1.608-1.197-.6-.8c-.535.402-1.069.8-1.602 1.192zm10.064-6.56c.515-.42 1.03-.845 1.547-1.273l-.639-.77c-.514.427-1.028.85-1.54 1.27l.632.774zm9.266-7.638c.524-.418 1.046-.83 1.564-1.236l-.616-.787c-.521.407-1.045.821-1.572 1.24l.624.783zm9.56-7.2c.549-.388 1.095-.77 1.637-1.143l-.568-.823c-.545.376-1.094.759-1.647 1.15l.577.816zm10.03-6.52c.583-.343 1.16-.676 1.733-1l-.492-.87c-.578.326-1.16.662-1.747 1.008l.507.861zm10.627-5.43c.622-.263 1.236-.514 1.844-.752l-.363-.931c-.618.241-1.242.496-1.872.763l.391.92zm11.363-3.511c.66-.117 1.312-.215 1.955-.294l-.123-.993c-.66.082-1.329.182-2.007.302l.175.985zm11.716.072c.642.143 1.273.311 1.893.504l.296-.956c-.646-.2-1.303-.375-1.971-.524l-.218.976zm10.471 5.227c.5.413.99.848 1.475 1.305l.686-.728c-.5-.47-1.007-.92-1.522-1.347l-.639.77zm7.745 8.965c.356.543.71 1.102 1.063 1.677l.852-.523c-.357-.584-.717-1.15-1.08-1.703l-.835.55zm6.67 10.006l-.901.435.567 1.185.291.616.905-.426-.58-1.222-.283-.588zm4.117 11.288l.646 1.38.206.433.903-.43-.414-.875-.435-.93-.906.422zm5.683 10.673c.389.586.778 1.138 1.17 1.658l.798-.602c-.379-.503-.757-1.04-1.135-1.609l-.833.553zm9.342 7.8c.673.17 1.364.274 2.073.311l.053-.999c-.645-.034-1.271-.128-1.882-.281l-.244.97zm11.868-2.701c.558-.337 1.127-.702 1.706-1.096l-.563-.826c-.563.383-1.116.738-1.659 1.065l.516.857zm9.437-7.51c.473-.453.951-.922 1.436-1.406l-.707-.707c-.48.48-.953.943-1.421 1.392l.692.721zm7.482-9.43l.757.654.865-1.01.437-.515-.764-.645-.866 1.018-.43.499zm8.339-8.643c.418-.525.838-1.039 1.259-1.542l-.767-.642c-.426.51-.85 1.03-1.274 1.56l.782.624zm8.138-8.709c.496-.444.995-.875 1.495-1.292l-.64-.768c-.51.425-1.017.863-1.522 1.315l.667.745zm9.696-6.845c.587-.31 1.177-.604 1.768-.88l-.423-.906c-.607.283-1.21.584-1.812.901l.467.885zm11.149-3.876c.647-.117 1.298-.216 1.952-.299l-.126-.992c-.67.085-1.339.187-2.003.306l.177.985zm11.846-.327c.65.073 1.305.16 1.963.26l.151-.989c-.672-.102-1.34-.19-2.003-.265l-.111.994zm11.595 2.59c.623.201 1.25.412 1.883.634l.331-.944c-.64-.224-1.276-.438-1.906-.642l-.308.952zm11.543 3.491l-.415.91 1.2.554c.203.094.406.19.61.286l.427-.905-1.22-.57-.602-.275zm10.333 6.198l1.78.92.46-.889-1.781-.92-.459.889zm10.682 5.464l1.212.592.588.283.433-.902-.585-.281-1.206-.59-.442.898zm11.037 4.815c.648.232 1.285.448 1.91.649l.305-.953c-.615-.196-1.24-.409-1.878-.637l-.337.941zm11.863 2.515c.692.017 1.372.006 2.042-.033l-.06-.999c-.64.038-1.293.049-1.957.032l-.025 1zm11.756-3.162c.565-.363 1.122-.758 1.668-1.186l-.616-.788c-.522.409-1.053.786-1.592 1.132l.54.842zm8.395-8.839c.356-.556.708-1.132 1.055-1.728l-.865-.503c-.34.584-.683 1.148-1.032 1.69l.842.541zm5.358-10.844c.238-.615.474-1.242.707-1.883l-.94-.342c-.23.634-.464 1.255-.7 1.862l.933.363zm3.713-11.487c.172-.637.342-1.284.511-1.94l-.969-.249c-.167.652-.336 1.295-.508 1.927l.966.262zm2.729-11.677c.13-.647.26-1.3.388-1.963l-.982-.19c-.127.66-.256 1.31-.386 1.955l.98.198zm1.116-11.977l.988.155.303-1.978-.989-.149c-.1.664-.2 1.321-.302 1.972zm1.651-11.845l.993.123.241-1.987-.993-.119c-.079.666-.16 1.327-.24 1.983zm2.32-11.827l.193-1.994-.995-.095-.194 1.99.995.099zm1.064-11.966l.157-1.997-.997-.076-.156 1.994.996.08zm.853-11.92l.126-2-.998-.06-.126 1.996.998.063zm.688-12.024l.1-1.998-.999-.05-.1 1.997 1 .051zm.542-11.994l.078-2.002-1-.038-.077 2 1 .04zm.418-11.947l.06-1.999-1-.029-.06 1.998 1 .03zm.315-12.025l.043-2.002-1-.021-.043 2.001 1 .022zm.223-12.029l.029-1.997-1-.014-.029 1.996 1 .015zm.141-12.024l.016-2-1-.008-.016 2 1 .008zm.069-12.021l.005-2.003-1-.002-.005 2.002 1 .003zm.004-11.963l-.005-2-1 .003.005 2 1-.003zm-.054-11.994l-.014-1.999-1 .007.014 2 1-.008zm-.106-11.985l-.023-2-1 .012.023 2 1-.012zm-.155-12.014l-.03-2-1 .015.03 2 1-.015zm-.198-12.013l-.037-2-1 .019.037 2 1-.019zm-.239-11.978l-.043-2-1 .022.043 2 1-.022z" transform="translate(-293 -1845) translate(0 927) translate(230 840) translate(62.96 78) rotate(90 224.267 559.552)"/>
                    </g>
                </g>
            </g>
        </g>
    </g>
</svg>
