<?xml version="1.0" encoding="UTF-8"?>
<svg width="204px" height="1042px" viewBox="0 0 204 1042" version="1.1" xmlns="http://www.w3.org/2000/svg" xmlns:xlink="http://www.w3.org/1999/xlink">
    <title>Curved Line Copy</title>
    <g id="Page-1" stroke="none" stroke-width="1" fill="none" fill-rule="evenodd">
        <g id="Car-Park-(Mobile)" transform="translate(-114.000000, -1450.000000)" fill="#405E70" fill-rule="nonzero">
            <g id="The-Progress" transform="translate(115.000000, 1278.000000)">
                <path d="M141.399567,173.799675 C141.932628,174.199922 142.462077,174.60123 142.987912,175.003597 L144.203304,173.415257 C143.672635,173.009191 143.138345,172.604214 142.600433,172.200325 L141.399567,173.799675 Z M158.175377,187.857538 C158.659426,188.313014 159.139313,188.769709 159.615038,189.227624 L161.002021,187.786695 C160.520846,187.323534 160.035488,186.861632 159.545948,186.400988 L158.175377,187.857538 Z M173.068134,203.86132 C173.484305,204.377644 173.895727,204.89536 174.3024,205.414467 L175.876799,204.181071 C175.464419,203.654678 175.047247,203.129726 174.625283,202.606216 L173.068134,203.86132 Z M185.351241,221.88682 C185.676942,222.464294 185.997371,223.043319 186.312529,223.623894 L188.070251,222.669738 C187.749933,222.079657 187.424271,221.491177 187.093266,220.9043 L185.351241,221.88682 Z M194.290368,241.81174 C194.50322,242.438097 194.710561,243.066088 194.91239,243.695714 L196.816932,243.085205 C196.611566,242.444546 196.400593,241.805554 196.184013,241.168229 L194.290368,241.81174 Z M199.298724,262.965355 C199.389824,263.619438 199.475551,264.275128 199.555904,264.932426 L201.541125,264.68974 C201.459419,264.021367 201.372244,263.354606 201.279602,262.689458 L199.298724,262.965355 Z M200.36789,284.770624 C200.343709,285.430258 200.3146,286.091373 200.280563,286.75397 L202.277929,286.856575 C202.312468,286.184214 202.342008,285.51332 202.366548,284.843891 L200.36789,284.770624 Z M197.576462,306.382493 C197.419943,307.027293 197.257065,307.665815 197.087844,308.298204 L199.019869,308.815195 C199.193118,308.167756 199.35984,307.514161 199.520022,306.854272 L197.576462,306.382493 Z M189.599276,326.494308 C189.269423,327.061999 188.931911,327.624856 188.586663,328.183206 L190.287735,329.23504 C190.642573,328.66118 190.989489,328.08264 191.328555,327.499093 L189.599276,326.494308 Z M176.178867,343.581731 C175.716769,344.044794 175.245549,344.509366 174.764282,344.976548 L176.15734,346.411605 C176.646115,345.937134 177.124876,345.465129 177.594555,344.994469 L176.178867,343.581731 Z M159.839177,358.144497 L158.314225,359.441179 L159.611955,360.962986 L161.133008,359.66962 L159.839177,358.144497 Z M143.573267,373.163296 C143.110167,373.657561 142.655056,374.15238 142.207499,374.64841 L143.692403,375.988208 C144.1315,375.501555 144.578136,375.015951 145.032745,374.530748 L143.573267,373.163296 Z M130.422141,391.053409 C130.097753,391.643488 129.780085,392.238717 129.469106,392.839328 L131.245158,393.758915 C131.548501,393.173052 131.858359,392.592456 132.174768,392.016891 L130.422141,391.053409 Z M122.371165,411.734348 C122.206289,412.382683 122.046848,413.036717 121.892856,413.696553 L123.840519,414.151096 C123.991523,413.504062 124.147845,412.862823 124.30947,412.227274 L122.371165,411.734348 Z M119.307281,433.724975 C119.283755,434.389909 119.265129,435.06046 119.251368,435.736708 L121.250955,435.777396 C121.264513,435.111103 121.28286,434.450561 121.30603,433.795693 L119.307281,433.724975 Z M120.072209,455.835308 C120.133105,456.497725 120.197229,457.165072 120.264574,457.837486 L122.254618,457.638177 C122.187812,456.971136 122.124206,456.309196 122.063811,455.652221 L120.072209,455.835308 Z M122.919879,477.709195 L123.242749,479.68175 L125.215797,479.354516 L124.894306,477.390392 L122.919879,477.709195 Z M126.852405,499.400986 L127.240111,501.364758 L129.201893,500.97564 L128.814884,499.015404 L126.852405,499.400986 Z M131.238292,520.951207 L131.64429,522.913217 L133.60282,522.508053 L133.196789,520.545878 L131.238292,520.951207 Z M135.626628,542.500914 L136.011075,544.460996 L137.974031,544.077844 L137.588892,542.114234 L135.626628,542.500914 Z M139.601269,564.114453 L139.927434,566.085276 L141.901191,565.762346 L141.573837,563.78434 L139.601269,564.114453 Z M144.70648,585.628861 L142.719684,585.8583 L142.942463,587.838288 L144.930577,587.620568 C144.858232,586.95995 144.783532,586.296081 144.70648,585.628861 Z M144.428989,607.689155 C144.452851,608.355481 144.47365,609.018493 144.491369,609.678246 L146.490648,609.624551 C146.472768,608.958812 146.451782,608.28984 146.427708,607.617579 L144.428989,607.689155 Z M143.999622,629.569498 C143.944629,630.232373 143.885586,630.891631 143.822467,631.547301 L145.813264,631.738946 C145.877229,631.074484 145.937057,630.406463 145.992774,629.734851 L143.999622,629.569498 Z M140.445435,651.089611 C140.278419,651.731241 140.106151,652.368751 139.928599,653.002156 L141.854371,653.541975 C142.035289,652.896561 142.2108,652.247047 142.380939,651.593419 L140.445435,651.089611 Z M132.666878,671.396876 C132.359115,671.983214 132.046745,672.566038 131.729771,673.145406 L133.484344,674.105339 C133.806836,673.515885 134.124641,672.922922 134.437753,672.326393 L132.666878,671.396876 Z M120.767777,689.638798 C120.356801,690.156361 119.941142,690.671111 119.520778,691.18313 L121.066562,692.452206 C121.493807,691.931805 121.916294,691.4086 122.334044,690.882505 L120.767777,689.638798 Z M105.787605,705.528584 C105.298711,705.971996 104.805157,706.41393 104.30685,706.854525 L105.631636,708.352838 C106.136231,707.906684 106.636063,707.459128 107.131228,707.010029 L105.787605,705.528584 Z M89.8676462,720.820636 L88.7024989,719.195081 L87.0778597,720.350092 L88.2305389,721.984513 C88.7819483,721.59563 89.3275166,721.207784 89.8676462,720.820636 Z M70.4439013,731.377465 L68.7541091,732.446145 L69.8214305,734.137543 L71.5147652,733.066621 L70.4439013,731.377465 Z M51.8395676,743.124828 L50.1559303,744.216655 L51.2479263,745.892228 L52.9241503,744.805209 L51.8395676,743.124828 Z M33.7297583,755.784895 C33.196215,756.201274 32.6704268,756.617077 32.152094,757.032621 L33.403095,758.593068 C33.9145589,758.183031 34.4335004,757.772642 34.9602157,757.361593 L33.7297583,755.784895 Z M17.5313865,770.930318 C17.0895781,771.444401 16.6561199,771.961033 16.2309452,772.480406 L17.7785191,773.747298 C18.1935388,773.24033 18.6167418,772.735921 19.0481983,772.233883 L17.5313865,770.930318 Z M5.64085454,789.68746 C5.37221815,790.3074 5.11239648,790.931983 4.86140002,791.561334 L6.71910949,792.302222 C6.96283609,791.6911 7.21512541,791.084624 7.47597056,790.482664 L5.64085454,789.68746 Z M2.06178491,811.4553 L0.0732542688,811.241417 L0.00493216505,811.900803 C-0.0399908058,812.351437 -0.081698174,812.801887 -0.12019883,813.252162 L1.87252993,813.42255 L1.93143982,812.761012 L1.99506783,812.099197 C2.01651672,811.884038 2.03875603,811.669406 2.06178491,811.4553 Z M0.282881587,833.423324 C0.366058694,834.089465 0.456079475,834.755445 0.552915678,835.4213 L2.53209508,835.133465 C2.43719332,834.480911 2.34897627,833.828275 2.26747052,833.17552 L0.282881587,833.423324 Z M5.34543542,855.018327 C5.56215083,855.652454 5.78479401,856.286836 6.01334928,856.921525 L7.89506071,856.24391 C7.67018455,855.619437 7.45114866,854.995335 7.23796721,854.371547 L5.34543542,855.018327 Z M14.2196116,875.339837 C14.5316562,875.931289 14.8485949,876.523574 15.1704405,877.11678 L16.9283714,876.163009 C16.6102084,875.576591 16.2969283,874.991143 15.9885178,874.406579 L14.2196116,875.339837 Z M25.624646,894.261513 C25.9963252,894.81449 26.3722264,895.369204 26.7524323,895.925827 L28.4039331,894.797756 C28.0265246,894.245228 27.6534209,893.694642 27.2845397,893.145828 L25.624646,894.261513 Z M40.151628,910.899829 L38.5668114,912.119812 L39.7936475,913.706903 L41.3735944,912.480621 C40.9613248,911.949451 40.554133,911.422703 40.151628,910.899829 Z M52.3063958,929.364917 L53.569913,930.915451 L55.119936,929.651557 L53.8572618,928.102057 L52.3063958,929.364917 Z M66.1531633,946.440708 L67.3935915,948.004039 L68.9623623,946.763492 L67.7179331,945.195118 L66.1531633,946.440708 Z M79.3612059,963.940862 C79.7457428,964.490771 80.1236181,965.03635 80.4950055,965.577917 L82.1444245,964.446804 C81.7695647,963.900173 81.3882247,963.349592 81.0002293,962.794737 L79.3612059,963.940862 Z M92.4805403,981.710536 L90.6896756,982.600931 L91.1003729,983.436659 L91.5635814,984.389762 L93.3621322,983.514996 L92.8994529,982.562982 C92.7617807,982.279488 92.6221443,981.995346 92.4805403,981.710536 Z M100.389647,1002.35027 L101.275566,1004.14043 L103.067976,1003.25315 L102.182266,1001.46341 L100.389647,1002.35027 Z M110.141392,1022.05854 L111.026952,1023.85544 L112.821163,1022.9718 L111.935136,1021.17396 L110.141392,1022.05854 Z M119.789975,1041.82865 L120.656198,1043.63202 L122.459591,1042.76728 L121.592213,1040.96151 L119.789975,1041.82865 Z M129.142128,1061.71548 L129.971117,1063.53471 L131.79208,1062.70761 L130.961085,1060.88398 L129.142128,1061.71548 Z M137.959726,1081.83547 C138.217077,1082.45433 138.471137,1083.06891 138.721919,1083.67926 L140.57185,1082.91916 L139.806418,1081.06753 L137.959726,1081.83547 Z M145.806684,1102.31447 C146.024682,1102.94909 146.237851,1103.57793 146.446184,1104.20101 L148.342968,1103.56681 C148.132887,1102.9385 147.917962,1102.30448 147.698197,1101.66472 L145.806684,1102.31447 Z M151.681698,1123.36487 C151.760718,1123.77141 151.836325,1124.17407 151.90851,1124.57284 L152.040071,1125.31703 L154.010803,1124.97613 L153.984578,1124.82502 C153.87917,1124.21968 153.765953,1123.60578 153.644956,1122.98327 L151.681698,1123.36487 Z M154.300065,1145.07641 C154.344618,1145.73349 154.387123,1146.3966 154.427578,1147.06576 L156.423933,1146.94507 C156.383184,1146.27106 156.340368,1145.60308 156.295483,1144.94111 L154.300065,1145.07641 Z M155.023386,1166.99621 L155.026229,1168.99125 L157.026228,1168.99281 L157.023372,1166.98889 L155.023386,1166.99621 Z M154.62323,1188.95765 L154.545345,1190.95356 L156.543704,1191.03457 L156.621826,1189.03258 L154.62323,1188.95765 Z M153.463831,1210.90194 L153.328594,1212.89561 L155.323856,1213.0332 L155.459397,1211.03504 L153.463831,1210.90194 Z" id="Curved-Line-Copy"></path>
            </g>
        </g>
    </g>
</svg>