<?xml version="1.0" encoding="UTF-8"?>
<svg width="210px" height="222px" viewBox="0 0 210 222" version="1.1" xmlns="http://www.w3.org/2000/svg" xmlns:xlink="http://www.w3.org/1999/xlink">
    <title>Path 10</title>
    <g id="Page-1" stroke="none" stroke-width="1" fill="none" fill-rule="evenodd">
        <g id="About-us" transform="translate(-314.000000, -1510.000000)" fill="#E6E8E9" fill-rule="nonzero">
            <g id="Body" transform="translate(0.000000, 924.000000)">
                <g id="Awards" transform="translate(230.000000, 482.000000)">
                    <g id="Group-2" transform="translate(84.000000, 101.000000)">
                        <path d="M8.85440967,224.517299 L8.48377527,222.561243 L7.50089394,222.745482 L7.87225699,224.705384 L8.85440967,224.517299 Z M7.41138642,216.642601 L7.07017433,214.666658 L6.08440244,214.834747 L6.42632945,216.81483 L7.41138642,216.642601 Z M6.10541597,208.781614 L5.80131964,206.81959 L4.81278008,206.970552 L5.11755648,208.936964 L6.10541597,208.781614 Z M4.93482683,200.871081 L4.66668368,198.900839 L3.67549924,199.033328 L3.94428393,201.008285 L4.93482683,200.871081 Z M3.91587651,192.950569 L3.68710337,190.978433 L2.69347356,191.091126 L2.92283338,193.06832 L3.91587651,192.950569 Z M3.05728061,185.003364 C2.9925084,184.337462 2.92975686,183.6734 2.86902597,183.011178 L1.87320478,183.102502 L2.06197803,185.100177 L3.05728061,185.003364 Z M1.37537141,177.11616 L2.37261002,177.041896 L2.22937476,175.03817 L1.23171143,175.106492 C1.27745355,175.774437 1.32534022,176.444327 1.37537141,177.11616 Z M0.875706504,169.102903 L1.87446128,169.053014 L1.78165731,167.069058 L0.782605751,167.112601 C0.811433882,167.774036 0.842467477,168.43747 0.875706504,169.102903 Z M1.57972724,161.076904 C1.5639166,160.407728 1.55045755,159.740694 1.53935005,159.075802 L0.539489565,159.092505 C0.550635647,159.759707 0.564141218,160.429047 0.580006238,161.100525 L1.57972724,161.076904 Z M1.50309502,153.10235 C1.50627073,152.437722 1.51189031,151.77532 1.51995373,151.115145 L0.52002831,151.102932 C0.511934576,151.765589 0.506293965,152.430469 0.503106431,153.097572 L1.50309502,153.10235 Z M1.66248765,145.121102 C1.68634181,144.450813 1.71282233,143.782916 1.74192915,143.117413 L0.742884229,143.073718 C0.713658702,143.741935 0.687070745,144.412542 0.663120301,145.085537 L1.66248765,145.121102 Z M2.07924896,137.128054 C2.1252875,136.462598 2.17407021,135.799644 2.22559701,135.13919 L1.22862654,135.061409 C1.17687155,135.724788 1.12787391,136.390663 1.08163358,137.059036 L2.07924896,137.128054 Z M2.77357928,129.166472 C2.84373079,128.503428 2.91678005,127.843025 2.992727,127.185264 L1.99932691,127.070563 C1.92301444,127.73149 1.84961542,128.395055 1.77912977,129.061258 L2.77357928,129.166472 Z M3.76631224,121.255511 C3.86286807,120.593394 3.96250872,119.93409 4.0652341,119.277598 L3.07725619,119.123003 C2.97399346,119.782929 2.8738343,120.445664 2.77677864,121.111208 L3.76631224,121.255511 Z M5.08678791,113.372705 C5.21147889,112.716324 5.33942026,112.062907 5.47061192,111.412454 L4.49035166,111.214742 C4.35841451,111.868891 4.22974985,112.526002 4.10435757,113.186075 L5.08678791,113.372705 Z M6.74738957,105.603587 C6.90148771,104.957243 7.05897898,104.313993 7.2198633,103.673838 L6.25002296,103.430097 C6.08814776,104.074195 5.9296913,104.721387 5.77465348,105.371672 L6.74738957,105.603587 Z M8.79081997,97.8884892 C8.97812799,97.2478471 9.16904405,96.6104958 9.36356804,95.976435 L8.40754709,95.6831366 C8.2117278,96.3214195 8.01954649,96.9629947 7.83100304,97.6078622 L8.79081997,97.8884892 Z M11.2348156,90.2930777 C11.4566591,89.663627 11.6822931,89.037633 11.9117175,88.4150957 L10.9734079,88.0692994 C10.7423396,88.6962973 10.515096,89.3267569 10.2916769,89.9606781 L11.2348156,90.2930777 Z M14.1057642,82.8414572 C14.3630236,82.2284072 14.6242194,81.6189463 14.8893516,81.0130743 L13.9732293,80.6121753 C13.7060663,81.2226882 13.4428776,81.8367992 13.1836632,82.4545082 L14.1057642,82.8414572 Z M17.4139008,75.5922506 C17.7085917,74.9967594 18.0073744,74.4049974 18.3102489,73.8169645 L17.4212427,73.3590695 C17.1159094,73.951876 16.8147093,74.5484259 16.5176422,75.1487189 L17.4139008,75.5922506 Z M21.181323,68.5653935 C21.515294,67.9892012 21.853515,67.4168801 22.1959859,66.8484297 L21.3394255,66.3323828 C20.9940395,66.9056719 20.652947,67.4828521 20.3161482,68.0639232 L21.181323,68.5653935 Z M25.4203158,61.7963855 C25.7931609,61.2444449 26.1703652,60.6964718 26.5519287,60.1524658 L25.733234,59.5782368 C25.3483078,60.127037 24.967785,60.679831 24.5916657,61.2366185 L25.4203158,61.7963855 Z M30.1172332,55.3462564 C30.5277983,54.8226325 30.9427829,54.3030273 31.362187,53.7874405 L30.5864338,53.1564041 C30.1632575,53.6766281 29.7445435,54.200903 29.330292,54.7292284 L30.1172332,55.3462564 Z M35.2593813,49.2520959 C35.7058335,48.7600768 36.156717,48.2720833 36.6120319,47.7881151 L35.8836932,47.1028977 C35.4242626,47.5912407 34.9693027,48.0836462 34.5188138,48.5801139 L35.2593813,49.2520959 Z M40.8396884,43.5313777 C41.3195733,43.0736029 41.8038531,42.6198169 42.2925282,42.1700196 L41.6152954,41.4342508 C41.1222495,41.8880712 40.6336333,42.3459204 40.1494471,42.8077985 L40.8396884,43.5313777 Z M46.8046887,38.2333316 C47.314915,37.8114073 47.8294569,37.3933964 48.3483147,36.9792986 L47.724528,36.197704 C47.2011471,36.6154116 46.6821105,37.037074 46.1674186,37.462691 L46.8046887,38.2333316 Z M53.0400453,33.4259236 C53.5791756,33.0385344 54.1225426,32.6549841 54.6701465,32.2752727 L54.100327,31.4535028 C53.5481315,31.836398 53.0001955,32.2231735 52.4565192,32.6138292 L53.0400453,33.4259236 Z M59.662503,28.9929591 C60.2244362,28.6428133 60.7904488,28.2963619 61.3605412,27.9536049 L60.8452701,27.0965777 C60.2706366,27.442065 59.7000993,27.7912859 59.1336586,28.1442403 L59.662503,28.9929591 Z M66.5504348,24.996106 C67.1329665,24.6816769 67.7194185,24.3707967 68.3097911,24.0634654 L67.8480392,23.1764563 C67.2532433,23.4860902 66.6623792,23.7993093 66.0754473,24.1161135 L66.5504348,24.996106 Z M73.6818847,21.4152728 C74.2824343,21.1351859 74.886739,20.8584977 75.494799,20.5852081 L75.0848553,19.6730973 C74.4725442,19.9482974 73.8639955,20.2269289 73.2592094,20.5089916 L73.6818847,21.4152728 Z M81.0164055,18.2383677 C81.6320082,17.9912179 82.2511926,17.7473096 82.8739588,17.5066428 L82.513491,16.5738712 C81.8866865,16.8160986 81.2634675,17.0615962 80.6438343,17.3103641 L81.0164055,18.2383677 Z M88.490695,15.4573333 C89.1180685,15.2415314 89.7488421,15.0288066 90.3830158,14.8191591 L90.0691387,13.8696955 C89.4311654,14.080599 88.7965937,14.2946047 88.1654234,14.5117126 L88.490695,15.4573333 Z M96.0967669,13.0404503 C96.7321913,12.8545159 97.3708229,12.6714843 98.0126616,12.4913555 L97.7424559,11.5285528 C97.0970735,11.7096762 96.4548977,11.8937236 95.8159286,12.0806952 L96.0967669,13.0404503 Z M103.809308,10.9649557 C104.452322,10.8064509 105.098373,10.6506946 105.74746,10.4976869 L105.518021,9.52436384 C104.865636,9.67814901 104.216286,9.83470084 103.569969,9.99401941 L103.809308,10.9649557 Z M111.603629,9.20866997 C112.252794,9.07564385 112.904834,8.94522078 113.559749,8.81740085 L113.368192,7.83591919 C112.710216,7.9643366 112.055113,8.09537248 111.402882,8.22902692 L111.603629,9.20866997 Z M119.455682,7.7499947 C120.110124,7.64052642 120.767292,7.53352765 121.427188,7.42899848 L121.270736,6.4413129 C120.608002,6.54629179 119.947991,6.65375326 119.290704,6.76369739 L119.455682,7.7499947 Z M127.365778,6.56475746 C128.023,6.47737036 128.682799,6.39231737 129.345176,6.30959854 L129.221256,5.31730625 C128.556255,5.40035292 127.893827,5.48574472 127.233973,5.5734817 L127.365778,6.56475746 Z M135.313389,5.63452103 C135.973514,5.56744711 136.636084,5.50258817 137.301098,5.43994428 L137.207314,4.44435172 C136.539868,4.50722464 135.874864,4.57232188 135.212301,4.63964349 L135.313389,5.63452103 Z M143.25335,4.9431539 C143.915177,4.8948712 144.579322,4.84869028 145.245787,4.80461119 L145.179792,3.8067912 C144.511075,3.85101925 143.844675,3.89735699 143.18059,3.94580445 L143.25335,4.9431539 Z M151.241729,4.46765637 C151.904774,4.4368535 152.570022,4.40804768 153.237474,4.38123896 L153.197341,3.38204463 C152.527801,3.40893722 151.860461,3.43783358 151.195322,3.46873374 L151.241729,4.46765637 Z M159.237209,4.19534502 C159.901126,4.18075351 160.56714,4.16806288 161.235252,4.15727317 L161.219104,3.15740355 L159.215236,3.19558645 L159.237209,4.19534502 Z M167.223358,4.11142676 C167.887468,4.11187958 168.553576,4.11414302 169.22168,4.11821688 L169.227777,3.11823547 C168.557871,3.11415062 167.889958,3.11188104 167.22404,3.11142676 L167.223358,4.11142676 Z M175.239922,4.20269889 C175.903539,4.21719162 176.569058,4.23340869 177.236478,4.25135013 L177.26335,3.25171125 L175.261755,3.20293727 L175.239922,4.20269889 Z M183.218117,4.45620109 C183.881271,4.48371488 184.54624,4.51287507 185.213025,4.54368165 L185.259177,3.54474724 C184.590829,3.5138684 183.924293,3.48463954 183.259571,3.45706066 L183.218117,4.45620109 Z M191.200957,4.86166747 L193.194554,4.98549307 L193.258736,3.98755485 L191.260747,3.86345651 L191.200957,4.86166747 Z M199.206988,5.41130008 L201.198536,5.56924514 L201.279645,4.57253987 L199.283987,4.41426891 L199.206988,5.41130008 Z M207.166382,6.09116598 L209.155587,6.28094319 L209.252481,5.28564849 L207.259422,5.09550362 L207.166382,6.09116598 Z" id="Path-10"></path>
                    </g>
                </g>
            </g>
        </g>
    </g>
</svg>