<svg xmlns="http://www.w3.org/2000/svg" width="1036" height="104" viewBox="0 0 1036 104">
    <g fill="none" fill-rule="evenodd" opacity=".5">
        <g fill="#405E70" fill-rule="nonzero">
            <g>
                <g>
                    <g>
                        <g>
                            <path d="M.174 48.572c.38.555.76 1.107 1.143 1.654l1.64-1.144c-.378-.542-.755-1.089-1.131-1.639L.174 48.572zM13.67 66.09c.444.508.89 1.012 1.336 1.512l1.49-1.333c-.44-.494-.881-.992-1.32-1.495L13.67 66.09zM29.395 81.7c.512.436 1.026.867 1.542 1.294l1.274-1.543c-.509-.42-1.015-.844-1.52-1.274L29.395 81.7zM47.43 94.543c.58.34 1.164.672 1.748 1l.978-1.745c-.575-.322-1.148-.65-1.719-.982l-1.007 1.727zm20.199 9.26c.635.218 1.272.43 1.91.636l.614-1.904c-.627-.202-1.253-.41-1.876-.624l-.648 1.892zm21.538 5.067c.665.09 1.333.173 2.002.252l.233-1.986c-.658-.078-1.314-.16-1.968-.248l-.267 1.982zm22.16.971c.67-.028 1.341-.06 2.014-.098l-.112-1.997c-.664.037-1.326.07-1.986.097l.084 1.998zm22.013-2.589c.655-.124 1.313-.252 1.972-.385l-.396-1.96c-.651.13-1.3.258-1.949.38l.373 1.965zm21.488-5.436c.637-.2 1.276-.403 1.916-.61l-.616-1.903c-.635.205-1.267.407-1.899.605l.599 1.908zm20.614-7.557c.615-.257 1.232-.517 1.85-.78l-.785-1.84c-.613.261-1.225.52-1.836.774l.77 1.846zm20.032-9.282c.595-.301 1.19-.606 1.787-.913l-.916-1.778c-.593.305-1.185.608-1.776.908l.905 1.783zm19.372-10.598l1.728-1.018-1.019-1.72-1.72 1.012 1.011 1.726zm18.746-11.629l1.675-1.1-1.102-1.67-1.668 1.097 1.095 1.673zm18.508-11.823c.573-.347 1.146-.692 1.718-1.034l-1.027-1.716-1.726 1.039 1.035 1.71zm18.154-12.602l.936 1.767 1.758-.924-.925-1.773c-.59.308-1.179.618-1.769.93zm20.638-7.857c.608-.272 1.216-.541 1.823-.808l-.804-1.831-1.835.813.816 1.826zm20.336-8.187c.627-.224 1.254-.445 1.88-.664l-.659-1.888c-.63.22-1.262.443-1.894.669l.673 1.883zm20.95-6.472c.642-.167 1.283-.33 1.924-.491l-.485-1.94c-.647.162-1.294.327-1.942.495l.503 1.936zm21.416-4.434c.658-.1 1.316-.198 1.973-.292l-.284-1.98c-.663.095-1.327.193-1.992.295l.303 1.977zm21.778-2.098c.665-.025 1.33-.047 1.993-.065l-.055-1.999c-.67.018-1.342.04-2.014.066l.076 1.998zm21.875.508c.66.057 1.32.118 1.979.182l.194-1.99c-.666-.066-1.334-.127-2.002-.184l-.171 1.992zm21.649 3.27c.646.14 1.292.285 1.937.434l.449-1.95c-.653-.15-1.307-.296-1.96-.438l-.426 1.954zm21.05 6.016c.624.221 1.247.447 1.87.676l.69-1.877c-.629-.232-1.259-.46-1.89-.684l-.67 1.885zm20.055 8.53c.593.294 1.185.592 1.776.894l.909-1.782c-.598-.305-1.196-.606-1.796-.904l-.89 1.791zm19.038 10.816c.557.358 1.114.718 1.67 1.083l1.096-1.674c-.562-.367-1.124-.732-1.687-1.093l-1.08 1.684zm17.845 12.725c.52.41 1.04.822 1.56 1.238l1.25-1.562c-.524-.419-1.049-.835-1.574-1.248l-1.236 1.572zm16.722 14.225c.511.436 1.023.87 1.536 1.3l1.285-1.533c-.508-.426-1.015-.855-1.521-1.288l-1.3 1.52zM531.15 78.81c.553.378 1.108.752 1.663 1.122l1.11-1.665c-.55-.366-1.1-.736-1.647-1.11l-1.126 1.653zm19.017 11.356c.596.308 1.192.611 1.79.91l.896-1.787c-.59-.296-1.18-.596-1.77-.9l-.916 1.777zm20.256 8.834c.633.228 1.268.452 1.903.671l.654-1.89c-.628-.217-1.255-.438-1.88-.663l-.677 1.882zm21.314 6.073c.655.14 1.31.275 1.968.407l.393-1.96c-.649-.13-1.297-.265-1.944-.403l-.417 1.956zm21.851 3.17c.668.053 1.337.102 2.007.148l.135-1.996c-.662-.045-1.323-.093-1.984-.146l-.158 1.994zm22.122.386c.67-.028 1.34-.06 2.011-.096l-.105-1.997c-.665.035-1.328.067-1.991.095l.085 1.998zm22.027-2.16c.662-.1 1.324-.204 1.987-.311l-.319-1.975c-.657.106-1.313.21-1.968.309l.3 1.977zm21.676-4.377c.648-.162 1.296-.327 1.946-.495l-.501-1.936c-.644.167-1.288.33-1.93.491l.485 1.94zm21.216-6.26c.633-.214 1.266-.431 1.9-.65l-.654-1.89c-.63.217-1.26.433-1.888.646l.642 1.894zm20.537-7.776c.616-.257 1.232-.516 1.849-.778l-.782-1.841c-.613.26-1.226.518-1.837.773l.77 1.846zm20.088-9.118c.6-.293 1.199-.589 1.799-.886l-.888-1.792-1.79.881.88 1.797zm19.554-10.214l1.75-.976-.977-1.745-1.743.972.97 1.749zm19.051-11.082l1.71-1.01-1.017-1.723-1.712 1.012 1.02 1.721zm19.006-11.025l1.738-.984-.983-1.742-1.742.986.987 1.74zm19.255-10.61l1.755-.934-.936-1.767-1.76.936.94 1.764zm19.536-9.991l1.8-.872-.87-1.802-1.806.876.876 1.798zm19.985-9.11c.618-.26 1.233-.517 1.844-.77l-.765-1.848c-.615.254-1.233.512-1.855.774l.776 1.843zm20.494-7.702c.635-.206 1.267-.408 1.895-.605l-.6-1.908c-.633.199-1.271.403-1.912.61l.617 1.903zm21.178-5.445c.655-.119 1.306-.231 1.954-.338l-.325-1.973c-.658.108-1.319.222-1.984.342l.355 1.969zM921.012 2c.66.019 1.32.046 1.975.08l.104-1.997c-.67-.035-1.344-.063-2.02-.083l-.06 2zm21.44 3.42c.63.187 1.26.381 1.89.584l.612-1.905c-.644-.207-1.289-.406-1.934-.597l-.568 1.918zm20.021 8.51c.576.317 1.155.639 1.735.968l.987-1.74c-.59-.333-1.176-.66-1.76-.981l-.962 1.754zm18.407 11.781c.534.384 1.072.774 1.615 1.17l1.179-1.616c-.547-.399-1.09-.792-1.627-1.178l-1.167 1.624zm17.412 13.354l1.556 1.252 1.256-1.556-1.56-1.256-1.252 1.56zM1015.312 53l1.542 1.275 1.274-1.542-1.542-1.275-1.274 1.542zm17.001 13.988c.521.425 1.038.846 1.553 1.263l1.26-1.552-1.55-1.261-1.263 1.55z" transform="translate(-281 -1420) translate(0 924) translate(232 381) translate(49 109) translate(0 .04)"/>
                        </g>
                    </g>
                </g>
            </g>
        </g>
    </g>
</svg>
