<?xml version="1.0" encoding="UTF-8"?>
<svg width="1868px" height="578px" viewBox="0 0 1868 578" version="1.1" xmlns="http://www.w3.org/2000/svg" xmlns:xlink="http://www.w3.org/1999/xlink">
    <title>Group 6</title>
    <g id="Page-1" stroke="none" stroke-width="1" fill="none" fill-rule="evenodd">
        <g id="Homepage-Copy" transform="translate(134.000000, -1282.000000)" stroke="#FFFFFF">
            <g id="Body" transform="translate(0.000000, 927.000000)">
                <g id="Background" transform="translate(0.000000, 486.000000)">
                    <g id="Group-6" transform="translate(-133.000000, -130.000000)">
                        <ellipse id="Oval" cx="1594" cy="288" rx="272" ry="288"></ellipse>
                        <ellipse id="Oval-Copy-3" cx="1511" cy="288" rx="272" ry="288"></ellipse>
                        <ellipse id="Oval-Copy-4" cx="1429" cy="288" rx="272" ry="288"></ellipse>
                        <ellipse id="Oval-Copy-5" cx="1346" cy="288" rx="272" ry="288"></ellipse>
                        <ellipse id="Oval-Copy-6" cx="1264" cy="288" rx="272" ry="288"></ellipse>
                        <ellipse id="Oval-Copy-7" cx="1181" cy="288" rx="272" ry="288"></ellipse>
                        <ellipse id="Oval-Copy-8" cx="1098" cy="288" rx="272" ry="288"></ellipse>
                        <ellipse id="Oval-Copy-9" cx="1016" cy="288" rx="272" ry="288"></ellipse>
                        <ellipse id="Oval-Copy-10" cx="933" cy="288" rx="272" ry="288"></ellipse>
                        <ellipse id="Oval-Copy-11" cx="850" cy="288" rx="272" ry="288"></ellipse>
                        <ellipse id="Oval-Copy-12" cx="768" cy="288" rx="272" ry="288"></ellipse>
                        <ellipse id="Oval-Copy-13" cx="685" cy="288" rx="272" ry="288"></ellipse>
                        <ellipse id="Oval-Copy-14" cx="602" cy="288" rx="272" ry="288"></ellipse>
                        <ellipse id="Oval-Copy-15" cx="520" cy="288" rx="272" ry="288"></ellipse>
                        <ellipse id="Oval-Copy-16" cx="437" cy="288" rx="272" ry="288"></ellipse>
                        <ellipse id="Oval-Copy-17" cx="355" cy="288" rx="272" ry="288"></ellipse>
                        <ellipse id="Oval-Copy-18" cx="272" cy="288" rx="272" ry="288"></ellipse>
                    </g>
                </g>
            </g>
        </g>
    </g>
</svg>