<svg xmlns="http://www.w3.org/2000/svg" width="15" height="13" viewBox="0 0 15 13">
    <g fill="none" fill-rule="evenodd" opacity=".6">
        <g fill="#405E70" fill-rule="nonzero">
            <g>
                <g>
                    <g>
                        <g>
                            <g>
                                <g>
                                    <path d="M13.223 7.969v5.017h-2.834V8.305c0-1.176-.41-1.979-1.436-1.979-.783 0-1.25.54-1.454 1.064-.075.187-.094.448-.094.71v4.886H4.57s.038-7.929 0-8.75h2.835v1.24l-.02.028h.02v-.028C7.78 4.881 8.454 4.03 9.959 4.03c1.866 0 3.264 1.25 3.264 3.939zM1.604.018C.634.018 0 .67 0 1.529c0 .84.616 1.513 1.567 1.513h.019c.988 0 1.603-.673 1.603-1.513C3.17.671 2.574.018 1.604.018zM.168 12.986h2.834v-8.75H.168v8.75z" transform="translate(-1202 -4943) translate(0 4663) translate(1010 71) translate(0 203) translate(100 6) translate(92) translate(.75)"/>
                                </g>
                            </g>
                        </g>
                    </g>
                </g>
            </g>
        </g>
    </g>
</svg>
