<?xml version="1.0" encoding="UTF-8"?>
<svg width="93px" height="365px" viewBox="0 0 93 365" version="1.1" xmlns="http://www.w3.org/2000/svg" xmlns:xlink="http://www.w3.org/1999/xlink">
    <title>Path 10</title>
    <g id="Page-1" stroke="none" stroke-width="1" fill="none" fill-rule="evenodd">
        <g id="About-us" transform="translate(-702.000000, -5736.000000)" fill="#EBEEF0" fill-rule="nonzero">
            <g id="Body" transform="translate(0.000000, 924.000000)">
                <g id="Our-Story" transform="translate(0.000000, 3305.000000)">
                    <path d="M702.027237,1871.49926 C702.699003,1871.46261 703.366182,1871.42304 704.028773,1871.38054 L703.964764,1870.38259 C703.305361,1870.42488 702.64136,1870.46427 701.972763,1870.50074 L702.027237,1871.49926 Z M710.025486,1870.90412 C710.696682,1870.84007 711.362743,1870.77274 712.023671,1870.70213 L711.917445,1869.70779 C711.26027,1869.778 710.597949,1869.84495 709.930483,1869.90865 L710.025486,1870.90412 Z M717.995037,1869.95495 C718.661761,1869.85872 719.322725,1869.7588 719.977928,1869.6552 L719.821753,1868.66747 C719.171,1868.77037 718.514473,1868.86961 717.852173,1868.96521 L717.995037,1869.95495 Z M725.908698,1868.58494 C726.569665,1868.45004 727.224078,1868.31095 727.871937,1868.16767 L727.655991,1867.19126 C727.01347,1867.33336 726.364382,1867.47132 725.708726,1867.60514 L725.908698,1868.58494 Z M733.73008,1866.70813 C734.380601,1866.52662 735.023601,1866.3403 735.659079,1866.14916 L735.371045,1865.19154 C734.742005,1865.38074 734.105433,1865.5652 733.46133,1865.74492 L733.73008,1866.70813 Z M741.371326,1864.22545 C742.005193,1863.98735 742.630343,1863.74366 743.246777,1863.49439 L742.871882,1862.56732 C742.263199,1862.81346 741.645802,1863.05413 741.01969,1863.28931 L741.371326,1864.22545 Z M748.758253,1860.9997 C749.363183,1860.69387 749.958018,1860.38156 750.542756,1860.06277 L750.064081,1859.18477 C749.488475,1859.49859 748.902807,1859.80609 748.307077,1860.10726 L748.758253,1860.9997 Z M755.721785,1856.88885 C756.280396,1856.50415 756.827422,1856.11201 757.36286,1855.71243 L756.764776,1854.911 C756.239536,1855.30297 755.702811,1855.68772 755.1546,1856.06526 L755.721785,1856.88885 Z M762.015693,1851.77465 C762.50392,1851.305 762.979261,1850.8271 763.441711,1850.34095 L762.717167,1849.65172 C762.264935,1850.12713 761.800025,1850.59454 761.322431,1851.05396 L762.015693,1851.77465 Z M767.283419,1845.7042 C767.677012,1845.15542 768.057059,1844.59802 768.423558,1844.032 L767.584159,1843.48849 C767.226281,1844.04119 766.855166,1844.58549 766.470811,1845.12139 L767.283419,1845.7042 Z M771.359162,1838.69885 C771.640798,1838.08858 771.909188,1837.46995 772.164331,1836.84295 L771.238084,1836.46603 C770.988699,1837.07888 770.726401,1837.68347 770.451189,1838.27982 L771.359162,1838.69885 Z M774.012454,1831.01883 C774.13745,1830.36386 774.23407,1829.68949 774.30276,1828.99551 L773.307623,1828.89701 C773.241844,1829.56158 773.149474,1830.20629 773.030182,1830.83138 L774.012454,1831.01883 Z M774.25203,1822.89026 C774.186624,1822.23432 774.103337,1821.56448 774.00235,1820.88041 L773.013072,1821.02645 C773.111796,1821.69519 773.193144,1822.34944 773.256965,1822.98948 L774.25203,1822.89026 Z M772.773325,1814.91494 C772.609763,1814.27959 772.434228,1813.63339 772.246739,1812.97591 L771.285076,1813.25015 C771.470236,1813.89946 771.643515,1814.53736 771.8049,1815.16425 L772.773325,1814.91494 Z M770.419398,1807.25955 C770.202404,1806.64044 769.976522,1806.01173 769.741632,1805.37283 L768.803053,1805.71789 C769.036218,1806.35211 769.26039,1806.97606 769.475686,1807.59032 L770.419398,1807.25955 Z M766.626991,1800.12807 L767.552706,1799.74985 L767.047191,1798.52348 C766.961284,1798.31684 766.874542,1798.10906 766.786951,1797.9001 L765.864697,1798.28669 L766.37786,1799.52103 C766.461723,1799.72448 766.544763,1799.92681 766.626991,1800.12807 Z M764.392531,1792.36183 L763.57564,1790.53419 L762.663691,1790.94449 L763.478518,1792.76751 L764.392531,1792.36183 Z M761.087499,1785.08893 L760.245182,1783.2738 L759.338524,1783.69567 L760.179935,1785.50884 L761.087499,1785.08893 Z M757.709228,1777.84959 L756.860738,1776.03885 L755.955153,1776.46301 L756.803742,1778.27397 L757.709228,1777.84959 Z M754.321013,1770.59389 L753.481293,1768.77658 L752.572987,1769.19488 L753.413728,1771.01441 L754.321013,1770.59389 Z M750.086386,1763.72532 L750.999079,1763.31668 L750.18794,1761.49389 L749.273351,1761.89828 C749.538775,1762.49858 749.809578,1763.10709 750.086386,1763.72532 Z M747.808115,1755.98738 C747.546473,1755.36616 747.29034,1754.75201 747.039482,1754.14423 L746.115123,1754.52576 C746.366906,1755.13578 746.62396,1755.75214 746.886521,1756.37553 L747.808115,1755.98738 Z M744.821695,1748.5762 C744.58154,1747.94867 744.347272,1747.3272 744.1188,1746.71139 L743.181248,1747.05924 C743.410917,1747.67827 743.646388,1748.30293 743.88775,1748.93362 L744.821695,1748.5762 Z M742.133272,1741.05931 C741.922792,1740.42178 741.719115,1739.79009 741.522225,1739.16398 L740.56828,1739.46396 C740.766604,1740.09463 740.971734,1740.73083 741.183686,1741.37281 L742.133272,1741.05931 Z M739.86281,1733.40342 C739.693838,1732.75311 739.533094,1732.1089 739.380611,1731.47062 L738.407981,1731.70298 C738.562004,1732.3477 738.724338,1732.99828 738.894948,1733.6549 L739.86281,1733.40342 Z M738.193029,1725.64747 C738.082869,1724.98585 737.982874,1724.33098 737.893116,1723.68275 L736.902567,1723.8199 C736.993588,1724.47726 737.094961,1725.14116 737.206608,1725.81171 L738.193029,1725.64747 Z M737.351605,1717.73569 C737.32493,1717.06785 737.310962,1716.40777 737.309818,1715.75536 L736.309818,1715.75712 C736.310986,1716.42235 736.325223,1717.09515 736.352402,1717.7756 L737.351605,1717.73569 Z M737.678608,1709.85982 C737.765966,1709.20064 737.868983,1708.55041 737.98781,1707.90907 L737.004545,1707.72689 C736.882572,1708.38521 736.776872,1709.05238 736.687275,1709.72844 L737.678608,1709.85982 Z M739.553531,1702.19927 C739.783352,1701.58189 740.031222,1700.97424 740.297327,1700.37628 L739.383712,1699.9697 C739.109126,1700.58672 738.853404,1701.21362 738.616358,1701.85041 L739.553531,1702.19927 Z M743.212348,1695.22336 C743.587003,1694.68846 743.980145,1694.16302 744.391959,1693.64703 L743.610366,1693.02324 C743.185553,1693.55552 742.779913,1694.09766 742.393281,1694.64966 L743.212348,1695.22336 Z M748.505907,1689.34742 C748.99428,1688.91746 749.499399,1688.49578 750.021412,1688.08237 L749.400574,1687.29843 C748.865015,1687.72257 748.346572,1688.15537 747.84512,1688.59684 L748.505907,1689.34742 Z M754.948943,1684.72093 C755.510066,1684.39028 756.085318,1684.06647 756.674799,1683.74954 L756.201249,1682.86877 C755.600329,1683.19186 755.013697,1683.52207 754.441262,1683.85939 L754.948943,1684.72093 Z M762.094503,1681.12989 C762.724701,1680.77494 763.294482,1680.3542 763.804263,1679.86844 L763.114422,1679.14448 C762.664902,1679.57281 762.162046,1679.94414 761.603758,1680.25858 L762.094503,1681.12989 Z M766.685096,1674.28471 C766.82101,1673.64503 766.923883,1672.96886 766.994416,1672.25595 L765.999275,1672.15749 C765.932284,1672.8346 765.834952,1673.47434 765.706931,1674.07687 L766.685096,1674.28471 Z M766.924109,1666.17805 C766.860893,1665.52987 766.78172,1664.86155 766.68674,1664.17274 L765.696113,1664.30933 C765.789316,1664.98526 765.86693,1665.64041 765.928832,1666.27512 L766.924109,1666.17805 Z M765.582535,1658.17327 C765.440339,1657.53577 765.288289,1656.88415 765.126373,1656.21793 L764.154659,1656.45409 C764.315106,1657.11426 764.465722,1657.75974 764.60652,1658.39098 L765.582535,1658.17327 Z M762.61991,1650.70746 L763.580844,1650.43068 L763.209183,1649.15759 C763.145644,1648.94273 763.081303,1648.72652 763.016156,1648.50893 L762.058172,1648.79575 L762.43745,1650.07829 C762.499065,1650.28934 762.559883,1650.49906 762.61991,1650.70746 Z M761.222958,1642.78693 L760.809212,1641.52538 C760.738919,1641.31249 760.66795,1641.09827 760.596294,1640.88266 L759.64733,1641.19805 L760.272111,1643.0966 L761.222958,1642.78693 Z M758.657435,1635.18825 L757.995729,1633.29441 L757.052219,1633.62575 L757.712846,1635.5165 L758.657435,1635.18825 Z M755.982895,1627.63028 L755.307262,1625.75108 L754.366447,1626.09 L755.041632,1627.96795 L755.982895,1627.63028 Z M753.259529,1620.08623 L752.577311,1618.20162 L751.63698,1618.54188 L752.319264,1620.42668 L753.259529,1620.08623 Z M750.536933,1612.5441 L749.863487,1610.66325 L748.921752,1610.9996 L749.595712,1612.88189 L750.536933,1612.5441 Z M747.856578,1604.99023 L747.199414,1603.10339 L746.254584,1603.43095 L746.91267,1605.32044 L747.856578,1604.99023 Z M745.281092,1597.48129 L744.65139,1595.58999 L743.701938,1595.9039 L744.332944,1597.79912 L745.281092,1597.48129 Z M742.807188,1589.87763 C742.605614,1589.23664 742.407754,1588.60131 742.213527,1587.97127 L741.257905,1588.26587 C741.452692,1588.89772 741.651112,1589.53485 741.853246,1590.17762 L742.807188,1589.87763 Z M740.512404,1582.26347 C740.327341,1581.61891 740.146341,1580.97967 739.969372,1580.34552 L739.006175,1580.61432 C739.183816,1581.25088 739.365494,1581.89251 739.551237,1582.53943 L740.512404,1582.26347 Z M738.430158,1574.55293 C738.266195,1573.90108 738.106914,1573.25468 737.952315,1572.61355 L736.980179,1572.84797 C737.13555,1573.4923 737.295613,1574.14188 737.460367,1574.79687 L738.430158,1574.55293 Z M736.643101,1566.76725 C736.507773,1566.10918 736.377974,1565.45696 736.253726,1564.81051 L735.271699,1564.99925 C735.396767,1565.64997 735.527408,1566.30641 735.663598,1566.96868 L736.643101,1566.76725 Z M735.252099,1558.9139 C735.155181,1558.25012 735.064938,1557.59294 734.981416,1556.94231 L733.989555,1557.06963 C734.073818,1557.72604 734.164845,1558.38893 734.262591,1559.05838 L735.252099,1558.9139 Z M734.393522,1550.98501 C734.348878,1550.31595 734.312513,1549.65468 734.284492,1549.00116 L733.28541,1549.04399 C733.313774,1549.7055 733.350573,1550.37469 733.39574,1551.05159 L734.393522,1550.98501 Z M734.271061,1543.03356 C734.299209,1542.36388 734.337849,1541.7037 734.387071,1541.05302 L733.38992,1540.97759 C733.339848,1541.6395 733.300556,1542.31082 733.271944,1542.99157 L734.271061,1543.03356 Z M735.177103,1535.15132 C735.306992,1534.49712 735.450213,1533.85466 735.606884,1533.22397 L734.63638,1532.98289 C734.47586,1533.62907 734.329195,1534.28698 734.196249,1534.95658 L735.177103,1535.15132 Z M737.508622,1527.57569 C737.77412,1526.96904 738.056078,1526.37653 738.354651,1525.7982 L737.466079,1525.33946 C737.157652,1525.93688 736.866519,1526.54867 736.592513,1527.17476 L737.508622,1527.57569 Z M741.605826,1520.84061 C742.021253,1520.33495 742.454883,1519.84447 742.906898,1519.36922 L742.182295,1518.68005 C741.713582,1519.17286 741.263918,1519.68148 740.833148,1520.20581 L741.605826,1520.84061 Z M747.44921,1515.52287 C747.985812,1515.1572 748.539597,1514.80548 749.110719,1514.46779 L748.601756,1513.607 C748.01228,1513.95554 747.440424,1514.31874 746.88607,1514.69651 L747.44921,1515.52287 Z M754.461597,1511.90794 C755.068209,1511.6763 755.68927,1511.45627 756.324881,1511.24792 L756.013387,1510.29767 C755.362661,1510.51098 754.726514,1510.73635 754.10486,1510.97373 L754.461597,1511.90794 Z M761.990326,1509.77713 C762.629163,1509.65007 763.279706,1509.5324 763.942019,1509.42416 L763.78073,1508.43725 C763.107192,1508.54733 762.445387,1508.66704 761.795253,1508.79635 L761.990326,1509.77713 Z M769.847898,1508.7328 C770.499686,1508.68405 771.160983,1508.64293 771.831831,1508.60947 L771.782006,1507.61071 C771.102949,1507.64459 770.433402,1507.68622 769.77332,1507.73558 L769.847898,1508.7328 Z M777.734365,1508.50953 C778.389829,1508.51849 779.053174,1508.53377 779.724431,1508.55539 L779.756619,1507.5559 C779.079222,1507.53409 778.409703,1507.51867 777.748031,1507.50962 L777.734365,1508.50953 Z M785.718602,1508.90015 C786.373603,1508.95339 787.035261,1509.01197 787.703599,1509.0759 L787.798819,1508.08044 C787.125771,1508.01606 786.459379,1507.95706 785.799618,1507.90344 L785.718602,1508.90015 Z M793.629591,1509.75974 L793.932658,1509.80066 L794.067342,1508.80978 L793.762514,1508.76862 L793.629591,1509.75974 Z" id="Path-10" transform="translate(748.020052, 1689.504441) rotate(-180.000000) translate(-748.020052, -1689.504441) "></path>
                </g>
            </g>
        </g>
    </g>
</svg>