<svg width="76px" height="67px" viewBox="0 0 76 67" version="1.1" xmlns="http://www.w3.org/2000/svg" xmlns:xlink="http://www.w3.org/1999/xlink">
    <g id="Page-1" stroke="none" stroke-width="1" fill="none" fill-rule="evenodd">
        <g id="About-us" transform="translate(-824.000000, -6155.000000)" fill="#EBEEF0" fill-rule="nonzero">
            <g id="Body" transform="translate(0.000000, 924.000000)">
                <g id="Our-Story" transform="translate(0.000000, 3305.000000)">
                    <g id="feedback" transform="translate(230.000000, 1774.000000)">
                        <path d="M609.043299,187.920746 L608.886598,188.076923 C613.430928,188.076923 617.348454,189.482517 620.639175,192.449883 C623.929897,195.417249 625.653608,199.009324 625.653608,203.226107 C625.653608,207.44289 624.086598,211.034965 620.952577,214.158508 C617.818557,217.282051 614.057732,218.843823 609.513402,218.843823 C605.439175,218.843823 601.835052,217.125874 598.701031,213.689977 C595.56701,210.254079 594,205.100233 594,198.384615 C594,190.263403 596.350515,181.829837 601.051546,173.083916 C605.752577,164.337995 613.117526,157.310023 623.146392,152 L624.713402,155.592075 C614.841237,164.337995 608.729897,175.270396 606.22268,188.2331 C606.849485,188.076923 607.789691,187.920746 609.043299,187.920746 Z M653.23299,188.076923 L652.919588,188.2331 C657.620619,188.2331 661.694845,189.638695 664.985567,192.606061 C668.276289,195.573427 670,199.165501 670,203.382284 C670,207.599068 668.43299,211.191142 665.298969,214.314685 C662.164948,217.438228 658.404124,219 654.173196,219 C649.942268,219 646.181443,217.282051 643.047423,213.846154 C639.913402,210.410256 638.346392,205.25641 638.346392,198.540793 C638.346392,190.41958 640.696907,181.986014 645.397938,173.240093 C650.098969,164.494172 657.463918,157.4662 667.649485,152.156177 L669.529897,155.748252 C659.657732,164.494172 653.389691,175.426573 650.569072,188.389277 C651.509278,188.2331 652.449485,188.076923 653.23299,188.076923 Z" id="“"></path>
                    </g>
                </g>
            </g>
        </g>
    </g>
</svg>