<?xml version="1.0" encoding="UTF-8"?>
<svg width="124px" height="124px" viewBox="0 0 124 124" version="1.1" xmlns="http://www.w3.org/2000/svg" xmlns:xlink="http://www.w3.org/1999/xlink">
    <title>path-1</title>
    <g id="backup" stroke="none" stroke-width="1" fill="none" fill-rule="evenodd" fill-opacity="0.6">
        <path d="M64.0162968,0.53243327 L63.9840978,1.53191475 C63.3241038,1.51065257 62.6626836,1.5 62,1.5 L62,0.5 C62.6734193,0.5 63.345574,0.510825456 64.0162968,0.53243327 Z M72.042854,1.31601369 L71.8807662,2.30279004 C71.22816,2.19559305 70.5731585,2.09902326 69.9159496,2.01314609 L70.0455177,1.02157556 C70.7135954,1.10887295 71.3794382,1.20704113 72.042854,1.31601369 Z M79.8978373,3.1450668 L79.6072344,4.10191054 C78.9747392,3.90981547 78.3387889,3.72808442 77.6995908,3.55680988 L77.9584126,2.59088478 C78.6082586,2.76501246 79.254804,2.94977119 79.8978373,3.1450668 Z M87.4654442,6.00361314 L87.0509262,6.91365424 C86.4495561,6.63973393 85.8436102,6.37568921 85.2333079,6.1216429 L85.6176057,5.19843374 C86.238058,5.45670509 86.8540785,5.72513991 87.4654442,6.00361314 Z M94.5474957,9.80882623 L94.0175398,10.6568515 C93.4570104,10.3065602 92.890772,9.96546846 92.3190473,9.63373004 L92.8209217,8.76878953 C93.4021023,9.10601466 93.9777024,9.45274569 94.5474957,9.80882623 Z M101.106716,14.5329071 L100.470422,15.3043531 C99.960132,14.8834623 99.4430152,14.4709301 98.9192873,14.0669393 L99.5300644,13.2751367 C100.06241,13.6857751 100.588034,14.1050937 101.106716,14.5329071 Z M107.002293,20.0825458 L106.2707,20.7642871 C105.819633,20.2802362 105.360694,19.8035605 104.894082,19.3344652 L105.603064,18.6292379 C106.077339,19.1060381 106.543817,19.5905436 107.002293,20.0825458 Z M112.125265,26.3587095 L111.310773,26.9388844 C110.927101,26.4002567 110.534634,25.8679173 110.133549,25.3420853 L110.928652,24.7356104 C111.336341,25.2701007 111.735272,25.8112078 112.125265,26.3587095 Z M116.326159,33.1485155 L115.443383,33.6183087 C115.132867,33.0348266 114.8128,32.4565138 114.483326,31.883593 L115.350204,31.3850716 C115.685132,31.9674769 116.0105,32.555367 116.326159,33.1485155 Z M119.64218,40.5136071 L118.705208,40.863013 C118.47419,40.2435125 118.233025,39.6280499 117.981825,39.016842 L118.906756,38.6367058 C119.162136,39.2580853 119.407316,39.8837926 119.64218,40.5136071 Z M121.960258,48.2644001 L120.985308,48.4868225 C120.838104,47.8415781 120.680359,47.1992766 120.512158,46.5601198 L121.479231,46.3056237 C121.650233,46.955423 121.810604,47.6084173 121.960258,48.2644001 Z M123.234469,56.2474025 L122.238745,56.3397789 C122.177579,55.6804788 122.105729,55.0230998 122.023252,54.3678226 L123.015424,54.2429424 C123.099262,54.9090314 123.172296,55.5772464 123.234469,56.2474025 Z M123.456307,64.3397379 L122.457006,64.3023542 C122.48166,63.643328 122.495728,62.9828429 122.499166,62.3210624 L123.499153,62.3262576 C123.495659,62.9987713 123.481362,63.6699873 123.456307,64.3397379 Z M122.630727,72.3618299 L121.644819,72.1945401 C121.755267,71.5436253 121.85513,70.8902826 121.944341,70.2346997 L122.935209,70.3695363 C122.844522,71.0359668 122.743005,71.7001287 122.630727,72.3618299 Z M120.759089,80.2104022 L119.803816,79.9146766 C119.999349,79.2830537 120.184527,78.6479295 120.359257,78.0095118 L121.323784,78.2734959 C121.146143,78.9225493 120.957879,79.5682554 120.759089,80.2104022 Z M117.862622,87.7570845 L116.954767,87.3378002 C117.231695,86.7381829 117.49878,86.1339496 117.7559,85.5253194 L118.677072,85.9144746 C118.415677,86.5332251 118.144152,87.1475028 117.862622,87.7570845 Z M114.014883,94.8279105 L113.169723,94.2933978 C113.52313,93.7345973 113.867364,93.1700382 114.202271,92.5999433 L115.064498,93.1064647 C114.724054,93.6859862 114.37413,94.2598769 114.014883,94.8279105 Z M109.258468,101.358296 L108.490397,100.717931 C108.913521,100.210425 109.328342,99.6960617 109.734677,99.1750577 L110.523215,99.7900441 C110.110195,100.31962 109.688551,100.842443 109.258468,101.358296 Z M103.682507,107.220097 L103.004563,106.484983 C103.490366,106.036961 103.968853,105.581046 104.439818,105.117436 L105.141338,105.830086 C104.662637,106.301311 104.176291,106.764715 103.682507,107.220097 Z M97.3728574,112.315397 L96.797035,111.497822 C97.337658,111.117059 97.8720388,110.727468 98.399958,110.329224 L99.0021862,111.127548 C98.4655728,111.532351 97.922389,111.928359 97.3728574,112.315397 Z M90.5638427,116.478258 L90.0987395,115.593002 C90.6839704,115.285528 91.2640759,114.968472 91.8388333,114.641977 L92.3327607,115.51148 C91.7484862,115.843381 91.1587714,116.16569 90.5638427,116.478258 Z M83.1778944,119.756276 L82.8335418,118.817436 C83.4545538,118.589658 84.0715701,118.351703 84.684374,118.103685 L85.0595387,119.030644 C84.4365351,119.28279 83.8092468,119.524706 83.1778944,119.756276 Z M75.4227071,122.030777 L75.2054048,121.054673 C75.8513772,120.910865 76.4944495,120.756508 77.1344205,120.591685 L77.3838297,121.560083 C76.7332041,121.72765 76.079428,121.884577 75.4227071,122.030777 Z M67.4266253,123.26384 L67.3395218,122.267641 C67.9991042,122.20997 68.6568048,122.141614 69.3124441,122.062632 L69.4320453,123.055454 C68.7655952,123.135739 68.0970606,123.20522 67.4266253,123.26384 Z M59.3341839,123.443254 L59.3767998,122.444162 C60.0368622,122.472317 60.6984255,122.489844 61.3613242,122.496699 L61.3509837,123.496646 C60.6773218,123.489679 60.0049986,123.471867 59.3341839,123.443254 Z M51.3143807,122.574893 L51.4869533,121.589896 C52.1379165,121.703946 52.7913542,121.807395 53.447077,121.900176 L53.3069777,122.890314 C52.6403994,122.795996 51.9761359,122.690833 51.3143807,122.574893 Z M43.4778175,120.661655 L43.778653,119.707979 C44.4093666,119.906937 45.0436278,120.09555 45.681228,120.273726 L45.4120921,121.236828 C44.7638692,121.055684 44.1190401,120.863928 43.4778175,120.661655 Z M35.9430865,117.723165 L36.3672699,116.817589 C36.9662964,117.09818 37.5699996,117.368924 38.1781591,117.629695 L37.7840723,118.548768 C37.1658023,118.283662 36.5520655,118.008418 35.9430865,117.723165 Z M28.8975156,113.840214 L29.4364893,112.997891 C29.9936013,113.354368 30.5565212,113.701698 31.1250261,114.039723 L30.6139559,114.899262 C30.0360529,114.555649 29.4638306,114.20258 28.8975156,113.840214 Z M22.3930481,109.050047 L23.0374348,108.285348 C23.5430277,108.711394 24.0555284,109.129164 24.574722,109.538473 L23.9556183,110.323783 C23.4278841,109.90774 22.9069547,109.483099 22.3930481,109.050047 Z M16.55779,103.440377 L17.2964937,102.766346 C17.7419393,103.254532 18.1953177,103.735444 18.6564317,104.208875 L17.9400677,104.906602 C17.4713794,104.425394 17.0105535,103.936583 16.55779,103.440377 Z M11.4960329,97.103597 L12.3166659,96.5321413 C12.6944612,97.0746703 13.0811141,97.611005 13.4764524,98.1409257 L12.6749288,98.7388888 C12.2730785,98.2002393 11.8800549,97.6550677 11.4960329,97.103597 Z M7.37132321,90.2756902 L8.25903277,89.8152863 C8.56339271,90.4021259 8.87736229,90.983886 9.20079876,91.5603441 L8.32869289,92.0496613 C7.99989951,91.4636557 7.68072786,90.8722566 7.37132321,90.2756902 Z M4.13379594,82.8757287 L5.07443715,82.5363262 C5.29885397,83.1582888 5.53345823,83.7763034 5.77813841,84.3901541 L4.84921357,84.7604225 C4.60046033,84.1363533 4.36194991,83.5080488 4.13379594,82.8757287 Z M1.89897631,75.1031358 L2.87622988,74.8910617 C3.01659032,75.537853 3.16751181,76.1817868 3.32891229,76.8226625 L2.35919191,77.0668804 C2.19510478,76.4153368 2.04167174,75.760687 1.89897631,75.1031358 Z M0.70846287,67.0998773 L1.70510982,67.0180553 C1.75928995,67.678005 1.82415649,68.3361117 1.89965306,68.9921966 L0.906208729,69.1065135 C0.829468126,68.4396176 0.763533819,67.7706779 0.70846287,67.0998773 Z M0.57119552,59.0147061 L1.57005498,59.0624531 C1.53855031,59.7215255 1.51764935,60.3821311 1.50739733,61.0441041 L0.507517235,61.0286189 C0.517935889,60.3558861 0.539177142,59.6845252 0.57119552,59.0147061 Z M1.48164076,50.9966267 L2.46571482,51.1743857 C2.34844202,51.8236083 2.2417265,52.4753378 2.14563624,53.1293851 L1.15625683,52.984029 C1.25393862,52.3191489 1.36242294,51.656617 1.48164076,50.9966267 Z M3.43736188,43.1668262 L4.38941514,43.4727585 C4.18704593,44.1025262 3.99500858,44.7358875 3.81339931,45.3726332 L2.85174858,45.0983562 C3.03638367,44.4510016 3.23162078,43.8070871 3.43736188,43.1668262 Z M6.41594198,35.6481592 L7.31924577,36.0771607 C7.03565872,36.6742805 6.7618813,37.2761167 6.49804021,37.8824488 L5.58109097,37.483445 C5.84931753,36.8670346 6.12764421,36.2551979 6.41594198,35.6481592 Z M10.3358,28.6240304 L11.1752636,29.1674464 C10.8157462,29.7228252 10.4653498,30.2840606 10.1242322,30.8509296 L9.26740431,30.3353271 C9.61415966,29.7590893 9.97034506,29.1885815 10.3358,28.6240304 Z M15.1631556,22.1414032 L15.9244072,22.7898598 C15.495482,23.293394 15.0748017,23.8038858 14.6625521,24.3211206 L13.8805501,23.6978446 C14.2995802,23.1721026 14.7271782,22.6532162 15.1631556,22.1414032 Z M20.8027925,16.3370902 L21.4728922,17.0793613 C20.9823841,17.5221771 20.499107,17.9729641 20.0232677,18.4315262 L19.3293541,17.7114679 C19.8130098,17.2453733 20.3042259,16.787181 20.8027925,16.3370902 Z M27.1619728,11.3121321 L27.7291207,12.1357481 C27.184728,12.5106208 26.6464827,12.8943813 26.1146046,13.2868584 L25.5208498,12.4822124 C26.0614905,12.0832693 26.6086059,11.6931845 27.1619728,11.3121321 Z M34.0146111,7.22174044 L34.4702795,8.11189004 C33.8814235,8.41332599 33.2976078,8.72441188 32.7190556,9.04500592 L32.2343648,8.17032038 C32.8225016,7.84441523 33.4159926,7.52817381 34.0146111,7.22174044 Z M41.4340994,4.02294657 L41.768426,4.96540387 C41.1450388,5.18654372 40.5255568,5.4178972 39.9101956,5.65935391 L39.5449264,4.72845199 C40.1705325,4.48297535 40.8003301,4.24776939 41.4340994,4.02294657 Z M49.2161222,1.83058612 L49.4229746,2.80895827 C48.7756835,2.94581189 48.1312049,3.09322803 47.4897384,3.25112586 L47.2507216,2.28011041 C47.9028639,2.11958471 48.5580654,1.96971586 49.2161222,1.83058612 Z M57.2269692,0.682500819 L57.3035123,1.67956709 C56.643332,1.73024803 55.9849556,1.79161342 55.3285607,1.86360784 L55.219533,0.86956913 C55.8867365,0.796389203 56.5559425,0.734014407 57.2269692,0.682500819 Z" id="path-1" fill="#405E70" fill-rule="nonzero"></path>
    </g>
</svg>