<svg xmlns="http://www.w3.org/2000/svg" width="91" height="85" viewBox="0 0 91 85">
    <g fill="none" fill-rule="evenodd">
        <g fill="#9EB92B" fill-rule="nonzero">
            <g>
                <g>
                    <g>
                        <g>
                            <path d="M59.105 17.444C53.978 6.943 43.252 0 31.221 0 14.006 0 .001 13.968.001 31.136c0 4.666.999 9.138 2.97 13.308L.053 59.08c-.371 1.863 1.267 3.51 3.125 3.142l14.773-2.93c1.989.947 4.046 1.666 6.16 2.162-4.739-22.514 12.275-43.648 34.994-44.01z" transform="translate(-755 -1511) translate(0 924) translate(231 383) translate(390 87) translate(134 117)"/>
                            <path d="M87.858 66.631c.508-1.078.95-2.177 1.328-3.294h-.097c6.623-19.556-7.305-40.11-27.866-41.11v-.004c-17.693-.82-32.391 13.43-32.391 31.101 0 17.154 13.858 31.11 30.904 31.135 4.623-.006 9.055-1.007 13.187-2.98 16.13 3.209 14.873 2.98 15.243 2.98 1.677 0 2.929-1.545 2.602-3.191l-2.91-14.637z" transform="translate(-755 -1511) translate(0 924) translate(231 383) translate(390 87) translate(134 117)"/>
                        </g>
                    </g>
                </g>
            </g>
        </g>
    </g>
</svg>
