<svg xmlns="http://www.w3.org/2000/svg" xmlns:xlink="http://www.w3.org/1999/xlink" width="15" height="12" viewBox="0 0 15 12">
    <defs>
        <path id="qel6ufaqta" d="M12.211.1c.411-.276.962.08.843.546-.186.729-.56 1.4-1.086 1.955.008.084.012.168.013.253 0 6.144-6.233 9.3-11.7 6.41-.501-.265-.287-.992.286-.97.919.035 1.828-.14 2.654-.501-1.2-.704-1.968-1.636-2.345-2.738C.486 3.917.543 2.72.868 1.585c.098-.343.198-.602.27-.754.171-.368.699-.417.942-.087.91 1.233 2.35 2.002 3.91 2.114C5.983 1.674 6.748.609 7.91.187c1.053-.382 2.23-.166 3.054.536.442-.155.861-.364 1.247-.623z"/>
    </defs>
    <g fill="none" fill-rule="evenodd">
        <g>
            <g>
                <g>
                    <g>
                        <g>
                            <g>
                                <g transform="translate(-1170 -4944) translate(0 4663) translate(1010 71) translate(0 203) translate(100 6) translate(60 1) translate(.227 .182)">
                                    <mask id="qltkqbk44b" fill="#fff">
                                        <use xlink:href="#qel6ufaqta"/>
                                    </mask>
                                    <path fill="#405E70" fill-rule="nonzero" d="M-0.545 -2.072H13.613V11.396H-0.545z" mask="url(#qltkqbk44b)" opacity=".6"/>
                                </g>
                            </g>
                        </g>
                    </g>
                </g>
            </g>
        </g>
    </g>
</svg>
